<?xml version="1.0" encoding="utf-8" standalone="no"?>
<!DOCTYPE svg PUBLIC "-//W3C//DTD SVG 1.1//EN"
  "http://www.w3.org/Graphics/SVG/1.1/DTD/svg11.dtd">
<!-- Created with matplotlib (https://matplotlib.org/) -->
<svg height="345.6pt" version="1.1" viewBox="0 0 460.8 345.6" width="460.8pt" xmlns="http://www.w3.org/2000/svg" xmlns:xlink="http://www.w3.org/1999/xlink">
 <defs>
  <style type="text/css">
*{stroke-linecap:butt;stroke-linejoin:round;}
  </style>
 </defs>
 <g id="figure_1">
  <g id="patch_1">
   <path d="M 0 345.6 
L 460.8 345.6 
L 460.8 0 
L 0 0 
z
" style="fill:#ffffff;"/>
  </g>
  <g id="axes_1">
   <g id="patch_2">
    <path d="M 57.6 307.584 
L 414.72 307.584 
L 414.72 41.472 
L 57.6 41.472 
z
" style="fill:#ffffff;"/>
   </g>
   <g id="matplotlib.axis_1">
    <g id="xtick_1">
     <g id="line2d_1">
      <defs>
       <path d="M 0 0 
L 0 3.5 
" id="ma7d3451cef" style="stroke:#000000;stroke-width:0.8;"/>
      </defs>
      <g>
       <use style="stroke:#000000;stroke-width:0.8;" x="57.6" xlink:href="#ma7d3451cef" y="307.584"/>
      </g>
     </g>
     <g id="text_1">
      <!-- 0.0 -->
      <defs>
       <path d="M 31.78125 66.40625 
Q 24.171875 66.40625 20.328125 58.90625 
Q 16.5 51.421875 16.5 36.375 
Q 16.5 21.390625 20.328125 13.890625 
Q 24.171875 6.390625 31.78125 6.390625 
Q 39.453125 6.390625 43.28125 13.890625 
Q 47.125 21.390625 47.125 36.375 
Q 47.125 51.421875 43.28125 58.90625 
Q 39.453125 66.40625 31.78125 66.40625 
z
M 31.78125 74.21875 
Q 44.046875 74.21875 50.515625 64.515625 
Q 56.984375 54.828125 56.984375 36.375 
Q 56.984375 17.96875 50.515625 8.265625 
Q 44.046875 -1.421875 31.78125 -1.421875 
Q 19.53125 -1.421875 13.0625 8.265625 
Q 6.59375 17.96875 6.59375 36.375 
Q 6.59375 54.828125 13.0625 64.515625 
Q 19.53125 74.21875 31.78125 74.21875 
z
" id="DejaVuSans-48"/>
       <path d="M 10.6875 12.40625 
L 21 12.40625 
L 21 0 
L 10.6875 0 
z
" id="DejaVuSans-46"/>
      </defs>
      <g transform="translate(49.648438 322.182437)scale(0.1 -0.1)">
       <use xlink:href="#DejaVuSans-48"/>
       <use x="63.623047" xlink:href="#DejaVuSans-46"/>
       <use x="95.410156" xlink:href="#DejaVuSans-48"/>
      </g>
     </g>
    </g>
    <g id="xtick_2">
     <g id="line2d_2">
      <g>
       <use style="stroke:#000000;stroke-width:0.8;" x="129.024" xlink:href="#ma7d3451cef" y="307.584"/>
      </g>
     </g>
     <g id="text_2">
      <!-- 0.2 -->
      <defs>
       <path d="M 19.1875 8.296875 
L 53.609375 8.296875 
L 53.609375 0 
L 7.328125 0 
L 7.328125 8.296875 
Q 12.9375 14.109375 22.625 23.890625 
Q 32.328125 33.6875 34.8125 36.53125 
Q 39.546875 41.84375 41.421875 45.53125 
Q 43.3125 49.21875 43.3125 52.78125 
Q 43.3125 58.59375 39.234375 62.25 
Q 35.15625 65.921875 28.609375 65.921875 
Q 23.96875 65.921875 18.8125 64.3125 
Q 13.671875 62.703125 7.8125 59.421875 
L 7.8125 69.390625 
Q 13.765625 71.78125 18.9375 73 
Q 24.125 74.21875 28.421875 74.21875 
Q 39.75 74.21875 46.484375 68.546875 
Q 53.21875 62.890625 53.21875 53.421875 
Q 53.21875 48.921875 51.53125 44.890625 
Q 49.859375 40.875 45.40625 35.40625 
Q 44.1875 33.984375 37.640625 27.21875 
Q 31.109375 20.453125 19.1875 8.296875 
z
" id="DejaVuSans-50"/>
      </defs>
      <g transform="translate(121.072438 322.182437)scale(0.1 -0.1)">
       <use xlink:href="#DejaVuSans-48"/>
       <use x="63.623047" xlink:href="#DejaVuSans-46"/>
       <use x="95.410156" xlink:href="#DejaVuSans-50"/>
      </g>
     </g>
    </g>
    <g id="xtick_3">
     <g id="line2d_3">
      <g>
       <use style="stroke:#000000;stroke-width:0.8;" x="200.448" xlink:href="#ma7d3451cef" y="307.584"/>
      </g>
     </g>
     <g id="text_3">
      <!-- 0.4 -->
      <defs>
       <path d="M 37.796875 64.3125 
L 12.890625 25.390625 
L 37.796875 25.390625 
z
M 35.203125 72.90625 
L 47.609375 72.90625 
L 47.609375 25.390625 
L 58.015625 25.390625 
L 58.015625 17.1875 
L 47.609375 17.1875 
L 47.609375 0 
L 37.796875 0 
L 37.796875 17.1875 
L 4.890625 17.1875 
L 4.890625 26.703125 
z
" id="DejaVuSans-52"/>
      </defs>
      <g transform="translate(192.496438 322.182437)scale(0.1 -0.1)">
       <use xlink:href="#DejaVuSans-48"/>
       <use x="63.623047" xlink:href="#DejaVuSans-46"/>
       <use x="95.410156" xlink:href="#DejaVuSans-52"/>
      </g>
     </g>
    </g>
    <g id="xtick_4">
     <g id="line2d_4">
      <g>
       <use style="stroke:#000000;stroke-width:0.8;" x="271.872" xlink:href="#ma7d3451cef" y="307.584"/>
      </g>
     </g>
     <g id="text_4">
      <!-- 0.6 -->
      <defs>
       <path d="M 33.015625 40.375 
Q 26.375 40.375 22.484375 35.828125 
Q 18.609375 31.296875 18.609375 23.390625 
Q 18.609375 15.53125 22.484375 10.953125 
Q 26.375 6.390625 33.015625 6.390625 
Q 39.65625 6.390625 43.53125 10.953125 
Q 47.40625 15.53125 47.40625 23.390625 
Q 47.40625 31.296875 43.53125 35.828125 
Q 39.65625 40.375 33.015625 40.375 
z
M 52.59375 71.296875 
L 52.59375 62.3125 
Q 48.875 64.0625 45.09375 64.984375 
Q 41.3125 65.921875 37.59375 65.921875 
Q 27.828125 65.921875 22.671875 59.328125 
Q 17.53125 52.734375 16.796875 39.40625 
Q 19.671875 43.65625 24.015625 45.921875 
Q 28.375 48.1875 33.59375 48.1875 
Q 44.578125 48.1875 50.953125 41.515625 
Q 57.328125 34.859375 57.328125 23.390625 
Q 57.328125 12.15625 50.6875 5.359375 
Q 44.046875 -1.421875 33.015625 -1.421875 
Q 20.359375 -1.421875 13.671875 8.265625 
Q 6.984375 17.96875 6.984375 36.375 
Q 6.984375 53.65625 15.1875 63.9375 
Q 23.390625 74.21875 37.203125 74.21875 
Q 40.921875 74.21875 44.703125 73.484375 
Q 48.484375 72.75 52.59375 71.296875 
z
" id="DejaVuSans-54"/>
      </defs>
      <g transform="translate(263.920438 322.182437)scale(0.1 -0.1)">
       <use xlink:href="#DejaVuSans-48"/>
       <use x="63.623047" xlink:href="#DejaVuSans-46"/>
       <use x="95.410156" xlink:href="#DejaVuSans-54"/>
      </g>
     </g>
    </g>
    <g id="xtick_5">
     <g id="line2d_5">
      <g>
       <use style="stroke:#000000;stroke-width:0.8;" x="343.296" xlink:href="#ma7d3451cef" y="307.584"/>
      </g>
     </g>
     <g id="text_5">
      <!-- 0.8 -->
      <defs>
       <path d="M 31.78125 34.625 
Q 24.75 34.625 20.71875 30.859375 
Q 16.703125 27.09375 16.703125 20.515625 
Q 16.703125 13.921875 20.71875 10.15625 
Q 24.75 6.390625 31.78125 6.390625 
Q 38.8125 6.390625 42.859375 10.171875 
Q 46.921875 13.96875 46.921875 20.515625 
Q 46.921875 27.09375 42.890625 30.859375 
Q 38.875 34.625 31.78125 34.625 
z
M 21.921875 38.8125 
Q 15.578125 40.375 12.03125 44.71875 
Q 8.5 49.078125 8.5 55.328125 
Q 8.5 64.0625 14.71875 69.140625 
Q 20.953125 74.21875 31.78125 74.21875 
Q 42.671875 74.21875 48.875 69.140625 
Q 55.078125 64.0625 55.078125 55.328125 
Q 55.078125 49.078125 51.53125 44.71875 
Q 48 40.375 41.703125 38.8125 
Q 48.828125 37.15625 52.796875 32.3125 
Q 56.78125 27.484375 56.78125 20.515625 
Q 56.78125 9.90625 50.3125 4.234375 
Q 43.84375 -1.421875 31.78125 -1.421875 
Q 19.734375 -1.421875 13.25 4.234375 
Q 6.78125 9.90625 6.78125 20.515625 
Q 6.78125 27.484375 10.78125 32.3125 
Q 14.796875 37.15625 21.921875 38.8125 
z
M 18.3125 54.390625 
Q 18.3125 48.734375 21.84375 45.5625 
Q 25.390625 42.390625 31.78125 42.390625 
Q 38.140625 42.390625 41.71875 45.5625 
Q 45.3125 48.734375 45.3125 54.390625 
Q 45.3125 60.0625 41.71875 63.234375 
Q 38.140625 66.40625 31.78125 66.40625 
Q 25.390625 66.40625 21.84375 63.234375 
Q 18.3125 60.0625 18.3125 54.390625 
z
" id="DejaVuSans-56"/>
      </defs>
      <g transform="translate(335.344438 322.182437)scale(0.1 -0.1)">
       <use xlink:href="#DejaVuSans-48"/>
       <use x="63.623047" xlink:href="#DejaVuSans-46"/>
       <use x="95.410156" xlink:href="#DejaVuSans-56"/>
      </g>
     </g>
    </g>
    <g id="xtick_6">
     <g id="line2d_6">
      <g>
       <use style="stroke:#000000;stroke-width:0.8;" x="414.72" xlink:href="#ma7d3451cef" y="307.584"/>
      </g>
     </g>
     <g id="text_6">
      <!-- 1.0 -->
      <defs>
       <path d="M 12.40625 8.296875 
L 28.515625 8.296875 
L 28.515625 63.921875 
L 10.984375 60.40625 
L 10.984375 69.390625 
L 28.421875 72.90625 
L 38.28125 72.90625 
L 38.28125 8.296875 
L 54.390625 8.296875 
L 54.390625 0 
L 12.40625 0 
z
" id="DejaVuSans-49"/>
      </defs>
      <g transform="translate(406.768438 322.182437)scale(0.1 -0.1)">
       <use xlink:href="#DejaVuSans-49"/>
       <use x="63.623047" xlink:href="#DejaVuSans-46"/>
       <use x="95.410156" xlink:href="#DejaVuSans-48"/>
      </g>
     </g>
    </g>
    <g id="text_7">
     <!-- Recall -->
     <defs>
      <path d="M 44.390625 34.1875 
Q 47.5625 33.109375 50.5625 29.59375 
Q 53.5625 26.078125 56.59375 19.921875 
L 66.609375 0 
L 56 0 
L 46.6875 18.703125 
Q 43.0625 26.03125 39.671875 28.421875 
Q 36.28125 30.8125 30.421875 30.8125 
L 19.671875 30.8125 
L 19.671875 0 
L 9.8125 0 
L 9.8125 72.90625 
L 32.078125 72.90625 
Q 44.578125 72.90625 50.734375 67.671875 
Q 56.890625 62.453125 56.890625 51.90625 
Q 56.890625 45.015625 53.6875 40.46875 
Q 50.484375 35.9375 44.390625 34.1875 
z
M 19.671875 64.796875 
L 19.671875 38.921875 
L 32.078125 38.921875 
Q 39.203125 38.921875 42.84375 42.21875 
Q 46.484375 45.515625 46.484375 51.90625 
Q 46.484375 58.296875 42.84375 61.546875 
Q 39.203125 64.796875 32.078125 64.796875 
z
" id="DejaVuSans-82"/>
      <path d="M 56.203125 29.59375 
L 56.203125 25.203125 
L 14.890625 25.203125 
Q 15.484375 15.921875 20.484375 11.0625 
Q 25.484375 6.203125 34.421875 6.203125 
Q 39.59375 6.203125 44.453125 7.46875 
Q 49.3125 8.734375 54.109375 11.28125 
L 54.109375 2.78125 
Q 49.265625 0.734375 44.1875 -0.34375 
Q 39.109375 -1.421875 33.890625 -1.421875 
Q 20.796875 -1.421875 13.15625 6.1875 
Q 5.515625 13.8125 5.515625 26.8125 
Q 5.515625 40.234375 12.765625 48.109375 
Q 20.015625 56 32.328125 56 
Q 43.359375 56 49.78125 48.890625 
Q 56.203125 41.796875 56.203125 29.59375 
z
M 47.21875 32.234375 
Q 47.125 39.59375 43.09375 43.984375 
Q 39.0625 48.390625 32.421875 48.390625 
Q 24.90625 48.390625 20.390625 44.140625 
Q 15.875 39.890625 15.1875 32.171875 
z
" id="DejaVuSans-101"/>
      <path d="M 48.78125 52.59375 
L 48.78125 44.1875 
Q 44.96875 46.296875 41.140625 47.34375 
Q 37.3125 48.390625 33.40625 48.390625 
Q 24.65625 48.390625 19.8125 42.84375 
Q 14.984375 37.3125 14.984375 27.296875 
Q 14.984375 17.28125 19.8125 11.734375 
Q 24.65625 6.203125 33.40625 6.203125 
Q 37.3125 6.203125 41.140625 7.25 
Q 44.96875 8.296875 48.78125 10.40625 
L 48.78125 2.09375 
Q 45.015625 0.34375 40.984375 -0.53125 
Q 36.96875 -1.421875 32.421875 -1.421875 
Q 20.0625 -1.421875 12.78125 6.34375 
Q 5.515625 14.109375 5.515625 27.296875 
Q 5.515625 40.671875 12.859375 48.328125 
Q 20.21875 56 33.015625 56 
Q 37.15625 56 41.109375 55.140625 
Q 45.0625 54.296875 48.78125 52.59375 
z
" id="DejaVuSans-99"/>
      <path d="M 34.28125 27.484375 
Q 23.390625 27.484375 19.1875 25 
Q 14.984375 22.515625 14.984375 16.5 
Q 14.984375 11.71875 18.140625 8.90625 
Q 21.296875 6.109375 26.703125 6.109375 
Q 34.1875 6.109375 38.703125 11.40625 
Q 43.21875 16.703125 43.21875 25.484375 
L 43.21875 27.484375 
z
M 52.203125 31.203125 
L 52.203125 0 
L 43.21875 0 
L 43.21875 8.296875 
Q 40.140625 3.328125 35.546875 0.953125 
Q 30.953125 -1.421875 24.3125 -1.421875 
Q 15.921875 -1.421875 10.953125 3.296875 
Q 6 8.015625 6 15.921875 
Q 6 25.140625 12.171875 29.828125 
Q 18.359375 34.515625 30.609375 34.515625 
L 43.21875 34.515625 
L 43.21875 35.40625 
Q 43.21875 41.609375 39.140625 45 
Q 35.0625 48.390625 27.6875 48.390625 
Q 23 48.390625 18.546875 47.265625 
Q 14.109375 46.140625 10.015625 43.890625 
L 10.015625 52.203125 
Q 14.9375 54.109375 19.578125 55.046875 
Q 24.21875 56 28.609375 56 
Q 40.484375 56 46.34375 49.84375 
Q 52.203125 43.703125 52.203125 31.203125 
z
" id="DejaVuSans-97"/>
      <path d="M 9.421875 75.984375 
L 18.40625 75.984375 
L 18.40625 0 
L 9.421875 0 
z
" id="DejaVuSans-108"/>
     </defs>
     <g transform="translate(221.020938 335.860562)scale(0.1 -0.1)">
      <use xlink:href="#DejaVuSans-82"/>
      <use x="69.419922" xlink:href="#DejaVuSans-101"/>
      <use x="130.943359" xlink:href="#DejaVuSans-99"/>
      <use x="185.923828" xlink:href="#DejaVuSans-97"/>
      <use x="247.203125" xlink:href="#DejaVuSans-108"/>
      <use x="274.986328" xlink:href="#DejaVuSans-108"/>
     </g>
    </g>
   </g>
   <g id="matplotlib.axis_2">
    <g id="ytick_1">
     <g id="line2d_7">
      <defs>
       <path d="M 0 0 
L -3.5 0 
" id="mf3bbf6e07d" style="stroke:#000000;stroke-width:0.8;"/>
      </defs>
      <g>
       <use style="stroke:#000000;stroke-width:0.8;" x="57.6" xlink:href="#mf3bbf6e07d" y="307.584"/>
      </g>
     </g>
     <g id="text_8">
      <!-- 0.0 -->
      <g transform="translate(34.696875 311.383219)scale(0.1 -0.1)">
       <use xlink:href="#DejaVuSans-48"/>
       <use x="63.623047" xlink:href="#DejaVuSans-46"/>
       <use x="95.410156" xlink:href="#DejaVuSans-48"/>
      </g>
     </g>
    </g>
    <g id="ytick_2">
     <g id="line2d_8">
      <g>
       <use style="stroke:#000000;stroke-width:0.8;" x="57.6" xlink:href="#mf3bbf6e07d" y="254.3616"/>
      </g>
     </g>
     <g id="text_9">
      <!-- 0.2 -->
      <g transform="translate(34.696875 258.160819)scale(0.1 -0.1)">
       <use xlink:href="#DejaVuSans-48"/>
       <use x="63.623047" xlink:href="#DejaVuSans-46"/>
       <use x="95.410156" xlink:href="#DejaVuSans-50"/>
      </g>
     </g>
    </g>
    <g id="ytick_3">
     <g id="line2d_9">
      <g>
       <use style="stroke:#000000;stroke-width:0.8;" x="57.6" xlink:href="#mf3bbf6e07d" y="201.1392"/>
      </g>
     </g>
     <g id="text_10">
      <!-- 0.4 -->
      <g transform="translate(34.696875 204.938419)scale(0.1 -0.1)">
       <use xlink:href="#DejaVuSans-48"/>
       <use x="63.623047" xlink:href="#DejaVuSans-46"/>
       <use x="95.410156" xlink:href="#DejaVuSans-52"/>
      </g>
     </g>
    </g>
    <g id="ytick_4">
     <g id="line2d_10">
      <g>
       <use style="stroke:#000000;stroke-width:0.8;" x="57.6" xlink:href="#mf3bbf6e07d" y="147.9168"/>
      </g>
     </g>
     <g id="text_11">
      <!-- 0.6 -->
      <g transform="translate(34.696875 151.716019)scale(0.1 -0.1)">
       <use xlink:href="#DejaVuSans-48"/>
       <use x="63.623047" xlink:href="#DejaVuSans-46"/>
       <use x="95.410156" xlink:href="#DejaVuSans-54"/>
      </g>
     </g>
    </g>
    <g id="ytick_5">
     <g id="line2d_11">
      <g>
       <use style="stroke:#000000;stroke-width:0.8;" x="57.6" xlink:href="#mf3bbf6e07d" y="94.6944"/>
      </g>
     </g>
     <g id="text_12">
      <!-- 0.8 -->
      <g transform="translate(34.696875 98.493619)scale(0.1 -0.1)">
       <use xlink:href="#DejaVuSans-48"/>
       <use x="63.623047" xlink:href="#DejaVuSans-46"/>
       <use x="95.410156" xlink:href="#DejaVuSans-56"/>
      </g>
     </g>
    </g>
    <g id="ytick_6">
     <g id="line2d_12">
      <g>
       <use style="stroke:#000000;stroke-width:0.8;" x="57.6" xlink:href="#mf3bbf6e07d" y="41.472"/>
      </g>
     </g>
     <g id="text_13">
      <!-- 1.0 -->
      <g transform="translate(34.696875 45.271219)scale(0.1 -0.1)">
       <use xlink:href="#DejaVuSans-49"/>
       <use x="63.623047" xlink:href="#DejaVuSans-46"/>
       <use x="95.410156" xlink:href="#DejaVuSans-48"/>
      </g>
     </g>
    </g>
    <g id="text_14">
     <!-- Precision -->
     <defs>
      <path d="M 19.671875 64.796875 
L 19.671875 37.40625 
L 32.078125 37.40625 
Q 38.96875 37.40625 42.71875 40.96875 
Q 46.484375 44.53125 46.484375 51.125 
Q 46.484375 57.671875 42.71875 61.234375 
Q 38.96875 64.796875 32.078125 64.796875 
z
M 9.8125 72.90625 
L 32.078125 72.90625 
Q 44.34375 72.90625 50.609375 67.359375 
Q 56.890625 61.8125 56.890625 51.125 
Q 56.890625 40.328125 50.609375 34.8125 
Q 44.34375 29.296875 32.078125 29.296875 
L 19.671875 29.296875 
L 19.671875 0 
L 9.8125 0 
z
" id="DejaVuSans-80"/>
      <path d="M 41.109375 46.296875 
Q 39.59375 47.171875 37.8125 47.578125 
Q 36.03125 48 33.890625 48 
Q 26.265625 48 22.1875 43.046875 
Q 18.109375 38.09375 18.109375 28.8125 
L 18.109375 0 
L 9.078125 0 
L 9.078125 54.6875 
L 18.109375 54.6875 
L 18.109375 46.1875 
Q 20.953125 51.171875 25.484375 53.578125 
Q 30.03125 56 36.53125 56 
Q 37.453125 56 38.578125 55.875 
Q 39.703125 55.765625 41.0625 55.515625 
z
" id="DejaVuSans-114"/>
      <path d="M 9.421875 54.6875 
L 18.40625 54.6875 
L 18.40625 0 
L 9.421875 0 
z
M 9.421875 75.984375 
L 18.40625 75.984375 
L 18.40625 64.59375 
L 9.421875 64.59375 
z
" id="DejaVuSans-105"/>
      <path d="M 44.28125 53.078125 
L 44.28125 44.578125 
Q 40.484375 46.53125 36.375 47.5 
Q 32.28125 48.484375 27.875 48.484375 
Q 21.1875 48.484375 17.84375 46.4375 
Q 14.5 44.390625 14.5 40.28125 
Q 14.5 37.15625 16.890625 35.375 
Q 19.28125 33.59375 26.515625 31.984375 
L 29.59375 31.296875 
Q 39.15625 29.25 43.1875 25.515625 
Q 47.21875 21.78125 47.21875 15.09375 
Q 47.21875 7.46875 41.1875 3.015625 
Q 35.15625 -1.421875 24.609375 -1.421875 
Q 20.21875 -1.421875 15.453125 -0.5625 
Q 10.6875 0.296875 5.421875 2 
L 5.421875 11.28125 
Q 10.40625 8.6875 15.234375 7.390625 
Q 20.0625 6.109375 24.8125 6.109375 
Q 31.15625 6.109375 34.5625 8.28125 
Q 37.984375 10.453125 37.984375 14.40625 
Q 37.984375 18.0625 35.515625 20.015625 
Q 33.0625 21.96875 24.703125 23.78125 
L 21.578125 24.515625 
Q 13.234375 26.265625 9.515625 29.90625 
Q 5.8125 33.546875 5.8125 39.890625 
Q 5.8125 47.609375 11.28125 51.796875 
Q 16.75 56 26.8125 56 
Q 31.78125 56 36.171875 55.265625 
Q 40.578125 54.546875 44.28125 53.078125 
z
" id="DejaVuSans-115"/>
      <path d="M 30.609375 48.390625 
Q 23.390625 48.390625 19.1875 42.75 
Q 14.984375 37.109375 14.984375 27.296875 
Q 14.984375 17.484375 19.15625 11.84375 
Q 23.34375 6.203125 30.609375 6.203125 
Q 37.796875 6.203125 41.984375 11.859375 
Q 46.1875 17.53125 46.1875 27.296875 
Q 46.1875 37.015625 41.984375 42.703125 
Q 37.796875 48.390625 30.609375 48.390625 
z
M 30.609375 56 
Q 42.328125 56 49.015625 48.375 
Q 55.71875 40.765625 55.71875 27.296875 
Q 55.71875 13.875 49.015625 6.21875 
Q 42.328125 -1.421875 30.609375 -1.421875 
Q 18.84375 -1.421875 12.171875 6.21875 
Q 5.515625 13.875 5.515625 27.296875 
Q 5.515625 40.765625 12.171875 48.375 
Q 18.84375 56 30.609375 56 
z
" id="DejaVuSans-111"/>
      <path d="M 54.890625 33.015625 
L 54.890625 0 
L 45.90625 0 
L 45.90625 32.71875 
Q 45.90625 40.484375 42.875 44.328125 
Q 39.84375 48.1875 33.796875 48.1875 
Q 26.515625 48.1875 22.3125 43.546875 
Q 18.109375 38.921875 18.109375 30.90625 
L 18.109375 0 
L 9.078125 0 
L 9.078125 54.6875 
L 18.109375 54.6875 
L 18.109375 46.1875 
Q 21.34375 51.125 25.703125 53.5625 
Q 30.078125 56 35.796875 56 
Q 45.21875 56 50.046875 50.171875 
Q 54.890625 44.34375 54.890625 33.015625 
z
" id="DejaVuSans-110"/>
     </defs>
     <g transform="translate(28.617187 197.032688)rotate(-90)scale(0.1 -0.1)">
      <use xlink:href="#DejaVuSans-80"/>
      <use x="60.287109" xlink:href="#DejaVuSans-114"/>
      <use x="101.369141" xlink:href="#DejaVuSans-101"/>
      <use x="162.892578" xlink:href="#DejaVuSans-99"/>
      <use x="217.873047" xlink:href="#DejaVuSans-105"/>
      <use x="245.65625" xlink:href="#DejaVuSans-115"/>
      <use x="297.755859" xlink:href="#DejaVuSans-105"/>
      <use x="325.539062" xlink:href="#DejaVuSans-111"/>
      <use x="386.720703" xlink:href="#DejaVuSans-110"/>
     </g>
    </g>
   </g>
   <g id="line2d_13">
    <path clip-path="url(#p4d350da472)" d="M 414.72 172.028318 
L 414.651402 171.98138 
L 414.651402 171.928257 
L 414.548506 167.932566 
L 414.514207 167.938943 
L 414.514207 167.826179 
L 414.41131 164.360702 
L 414.377011 164.36706 
L 414.377011 164.255826 
L 414.274114 161.336315 
L 414.239816 161.34265 
L 414.239816 161.234364 
L 414.136919 157.936489 
L 414.034022 157.914903 
L 414.034022 157.850073 
L 413.931126 155.127974 
L 413.896827 155.134242 
L 413.896827 155.024869 
L 413.79393 152.353246 
L 413.759631 152.359474 
L 413.759631 152.25477 
L 413.656735 150.13124 
L 413.622436 150.137434 
L 413.622436 150.029667 
L 413.519539 148.523795 
L 413.48524 148.529961 
L 413.48524 148.41994 
L 413.382343 142.765528 
L 413.348045 142.771576 
L 413.348045 142.66325 
L 413.245148 140.70675 
L 413.210849 140.712752 
L 413.210849 140.601659 
L 413.107952 137.772335 
L 413.073653 137.778264 
L 413.073653 137.673652 
L 412.970757 136.659294 
L 412.86786 136.581575 
L 412.86786 136.570965 
L 412.764964 134.960448 
L 412.730665 134.966305 
L 412.730665 134.858094 
L 412.627768 132.259367 
L 412.593469 132.265146 
L 412.593469 132.153478 
L 412.490572 130.876205 
L 412.421975 130.87634 
L 412.421975 130.785552 
L 412.319078 129.912579 
L 412.284779 129.918289 
L 412.284779 129.814995 
L 412.181882 128.057384 
L 412.147584 128.063035 
L 412.147584 127.957531 
L 412.044687 125.537038 
L 412.010388 125.542603 
L 412.010388 125.434073 
L 411.907491 124.150331 
L 411.838894 124.124636 
L 411.838894 124.051129 
L 411.735997 120.276999 
L 411.701698 120.282371 
L 411.701698 120.18016 
L 411.598801 116.772415 
L 411.564502 116.777647 
L 411.564502 116.671533 
L 411.461606 115.592566 
L 411.427307 115.59775 
L 411.427307 115.490277 
L 411.32441 110.229401 
L 411.290111 110.234346 
L 411.290111 110.134947 
L 411.187215 109.221845 
L 411.118617 109.17425 
L 411.118617 109.131183 
L 411.01572 106.083556 
L 410.981421 106.088304 
L 410.981421 105.984593 
L 410.878525 105.195046 
L 410.844226 105.199752 
L 410.844226 105.095083 
L 410.741329 103.995863 
L 410.70703 104.000509 
L 410.70703 103.894555 
L 410.604134 103.376969 
L 410.569835 103.381585 
L 410.569835 103.274944 
L 410.466938 102.123568 
L 410.432639 102.12812 
L 410.432639 102.020123 
L 410.329743 101.832868 
L 410.295444 101.837406 
L 410.295444 101.729062 
L 410.192547 100.27638 
L 410.158248 100.280836 
L 410.158248 100.170803 
L 410.055352 99.077182 
L 410.021053 99.081575 
L 410.021053 98.970221 
L 409.918156 97.927422 
L 409.883857 97.931752 
L 409.883857 97.83522 
L 409.815259 95.812136 
L 409.78096 95.816348 
L 409.712363 95.726242 
L 409.609466 94.847791 
L 409.540868 94.756624 
L 409.437972 93.26533 
L 409.403673 93.269397 
L 409.403673 93.168385 
L 409.300776 92.555438 
L 409.197879 92.465783 
L 409.094983 91.31788 
L 409.060684 91.321833 
L 409.060684 91.218876 
L 408.957787 89.709054 
L 408.889189 89.629653 
L 408.889189 89.612223 
L 408.786293 89.081934 
L 408.751994 89.085752 
L 408.751994 88.980561 
L 408.649097 88.199681 
L 408.614798 88.203445 
L 408.614798 88.097362 
L 408.546201 87.626169 
L 408.511902 87.629898 
L 408.477603 87.633628 
L 408.477603 87.52695 
L 408.374706 86.483389 
L 408.306108 86.418821 
L 408.306108 86.382862 
L 408.203212 86.1237 
L 408.168913 86.127336 
L 408.168913 86.019097 
L 408.066016 85.21465 
L 408.031717 85.218227 
L 408.031717 85.109055 
L 407.928821 84.553889 
L 407.860223 84.451087 
L 407.757326 83.597075 
L 407.688728 83.493151 
L 407.585832 83.281435 
L 407.517234 83.269811 
L 407.517234 83.177104 
L 407.482935 83.050624 
L 407.414337 83.057504 
L 407.380038 83.060944 
L 407.380038 82.949435 
L 407.277142 82.437789 
L 407.174245 82.391912 
L 407.174245 82.354511 
L 407.105647 82.136604 
L 407.071348 82.139985 
L 407.002751 82.052973 
L 406.899854 81.272133 
L 406.865555 81.275457 
L 406.865555 81.180917 
L 406.762658 80.583819 
L 406.694061 80.495215 
L 406.591164 80.314435 
L 406.522566 80.225524 
L 406.41967 79.833513 
L 406.351072 79.801626 
L 406.351072 79.744086 
L 406.282474 79.19273 
L 406.248175 79.195915 
L 406.145279 79.108996 
L 406.042382 78.071154 
L 406.008083 78.074262 
L 406.008083 77.976789 
L 405.905186 77.379778 
L 405.836589 77.307418 
L 405.836589 77.28779 
L 405.733692 76.745884 
L 405.630795 76.695717 
L 405.630795 76.656226 
L 405.527899 76.487336 
L 405.459301 76.433957 
L 405.459301 76.394356 
L 405.356404 75.508517 
L 405.253507 75.43741 
L 405.253507 75.417428 
L 405.150611 75.206122 
L 405.047714 75.114652 
L 404.944818 74.761864 
L 404.910519 74.76474 
L 404.910519 74.664118 
L 404.807622 74.39046 
L 404.739024 74.315374 
L 404.739024 74.295169 
L 404.636128 73.939327 
L 404.601829 73.942144 
L 404.601829 73.84072 
L 404.498932 73.584977 
L 404.396035 73.55265 
L 404.396035 73.491566 
L 404.293139 72.497468 
L 404.224541 72.461787 
L 404.224541 72.400102 
L 404.121644 72.07861 
L 404.053046 72.063338 
L 404.053046 71.980765 
L 403.95015 71.595682 
L 403.915851 71.598328 
L 403.915851 71.494652 
L 403.812954 71.024376 
L 403.710058 70.948805 
L 403.710058 70.927951 
L 403.607161 70.726945 
L 403.572862 70.729527 
L 403.572862 70.624983 
L 403.469965 70.402331 
L 403.401368 70.365505 
L 403.401368 70.302565 
L 403.33277 70.160654 
L 403.298471 70.163194 
L 403.264172 70.165734 
L 403.264172 70.060598 
L 403.264172 69.997471 
L 403.161275 70.005054 
L 402.886884 69.919921 
L 402.783988 69.737537 
L 402.612493 69.64439 
L 402.509597 69.31294 
L 402.440999 69.275454 
L 402.440999 69.211758 
L 402.338102 69.006557 
L 402.09801 68.91725 
L 402.029412 68.730165 
L 401.995113 68.732602 
L 401.926516 68.652029 
L 401.926516 68.630658 
L 401.823619 68.466798 
L 401.652124 68.414618 
L 401.652124 68.371752 
L 401.617826 68.266923 
L 401.549228 68.271729 
L 401.412032 68.195443 
L 401.412032 68.173958 
L 401.309136 67.987562 
L 401.206239 67.930097 
L 401.206239 67.887002 
L 401.17194 67.846262 
L 401.103342 67.851007 
L 401.034745 67.791032 
L 401.034745 67.747865 
L 400.966147 67.666202 
L 400.931848 67.668561 
L 400.657457 67.60093 
L 400.657457 67.579291 
L 400.588859 67.367354 
L 400.55456 67.369692 
L 400.520261 67.37203 
L 400.520261 67.263543 
L 400.417365 66.944405 
L 400.348767 66.883673 
L 400.348767 66.840091 
L 400.24587 66.716112 
L 399.971479 66.625184 
L 399.902881 66.432837 
L 399.868582 66.435104 
L 399.834284 66.437371 
L 399.834284 66.327818 
L 399.731387 66.224917 
L 399.559892 66.126352 
L 399.491295 65.844784 
L 399.456996 65.847005 
L 399.422697 65.849227 
L 399.422697 65.739007 
L 399.388398 65.58673 
L 399.3198 65.591133 
L 399.114007 65.493805 
L 399.01111 65.234609 
L 398.668121 65.145363 
L 398.599524 64.949599 
L 398.565225 64.951753 
L 398.39373 64.873441 
L 398.325133 64.788573 
L 398.290834 64.790715 
L 398.153638 64.732341 
L 398.153638 64.710018 
L 398.119339 64.667492 
L 398.050741 64.671759 
L 397.879247 64.593006 
L 397.879247 64.570639 
L 397.77635 64.577019 
L 397.570557 64.522616 
L 397.570557 64.500216 
L 397.501959 64.369952 
L 397.46766 64.372064 
L 397.261867 64.317395 
L 397.261867 64.294936 
L 397.15897 64.256319 
L 396.953177 64.223973 
L 396.953177 64.178978 
L 396.884579 64.11564 
L 396.85028 64.117735 
L 396.747384 64.101493 
L 396.747384 64.033884 
L 396.644487 63.949924 
L 396.472993 63.870007 
L 396.370096 63.672695 
L 396.095705 63.666537 
L 396.095705 63.598555 
L 396.095705 63.530536 
L 395.992808 63.536687 
L 395.821314 63.478844 
L 395.821314 63.456134 
L 395.718417 63.325891 
L 395.341129 63.279985 
L 395.341129 63.257206 
L 395.238233 63.149314 
L 395.032439 63.070144 
L 394.963842 62.845558 
L 394.929543 62.847557 
L 394.792347 62.763948 
L 394.72375 62.653309 
L 394.689451 62.655293 
L 394.620853 62.636317 
L 394.620853 62.56746 
L 394.586554 62.523507 
L 394.517956 62.527454 
L 394.312163 62.447329 
L 394.209266 62.199882 
L 393.934875 62.146239 
L 393.934875 62.123152 
L 393.831978 61.990333 
L 393.48899 61.917068 
L 393.454691 61.872665 
L 393.386093 61.876513 
L 392.803012 61.816416 
L 392.734414 61.773795 
L 392.700115 61.775714 
L 392.494322 61.717463 
L 392.494322 61.694195 
L 392.494322 61.670923 
L 392.391425 61.67666 
L 392.357126 61.678573 
L 392.357126 61.585409 
L 392.25423 61.474542 
L 391.94554 61.444919 
L 391.94554 61.3982 
L 391.876942 61.355238 
L 391.842643 61.357126 
L 391.533953 61.280508 
L 391.465355 61.167123 
L 391.431056 61.168997 
L 391.259562 61.08452 
L 391.190964 60.970821 
L 391.156665 60.972679 
L 391.122367 60.974538 
L 391.122367 60.880493 
L 391.122367 60.85697 
L 391.01947 60.862517 
L 390.504987 60.796013 
L 390.436389 60.728934 
L 390.40209 60.730775 
L 390.0934 60.676484 
L 390.0934 60.65285 
L 390.024802 60.609232 
L 389.990503 60.611065 
L 389.647514 60.534684 
L 389.544618 60.421626 
L 389.064433 60.399612 
L 389.064433 60.352086 
L 388.995836 60.28438 
L 388.961537 60.28619 
L 388.790042 60.200013 
L 388.687146 60.157768 
L 388.515651 60.166772 
L 388.515651 60.071364 
L 388.447053 60.003333 
L 388.412755 60.005121 
L 387.966869 59.932717 
L 387.966869 59.860913 
L 387.863972 59.866246 
L 387.726777 59.801471 
L 387.726777 59.777498 
L 387.658179 59.733073 
L 387.62388 59.734841 
L 387.212294 59.659975 
L 387.177995 59.589605 
L 387.109397 59.59312 
L 386.903604 59.555526 
L 386.903604 59.50736 
L 386.835006 59.390346 
L 386.800707 59.392087 
L 386.423419 59.314659 
L 386.38912 59.268062 
L 386.320522 59.271527 
L 386.011833 59.190317 
L 385.908936 59.122815 
L 385.668844 59.037835 
L 385.668844 59.013562 
L 385.565947 59.018703 
L 385.257257 58.936901 
L 385.188659 58.867324 
L 385.15436 58.869026 
L 384.811371 58.788579 
L 384.811371 58.764194 
L 384.708475 58.76928 
L 384.53698 58.728944 
L 384.53698 58.680106 
L 384.434084 58.61186 
L 383.953899 58.58649 
L 383.953899 58.537508 
L 383.953899 58.51301 
L 383.851003 58.518041 
L 383.61091 58.456199 
L 383.61091 58.43166 
L 383.542313 58.36134 
L 383.508014 58.363004 
L 382.890634 58.294568 
L 382.787737 58.225641 
L 381.964564 58.166638 
L 381.964564 58.11719 
L 381.861667 58.122141 
L 381.381483 58.046175 
L 381.381483 58.021385 
L 381.278586 58.026319 
L 380.695505 57.954938 
L 380.695505 57.930077 
L 380.592609 57.934996 
L 379.975229 57.864882 
L 379.975229 57.839947 
L 379.872332 57.844852 
L 379.529343 57.786297 
L 379.529343 57.761312 
L 379.529343 57.736322 
L 379.426446 57.741205 
L 378.774768 57.671978 
L 378.774768 57.646912 
L 378.671871 57.65178 
L 378.123089 57.5773 
L 378.020192 57.456391 
L 377.540008 57.3781 
L 377.540008 57.352877 
L 377.437111 57.357682 
L 376.85403 57.283829 
L 376.785432 57.211108 
L 376.751133 57.2127 
L 376.579639 57.11931 
L 376.579639 57.09396 
L 376.476742 57.098704 
L 375.893661 57.049419 
L 375.893661 57.024 
L 375.825063 56.925408 
L 375.790765 56.926977 
L 374.761798 56.872063 
L 374.6932 56.798532 
L 374.658901 56.800095 
L 373.904326 56.732026 
L 373.904326 56.706382 
L 373.801429 56.711055 
L 373.45844 56.675286 
L 373.45844 56.623897 
L 373.45844 56.598194 
L 373.355544 56.602843 
L 373.012555 56.541124 
L 373.012555 56.515368 
L 372.909658 56.468457 
L 371.880692 56.411333 
L 371.880692 56.385457 
L 371.777795 56.390068 
L 370.886024 56.326298 
L 370.783127 56.252942 
L 370.302943 56.170207 
L 370.200046 56.122645 
L 369.17108 56.089888 
L 369.17108 56.06372 
L 369.17108 56.037548 
L 369.068183 56.042096 
L 368.485102 55.989219 
L 368.485102 55.962973 
L 368.485102 55.936721 
L 368.382205 55.94125 
L 367.902021 55.857184 
L 367.799124 55.809031 
L 366.632962 55.754453 
L 366.632962 55.701542 
L 366.530065 55.706028 
L 366.152778 55.642982 
L 366.152778 55.616465 
L 366.152778 55.589942 
L 366.049881 55.594402 
L 364.060546 55.574385 
L 363.957649 55.471952 
L 363.511763 55.384135 
L 363.511763 55.357334 
L 363.408867 55.361762 
L 362.208406 55.305961 
L 362.208406 55.279028 
L 362.105509 55.283452 
L 360.870749 55.228541 
L 360.767852 55.17881 
L 360.390565 55.0865 
L 360.321967 55.035128 
L 360.287668 55.036586 
L 359.361598 54.967106 
L 359.361598 54.939846 
L 359.258701 54.944207 
L 358.709919 54.885542 
L 358.709919 54.858205 
L 358.709919 54.830863 
L 358.607023 54.8352 
L 357.509458 54.771817 
L 357.509458 54.744347 
L 357.406562 54.748675 
L 355.554422 54.716472 
L 355.520123 54.634905 
L 355.451525 54.637786 
L 354.594053 54.562829 
L 354.594053 54.535042 
L 354.491156 54.539347 
L 353.873776 54.509525 
L 353.873776 54.48166 
L 353.77088 54.402299 
L 353.050603 54.348387 
L 353.050603 54.320408 
L 352.947706 54.324668 
L 350.889773 54.325935 
L 350.786877 54.245613 
L 348.728944 54.246331 
L 348.728944 54.189491 
L 348.626047 54.193772 
L 347.665678 54.176818 
L 347.665678 54.148281 
L 347.665678 54.119738 
L 347.562781 54.124013 
L 347.013999 54.061018 
L 347.013999 54.03239 
L 346.911103 54.036647 
L 346.259424 53.977546 
L 346.259424 53.948825 
L 346.156527 53.953066 
L 345.161859 53.907706 
L 345.161859 53.878859 
L 345.058963 53.883093 
L 344.681675 53.811932 
L 344.681675 53.783015 
L 344.578778 53.787225 
L 343.00103 53.764886 
L 342.932432 53.680373 
L 342.898133 53.681773 
L 341.697672 53.643252 
L 341.697672 53.584726 
L 341.594775 53.588915 
L 340.257119 53.55539 
L 340.257119 53.525961 
L 340.154222 53.530152 
L 338.953761 53.490561 
L 338.850864 53.435572 
L 337.170219 53.414922 
L 337.170219 53.385135 
L 337.067322 53.389325 
L 336.347046 53.329095 
L 336.278448 53.242158 
L 336.244149 53.243543 
L 335.558171 53.181305 
L 335.558171 53.15129 
L 335.455275 53.155425 
L 334.97509 53.084503 
L 334.97509 53.054403 
L 334.872194 53.058514 
L 331.065017 53.121182 
L 331.065017 53.09066 
L 330.962121 53.094842 
L 328.83559 53.08966 
L 328.83559 53.05888 
L 328.732693 53.063085 
L 328.115313 52.995773 
L 328.115313 52.964888 
L 328.012416 52.969072 
L 326.571863 52.934787 
L 326.537564 52.874016 
L 326.468967 52.8768 
L 325.337103 52.860484 
L 325.337103 52.829245 
L 325.337103 52.797998 
L 325.234207 52.802167 
L 324.239539 52.748488 
L 324.239539 52.717093 
L 324.136642 52.72125 
L 321.392731 52.738104 
L 321.392731 52.706367 
L 321.289835 52.710566 
L 319.026108 52.707691 
L 319.026108 52.67566 
L 318.923212 52.679885 
L 316.762382 52.672454 
L 316.728083 52.609218 
L 316.659485 52.612043 
L 315.150334 52.57698 
L 315.081736 52.514697 
L 315.047438 52.516107 
L 313.366792 52.487306 
L 313.366792 52.421703 
L 313.263896 52.425928 
L 311.000169 52.420411 
L 311.000169 52.38729 
L 310.897272 52.391542 
L 308.221959 52.402847 
L 308.119063 52.340133 
L 305.683842 52.340916 
L 305.683842 52.307064 
L 305.580945 52.311377 
L 304.483381 52.255531 
L 304.483381 52.221492 
L 304.380484 52.225792 
L 302.802735 52.189358 
L 302.802735 52.155068 
L 302.699839 52.159372 
L 301.979562 52.086358 
L 301.979562 52.017482 
L 301.876665 52.021748 
L 300.127422 51.990689 
L 300.127422 51.955967 
L 300.024526 51.960241 
L 298.138087 51.934212 
L 298.138087 51.899186 
L 298.03519 51.903474 
L 297.349212 51.826695 
L 297.349212 51.791525 
L 297.246316 51.795784 
L 294.022221 51.824098 
L 294.022221 51.788432 
L 293.919324 51.79275 
L 291.552701 51.784965 
L 291.484103 51.715736 
L 291.449804 51.717181 
L 288.568698 51.730458 
L 288.568698 51.693923 
L 288.465801 51.698304 
L 287.093846 51.646758 
L 287.093846 51.609964 
L 286.990949 51.614339 
L 285.72189 51.557541 
L 285.72189 51.5205 
L 285.618993 51.524863 
L 283.080876 51.558786 
L 283.080876 51.521311 
L 282.977979 51.525726 
L 282.3263 51.478562 
L 282.3263 51.440938 
L 282.223404 51.445333 
L 280.817149 51.430044 
L 280.782851 51.35571 
L 280.714253 51.358636 
L 279.788183 51.360228 
L 279.788183 51.322139 
L 279.788183 51.284039 
L 279.685286 51.288418 
L 277.455859 51.307269 
L 277.455859 51.26876 
L 277.352962 51.273179 
L 276.1868 51.246065 
L 276.1868 51.168552 
L 276.083903 51.172952 
L 273.648682 51.199863 
L 273.648682 51.160642 
L 273.545786 51.165091 
L 271.933738 51.156261 
L 271.933738 51.116713 
L 271.830841 51.121178 
L 270.013 51.120941 
L 270.013 51.081025 
L 269.910104 51.085514 
L 267.440584 51.113739 
L 267.440584 51.073331 
L 267.337687 51.077871 
L 265.554145 51.075724 
L 265.554145 51.034937 
L 265.451249 51.039501 
L 264.216489 51.012507 
L 264.216489 50.971436 
L 264.113592 50.976 
L 262.398648 50.96986 
L 262.398648 50.928411 
L 262.295751 50.932995 
L 258.93446 51.000978 
L 258.93446 50.958825 
L 258.831564 50.963503 
L 256.842228 50.969689 
L 256.842228 50.927084 
L 256.739332 50.931795 
L 256.019055 50.879328 
L 256.019055 50.836515 
L 255.916158 50.841203 
L 254.681398 50.811615 
L 254.681398 50.768489 
L 254.578502 50.773176 
L 253.275144 50.746077 
L 253.275144 50.702619 
L 253.172247 50.707307 
L 249.467968 50.79074 
L 249.365071 50.706895 
L 248.541898 50.656233 
L 248.541898 50.611666 
L 248.439001 50.616425 
L 246.861252 50.600098 
L 246.861252 50.555116 
L 246.758356 50.559888 
L 244.288836 50.584778 
L 244.288836 50.493546 
L 244.185939 50.498353 
L 241.544925 50.530928 
L 241.544925 50.48462 
L 241.442028 50.489494 
L 240.035774 50.46325 
L 240.035774 50.416535 
L 239.932877 50.421413 
L 238.286531 50.405865 
L 238.286531 50.358676 
L 238.183634 50.36357 
L 238.115036 50.272323 
L 238.115036 50.225041 
L 238.01214 50.229869 
L 236.674483 50.197792 
L 236.571587 50.107194 
L 233.107399 50.174718 
L 233.0731 50.078989 
L 233.004502 50.082246 
L 230.397787 50.109013 
L 230.397787 50.059556 
L 230.294891 50.064507 
L 227.173692 50.116734 
L 227.173692 50.066339 
L 227.070795 50.071389 
L 225.69884 50.037611 
L 225.69884 49.986743 
L 225.595943 49.991791 
L 224.15539 49.960421 
L 224.15539 49.90905 
L 224.052493 49.914101 
L 221.548675 49.934545 
L 221.548675 49.882347 
L 221.445778 49.887462 
L 218.118786 49.94971 
L 218.118786 49.896402 
L 218.015889 49.901635 
L 216.472439 49.873194 
L 216.472439 49.819302 
L 216.369543 49.824542 
L 214.00292 49.837458 
L 214.00292 49.727918 
L 213.900023 49.733185 
L 211.293308 49.757433 
L 211.22471 49.5936 
L 211.190411 49.595358 
L 210.29864 49.585171 
L 210.29864 49.528974 
L 210.195743 49.534242 
L 209.132478 49.53246 
L 209.132478 49.475808 
L 209.029581 49.481083 
L 207.760522 49.489553 
L 207.760522 49.375149 
L 207.657626 49.380407 
L 206.560061 49.37926 
L 206.560061 49.321561 
L 206.457165 49.326826 
L 205.771187 49.304099 
L 205.771187 49.246058 
L 205.66829 49.251303 
L 203.335966 49.313126 
L 203.335966 49.254119 
L 203.23307 49.259457 
L 198.259731 49.46543 
L 198.259731 49.404366 
L 198.156834 49.41 
L 197.36796 49.392 
L 197.36796 49.330511 
L 197.265063 49.33613 
L 196.098901 49.338324 
L 196.098901 49.276246 
L 195.996005 49.281878 
L 195.378625 49.253429 
L 195.378625 49.190985 
L 195.275728 49.196586 
L 194.040968 49.201394 
L 194.040968 49.138312 
L 193.938071 49.143932 
L 190.782574 49.255776 
L 190.782574 49.126547 
L 190.679677 49.132295 
L 189.822205 49.115429 
L 189.822205 48.985119 
L 189.719308 48.990805 
L 188.861836 48.972872 
L 188.861836 48.907184 
L 188.75894 48.912854 
L 188.244456 48.87532 
L 188.244456 48.809272 
L 188.14156 48.814896 
L 187.112593 48.804986 
L 187.112593 48.738325 
L 187.009697 48.743944 
L 186.941099 48.747696 
L 186.941099 48.680916 
L 186.941099 48.614103 
L 186.838202 48.619636 
L 186.117925 48.658613 
L 186.117925 48.59136 
L 186.117925 48.524072 
L 186.015029 48.529573 
L 183.8199 48.580519 
L 183.8199 48.512 
L 183.717003 48.517592 
L 183.236819 48.474947 
L 183.236819 48.406054 
L 183.133922 48.411589 
L 183.031026 48.417133 
L 183.031026 48.348096 
L 183.031026 48.279022 
L 182.928129 48.284467 
L 179.772632 48.384945 
L 179.772632 48.314048 
L 179.669735 48.319667 
L 177.646101 48.359953 
L 177.646101 48.287786 
L 177.543204 48.293483 
L 173.05005 48.476973 
L 173.05005 48.402 
L 172.947153 48.408021 
L 170.923519 48.452244 
L 170.88922 48.301423 
L 170.820622 48.305455 
L 170.203242 48.265004 
L 170.203242 48.18801 
L 170.100346 48.193997 
L 167.116343 48.293302 
L 167.116343 48.214154 
L 167.013446 48.220334 
L 165.950181 48.204855 
L 165.950181 48.1248 
L 165.847284 48.130966 
L 163.789351 48.175073 
L 163.789351 48.093369 
L 163.686454 48.099632 
L 162.828982 48.152282 
L 162.828982 48.069818 
L 162.828982 47.987302 
L 162.726085 47.993523 
L 159.090403 48.13576 
L 159.056104 47.966818 
L 158.987507 47.971105 
L 158.781713 47.898125 
L 158.781713 47.812193 
L 158.678817 47.818494 
L 152.848006 48.106112 
L 152.710811 48.024177 
L 149.555313 48.148992 
L 149.555313 48.054618 
L 149.452416 48.061809 
L 147.703173 48.090227 
L 147.634575 47.902216 
L 147.600277 47.904607 
L 144.444779 48.032542 
L 144.444779 47.932523 
L 144.341882 47.94 
L 143.415813 47.906846 
L 143.415813 47.805528 
L 143.312916 47.81295 
L 141.666569 47.83071 
L 141.666569 47.727222 
L 141.563673 47.734708 
L 141.289282 47.754756 
L 141.289282 47.650741 
L 141.220684 47.447249 
L 141.186385 47.449646 
L 137.6536 47.59848 
L 137.6536 47.489608 
L 137.550703 47.497177 
L 136.213046 47.486472 
L 136.213046 47.375509 
L 136.11015 47.383074 
L 134.806792 47.480608 
L 134.806792 47.367618 
L 134.703896 47.375311 
L 133.880722 47.437588 
L 133.880722 47.323187 
L 133.777826 47.330917 
L 128.564395 47.62851 
L 128.564395 47.505716 
L 128.461498 47.514278 
L 127.295336 47.613046 
L 127.261037 47.36567 
L 127.192439 47.37135 
L 125.374599 47.525982 
L 125.306001 47.274244 
L 125.271702 47.27712 
L 123.248068 47.452045 
L 123.213769 47.188984 
L 123.145171 47.194839 
L 120.607053 47.420219 
L 120.607053 47.281687 
L 120.504157 47.290982 
L 120.229766 47.315916 
L 120.229766 47.176437 
L 120.126869 47.185623 
L 118.411925 47.343197 
L 118.309028 47.065062 
L 111.620745 47.58003 
L 111.620745 47.418637 
L 111.517849 47.429731 
L 109.528513 47.652666 
L 109.425617 47.328186 
L 108.568144 47.424505 
L 108.568144 47.253235 
L 108.465248 47.264675 
L 106.338717 47.511681 
L 106.338717 47.332691 
L 106.23582 47.344817 
L 106.098625 47.361062 
L 106.098625 47.180977 
L 105.995728 47.192854 
L 104.589474 47.360274 
L 104.589474 47.1744 
L 104.486577 47.186646 
L 103.011725 47.36813 
L 103.011725 47.175805 
L 102.908828 47.18848 
L 101.502574 47.367529 
L 101.502574 47.168587 
L 101.399677 47.181683 
L 98.895859 47.52 
L 98.895859 47.308738 
L 98.792962 47.322997 
L 98.655766 47.342118 
L 98.655766 47.129328 
L 98.55287 47.143239 
L 95.088682 47.655121 
L 95.088682 47.422626 
L 94.985786 47.438637 
L 93.853922 47.620614 
L 93.853922 47.38013 
L 93.751026 47.396571 
L 92.790657 47.55456 
L 92.790657 47.306677 
L 92.68776 47.323411 
L 90.21824 47.755959 
L 90.21824 47.488921 
L 90.115344 47.50753 
L 85.93088 48.375849 
L 85.93088 48.069818 
L 85.827983 48.09327 
L 85.519293 48.164637 
L 85.382098 46.942259 
L 85.279201 46.962175 
L 81.506323 47.808 
L 80.820346 47.990594 
L 80.820346 47.616 
L 80.717449 47.642713 
L 78.247929 48.361631 
L 78.247929 47.941498 
L 78.145033 47.973107 
L 77.733446 48.102698 
L 77.664848 47.257043 
L 77.630549 47.266734 
L 76.944572 47.467591 
L 76.944572 47.016 
L 76.841675 47.045026 
L 76.258594 47.215424 
L 76.258594 46.746292 
L 76.155697 46.774957 
L 75.847007 46.862851 
L 75.847007 46.381815 
L 75.744111 46.409143 
L 75.332524 46.521564 
L 75.332524 46.025247 
L 75.229627 46.051365 
L 72.622912 46.82996 
L 70.805071 47.550701 
L 70.805071 46.889038 
L 70.702174 46.930708 
L 68.850035 47.808 
L 68.06116 48.273585 
L 68.06116 47.442462 
L 67.958264 47.500427 
L 66.51771 48.448719 
L 66.414814 48.528 
L 66.414814 47.542996 
L 66.311917 47.613046 
L 65.454445 48.266349 
L 65.454445 47.158154 
L 65.351548 47.232 
L 64.391179 48.026483 
L 64.391179 46.741545 
L 64.288283 46.820985 
L 63.259316 47.770509 
L 62.401844 48.864 
L 62.127453 49.298824 
L 62.127453 47.3856 
L 62.024556 47.52 
L 61.544372 48.237559 
L 61.544372 46.020923 
L 61.441475 46.140632 
L 60.755498 47.133957 
L 60.172416 48.384 
L 59.657933 50.056258 
L 59.314944 51.707077 
L 59.314944 46.689882 
L 59.212048 47.016 
L 58.83476 48.664216 
L 58.52607 50.976 
L 58.251679 54.7776 
L 58.21738 55.477895 
L 58.183081 41.472 
L 58.114483 41.472 
L 57.6 41.472 
L 57.6 41.472 
" style="fill:none;stroke:#ff0000;stroke-linecap:square;stroke-width:1.5;"/>
   </g>
   <g id="line2d_14">
    <path clip-path="url(#p4d350da472)" d="M 414.72 172.68171 
L 414.685701 172.688098 
L 414.685701 172.576348 
L 414.582804 168.22133 
L 414.548506 168.227708 
L 414.548506 168.11542 
L 414.445609 164.228268 
L 414.41131 164.234625 
L 414.41131 164.123196 
L 414.308413 163.289693 
L 414.274114 163.296045 
L 414.274114 163.183108 
L 414.171218 157.727527 
L 414.136919 157.733824 
L 414.136919 157.628222 
L 414.034022 156.459026 
L 413.965425 156.430289 
L 413.965425 156.364153 
L 413.862528 154.938465 
L 413.828229 154.944732 
L 413.828229 154.835065 
L 413.725332 152.618162 
L 413.691033 152.624396 
L 413.691033 152.520028 
L 413.588137 148.465643 
L 413.553838 148.471807 
L 413.553838 148.361726 
L 413.450941 145.473026 
L 413.416642 145.479133 
L 413.416642 145.374359 
L 413.313746 141.926884 
L 413.279447 141.932914 
L 413.279447 141.823462 
L 413.17655 141.352191 
L 413.142251 141.35821 
L 413.142251 141.247954 
L 413.039355 140.297457 
L 413.005056 140.303453 
L 413.005056 140.191749 
L 412.902159 135.861941 
L 412.86786 135.867822 
L 412.86786 135.76078 
L 412.764964 132.892117 
L 412.730665 132.897913 
L 412.730665 132.787093 
L 412.627768 131.744529 
L 412.593469 131.750292 
L 412.593469 131.637967 
L 412.490572 130.728655 
L 412.456274 130.734388 
L 412.456274 130.632091 
L 412.353377 128.60127 
L 412.319078 128.606937 
L 412.319078 128.502122 
L 412.216181 124.674017 
L 412.181882 124.679548 
L 412.181882 124.570039 
L 412.078986 121.47847 
L 412.044687 121.483884 
L 412.044687 121.383079 
L 411.94179 120.372351 
L 411.907491 120.377724 
L 411.907491 120.275676 
L 411.804595 118.396431 
L 411.770296 118.401727 
L 411.770296 118.297473 
L 411.667399 115.346479 
L 411.6331 115.351649 
L 411.6331 115.243963 
L 411.530204 114.976177 
L 411.461606 114.959465 
L 411.461606 114.878342 
L 411.358709 112.95351 
L 411.32441 112.958579 
L 411.32441 112.848099 
L 411.255813 111.969768 
L 411.221514 111.974794 
L 411.187215 111.979821 
L 411.187215 111.868183 
L 411.084318 109.179148 
L 411.01572 109.10278 
L 411.01572 109.088412 
L 410.912824 107.975778 
L 410.878525 107.980621 
L 410.878525 107.87882 
L 410.775628 106.190845 
L 410.672731 106.205118 
L 410.672731 106.101437 
L 410.569835 103.958556 
L 410.535536 103.963203 
L 410.535536 103.857158 
L 410.432639 103.140823 
L 410.39834 103.145429 
L 410.39834 103.038489 
L 410.295444 102.177177 
L 410.226846 102.186292 
L 410.226846 102.078293 
L 410.123949 101.223721 
L 410.021053 101.143773 
L 410.021053 101.128186 
L 409.918156 100.970057 
L 409.883857 100.974555 
L 409.883857 100.865171 
L 409.78096 99.635901 
L 409.746662 99.640328 
L 409.746662 99.529484 
L 409.643765 97.97817 
L 409.609466 97.982507 
L 409.609466 97.885946 
L 409.506569 96.177951 
L 409.47227 96.182187 
L 409.47227 96.083922 
L 409.369374 94.79399 
L 409.335075 94.798147 
L 409.335075 94.698552 
L 409.232178 93.64264 
L 409.197879 93.646731 
L 409.197879 93.546016 
L 409.094983 92.918086 
L 409.060684 92.922136 
L 409.060684 92.820697 
L 408.992086 92.608646 
L 408.957787 92.612678 
L 408.923488 92.616712 
L 408.923488 92.514944 
L 408.820592 92.357171 
L 408.786293 92.361191 
L 408.786293 92.259141 
L 408.683396 91.861942 
L 408.580499 91.856828 
L 408.580499 91.771344 
L 408.511902 91.659512 
L 408.477603 91.663492 
L 408.409005 91.637195 
L 408.409005 91.56864 
L 408.340407 91.009284 
L 408.306108 91.013226 
L 408.203212 90.921566 
L 408.100315 90.622254 
L 408.066016 90.626175 
L 408.066016 90.52226 
L 407.963119 90.13467 
L 407.928821 90.138563 
L 407.928821 90.034139 
L 407.825924 89.417028 
L 407.757326 89.319566 
L 407.65443 89.014945 
L 407.585832 89.022599 
L 407.585832 88.916997 
L 407.482935 88.34571 
L 407.448636 88.349496 
L 407.448636 88.2432 
L 407.34574 88.00607 
L 407.311441 88.009835 
L 407.311441 87.903168 
L 407.208544 87.558074 
L 407.071348 87.5016 
L 407.071348 87.465867 
L 406.968452 87.101095 
L 406.865555 87.004554 
L 406.762658 86.907871 
L 406.72836 86.911572 
L 406.72836 86.803655 
L 406.625463 86.381932 
L 406.591164 86.385601 
L 406.591164 86.277126 
L 406.488267 85.798563 
L 406.385371 85.754922 
L 406.385371 85.700356 
L 406.316773 84.867446 
L 406.282474 84.871018 
L 406.179577 84.771654 
L 406.076681 84.248636 
L 405.939485 84.188937 
L 405.939485 84.152 
L 405.836589 83.476905 
L 405.767991 83.372271 
L 405.665094 83.028489 
L 405.630795 83.031945 
L 405.630795 82.938537 
L 405.527899 82.761802 
L 405.425002 82.678442 
L 405.322105 82.463551 
L 405.287806 82.466972 
L 405.287806 82.373001 
L 405.18491 81.798752 
L 405.116312 81.748772 
L 405.116312 81.710934 
L 405.013415 80.999564 
L 404.979116 81.002887 
L 404.979116 80.907605 
L 404.87622 80.745812 
L 404.841921 80.749118 
L 404.841921 80.653585 
L 404.739024 80.088472 
L 404.636128 80.079039 
L 404.636128 80.002121 
L 404.533231 79.722925 
L 404.498932 79.726163 
L 404.498932 79.629671 
L 404.396035 79.310611 
L 404.361736 79.313822 
L 404.361736 79.216941 
L 404.25884 78.389796 
L 404.155943 78.30152 
L 404.053046 77.997622 
L 403.984449 78.003863 
L 403.984449 77.90576 
L 403.881552 77.304858 
L 403.778655 77.254833 
L 403.778655 77.215322 
L 403.710058 76.785874 
L 403.675759 76.78891 
L 403.64146 76.791946 
L 403.64146 76.692706 
L 403.538563 76.164304 
L 403.504264 76.167296 
L 403.504264 76.067478 
L 403.401368 75.836467 
L 403.298471 75.785292 
L 403.298471 75.74522 
L 403.195574 75.372645 
L 402.955482 75.312699 
L 402.955482 75.292563 
L 402.852585 74.796706 
L 402.818287 74.799602 
L 402.818287 74.6984 
L 402.749689 74.379693 
L 402.71539 74.382559 
L 402.543896 74.295264 
L 402.475298 74.056669 
L 402.440999 74.059513 
L 402.372401 74.044815 
L 402.372401 73.963229 
L 402.269504 73.706137 
L 402.200907 73.711776 
L 402.200907 73.609443 
L 402.09801 73.310275 
L 401.995113 73.236465 
L 401.995113 73.21591 
L 401.892217 72.812313 
L 401.686423 72.725587 
L 401.617826 72.503556 
L 401.583527 72.506289 
L 401.514929 72.449613 
L 401.514929 72.408165 
L 401.412032 72.02177 
L 401.377733 72.024468 
L 401.377733 71.920404 
L 401.274837 71.699159 
L 401.206239 71.64188 
L 401.206239 71.600109 
L 401.103342 71.315234 
L 401.069043 71.31788 
L 401.069043 71.213096 
L 400.966147 70.695575 
L 400.86325 70.640148 
L 400.86325 70.59798 
L 400.794652 70.518769 
L 400.760353 70.521356 
L 400.657457 70.529117 
L 400.657457 70.423506 
L 400.55456 70.113773 
L 400.383066 70.105357 
L 400.383066 70.020505 
L 400.280169 69.900736 
L 400.211571 69.799514 
L 400.108675 69.380842 
L 399.868582 69.291497 
L 399.765686 69.192 
L 399.662789 69.156637 
L 399.662789 69.092359 
L 399.559892 69.056926 
L 399.388398 68.962019 
L 399.285501 68.711433 
L 399.148306 68.613552 
L 399.045409 68.383552 
L 398.805317 68.292472 
L 398.805317 68.249204 
L 398.70242 68.256469 
L 398.496627 68.184365 
L 398.496627 68.162694 
L 398.428029 68.08079 
L 398.39373 68.0832 
L 398.290834 68.025318 
L 398.290834 67.981888 
L 398.187937 67.771661 
L 398.153638 67.774048 
L 398.153638 67.665172 
L 398.050741 67.606921 
L 397.982144 67.546235 
L 397.982144 67.502592 
L 397.947845 67.461296 
L 397.879247 67.466023 
L 397.673454 67.370919 
L 397.570557 67.093287 
L 397.399063 67.039147 
L 397.399063 66.995244 
L 397.296166 66.870396 
L 397.021775 66.77892 
L 396.987476 66.715153 
L 396.918878 66.719772 
L 396.747384 66.621046 
L 396.644487 66.517548 
L 396.472993 66.418474 
L 396.404395 66.223763 
L 396.370096 66.226036 
L 396.061406 66.135562 
L 395.958509 65.964591 
L 395.787015 65.864579 
L 395.752716 65.777714 
L 395.684118 65.782195 
L 395.444026 65.708647 
L 395.409727 65.554534 
L 395.341129 65.558983 
L 395.203934 65.478407 
L 395.135336 65.30366 
L 395.101037 65.305865 
L 395.066738 65.308071 
L 395.066738 65.218364 
L 395.032439 65.17568 
L 394.963842 65.18007 
L 394.380761 65.149993 
L 394.380761 65.127497 
L 394.277864 65.044038 
L 394.209266 65.02589 
L 394.209266 64.958288 
L 394.10637 64.897178 
L 393.934875 64.840347 
L 393.934875 64.817764 
L 393.831978 64.643421 
L 393.591886 64.567952 
L 393.591886 64.522634 
L 393.48899 64.529083 
L 393.146001 64.459822 
L 393.043104 64.398113 
L 392.56292 64.337108 
L 392.460023 64.252403 
L 392.322828 64.169715 
L 392.219931 64.107617 
L 392.117034 64.068299 
L 392.117034 64.022595 
L 392.014138 63.914579 
L 391.739746 63.839819 
L 391.739746 63.8169 
L 391.63685 63.823205 
L 391.293861 63.775388 
L 391.293861 63.752426 
L 391.190964 63.597828 
L 390.985171 63.541294 
L 390.985171 63.518267 
L 390.950872 63.312889 
L 390.882274 63.317015 
L 390.607883 63.241139 
L 390.573584 63.173849 
L 390.504987 63.177956 
L 390.367791 63.139896 
L 390.367791 63.0936 
L 390.299193 63.005035 
L 390.264894 63.007075 
L 389.921905 62.957893 
L 389.921905 62.934681 
L 389.819009 62.824639 
L 389.544618 62.747805 
L 389.441721 62.637411 
L 389.201629 62.581542 
L 389.201629 62.558208 
L 389.098732 62.424103 
L 388.892939 62.342534 
L 388.85864 62.274303 
L 388.790042 62.278275 
L 388.54995 62.198422 
L 388.447053 62.063545 
L 388.172662 61.985278 
L 388.104065 61.847993 
L 388.069766 61.849946 
L 387.795375 61.771275 
L 387.795375 61.747686 
L 387.692478 61.753525 
L 387.418087 61.721875 
L 387.418087 61.674622 
L 387.349489 61.631225 
L 387.31519 61.633163 
L 387.0065 61.555925 
L 387.0065 61.532238 
L 386.903604 61.538034 
L 386.69781 61.525925 
L 386.69781 61.454769 
L 386.594914 61.294314 
L 386.183327 61.222098 
L 386.149028 61.128731 
L 386.08043 61.132533 
L 385.874637 61.048529 
L 385.806039 61.004574 
L 385.77174 61.006466 
L 385.46305 60.927876 
L 385.360154 60.885681 
L 384.879969 60.816196 
L 384.879969 60.792212 
L 384.777073 60.797847 
L 384.502682 60.716814 
L 384.434084 60.648442 
L 384.399785 60.650309 
L 383.473715 60.604405 
L 383.439416 60.533868 
L 383.370818 60.537594 
L 383.062128 60.457677 
L 383.062128 60.3851 
L 382.959232 60.390656 
L 382.479047 60.319642 
L 382.444748 60.248696 
L 382.376151 60.252382 
L 382.067461 60.171762 
L 382.067461 60.147444 
L 381.964564 60.152953 
L 381.312885 60.0904 
L 381.209988 59.998287 
L 380.729804 59.926077 
L 380.729804 59.877138 
L 380.626907 59.882595 
L 380.112424 59.811831 
L 380.112424 59.787294 
L 380.009527 59.792737 
L 379.426446 59.725265 
L 379.426446 59.700659 
L 379.32355 59.706089 
L 379.01486 59.623818 
L 378.911963 59.530546 
L 378.431779 59.456842 
L 378.431779 59.382619 
L 378.328882 59.387978 
L 377.711502 59.320976 
L 377.711502 59.296157 
L 377.608605 59.301504 
L 377.299915 59.218129 
L 377.197019 59.123918 
L 376.579639 59.056022 
L 376.579639 59.006097 
L 376.476742 59.011382 
L 375.996558 58.936019 
L 375.962259 58.862664 
L 375.893661 58.866167 
L 375.516373 58.81021 
L 375.516373 58.785117 
L 375.413477 58.66478 
L 374.761798 58.597087 
L 374.761798 58.54669 
L 374.658901 58.551875 
L 373.321245 58.51832 
L 373.321245 58.467661 
L 373.218348 58.472848 
L 373.081153 58.378321 
L 372.978256 58.332718 
L 372.463773 58.256774 
L 372.429474 58.182116 
L 372.360876 58.185529 
L 371.434806 58.129559 
L 371.434806 58.104 
L 371.331909 58.109114 
L 370.440138 58.050994 
L 370.337242 58.004776 
L 369.685563 57.934233 
L 369.616965 57.860371 
L 369.582666 57.862061 
L 369.068183 57.78422 
L 369.033884 57.70841 
L 368.965286 57.711768 
L 368.24501 57.669402 
L 368.24501 57.643485 
L 368.142113 57.570713 
L 366.39287 57.55203 
L 366.39287 57.525933 
L 366.289973 57.530962 
L 365.295305 57.474964 
L 365.192409 57.348872 
L 363.92335 57.305328 
L 363.92335 57.278969 
L 363.820453 57.283965 
L 363.031579 57.243058 
L 363.031579 57.216609 
L 362.962981 57.167011 
L 362.928682 57.16867 
L 362.242705 57.12233 
L 362.242705 57.095786 
L 362.242705 57.069238 
L 362.139808 57.074198 
L 361.350934 57.005811 
L 361.350934 56.952513 
L 361.248037 56.957454 
L 360.664956 56.878634 
L 360.596358 56.828436 
L 360.562059 56.830075 
L 359.293 56.783491 
L 359.293 56.756616 
L 359.190104 56.761531 
L 357.852447 56.717701 
L 357.852447 56.690683 
L 357.749551 56.695602 
L 355.966008 56.672631 
L 355.863112 56.568711 
L 354.765547 56.511979 
L 354.765547 56.457285 
L 354.662651 56.462183 
L 353.908075 56.388462 
L 353.839478 56.336805 
L 353.805179 56.33843 
L 352.330327 56.29824 
L 352.330327 56.132448 
L 352.22743 56.137286 
L 351.438556 56.063534 
L 351.404257 56.009627 
L 351.335659 56.012837 
L 350.99267 55.91766 
L 350.649681 55.87793 
L 350.649681 55.850062 
L 350.615382 55.795893 
L 350.546784 55.799067 
L 349.826508 55.748585 
L 349.75791 55.695788 
L 349.723611 55.697369 
L 348.797541 55.655936 
L 348.797541 55.627841 
L 348.694645 55.632578 
L 348.008667 55.579716 
L 348.008667 55.551528 
L 347.90577 55.556254 
L 346.911103 55.517215 
L 346.911103 55.488906 
L 346.808206 55.49363 
L 346.602413 55.446396 
L 346.602413 55.41804 
L 346.568114 55.362873 
L 346.499516 55.365999 
L 344.750273 55.360558 
L 344.681675 55.306569 
L 344.647376 55.308136 
L 343.481214 55.275557 
L 343.481214 55.246853 
L 343.378317 55.251556 
L 341.731971 55.240615 
L 341.663373 55.185972 
L 341.629074 55.187542 
L 341.045993 55.127386 
L 341.045993 55.098401 
L 340.943096 55.103096 
L 339.571141 55.078604 
L 339.571141 55.049456 
L 339.468244 55.05416 
L 338.404979 55.015145 
L 338.302082 54.961264 
L 337.650403 54.902935 
L 337.650403 54.873546 
L 337.547507 54.878224 
L 337.13592 54.808615 
L 337.13592 54.779151 
L 337.033023 54.783806 
L 336.415643 54.723164 
L 336.415643 54.693604 
L 336.312747 54.698243 
L 335.112286 54.663503 
L 335.112286 54.633789 
L 335.009389 54.63843 
L 334.426308 54.575406 
L 334.426308 54.515784 
L 334.323411 54.520396 
L 333.157249 54.48304 
L 333.157249 54.453073 
L 333.054353 54.457686 
L 331.167914 54.452299 
L 331.167914 54.422107 
L 331.065017 54.426742 
L 329.384372 54.411772 
L 329.384372 54.381372 
L 329.281475 54.386024 
L 327.463634 54.376936 
L 327.463634 54.346311 
L 327.360738 54.350984 
L 326.914852 54.279184 
L 326.914852 54.248473 
L 326.811955 54.253122 
L 325.954483 54.199518 
L 325.885886 54.140914 
L 325.851587 54.142457 
L 324.136642 54.126916 
L 324.136642 54.095847 
L 324.033746 54.100491 
L 322.798986 54.062809 
L 322.798986 54.031568 
L 322.696089 54.036213 
L 319.780684 54.074512 
L 319.780684 54.042915 
L 319.677787 54.047617 
L 318.820315 53.991784 
L 318.820315 53.960049 
L 318.717418 53.964739 
L 317.997142 53.902144 
L 317.997142 53.870286 
L 317.894245 53.874959 
L 316.145002 53.858696 
L 316.145002 53.826599 
L 316.042105 53.831289 
L 315.253231 53.770726 
L 315.253231 53.738496 
L 315.150334 53.743171 
L 313.1267 53.738366 
L 313.1267 53.673344 
L 313.023803 53.678034 
L 311.034468 53.671091 
L 310.96587 53.608633 
L 310.931571 53.610201 
L 308.976535 53.601079 
L 308.976535 53.568 
L 308.873638 53.572728 
L 307.741775 53.525247 
L 307.741775 53.491984 
L 307.638878 53.496707 
L 307.021498 53.425021 
L 307.021498 53.358243 
L 306.918602 53.362929 
L 305.958233 53.306223 
L 305.855336 53.243758 
L 304.277587 53.214316 
L 304.277587 53.180504 
L 304.174691 53.185174 
L 303.557311 53.111517 
L 303.523012 53.045174 
L 303.454414 53.048263 
L 302.288252 52.998643 
L 302.288252 52.964498 
L 302.219654 52.967581 
L 301.327883 52.90496 
L 301.327883 52.870655 
L 301.224987 52.875263 
L 299.26995 52.859757 
L 299.235651 52.792067 
L 299.167053 52.795145 
L 298.03519 52.74177 
L 298.03519 52.706951 
L 297.932294 52.711558 
L 295.942958 52.696021 
L 295.942958 52.660883 
L 295.840061 52.665513 
L 292.958955 52.69001 
L 292.958955 52.654425 
L 292.856058 52.659111 
L 290.695229 52.650655 
L 290.695229 52.614713 
L 290.592332 52.619428 
L 289.803458 52.547443 
L 289.803458 52.511334 
L 289.700561 52.516025 
L 286.476466 52.555223 
L 286.407868 52.448451 
L 286.373569 52.450028 
L 284.349935 52.432958 
L 284.349935 52.395948 
L 284.247038 52.400704 
L 283.423865 52.401738 
L 283.423865 52.364567 
L 283.423865 52.327385 
L 283.320968 52.332131 
L 281.983312 52.319381 
L 281.983312 52.244501 
L 281.880415 52.249243 
L 281.160138 52.207378 
L 281.160138 52.169773 
L 281.057242 52.174501 
L 277.695951 52.254947 
L 277.593054 52.106921 
L 274.746247 52.16328 
L 274.746247 52.12455 
L 274.64335 52.129398 
L 271.830841 52.185175 
L 271.796542 52.108298 
L 271.727945 52.111569 
L 269.327023 52.147928 
L 269.327023 52.108203 
L 269.224126 52.113168 
L 267.817872 52.101474 
L 267.817872 52.061448 
L 267.714975 52.066428 
L 266.583112 52.040987 
L 266.583112 52.000706 
L 266.480215 52.005687 
L 262.741637 52.107937 
L 262.741637 52.066923 
L 262.63874 52.072028 
L 261.232486 52.059668 
L 261.232486 52.018335 
L 261.129589 52.023455 
L 260.443611 51.974715 
L 260.443611 51.933193 
L 260.340715 51.938294 
L 258.93446 51.924845 
L 258.865862 51.844528 
L 258.831564 51.846227 
L 257.596804 51.82348 
L 257.596804 51.781318 
L 257.493907 51.786419 
L 255.950457 51.778532 
L 255.916158 51.695162 
L 255.847561 51.698563 
L 253.995421 51.705358 
L 253.926823 51.622802 
L 253.892524 51.624508 
L 253.343742 51.565594 
L 253.240845 51.397865 
L 252.211879 51.36145 
L 252.211879 51.317963 
L 252.108982 51.322979 
L 251.148613 51.326318 
L 251.148613 51.282581 
L 251.148613 51.238828 
L 251.045716 51.243833 
L 249.673761 51.222878 
L 249.639462 51.136308 
L 249.570864 51.139636 
L 249.296473 51.064516 
L 249.227876 50.979281 
L 249.193577 50.980922 
L 247.512931 50.97269 
L 247.512931 50.927992 
L 247.410035 50.932936 
L 244.083043 51.004652 
L 244.083043 50.913618 
L 243.980146 50.918645 
L 242.059408 50.921458 
L 242.059408 50.87542 
L 241.956512 50.880482 
L 239.521291 50.908596 
L 239.486992 50.816908 
L 239.418394 50.82031 
L 237.531955 50.820426 
L 237.531955 50.773192 
L 237.429059 50.778328 
L 234.753746 50.817985 
L 234.753746 50.770009 
L 234.650849 50.775224 
L 233.484687 50.738087 
L 233.484687 50.689735 
L 233.38179 50.694944 
L 233.107399 50.61191 
L 233.107399 50.563407 
L 233.004502 50.568558 
L 232.387123 50.502151 
L 232.387123 50.453406 
L 232.284226 50.458518 
L 230.157695 50.466759 
L 230.157695 50.417371 
L 230.054798 50.422529 
L 228.682843 50.392243 
L 228.682843 50.3424 
L 228.579946 50.34756 
L 226.9336 50.330242 
L 226.9336 50.279859 
L 226.830703 50.285037 
L 225.527345 50.249544 
L 225.527345 50.198707 
L 225.424449 50.203882 
L 222.268951 50.262004 
L 222.268951 50.210166 
L 222.166055 50.21545 
L 221.480077 50.146637 
L 221.480077 50.094503 
L 221.37718 50.099745 
L 220.382512 50.098261 
L 220.382512 50.045755 
L 220.382512 49.940681 
L 220.279616 49.945867 
L 220.14242 49.900149 
L 220.14242 49.847485 
L 220.14242 49.7948 
L 220.039524 49.799907 
L 218.633269 49.763975 
L 218.633269 49.710762 
L 218.530373 49.715866 
L 216.884026 49.690818 
L 216.815428 49.586526 
L 216.781129 49.588221 
L 213.659931 49.63564 
L 213.659931 49.580676 
L 213.557034 49.585863 
L 211.84209 49.56208 
L 211.84209 49.506436 
L 211.739193 49.511637 
L 210.847422 49.500992 
L 210.847422 49.44496 
L 210.744526 49.450157 
L 209.132478 49.475808 
L 209.132478 49.41913 
L 209.029581 49.424369 
L 208.275006 49.405993 
L 208.275006 49.348962 
L 208.172109 49.354186 
L 208.034914 49.304019 
L 206.422866 49.328583 
L 206.422866 49.270808 
L 206.319969 49.276046 
L 203.644656 49.355902 
L 203.644656 49.297039 
L 203.54176 49.302394 
L 201.895413 49.329517 
L 201.758217 49.277133 
L 197.642351 49.438289 
L 197.642351 49.376943 
L 197.539454 49.382583 
L 195.858809 49.41373 
L 195.858809 49.2894 
L 195.755912 49.295052 
L 194.967038 49.33865 
L 194.967038 49.27606 
L 194.967038 49.21344 
L 194.864141 49.219074 
L 190.713976 49.388832 
L 190.713976 49.324267 
L 190.61108 49.330162 
L 189.959401 49.302761 
L 189.856504 49.178593 
L 186.872501 49.284714 
L 186.872501 49.218176 
L 186.769604 49.224167 
L 186.28942 49.185391 
L 186.28942 49.118501 
L 186.186523 49.124444 
L 184.094291 49.179299 
L 184.094291 49.111244 
L 183.991395 49.117284 
L 180.218517 49.275447 
L 180.218517 49.205293 
L 180.11562 49.211599 
L 177.028721 49.333726 
L 177.028721 49.26173 
L 176.925824 49.26825 
L 174.970788 49.321021 
L 174.970788 49.247755 
L 174.867891 49.254378 
L 172.844257 49.312388 
L 172.844257 49.237765 
L 172.74136 49.244502 
L 169.517265 49.384935 
L 169.517265 49.308136 
L 169.414368 49.315134 
L 168.213907 49.320022 
L 168.213907 49.242278 
L 168.11101 49.249302 
L 164.886915 49.395931 
L 164.886915 49.315823 
L 164.784018 49.32313 
L 160.702451 49.541203 
L 160.702451 49.457936 
L 160.599554 49.465674 
L 156.826677 49.673777 
L 156.826677 49.587346 
L 156.72378 49.595513 
L 155.111733 49.637728 
L 155.111733 49.549752 
L 155.008836 49.558025 
L 154.014168 49.549908 
L 154.014168 49.46087 
L 153.911272 49.469148 
L 153.602582 49.494087 
L 153.602582 49.404628 
L 153.602582 49.315107 
L 153.499685 49.323274 
L 151.476051 49.395931 
L 151.476051 49.304374 
L 151.373154 49.312716 
L 149.726808 49.355376 
L 149.726808 49.262051 
L 149.623911 49.270507 
L 147.428782 49.359721 
L 147.428782 49.264012 
L 147.325886 49.272686 
L 146.022528 49.287036 
L 146.022528 49.189749 
L 145.919631 49.19848 
L 142.455444 49.403181 
L 142.455444 49.301894 
L 142.352547 49.31112 
L 140.843396 49.345766 
L 140.843396 49.139092 
L 140.740499 49.148308 
L 139.437142 49.161846 
L 139.437142 49.056625 
L 139.334245 49.065901 
L 136.796128 49.1935 
L 136.796128 49.084796 
L 136.693231 49.094416 
L 136.350242 49.017283 
L 136.350242 48.907814 
L 136.247345 48.91727 
L 133.606331 49.0552 
L 133.606331 48.941811 
L 133.503434 48.951652 
L 133.366239 48.964815 
L 133.366239 48.850986 
L 133.263342 48.860742 
L 131.4798 49.034046 
L 131.4798 48.917372 
L 131.376904 48.927465 
L 131.239708 48.940965 
L 131.239708 48.823826 
L 131.136811 48.833829 
L 129.799155 48.966382 
L 129.799155 48.846928 
L 129.696258 48.857162 
L 129.593362 48.867424 
L 129.593362 48.747537 
L 129.490465 48.757665 
L 128.873085 48.819032 
L 128.873085 48.697888 
L 128.770188 48.708051 
L 128.70159 48.714842 
L 128.70159 48.471658 
L 128.598694 48.481535 
L 128.015613 48.538037 
L 128.015613 48.41515 
L 127.912716 48.425045 
L 124.894414 48.728401 
L 124.825816 48.478426 
L 124.791517 48.481909 
L 123.728252 48.591604 
L 123.728252 48.4608 
L 123.659654 48.467867 
L 122.973677 48.539326 
L 122.973677 48.406958 
L 122.87078 48.417605 
L 119.715282 48.760782 
L 119.715282 48.621704 
L 119.612386 48.633249 
L 119.543788 48.640966 
L 119.543788 48.501374 
L 119.440891 48.51276 
L 115.805209 48.940206 
L 115.805209 48.791986 
L 115.702313 48.804592 
L 114.673346 48.933084 
L 114.673346 48.781915 
L 114.570449 48.794754 
L 112.786907 49.024696 
L 112.786907 48.868466 
L 112.684011 48.881898 
L 111.895136 48.986519 
L 111.895136 48.827676 
L 111.79224 48.841255 
L 110.728974 48.984572 
L 110.728974 48.822237 
L 110.626078 48.836106 
L 109.391318 49.006703 
L 109.391318 48.840201 
L 109.288421 48.854462 
L 108.773938 48.926603 
L 108.773938 48.757987 
L 108.671041 48.772264 
L 108.293753 48.825095 
L 108.293753 48.654747 
L 108.190857 48.66896 
L 107.196189 48.809318 
L 107.196189 48.4608 
L 107.093292 48.474947 
L 100.919493 49.244679 
L 100.919493 49.045957 
L 100.816596 49.063476 
L 100.130619 49.182371 
L 100.130619 48.979862 
L 100.027722 48.997555 
L 97.695398 49.422234 
L 97.695398 49.207814 
L 97.592501 49.227137 
L 96.735029 49.392 
L 96.735029 49.172262 
L 96.632132 49.191973 
L 95.603166 49.394774 
L 95.603166 49.168491 
L 95.500269 49.18878 
L 94.84859 49.319807 
L 94.84859 49.088801 
L 94.745693 49.109295 
L 94.471302 49.164488 
L 94.471302 48.930835 
L 94.368406 48.951122 
L 94.059716 49.012651 
L 94.059716 48.776081 
L 93.956819 48.796183 
L 89.600861 49.762093 
L 89.154975 49.875537 
L 89.154975 49.603979 
L 89.052078 49.629767 
L 88.983481 49.647051 
L 88.983481 49.373523 
L 88.880584 49.39874 
L 87.680123 49.705299 
L 87.680123 49.420035 
L 87.577226 49.446499 
L 86.719754 49.674082 
L 86.719754 49.379328 
L 86.616857 49.406532 
L 86.308167 49.489279 
L 86.308167 49.189865 
L 86.205271 49.21682 
L 85.142005 49.506783 
L 85.142005 49.194718 
L 85.039109 49.222835 
L 85.00481 49.232253 
L 85.00481 48.917956 
L 84.901913 48.945231 
L 82.809681 49.546639 
L 82.809681 49.20577 
L 82.706784 49.236541 
L 81.746416 49.536 
L 81.746416 49.180072 
L 81.643519 49.2121 
L 80.648851 49.536 
L 80.648851 49.163098 
L 80.545955 49.196586 
L 80.340161 49.264445 
L 80.340161 48.885677 
L 80.237265 48.918433 
L 78.968206 49.347589 
L 78.968206 48.944724 
L 78.865309 48.979862 
L 78.042136 49.273329 
L 78.042136 48.851941 
L 77.939239 48.888236 
L 77.390457 49.088 
L 77.390457 48.652088 
L 77.287561 48.688597 
L 76.395789 49.021277 
L 76.395789 48.562018 
L 76.292893 48.6 
L 75.881306 48.756088 
L 75.881306 48.28291 
L 75.77841 48.320471 
L 75.16103 48.554829 
L 75.16103 48.06144 
L 75.058133 48.09931 
L 75.023834 48.112031 
L 75.023834 47.112139 
L 74.920937 47.14493 
L 72.554314 48.020617 
L 72.314222 48.1248 
L 72.314222 47.533777 
L 72.211325 47.575486 
L 71.628244 47.823122 
L 71.628244 47.201684 
L 71.525348 47.243104 
L 71.45675 47.271051 
L 71.45675 46.639223 
L 71.353853 46.677125 
L 69.810403 47.320615 
L 69.810403 46.603636 
L 69.707507 46.6464 
L 67.958264 47.500427 
L 66.552009 48.422687 
L 66.552009 47.452045 
L 66.449113 47.52 
L 66.277618 47.636757 
L 66.277618 46.629209 
L 66.174721 46.689882 
L 64.905663 47.575486 
L 63.842397 48.587294 
L 63.053523 49.585171 
L 63.053523 48.002356 
L 62.950626 48.1248 
L 62.127453 49.298824 
L 61.407176 50.72807 
L 60.789796 52.445691 
L 60.241014 54.613333 
L 59.726531 57.6 
L 59.692232 57.848123 
L 59.623634 50.196984 
L 59.589335 50.3424 
L 59.555036 50.492746 
L 59.555036 46.060138 
L 59.45214 46.3104 
L 59.040553 47.660651 
L 58.697564 49.536 
L 58.388874 52.56 
L 58.148782 57.125647 
L 57.942989 65.664 
L 57.840092 74.736 
L 57.840092 41.472 
L 57.737196 41.472 
L 57.6 41.472 
L 57.6 41.472 
" style="fill:none;stroke:#008000;stroke-linecap:square;stroke-width:1.5;"/>
   </g>
   <g id="patch_3">
    <path d="M 57.6 307.584 
L 57.6 41.472 
" style="fill:none;stroke:#000000;stroke-linecap:square;stroke-linejoin:miter;stroke-width:0.8;"/>
   </g>
   <g id="patch_4">
    <path d="M 414.72 307.584 
L 414.72 41.472 
" style="fill:none;stroke:#000000;stroke-linecap:square;stroke-linejoin:miter;stroke-width:0.8;"/>
   </g>
   <g id="patch_5">
    <path d="M 57.6 307.584 
L 414.72 307.584 
" style="fill:none;stroke:#000000;stroke-linecap:square;stroke-linejoin:miter;stroke-width:0.8;"/>
   </g>
   <g id="patch_6">
    <path d="M 57.6 41.472 
L 414.72 41.472 
" style="fill:none;stroke:#000000;stroke-linecap:square;stroke-linejoin:miter;stroke-width:0.8;"/>
   </g>
   <g id="legend_1">
    <g id="patch_7">
     <path d="M 64.6 302.584 
L 163.164062 302.584 
Q 165.164062 302.584 165.164062 300.584 
L 165.164062 272.22775 
Q 165.164062 270.22775 163.164062 270.22775 
L 64.6 270.22775 
Q 62.6 270.22775 62.6 272.22775 
L 62.6 300.584 
Q 62.6 302.584 64.6 302.584 
z
" style="fill:#ffffff;opacity:0.8;stroke:#cccccc;stroke-linejoin:miter;"/>
    </g>
    <g id="line2d_15">
     <path d="M 66.6 278.326187 
L 86.6 278.326187 
" style="fill:none;stroke:#ff0000;stroke-linecap:square;stroke-width:1.5;"/>
    </g>
    <g id="line2d_16"/>
    <g id="text_15">
     <!-- with kmer -->
     <defs>
      <path d="M 4.203125 54.6875 
L 13.1875 54.6875 
L 24.421875 12.015625 
L 35.59375 54.6875 
L 46.1875 54.6875 
L 57.421875 12.015625 
L 68.609375 54.6875 
L 77.59375 54.6875 
L 63.28125 0 
L 52.6875 0 
L 40.921875 44.828125 
L 29.109375 0 
L 18.5 0 
z
" id="DejaVuSans-119"/>
      <path d="M 18.3125 70.21875 
L 18.3125 54.6875 
L 36.8125 54.6875 
L 36.8125 47.703125 
L 18.3125 47.703125 
L 18.3125 18.015625 
Q 18.3125 11.328125 20.140625 9.421875 
Q 21.96875 7.515625 27.59375 7.515625 
L 36.8125 7.515625 
L 36.8125 0 
L 27.59375 0 
Q 17.1875 0 13.234375 3.875 
Q 9.28125 7.765625 9.28125 18.015625 
L 9.28125 47.703125 
L 2.6875 47.703125 
L 2.6875 54.6875 
L 9.28125 54.6875 
L 9.28125 70.21875 
z
" id="DejaVuSans-116"/>
      <path d="M 54.890625 33.015625 
L 54.890625 0 
L 45.90625 0 
L 45.90625 32.71875 
Q 45.90625 40.484375 42.875 44.328125 
Q 39.84375 48.1875 33.796875 48.1875 
Q 26.515625 48.1875 22.3125 43.546875 
Q 18.109375 38.921875 18.109375 30.90625 
L 18.109375 0 
L 9.078125 0 
L 9.078125 75.984375 
L 18.109375 75.984375 
L 18.109375 46.1875 
Q 21.34375 51.125 25.703125 53.5625 
Q 30.078125 56 35.796875 56 
Q 45.21875 56 50.046875 50.171875 
Q 54.890625 44.34375 54.890625 33.015625 
z
" id="DejaVuSans-104"/>
      <path id="DejaVuSans-32"/>
      <path d="M 9.078125 75.984375 
L 18.109375 75.984375 
L 18.109375 31.109375 
L 44.921875 54.6875 
L 56.390625 54.6875 
L 27.390625 29.109375 
L 57.625 0 
L 45.90625 0 
L 18.109375 26.703125 
L 18.109375 0 
L 9.078125 0 
z
" id="DejaVuSans-107"/>
      <path d="M 52 44.1875 
Q 55.375 50.25 60.0625 53.125 
Q 64.75 56 71.09375 56 
Q 79.640625 56 84.28125 50.015625 
Q 88.921875 44.046875 88.921875 33.015625 
L 88.921875 0 
L 79.890625 0 
L 79.890625 32.71875 
Q 79.890625 40.578125 77.09375 44.375 
Q 74.3125 48.1875 68.609375 48.1875 
Q 61.625 48.1875 57.5625 43.546875 
Q 53.515625 38.921875 53.515625 30.90625 
L 53.515625 0 
L 44.484375 0 
L 44.484375 32.71875 
Q 44.484375 40.625 41.703125 44.40625 
Q 38.921875 48.1875 33.109375 48.1875 
Q 26.21875 48.1875 22.15625 43.53125 
Q 18.109375 38.875 18.109375 30.90625 
L 18.109375 0 
L 9.078125 0 
L 9.078125 54.6875 
L 18.109375 54.6875 
L 18.109375 46.1875 
Q 21.1875 51.21875 25.484375 53.609375 
Q 29.78125 56 35.6875 56 
Q 41.65625 56 45.828125 52.96875 
Q 50 49.953125 52 44.1875 
z
" id="DejaVuSans-109"/>
     </defs>
     <g transform="translate(94.6 281.826187)scale(0.1 -0.1)">
      <use xlink:href="#DejaVuSans-119"/>
      <use x="81.787109" xlink:href="#DejaVuSans-105"/>
      <use x="109.570312" xlink:href="#DejaVuSans-116"/>
      <use x="148.779297" xlink:href="#DejaVuSans-104"/>
      <use x="212.158203" xlink:href="#DejaVuSans-32"/>
      <use x="243.945312" xlink:href="#DejaVuSans-107"/>
      <use x="301.855469" xlink:href="#DejaVuSans-109"/>
      <use x="399.267578" xlink:href="#DejaVuSans-101"/>
      <use x="460.791016" xlink:href="#DejaVuSans-114"/>
     </g>
    </g>
    <g id="line2d_17">
     <path d="M 66.6 293.004312 
L 86.6 293.004312 
" style="fill:none;stroke:#008000;stroke-linecap:square;stroke-width:1.5;"/>
    </g>
    <g id="line2d_18"/>
    <g id="text_16">
     <!-- without kmer -->
     <defs>
      <path d="M 8.5 21.578125 
L 8.5 54.6875 
L 17.484375 54.6875 
L 17.484375 21.921875 
Q 17.484375 14.15625 20.5 10.265625 
Q 23.53125 6.390625 29.59375 6.390625 
Q 36.859375 6.390625 41.078125 11.03125 
Q 45.3125 15.671875 45.3125 23.6875 
L 45.3125 54.6875 
L 54.296875 54.6875 
L 54.296875 0 
L 45.3125 0 
L 45.3125 8.40625 
Q 42.046875 3.421875 37.71875 1 
Q 33.40625 -1.421875 27.6875 -1.421875 
Q 18.265625 -1.421875 13.375 4.4375 
Q 8.5 10.296875 8.5 21.578125 
z
M 31.109375 56 
z
" id="DejaVuSans-117"/>
     </defs>
     <g transform="translate(94.6 296.504312)scale(0.1 -0.1)">
      <use xlink:href="#DejaVuSans-119"/>
      <use x="81.787109" xlink:href="#DejaVuSans-105"/>
      <use x="109.570312" xlink:href="#DejaVuSans-116"/>
      <use x="148.779297" xlink:href="#DejaVuSans-104"/>
      <use x="212.158203" xlink:href="#DejaVuSans-111"/>
      <use x="273.339844" xlink:href="#DejaVuSans-117"/>
      <use x="336.71875" xlink:href="#DejaVuSans-116"/>
      <use x="375.927734" xlink:href="#DejaVuSans-32"/>
      <use x="407.714844" xlink:href="#DejaVuSans-107"/>
      <use x="465.625" xlink:href="#DejaVuSans-109"/>
      <use x="563.037109" xlink:href="#DejaVuSans-101"/>
      <use x="624.560547" xlink:href="#DejaVuSans-114"/>
     </g>
    </g>
   </g>
  </g>
 </g>
 <defs>
  <clipPath id="p4d350da472">
   <rect height="266.112" width="357.12" x="57.6" y="41.472"/>
  </clipPath>
 </defs>
</svg>
