<?xml version="1.0" encoding="utf-8" standalone="no"?>
<!DOCTYPE svg PUBLIC "-//W3C//DTD SVG 1.1//EN"
  "http://www.w3.org/Graphics/SVG/1.1/DTD/svg11.dtd">
<!-- Created with matplotlib (https://matplotlib.org/) -->
<svg height="345.6pt" version="1.1" viewBox="0 0 460.8 345.6" width="460.8pt" xmlns="http://www.w3.org/2000/svg" xmlns:xlink="http://www.w3.org/1999/xlink">
 <defs>
  <style type="text/css">
*{stroke-linecap:butt;stroke-linejoin:round;}
  </style>
 </defs>
 <g id="figure_1">
  <g id="patch_1">
   <path d="M 0 345.6 
L 460.8 345.6 
L 460.8 0 
L 0 0 
z
" style="fill:#ffffff;"/>
  </g>
  <g id="axes_1">
   <g id="patch_2">
    <path d="M 57.6 307.584 
L 414.72 307.584 
L 414.72 41.472 
L 57.6 41.472 
z
" style="fill:#ffffff;"/>
   </g>
   <g id="matplotlib.axis_1">
    <g id="xtick_1">
     <g id="line2d_1">
      <defs>
       <path d="M 0 0 
L 0 3.5 
" id="me6343dcb38" style="stroke:#000000;stroke-width:0.8;"/>
      </defs>
      <g>
       <use style="stroke:#000000;stroke-width:0.8;" x="57.6" xlink:href="#me6343dcb38" y="307.584"/>
      </g>
     </g>
     <g id="text_1">
      <!-- 0.0 -->
      <defs>
       <path d="M 31.78125 66.40625 
Q 24.171875 66.40625 20.328125 58.90625 
Q 16.5 51.421875 16.5 36.375 
Q 16.5 21.390625 20.328125 13.890625 
Q 24.171875 6.390625 31.78125 6.390625 
Q 39.453125 6.390625 43.28125 13.890625 
Q 47.125 21.390625 47.125 36.375 
Q 47.125 51.421875 43.28125 58.90625 
Q 39.453125 66.40625 31.78125 66.40625 
z
M 31.78125 74.21875 
Q 44.046875 74.21875 50.515625 64.515625 
Q 56.984375 54.828125 56.984375 36.375 
Q 56.984375 17.96875 50.515625 8.265625 
Q 44.046875 -1.421875 31.78125 -1.421875 
Q 19.53125 -1.421875 13.0625 8.265625 
Q 6.59375 17.96875 6.59375 36.375 
Q 6.59375 54.828125 13.0625 64.515625 
Q 19.53125 74.21875 31.78125 74.21875 
z
" id="DejaVuSans-48"/>
       <path d="M 10.6875 12.40625 
L 21 12.40625 
L 21 0 
L 10.6875 0 
z
" id="DejaVuSans-46"/>
      </defs>
      <g transform="translate(49.648438 322.182437)scale(0.1 -0.1)">
       <use xlink:href="#DejaVuSans-48"/>
       <use x="63.623047" xlink:href="#DejaVuSans-46"/>
       <use x="95.410156" xlink:href="#DejaVuSans-48"/>
      </g>
     </g>
    </g>
    <g id="xtick_2">
     <g id="line2d_2">
      <g>
       <use style="stroke:#000000;stroke-width:0.8;" x="129.024" xlink:href="#me6343dcb38" y="307.584"/>
      </g>
     </g>
     <g id="text_2">
      <!-- 0.2 -->
      <defs>
       <path d="M 19.1875 8.296875 
L 53.609375 8.296875 
L 53.609375 0 
L 7.328125 0 
L 7.328125 8.296875 
Q 12.9375 14.109375 22.625 23.890625 
Q 32.328125 33.6875 34.8125 36.53125 
Q 39.546875 41.84375 41.421875 45.53125 
Q 43.3125 49.21875 43.3125 52.78125 
Q 43.3125 58.59375 39.234375 62.25 
Q 35.15625 65.921875 28.609375 65.921875 
Q 23.96875 65.921875 18.8125 64.3125 
Q 13.671875 62.703125 7.8125 59.421875 
L 7.8125 69.390625 
Q 13.765625 71.78125 18.9375 73 
Q 24.125 74.21875 28.421875 74.21875 
Q 39.75 74.21875 46.484375 68.546875 
Q 53.21875 62.890625 53.21875 53.421875 
Q 53.21875 48.921875 51.53125 44.890625 
Q 49.859375 40.875 45.40625 35.40625 
Q 44.1875 33.984375 37.640625 27.21875 
Q 31.109375 20.453125 19.1875 8.296875 
z
" id="DejaVuSans-50"/>
      </defs>
      <g transform="translate(121.072438 322.182437)scale(0.1 -0.1)">
       <use xlink:href="#DejaVuSans-48"/>
       <use x="63.623047" xlink:href="#DejaVuSans-46"/>
       <use x="95.410156" xlink:href="#DejaVuSans-50"/>
      </g>
     </g>
    </g>
    <g id="xtick_3">
     <g id="line2d_3">
      <g>
       <use style="stroke:#000000;stroke-width:0.8;" x="200.448" xlink:href="#me6343dcb38" y="307.584"/>
      </g>
     </g>
     <g id="text_3">
      <!-- 0.4 -->
      <defs>
       <path d="M 37.796875 64.3125 
L 12.890625 25.390625 
L 37.796875 25.390625 
z
M 35.203125 72.90625 
L 47.609375 72.90625 
L 47.609375 25.390625 
L 58.015625 25.390625 
L 58.015625 17.1875 
L 47.609375 17.1875 
L 47.609375 0 
L 37.796875 0 
L 37.796875 17.1875 
L 4.890625 17.1875 
L 4.890625 26.703125 
z
" id="DejaVuSans-52"/>
      </defs>
      <g transform="translate(192.496438 322.182437)scale(0.1 -0.1)">
       <use xlink:href="#DejaVuSans-48"/>
       <use x="63.623047" xlink:href="#DejaVuSans-46"/>
       <use x="95.410156" xlink:href="#DejaVuSans-52"/>
      </g>
     </g>
    </g>
    <g id="xtick_4">
     <g id="line2d_4">
      <g>
       <use style="stroke:#000000;stroke-width:0.8;" x="271.872" xlink:href="#me6343dcb38" y="307.584"/>
      </g>
     </g>
     <g id="text_4">
      <!-- 0.6 -->
      <defs>
       <path d="M 33.015625 40.375 
Q 26.375 40.375 22.484375 35.828125 
Q 18.609375 31.296875 18.609375 23.390625 
Q 18.609375 15.53125 22.484375 10.953125 
Q 26.375 6.390625 33.015625 6.390625 
Q 39.65625 6.390625 43.53125 10.953125 
Q 47.40625 15.53125 47.40625 23.390625 
Q 47.40625 31.296875 43.53125 35.828125 
Q 39.65625 40.375 33.015625 40.375 
z
M 52.59375 71.296875 
L 52.59375 62.3125 
Q 48.875 64.0625 45.09375 64.984375 
Q 41.3125 65.921875 37.59375 65.921875 
Q 27.828125 65.921875 22.671875 59.328125 
Q 17.53125 52.734375 16.796875 39.40625 
Q 19.671875 43.65625 24.015625 45.921875 
Q 28.375 48.1875 33.59375 48.1875 
Q 44.578125 48.1875 50.953125 41.515625 
Q 57.328125 34.859375 57.328125 23.390625 
Q 57.328125 12.15625 50.6875 5.359375 
Q 44.046875 -1.421875 33.015625 -1.421875 
Q 20.359375 -1.421875 13.671875 8.265625 
Q 6.984375 17.96875 6.984375 36.375 
Q 6.984375 53.65625 15.1875 63.9375 
Q 23.390625 74.21875 37.203125 74.21875 
Q 40.921875 74.21875 44.703125 73.484375 
Q 48.484375 72.75 52.59375 71.296875 
z
" id="DejaVuSans-54"/>
      </defs>
      <g transform="translate(263.920438 322.182437)scale(0.1 -0.1)">
       <use xlink:href="#DejaVuSans-48"/>
       <use x="63.623047" xlink:href="#DejaVuSans-46"/>
       <use x="95.410156" xlink:href="#DejaVuSans-54"/>
      </g>
     </g>
    </g>
    <g id="xtick_5">
     <g id="line2d_5">
      <g>
       <use style="stroke:#000000;stroke-width:0.8;" x="343.296" xlink:href="#me6343dcb38" y="307.584"/>
      </g>
     </g>
     <g id="text_5">
      <!-- 0.8 -->
      <defs>
       <path d="M 31.78125 34.625 
Q 24.75 34.625 20.71875 30.859375 
Q 16.703125 27.09375 16.703125 20.515625 
Q 16.703125 13.921875 20.71875 10.15625 
Q 24.75 6.390625 31.78125 6.390625 
Q 38.8125 6.390625 42.859375 10.171875 
Q 46.921875 13.96875 46.921875 20.515625 
Q 46.921875 27.09375 42.890625 30.859375 
Q 38.875 34.625 31.78125 34.625 
z
M 21.921875 38.8125 
Q 15.578125 40.375 12.03125 44.71875 
Q 8.5 49.078125 8.5 55.328125 
Q 8.5 64.0625 14.71875 69.140625 
Q 20.953125 74.21875 31.78125 74.21875 
Q 42.671875 74.21875 48.875 69.140625 
Q 55.078125 64.0625 55.078125 55.328125 
Q 55.078125 49.078125 51.53125 44.71875 
Q 48 40.375 41.703125 38.8125 
Q 48.828125 37.15625 52.796875 32.3125 
Q 56.78125 27.484375 56.78125 20.515625 
Q 56.78125 9.90625 50.3125 4.234375 
Q 43.84375 -1.421875 31.78125 -1.421875 
Q 19.734375 -1.421875 13.25 4.234375 
Q 6.78125 9.90625 6.78125 20.515625 
Q 6.78125 27.484375 10.78125 32.3125 
Q 14.796875 37.15625 21.921875 38.8125 
z
M 18.3125 54.390625 
Q 18.3125 48.734375 21.84375 45.5625 
Q 25.390625 42.390625 31.78125 42.390625 
Q 38.140625 42.390625 41.71875 45.5625 
Q 45.3125 48.734375 45.3125 54.390625 
Q 45.3125 60.0625 41.71875 63.234375 
Q 38.140625 66.40625 31.78125 66.40625 
Q 25.390625 66.40625 21.84375 63.234375 
Q 18.3125 60.0625 18.3125 54.390625 
z
" id="DejaVuSans-56"/>
      </defs>
      <g transform="translate(335.344438 322.182437)scale(0.1 -0.1)">
       <use xlink:href="#DejaVuSans-48"/>
       <use x="63.623047" xlink:href="#DejaVuSans-46"/>
       <use x="95.410156" xlink:href="#DejaVuSans-56"/>
      </g>
     </g>
    </g>
    <g id="xtick_6">
     <g id="line2d_6">
      <g>
       <use style="stroke:#000000;stroke-width:0.8;" x="414.72" xlink:href="#me6343dcb38" y="307.584"/>
      </g>
     </g>
     <g id="text_6">
      <!-- 1.0 -->
      <defs>
       <path d="M 12.40625 8.296875 
L 28.515625 8.296875 
L 28.515625 63.921875 
L 10.984375 60.40625 
L 10.984375 69.390625 
L 28.421875 72.90625 
L 38.28125 72.90625 
L 38.28125 8.296875 
L 54.390625 8.296875 
L 54.390625 0 
L 12.40625 0 
z
" id="DejaVuSans-49"/>
      </defs>
      <g transform="translate(406.768438 322.182437)scale(0.1 -0.1)">
       <use xlink:href="#DejaVuSans-49"/>
       <use x="63.623047" xlink:href="#DejaVuSans-46"/>
       <use x="95.410156" xlink:href="#DejaVuSans-48"/>
      </g>
     </g>
    </g>
    <g id="text_7">
     <!-- False positive rate -->
     <defs>
      <path d="M 9.8125 72.90625 
L 51.703125 72.90625 
L 51.703125 64.59375 
L 19.671875 64.59375 
L 19.671875 43.109375 
L 48.578125 43.109375 
L 48.578125 34.8125 
L 19.671875 34.8125 
L 19.671875 0 
L 9.8125 0 
z
" id="DejaVuSans-70"/>
      <path d="M 34.28125 27.484375 
Q 23.390625 27.484375 19.1875 25 
Q 14.984375 22.515625 14.984375 16.5 
Q 14.984375 11.71875 18.140625 8.90625 
Q 21.296875 6.109375 26.703125 6.109375 
Q 34.1875 6.109375 38.703125 11.40625 
Q 43.21875 16.703125 43.21875 25.484375 
L 43.21875 27.484375 
z
M 52.203125 31.203125 
L 52.203125 0 
L 43.21875 0 
L 43.21875 8.296875 
Q 40.140625 3.328125 35.546875 0.953125 
Q 30.953125 -1.421875 24.3125 -1.421875 
Q 15.921875 -1.421875 10.953125 3.296875 
Q 6 8.015625 6 15.921875 
Q 6 25.140625 12.171875 29.828125 
Q 18.359375 34.515625 30.609375 34.515625 
L 43.21875 34.515625 
L 43.21875 35.40625 
Q 43.21875 41.609375 39.140625 45 
Q 35.0625 48.390625 27.6875 48.390625 
Q 23 48.390625 18.546875 47.265625 
Q 14.109375 46.140625 10.015625 43.890625 
L 10.015625 52.203125 
Q 14.9375 54.109375 19.578125 55.046875 
Q 24.21875 56 28.609375 56 
Q 40.484375 56 46.34375 49.84375 
Q 52.203125 43.703125 52.203125 31.203125 
z
" id="DejaVuSans-97"/>
      <path d="M 9.421875 75.984375 
L 18.40625 75.984375 
L 18.40625 0 
L 9.421875 0 
z
" id="DejaVuSans-108"/>
      <path d="M 44.28125 53.078125 
L 44.28125 44.578125 
Q 40.484375 46.53125 36.375 47.5 
Q 32.28125 48.484375 27.875 48.484375 
Q 21.1875 48.484375 17.84375 46.4375 
Q 14.5 44.390625 14.5 40.28125 
Q 14.5 37.15625 16.890625 35.375 
Q 19.28125 33.59375 26.515625 31.984375 
L 29.59375 31.296875 
Q 39.15625 29.25 43.1875 25.515625 
Q 47.21875 21.78125 47.21875 15.09375 
Q 47.21875 7.46875 41.1875 3.015625 
Q 35.15625 -1.421875 24.609375 -1.421875 
Q 20.21875 -1.421875 15.453125 -0.5625 
Q 10.6875 0.296875 5.421875 2 
L 5.421875 11.28125 
Q 10.40625 8.6875 15.234375 7.390625 
Q 20.0625 6.109375 24.8125 6.109375 
Q 31.15625 6.109375 34.5625 8.28125 
Q 37.984375 10.453125 37.984375 14.40625 
Q 37.984375 18.0625 35.515625 20.015625 
Q 33.0625 21.96875 24.703125 23.78125 
L 21.578125 24.515625 
Q 13.234375 26.265625 9.515625 29.90625 
Q 5.8125 33.546875 5.8125 39.890625 
Q 5.8125 47.609375 11.28125 51.796875 
Q 16.75 56 26.8125 56 
Q 31.78125 56 36.171875 55.265625 
Q 40.578125 54.546875 44.28125 53.078125 
z
" id="DejaVuSans-115"/>
      <path d="M 56.203125 29.59375 
L 56.203125 25.203125 
L 14.890625 25.203125 
Q 15.484375 15.921875 20.484375 11.0625 
Q 25.484375 6.203125 34.421875 6.203125 
Q 39.59375 6.203125 44.453125 7.46875 
Q 49.3125 8.734375 54.109375 11.28125 
L 54.109375 2.78125 
Q 49.265625 0.734375 44.1875 -0.34375 
Q 39.109375 -1.421875 33.890625 -1.421875 
Q 20.796875 -1.421875 13.15625 6.1875 
Q 5.515625 13.8125 5.515625 26.8125 
Q 5.515625 40.234375 12.765625 48.109375 
Q 20.015625 56 32.328125 56 
Q 43.359375 56 49.78125 48.890625 
Q 56.203125 41.796875 56.203125 29.59375 
z
M 47.21875 32.234375 
Q 47.125 39.59375 43.09375 43.984375 
Q 39.0625 48.390625 32.421875 48.390625 
Q 24.90625 48.390625 20.390625 44.140625 
Q 15.875 39.890625 15.1875 32.171875 
z
" id="DejaVuSans-101"/>
      <path id="DejaVuSans-32"/>
      <path d="M 18.109375 8.203125 
L 18.109375 -20.796875 
L 9.078125 -20.796875 
L 9.078125 54.6875 
L 18.109375 54.6875 
L 18.109375 46.390625 
Q 20.953125 51.265625 25.265625 53.625 
Q 29.59375 56 35.59375 56 
Q 45.5625 56 51.78125 48.09375 
Q 58.015625 40.1875 58.015625 27.296875 
Q 58.015625 14.40625 51.78125 6.484375 
Q 45.5625 -1.421875 35.59375 -1.421875 
Q 29.59375 -1.421875 25.265625 0.953125 
Q 20.953125 3.328125 18.109375 8.203125 
z
M 48.6875 27.296875 
Q 48.6875 37.203125 44.609375 42.84375 
Q 40.53125 48.484375 33.40625 48.484375 
Q 26.265625 48.484375 22.1875 42.84375 
Q 18.109375 37.203125 18.109375 27.296875 
Q 18.109375 17.390625 22.1875 11.75 
Q 26.265625 6.109375 33.40625 6.109375 
Q 40.53125 6.109375 44.609375 11.75 
Q 48.6875 17.390625 48.6875 27.296875 
z
" id="DejaVuSans-112"/>
      <path d="M 30.609375 48.390625 
Q 23.390625 48.390625 19.1875 42.75 
Q 14.984375 37.109375 14.984375 27.296875 
Q 14.984375 17.484375 19.15625 11.84375 
Q 23.34375 6.203125 30.609375 6.203125 
Q 37.796875 6.203125 41.984375 11.859375 
Q 46.1875 17.53125 46.1875 27.296875 
Q 46.1875 37.015625 41.984375 42.703125 
Q 37.796875 48.390625 30.609375 48.390625 
z
M 30.609375 56 
Q 42.328125 56 49.015625 48.375 
Q 55.71875 40.765625 55.71875 27.296875 
Q 55.71875 13.875 49.015625 6.21875 
Q 42.328125 -1.421875 30.609375 -1.421875 
Q 18.84375 -1.421875 12.171875 6.21875 
Q 5.515625 13.875 5.515625 27.296875 
Q 5.515625 40.765625 12.171875 48.375 
Q 18.84375 56 30.609375 56 
z
" id="DejaVuSans-111"/>
      <path d="M 9.421875 54.6875 
L 18.40625 54.6875 
L 18.40625 0 
L 9.421875 0 
z
M 9.421875 75.984375 
L 18.40625 75.984375 
L 18.40625 64.59375 
L 9.421875 64.59375 
z
" id="DejaVuSans-105"/>
      <path d="M 18.3125 70.21875 
L 18.3125 54.6875 
L 36.8125 54.6875 
L 36.8125 47.703125 
L 18.3125 47.703125 
L 18.3125 18.015625 
Q 18.3125 11.328125 20.140625 9.421875 
Q 21.96875 7.515625 27.59375 7.515625 
L 36.8125 7.515625 
L 36.8125 0 
L 27.59375 0 
Q 17.1875 0 13.234375 3.875 
Q 9.28125 7.765625 9.28125 18.015625 
L 9.28125 47.703125 
L 2.6875 47.703125 
L 2.6875 54.6875 
L 9.28125 54.6875 
L 9.28125 70.21875 
z
" id="DejaVuSans-116"/>
      <path d="M 2.984375 54.6875 
L 12.5 54.6875 
L 29.59375 8.796875 
L 46.6875 54.6875 
L 56.203125 54.6875 
L 35.6875 0 
L 23.484375 0 
z
" id="DejaVuSans-118"/>
      <path d="M 41.109375 46.296875 
Q 39.59375 47.171875 37.8125 47.578125 
Q 36.03125 48 33.890625 48 
Q 26.265625 48 22.1875 43.046875 
Q 18.109375 38.09375 18.109375 28.8125 
L 18.109375 0 
L 9.078125 0 
L 9.078125 54.6875 
L 18.109375 54.6875 
L 18.109375 46.1875 
Q 20.953125 51.171875 25.484375 53.578125 
Q 30.03125 56 36.53125 56 
Q 37.453125 56 38.578125 55.875 
Q 39.703125 55.765625 41.0625 55.515625 
z
" id="DejaVuSans-114"/>
     </defs>
     <g transform="translate(190.21 335.860562)scale(0.1 -0.1)">
      <use xlink:href="#DejaVuSans-70"/>
      <use x="57.378906" xlink:href="#DejaVuSans-97"/>
      <use x="118.658203" xlink:href="#DejaVuSans-108"/>
      <use x="146.441406" xlink:href="#DejaVuSans-115"/>
      <use x="198.541016" xlink:href="#DejaVuSans-101"/>
      <use x="260.064453" xlink:href="#DejaVuSans-32"/>
      <use x="291.851562" xlink:href="#DejaVuSans-112"/>
      <use x="355.328125" xlink:href="#DejaVuSans-111"/>
      <use x="416.509766" xlink:href="#DejaVuSans-115"/>
      <use x="468.609375" xlink:href="#DejaVuSans-105"/>
      <use x="496.392578" xlink:href="#DejaVuSans-116"/>
      <use x="535.601562" xlink:href="#DejaVuSans-105"/>
      <use x="563.384766" xlink:href="#DejaVuSans-118"/>
      <use x="622.564453" xlink:href="#DejaVuSans-101"/>
      <use x="684.087891" xlink:href="#DejaVuSans-32"/>
      <use x="715.875" xlink:href="#DejaVuSans-114"/>
      <use x="756.988281" xlink:href="#DejaVuSans-97"/>
      <use x="818.267578" xlink:href="#DejaVuSans-116"/>
      <use x="857.476562" xlink:href="#DejaVuSans-101"/>
     </g>
    </g>
   </g>
   <g id="matplotlib.axis_2">
    <g id="ytick_1">
     <g id="line2d_7">
      <defs>
       <path d="M 0 0 
L -3.5 0 
" id="m8b6c34c7c9" style="stroke:#000000;stroke-width:0.8;"/>
      </defs>
      <g>
       <use style="stroke:#000000;stroke-width:0.8;" x="57.6" xlink:href="#m8b6c34c7c9" y="307.584"/>
      </g>
     </g>
     <g id="text_8">
      <!-- 0.0 -->
      <g transform="translate(34.696875 311.383219)scale(0.1 -0.1)">
       <use xlink:href="#DejaVuSans-48"/>
       <use x="63.623047" xlink:href="#DejaVuSans-46"/>
       <use x="95.410156" xlink:href="#DejaVuSans-48"/>
      </g>
     </g>
    </g>
    <g id="ytick_2">
     <g id="line2d_8">
      <g>
       <use style="stroke:#000000;stroke-width:0.8;" x="57.6" xlink:href="#m8b6c34c7c9" y="254.3616"/>
      </g>
     </g>
     <g id="text_9">
      <!-- 0.2 -->
      <g transform="translate(34.696875 258.160819)scale(0.1 -0.1)">
       <use xlink:href="#DejaVuSans-48"/>
       <use x="63.623047" xlink:href="#DejaVuSans-46"/>
       <use x="95.410156" xlink:href="#DejaVuSans-50"/>
      </g>
     </g>
    </g>
    <g id="ytick_3">
     <g id="line2d_9">
      <g>
       <use style="stroke:#000000;stroke-width:0.8;" x="57.6" xlink:href="#m8b6c34c7c9" y="201.1392"/>
      </g>
     </g>
     <g id="text_10">
      <!-- 0.4 -->
      <g transform="translate(34.696875 204.938419)scale(0.1 -0.1)">
       <use xlink:href="#DejaVuSans-48"/>
       <use x="63.623047" xlink:href="#DejaVuSans-46"/>
       <use x="95.410156" xlink:href="#DejaVuSans-52"/>
      </g>
     </g>
    </g>
    <g id="ytick_4">
     <g id="line2d_10">
      <g>
       <use style="stroke:#000000;stroke-width:0.8;" x="57.6" xlink:href="#m8b6c34c7c9" y="147.9168"/>
      </g>
     </g>
     <g id="text_11">
      <!-- 0.6 -->
      <g transform="translate(34.696875 151.716019)scale(0.1 -0.1)">
       <use xlink:href="#DejaVuSans-48"/>
       <use x="63.623047" xlink:href="#DejaVuSans-46"/>
       <use x="95.410156" xlink:href="#DejaVuSans-54"/>
      </g>
     </g>
    </g>
    <g id="ytick_5">
     <g id="line2d_11">
      <g>
       <use style="stroke:#000000;stroke-width:0.8;" x="57.6" xlink:href="#m8b6c34c7c9" y="94.6944"/>
      </g>
     </g>
     <g id="text_12">
      <!-- 0.8 -->
      <g transform="translate(34.696875 98.493619)scale(0.1 -0.1)">
       <use xlink:href="#DejaVuSans-48"/>
       <use x="63.623047" xlink:href="#DejaVuSans-46"/>
       <use x="95.410156" xlink:href="#DejaVuSans-56"/>
      </g>
     </g>
    </g>
    <g id="ytick_6">
     <g id="line2d_12">
      <g>
       <use style="stroke:#000000;stroke-width:0.8;" x="57.6" xlink:href="#m8b6c34c7c9" y="41.472"/>
      </g>
     </g>
     <g id="text_13">
      <!-- 1.0 -->
      <g transform="translate(34.696875 45.271219)scale(0.1 -0.1)">
       <use xlink:href="#DejaVuSans-49"/>
       <use x="63.623047" xlink:href="#DejaVuSans-46"/>
       <use x="95.410156" xlink:href="#DejaVuSans-48"/>
      </g>
     </g>
    </g>
    <g id="text_14">
     <!-- True positive rate -->
     <defs>
      <path d="M -0.296875 72.90625 
L 61.375 72.90625 
L 61.375 64.59375 
L 35.5 64.59375 
L 35.5 0 
L 25.59375 0 
L 25.59375 64.59375 
L -0.296875 64.59375 
z
" id="DejaVuSans-84"/>
      <path d="M 8.5 21.578125 
L 8.5 54.6875 
L 17.484375 54.6875 
L 17.484375 21.921875 
Q 17.484375 14.15625 20.5 10.265625 
Q 23.53125 6.390625 29.59375 6.390625 
Q 36.859375 6.390625 41.078125 11.03125 
Q 45.3125 15.671875 45.3125 23.6875 
L 45.3125 54.6875 
L 54.296875 54.6875 
L 54.296875 0 
L 45.3125 0 
L 45.3125 8.40625 
Q 42.046875 3.421875 37.71875 1 
Q 33.40625 -1.421875 27.6875 -1.421875 
Q 18.265625 -1.421875 13.375 4.4375 
Q 8.5 10.296875 8.5 21.578125 
z
M 31.109375 56 
z
" id="DejaVuSans-117"/>
     </defs>
     <g transform="translate(28.617187 218.818625)rotate(-90)scale(0.1 -0.1)">
      <use xlink:href="#DejaVuSans-84"/>
      <use x="60.865234" xlink:href="#DejaVuSans-114"/>
      <use x="101.978516" xlink:href="#DejaVuSans-117"/>
      <use x="165.357422" xlink:href="#DejaVuSans-101"/>
      <use x="226.880859" xlink:href="#DejaVuSans-32"/>
      <use x="258.667969" xlink:href="#DejaVuSans-112"/>
      <use x="322.144531" xlink:href="#DejaVuSans-111"/>
      <use x="383.326172" xlink:href="#DejaVuSans-115"/>
      <use x="435.425781" xlink:href="#DejaVuSans-105"/>
      <use x="463.208984" xlink:href="#DejaVuSans-116"/>
      <use x="502.417969" xlink:href="#DejaVuSans-105"/>
      <use x="530.201172" xlink:href="#DejaVuSans-118"/>
      <use x="589.380859" xlink:href="#DejaVuSans-101"/>
      <use x="650.904297" xlink:href="#DejaVuSans-32"/>
      <use x="682.691406" xlink:href="#DejaVuSans-114"/>
      <use x="723.804688" xlink:href="#DejaVuSans-97"/>
      <use x="785.083984" xlink:href="#DejaVuSans-116"/>
      <use x="824.292969" xlink:href="#DejaVuSans-101"/>
     </g>
    </g>
   </g>
   <g id="line2d_13">
    <path clip-path="url(#p4a9310579b)" d="M 57.6 307.584 
L 57.702897 301.961196 
L 57.737196 301.961196 
L 57.840092 300.172121 
L 57.874391 300.172121 
L 57.977288 293.245849 
L 58.011587 293.245849 
L 58.114483 290.868936 
L 58.148782 290.868936 
L 58.251679 285.731737 
L 58.285978 285.731737 
L 58.388874 281.898007 
L 58.457472 281.846891 
L 58.560369 276.326319 
L 58.594668 276.326319 
L 58.697564 273.74494 
L 58.731863 273.74494 
L 58.83476 272.364798 
L 58.869059 272.364798 
L 58.971955 269.093348 
L 59.006254 269.093348 
L 59.109151 266.256387 
L 59.14345 266.256387 
L 59.246347 263.751683 
L 59.280645 263.751683 
L 59.383542 261.323654 
L 59.417841 261.323654 
L 59.520738 257.69439 
L 59.589335 257.617715 
L 59.692232 255.70085 
L 59.726531 255.70085 
L 59.829428 252.4294 
L 59.863726 252.4294 
L 59.966623 247.956715 
L 60.000922 247.956715 
L 60.103819 243.637378 
L 60.138118 243.637378 
L 60.241014 241.643839 
L 60.275313 241.643839 
L 60.37821 240.519278 
L 60.412509 240.519278 
L 60.481106 237.426735 
L 60.549704 237.426735 
L 60.549704 237.350061 
L 60.652601 235.126497 
L 60.6869 235.126497 
L 60.789796 230.883836 
L 60.858394 230.781603 
L 60.961291 225.261031 
L 61.029889 225.261031 
L 61.132785 221.887348 
L 61.167084 221.887348 
L 61.167084 221.836232 
L 61.269981 220.737229 
L 61.30428 220.737229 
L 61.407176 219.075946 
L 61.441475 219.075946 
L 61.544372 217.03129 
L 61.578671 217.03129 
L 61.647269 215.114425 
L 61.715866 215.114425 
L 61.818763 212.635279 
L 61.955959 212.533046 
L 62.058855 210.411716 
L 62.093154 210.411716 
L 62.196051 208.469292 
L 62.23035 208.469292 
L 62.333246 206.450194 
L 62.367545 206.450194 
L 62.470442 204.149956 
L 62.504741 204.149956 
L 62.607637 199.089432 
L 62.676235 199.089432 
L 62.779132 196.942543 
L 62.813431 196.942543 
L 62.916327 193.466628 
L 62.950626 193.466628 
L 63.053523 189.837363 
L 63.122121 189.73513 
L 63.225017 186.361448 
L 63.293615 186.284773 
L 63.396512 184.802397 
L 63.430811 184.802397 
L 63.533707 183.652278 
L 63.602305 183.601162 
L 63.705202 180.661968 
L 63.739501 180.661968 
L 63.842397 179.716315 
L 63.876696 179.716315 
L 63.979593 175.652561 
L 64.048191 175.627003 
L 64.151087 172.917833 
L 64.185386 172.917833 
L 64.288283 170.719828 
L 64.322582 170.719828 
L 64.425478 167.908426 
L 64.459777 167.908426 
L 64.562674 167.065005 
L 64.596973 167.065005 
L 64.699869 166.017119 
L 64.734168 166.017119 
L 64.837065 164.739209 
L 64.871364 164.739209 
L 64.97426 162.515645 
L 65.042858 162.515645 
L 65.145755 157.940727 
L 65.180054 157.940727 
L 65.28295 156.739491 
L 65.317249 156.739491 
L 65.420146 154.234788 
L 65.454445 154.234788 
L 65.557342 153.135785 
L 65.59164 153.135785 
L 65.694537 151.602293 
L 65.728836 151.602293 
L 65.831733 149.813219 
L 65.866032 149.813219 
L 65.90033 149.22538 
L 66.037526 149.148705 
L 66.140423 147.845237 
L 66.174721 147.845237 
L 66.277618 146.618443 
L 66.346216 146.516211 
L 66.449113 144.67602 
L 66.483411 144.67602 
L 66.586308 143.346993 
L 66.620607 143.346993 
L 66.723504 141.148988 
L 66.757803 141.148988 
L 66.8264 139.922194 
L 66.929297 139.84552 
L 67.032194 138.720959 
L 67.066493 138.720959 
L 67.066493 138.618726 
L 67.169389 137.903096 
L 67.203688 137.903096 
L 67.306585 137.264141 
L 67.340884 137.264141 
L 67.44378 135.628416 
L 67.512378 135.628416 
L 67.615275 134.708321 
L 67.683872 134.682763 
L 67.786769 133.762668 
L 67.855367 133.660435 
L 67.958264 130.619009 
L 67.992562 130.619009 
L 68.06116 129.494448 
L 68.129758 129.494448 
L 68.232655 128.702144 
L 68.266954 128.702144 
L 68.36985 127.322001 
L 68.438448 127.296443 
L 68.541345 126.427464 
L 68.575643 126.427464 
L 68.67854 125.021763 
L 68.712839 125.021763 
L 68.815736 123.590503 
L 68.850035 123.590503 
L 68.952931 122.568175 
L 68.98723 122.568175 
L 69.090127 121.111358 
L 69.124426 121.111358 
L 69.227322 120.421286 
L 69.29592 120.421286 
L 69.398817 119.961239 
L 69.433116 119.961239 
L 69.536012 119.450075 
L 69.570311 119.450075 
L 69.673208 118.09549 
L 69.776104 118.018815 
L 69.879001 116.843138 
L 69.9133 116.843138 
L 70.016197 115.923043 
L 70.084794 115.82081 
L 70.187691 115.462995 
L 70.22199 115.462995 
L 70.324887 114.031736 
L 70.359186 114.031736 
L 70.462082 113.060524 
L 70.496381 113.060524 
L 70.599278 112.242662 
L 70.633577 112.242662 
L 70.736473 111.680381 
L 70.770772 111.680381 
L 70.873669 110.019098 
L 70.907968 110.019098 
L 71.010864 107.948884 
L 71.079462 107.872209 
L 71.14806 107.233254 
L 71.216658 107.233254 
L 71.319554 105.955344 
L 71.388152 105.955344 
L 71.491049 104.268502 
L 71.525348 104.268502 
L 71.628244 103.425082 
L 71.662543 103.425082 
L 71.76544 102.683894 
L 71.834038 102.658336 
L 71.936934 101.099285 
L 71.971233 101.099285 
L 72.07413 99.719143 
L 72.142728 99.719143 
L 72.245624 98.313441 
L 72.279923 98.313441 
L 72.38282 97.316672 
L 72.451418 97.214439 
L 72.554314 96.549925 
L 72.622912 96.524367 
L 72.725809 94.198571 
L 72.794406 94.198571 
L 72.897303 93.227359 
L 72.965901 93.176243 
L 73.068798 92.128357 
L 73.171694 92.026124 
L 73.274591 91.003796 
L 73.30889 91.003796 
L 73.411786 90.313724 
L 73.480384 90.262608 
L 73.583281 89.163605 
L 73.61758 89.163605 
L 73.720476 88.575766 
L 73.789074 88.473534 
L 73.891971 87.987928 
L 73.960569 87.911253 
L 74.029166 87.476764 
L 74.097764 87.476764 
L 74.200661 87.221182 
L 74.23496 87.221182 
L 74.303557 86.428877 
L 74.440753 86.352203 
L 74.54365 85.892155 
L 74.577949 85.892155 
L 74.680845 84.307547 
L 74.749443 84.230872 
L 74.85234 84.077523 
L 74.886638 84.077523 
L 74.989535 83.25966 
L 75.092432 83.157428 
L 75.195328 82.69738 
L 75.229627 82.69738 
L 75.332524 81.623935 
L 75.435421 81.547261 
L 75.538317 81.112771 
L 75.572616 81.112771 
L 75.641214 80.243793 
L 75.744111 80.192676 
L 75.847007 79.604837 
L 75.915605 79.502605 
L 75.949904 79.374814 
L 76.052801 79.374814 
L 76.155697 78.7103 
L 76.224295 78.633626 
L 76.327192 78.173578 
L 76.395789 78.173578 
L 76.498686 76.972343 
L 76.567284 76.87011 
L 76.670181 76.512295 
L 76.773077 76.486737 
L 76.841675 76.282271 
L 76.944572 76.205597 
L 77.047468 76.103364 
L 77.116066 76.052247 
L 77.218963 75.464409 
L 77.287561 75.387734 
L 77.390457 75.004361 
L 77.424756 75.004361 
L 77.527653 74.416522 
L 77.59625 74.31429 
L 77.699147 73.803126 
L 77.767745 73.726451 
L 77.870642 73.215287 
L 77.90494 73.215287 
L 78.007837 72.755239 
L 78.076435 72.653007 
L 78.179332 72.03961 
L 78.21363 72.03961 
L 78.316527 71.630678 
L 78.350826 71.630678 
L 78.453723 70.966165 
L 78.590918 70.889491 
L 78.693815 70.250536 
L 78.762413 70.173861 
L 78.865309 69.713813 
L 78.933907 69.688255 
L 79.002505 69.355998 
L 79.071103 69.355998 
L 79.105401 69.074858 
L 79.242597 68.972625 
L 79.345494 68.640369 
L 79.379793 68.640369 
L 79.482689 68.05253 
L 79.551287 68.026972 
L 79.654184 67.745832 
L 79.722781 67.694715 
L 79.825678 67.311342 
L 79.894276 67.209109 
L 79.997172 67.05576 
L 80.134368 66.953527 
L 80.202966 66.902411 
L 80.305862 66.800178 
L 80.408759 66.314572 
L 80.511656 66.237898 
L 80.614552 66.084549 
L 80.648851 66.084549 
L 80.751748 65.701176 
L 80.820346 65.701176 
L 80.888944 65.49671 
L 81.026139 65.420035 
L 81.129036 65.087779 
L 81.163335 65.087779 
L 81.266231 64.806638 
L 81.334829 64.806638 
L 81.403427 64.602173 
L 81.506323 64.49994 
L 81.60922 64.2188 
L 81.643519 64.2188 
L 81.746416 63.835427 
L 81.780715 63.835427 
L 81.815013 63.656519 
L 81.91791 63.656519 
L 81.986508 63.349821 
L 82.123703 63.273146 
L 82.2266 62.94089 
L 82.295198 62.94089 
L 82.398095 62.250818 
L 82.741083 62.174144 
L 82.84398 61.94412 
L 82.912578 61.867445 
L 82.981176 61.637421 
L 83.049773 61.637421 
L 83.118371 61.356281 
L 83.255567 61.330723 
L 83.358463 61.075141 
L 83.427061 60.998466 
L 83.529958 60.640652 
L 83.598556 60.538419 
L 83.701452 59.976138 
L 83.77005 59.976138 
L 83.872947 59.516091 
L 84.07874 59.413858 
L 84.181637 59.107159 
L 84.318832 59.030485 
L 84.421729 58.902694 
L 84.558924 58.800461 
L 84.661821 58.723786 
L 84.799017 58.67267 
L 84.833315 58.468204 
L 84.970511 58.442646 
L 85.073408 58.187064 
L 85.210603 58.084831 
L 85.3135 57.829249 
L 85.450695 57.727017 
L 85.519293 57.522551 
L 85.62219 57.496993 
L 85.725086 57.266969 
L 85.896581 57.215852 
L 85.965179 57.088061 
L 86.23957 56.985829 
L 86.308167 56.704688 
L 86.54826 56.602456 
L 86.651156 56.423548 
L 86.822651 56.346874 
L 86.822651 56.295757 
L 86.959846 56.295757 
L 87.062743 56.11685 
L 87.440031 56.014617 
L 87.542927 55.912384 
L 87.954514 55.810151 
L 87.954514 55.733477 
L 88.228905 55.631244 
L 88.297503 55.554569 
L 88.468997 55.477895 
L 88.503296 55.273429 
L 88.777687 55.171196 
L 88.811986 55.017847 
L 89.086377 54.941172 
L 89.154975 54.813381 
L 89.395067 54.762265 
L 89.463665 54.634474 
L 89.909551 54.532241 
L 90.012447 54.327776 
L 90.081045 54.225543 
L 90.183942 54.12331 
L 90.492632 54.072194 
L 90.52693 53.918844 
L 90.801322 53.816612 
L 90.904218 53.688821 
L 91.350104 53.586588 
L 91.418701 53.509913 
L 91.76169 53.40768 
L 91.864587 53.279889 
L 92.413369 53.177657 
L 92.447668 53.075424 
L 92.927852 52.998749 
L 93.030749 52.8454 
L 93.339439 52.743167 
L 93.408037 52.692051 
L 93.716727 52.589818 
L 93.785325 52.487585 
L 94.23121 52.385352 
L 94.23121 52.359794 
L 94.608498 52.257561 
L 94.711395 52.12977 
L 94.951487 52.104212 
L 94.985786 51.950863 
L 95.500269 51.874188 
L 95.500269 51.771955 
L 95.671763 51.746397 
L 95.77466 51.516373 
L 95.946154 51.414141 
L 95.946154 51.363024 
L 96.666431 51.260791 
L 96.666431 51.184117 
L 97.112317 51.081884 
L 97.215213 50.877418 
L 97.763995 50.775186 
L 97.798294 50.724069 
L 98.587169 50.621836 
L 98.655766 50.468487 
L 99.033054 50.417371 
L 99.033054 50.340696 
L 99.684733 50.238463 
L 99.719032 50.187347 
L 100.473607 50.085114 
L 100.576504 50.033998 
L 100.919493 49.931765 
L 101.02239 49.880648 
L 101.811264 49.778416 
L 101.845563 49.727299 
L 102.531541 49.625066 
L 102.634437 49.57395 
L 103.046024 49.471717 
L 103.046024 49.446159 
L 103.663404 49.343926 
L 103.663404 49.29281 
L 104.349381 49.190577 
L 104.349381 49.165019 
L 104.863865 49.062786 
L 104.863865 48.986111 
L 105.241153 48.934995 
L 105.30975 48.756088 
L 106.750303 48.653855 
L 106.818901 48.602738 
L 107.882167 48.500506 
L 107.882167 48.474947 
L 108.911133 48.372715 
L 108.911133 48.347156 
L 109.528513 48.244924 
L 109.597111 48.193807 
L 110.420284 48.091574 
L 110.454583 48.0149 
L 112.546815 47.938225 
L 112.615413 47.861551 
L 113.541483 47.759318 
L 113.541483 47.73376 
L 114.570449 47.631527 
L 114.570449 47.605968 
L 115.222128 47.503736 
L 115.290726 47.452619 
L 116.559785 47.350386 
L 116.559785 47.324828 
L 120.675651 47.222595 
L 120.675651 47.197037 
L 121.190134 47.094804 
L 121.190134 47.069246 
L 122.493492 46.967013 
L 122.493492 46.941455 
L 123.865448 46.839222 
L 123.865448 46.813664 
L 125.614691 46.711431 
L 125.614691 46.685873 
L 128.187107 46.58364 
L 128.187107 46.532524 
L 131.445501 46.430291 
L 131.445501 46.404733 
L 132.71456 46.328058 
L 132.71456 46.276942 
L 134.120814 46.174709 
L 134.189412 46.098035 
L 136.281644 45.995802 
L 136.315943 45.944685 
L 137.207714 45.868011 
L 137.310611 45.791336 
L 138.956957 45.689103 
L 138.956957 45.663545 
L 140.843396 45.561312 
L 140.843396 45.535754 
L 144.273285 45.433521 
L 144.273285 45.407963 
L 146.605609 45.30573 
L 146.605609 45.280172 
L 148.937933 45.203498 
L 149.04083 45.126823 
L 151.681844 45.02459 
L 151.681844 44.999032 
L 152.916604 44.896799 
L 152.916604 44.871241 
L 154.597249 44.769008 
L 154.597249 44.74345 
L 157.95854 44.641217 
L 157.95854 44.615659 
L 164.543926 44.513426 
L 164.543926 44.487868 
L 173.290142 44.385635 
L 173.290142 44.360077 
L 177.37171 44.257844 
L 177.440307 44.206728 
L 183.065325 44.104495 
L 183.065325 44.078937 
L 190.542482 43.976704 
L 190.542482 43.951146 
L 200.523458 43.848913 
L 200.523458 43.823355 
L 203.335966 43.721122 
L 203.335966 43.695564 
L 215.169082 43.593331 
L 215.169082 43.567773 
L 222.543342 43.46554 
L 222.543342 43.414423 
L 232.078433 43.312191 
L 232.078433 43.286632 
L 240.550257 43.1844 
L 240.550257 43.158841 
L 246.826954 43.056609 
L 246.826954 43.03105 
L 250.94282 42.928818 
L 250.94282 42.903259 
L 256.019055 42.801027 
L 256.019055 42.775468 
L 274.677649 42.673235 
L 274.677649 42.647677 
L 282.909381 42.545444 
L 282.909381 42.519886 
L 299.853031 42.417653 
L 299.88733 42.366537 
L 317.44836 42.264304 
L 317.44836 42.238746 
L 324.719723 42.136513 
L 324.719723 42.110955 
L 329.624464 42.008722 
L 329.624464 41.983164 
L 350.100899 41.880931 
L 350.100899 41.855373 
L 370.028552 41.75314 
L 370.028552 41.727582 
L 384.091095 41.625349 
L 384.091095 41.599791 
L 410.741329 41.497558 
L 410.741329 41.472 
L 414.72 41.472 
L 414.72 41.472 
" style="fill:none;stroke:#ff0000;stroke-linecap:square;stroke-width:1.5;"/>
   </g>
   <g id="line2d_14">
    <path clip-path="url(#p4a9310579b)" d="M 57.6 307.584 
L 57.702897 301.245566 
L 57.737196 301.245566 
L 57.840092 295.92946 
L 57.874391 295.92946 
L 57.874391 295.878343 
L 57.977288 290.076632 
L 58.011587 290.076632 
L 58.114483 286.472925 
L 58.148782 286.472925 
L 58.251679 283.124801 
L 58.285978 283.124801 
L 58.388874 276.607459 
L 58.423173 276.607459 
L 58.52607 274.818385 
L 58.560369 274.818385 
L 58.663265 270.805747 
L 58.731863 270.729073 
L 58.83476 263.036054 
L 58.869059 263.036054 
L 58.971955 260.199093 
L 59.006254 260.199093 
L 59.109151 254.755196 
L 59.14345 254.755196 
L 59.246347 253.502844 
L 59.280645 253.502844 
L 59.383542 248.927926 
L 59.417841 248.927926 
L 59.520738 246.16764 
L 59.555036 246.16764 
L 59.657933 242.231677 
L 59.692232 242.231677 
L 59.795129 237.426735 
L 59.829428 237.426735 
L 59.932324 234.538658 
L 59.966623 234.538658 
L 60.06952 232.979608 
L 60.138118 232.902934 
L 60.241014 231.880605 
L 60.275313 231.880605 
L 60.37821 229.222552 
L 60.412509 229.222552 
L 60.481106 225.84887 
L 60.584003 225.84887 
L 60.6869 223.932005 
L 60.755498 223.85533 
L 60.858394 221.120602 
L 60.892693 221.120602 
L 60.99559 217.261314 
L 61.029889 217.261314 
L 61.132785 212.48193 
L 61.201383 212.48193 
L 61.30428 211.025113 
L 61.338579 211.025113 
L 61.441475 206.475753 
L 61.475774 206.450194 
L 61.578671 201.54302 
L 61.61297 201.54302 
L 61.715866 199.856178 
L 61.750165 199.856178 
L 61.853062 198.501594 
L 61.887361 198.501594 
L 61.990257 192.699882 
L 62.024556 192.699882 
L 62.127453 190.885249 
L 62.161752 190.885249 
L 62.264648 189.147292 
L 62.298947 189.147292 
L 62.401844 186.591471 
L 62.436143 186.591471 
L 62.53904 184.112326 
L 62.573338 184.112326 
L 62.641936 183.371138 
L 62.710534 183.371138 
L 62.813431 179.154035 
L 62.882028 179.102918 
L 62.984925 178.36173 
L 63.019224 178.36173 
L 63.122121 176.853796 
L 63.225017 176.777122 
L 63.327914 174.988048 
L 63.362213 174.988048 
L 63.430811 172.304436 
L 63.499408 172.304436 
L 63.602305 169.748616 
L 63.636604 169.748616 
L 63.739501 166.093793 
L 63.773799 166.093793 
L 63.876696 164.841441 
L 63.910995 164.841441 
L 64.013892 163.486857 
L 64.048191 163.486857 
L 64.151087 160.215407 
L 64.185386 160.215407 
L 64.288283 156.228327 
L 64.322582 156.228327 
L 64.425478 154.592602 
L 64.494076 154.592602 
L 64.596973 153.238018 
L 64.66557 153.212459 
L 64.768467 151.06557 
L 64.802766 151.06557 
L 64.905663 149.710986 
L 64.939962 149.710986 
L 65.042858 148.586425 
L 65.077157 148.586425 
L 65.180054 147.66633 
L 65.214353 147.66633 
L 65.317249 145.928372 
L 65.385847 145.826139 
L 65.488744 145.008277 
L 65.557342 144.95716 
L 65.660238 142.835829 
L 65.728836 142.784713 
L 65.831733 142.222433 
L 65.866032 142.222433 
L 65.968928 139.436589 
L 66.037526 139.436589 
L 66.037526 139.359914 
L 66.140423 138.720959 
L 66.174721 138.720959 
L 66.277618 137.366374 
L 66.311917 137.366374 
L 66.414814 136.165139 
L 66.449113 136.165139 
L 66.552009 135.219485 
L 66.654906 135.142811 
L 66.757803 134.120483 
L 66.792101 134.120483 
L 66.894998 133.200387 
L 66.929297 133.200387 
L 67.032194 131.232406 
L 67.100791 131.181289 
L 67.203688 129.647797 
L 67.272286 129.571123 
L 67.375182 128.242096 
L 67.409481 128.242096 
L 67.512378 127.552025 
L 67.580976 127.552025 
L 67.649574 126.938628 
L 67.718171 126.938628 
L 67.821068 125.20067 
L 67.855367 125.20067 
L 67.958264 124.024993 
L 68.095459 123.92276 
L 68.198356 123.411596 
L 68.301252 123.360479 
L 68.404149 121.290265 
L 68.438448 121.290265 
L 68.541345 120.114588 
L 68.609942 120.012355 
L 68.712839 119.271167 
L 68.781437 119.245609 
L 68.884333 118.606654 
L 68.952931 118.555537 
L 69.055828 117.763233 
L 69.124426 117.763233 
L 69.227322 117.277627 
L 69.261621 117.277627 
L 69.364518 115.82081 
L 69.398817 115.82081 
L 69.501713 114.363992 
L 69.638909 114.338434 
L 69.741806 112.983849 
L 69.776104 112.983849 
L 69.879001 112.319336 
L 69.9133 112.319336 
L 70.016197 111.731498 
L 70.050496 111.731498 
L 70.153392 110.939193 
L 70.187691 110.939193 
L 70.290588 110.453587 
L 70.324887 110.453587 
L 70.427783 109.456818 
L 70.496381 109.354585 
L 70.599278 108.71563 
L 70.667876 108.613397 
L 70.770772 108.178907 
L 70.805071 108.178907 
L 70.873669 107.667743 
L 70.976566 107.667743 
L 71.079462 106.849881 
L 71.113761 106.849881 
L 71.216658 104.779667 
L 71.285255 104.779667 
L 71.388152 103.961804 
L 71.422451 103.961804 
L 71.525348 102.223846 
L 71.593945 102.121614 
L 71.696842 101.252635 
L 71.731141 101.252635 
L 71.834038 100.128074 
L 71.868337 100.128074 
L 71.936934 99.233537 
L 72.039831 99.131304 
L 72.142728 98.466791 
L 72.211325 98.390116 
L 72.314222 97.90451 
L 72.348521 97.90451 
L 72.451418 97.418904 
L 72.485716 97.418904 
L 72.588613 95.323132 
L 72.657211 95.323132 
L 72.760108 94.837526 
L 72.828705 94.78641 
L 72.931602 93.866314 
L 73.034499 93.78964 
L 73.103096 92.843986 
L 73.171694 92.843986 
L 73.240292 92.051682 
L 73.30889 92.051682 
L 73.411786 91.284936 
L 73.446085 91.284936 
L 73.548982 90.185933 
L 73.583281 90.185933 
L 73.686177 89.163605 
L 73.789074 89.08693 
L 73.891971 88.703557 
L 73.994867 88.652441 
L 74.097764 87.885695 
L 74.132063 87.885695 
L 74.23496 87.221182 
L 74.303557 87.118949 
L 74.406454 86.863367 
L 74.440753 86.863367 
L 74.54365 86.173295 
L 74.612247 86.147737 
L 74.715144 84.818711 
L 74.749443 84.818711 
L 74.818041 84.460896 
L 74.886638 84.460896 
L 74.989535 83.515242 
L 75.126731 83.489684 
L 75.229627 82.722938 
L 75.298225 82.646264 
L 75.401122 82.390682 
L 75.504018 82.365123 
L 75.606915 81.598377 
L 75.675513 81.572819 
L 75.744111 81.368353 
L 75.847007 81.291679 
L 75.915605 81.036097 
L 75.984203 81.036097 
L 76.0871 80.601607 
L 76.121398 80.601607 
L 76.224295 79.988211 
L 76.258594 79.988211 
L 76.361491 78.505835 
L 76.567284 78.403602 
L 76.670181 77.86688 
L 76.738778 77.790205 
L 76.841675 77.406832 
L 76.875974 77.406832 
L 76.978871 76.844552 
L 77.047468 76.844552 
L 77.150365 76.128922 
L 77.253262 76.077806 
L 77.287561 75.719991 
L 77.390457 75.719991 
L 77.493354 75.285501 
L 77.561952 75.285501 
L 77.664848 74.851012 
L 77.699147 74.851012 
L 77.802044 74.084266 
L 77.870642 73.982033 
L 77.939239 73.828684 
L 78.076435 73.752009 
L 78.179332 73.521985 
L 78.21363 73.521985 
L 78.316527 73.010821 
L 78.350826 73.010821 
L 78.453723 72.474099 
L 78.52232 72.448541 
L 78.590918 72.090726 
L 78.659516 72.090726 
L 78.762413 71.502887 
L 78.796711 71.502887 
L 78.899608 70.838374 
L 79.036804 70.7617 
L 79.105401 70.301652 
L 79.276896 70.224977 
L 79.379793 69.994954 
L 79.482689 69.918279 
L 79.585586 69.586022 
L 79.825678 69.509348 
L 79.928575 69.228207 
L 79.997172 69.177091 
L 80.100069 68.410345 
L 80.168667 68.359229 
L 80.271564 68.001414 
L 80.408759 67.899181 
L 80.511656 67.745832 
L 80.545955 67.745832 
L 80.648851 67.464692 
L 80.786047 67.388017 
L 80.820346 67.260226 
L 80.957541 67.209109 
L 81.060438 67.030202 
L 81.231932 66.927969 
L 81.334829 66.416805 
L 81.437726 66.314572 
L 81.540622 66.135665 
L 81.574921 66.135665 
L 81.643519 65.828967 
L 81.746416 65.726734 
L 81.849312 65.368919 
L 81.986508 65.266686 
L 82.089405 64.755522 
L 82.2266 64.653289 
L 82.329497 64.244358 
L 82.363796 64.244358 
L 82.466692 63.554287 
L 82.569589 63.477612 
L 82.569589 63.170914 
L 82.775382 63.068681 
L 82.809681 63.017564 
L 82.981176 62.94089 
L 83.084072 62.787541 
L 83.186969 62.685308 
L 83.289866 62.353051 
L 83.358463 62.353051 
L 83.46136 62.148585 
L 83.564257 62.097469 
L 83.667153 61.969678 
L 83.735751 61.918562 
L 83.838648 61.611863 
L 83.907245 61.560747 
L 84.010142 61.075141 
L 84.07874 60.998466 
L 84.181637 60.845117 
L 84.38743 60.742884 
L 84.490327 60.589535 
L 84.69612 60.512861 
L 84.799017 60.333953 
L 84.901913 60.23172 
L 85.00481 59.976138 
L 85.039109 59.976138 
L 85.142005 59.618323 
L 85.382098 59.516091 
L 85.484994 59.209392 
L 85.656489 59.107159 
L 85.690788 58.902694 
L 85.965179 58.826019 
L 86.033776 58.723786 
L 86.136673 58.698228 
L 86.23957 58.212622 
L 86.308167 58.135948 
L 86.411064 57.650342 
L 86.54826 57.548109 
L 86.616857 57.318085 
L 86.822651 57.215852 
L 86.925547 56.934712 
L 87.028444 56.858038 
L 87.062743 56.67913 
L 87.16564 56.67913 
L 87.234237 56.525781 
L 87.405732 56.423548 
L 87.508629 56.219083 
L 87.645824 56.11685 
L 87.748721 55.989059 
L 87.851617 55.886826 
L 87.954514 55.656802 
L 88.160307 55.554569 
L 88.263204 55.375662 
L 88.4004 55.273429 
L 88.503296 55.017847 
L 88.70909 54.915614 
L 88.811986 54.83894 
L 88.949182 54.762265 
L 89.017779 54.68559 
L 89.292171 54.583358 
L 89.395067 54.430008 
L 89.635159 54.353334 
L 89.669458 54.276659 
L 89.978148 54.174426 
L 89.978148 54.148868 
L 90.355436 54.097752 
L 90.458333 53.918844 
L 90.938517 53.816612 
L 91.041414 53.612146 
L 91.350104 53.509913 
L 91.384403 53.382122 
L 91.727391 53.331006 
L 91.795989 53.177657 
L 92.173277 53.075424 
L 92.173277 53.024307 
L 92.68776 52.973191 
L 92.790657 52.8454 
L 93.408037 52.743167 
L 93.510934 52.589818 
L 93.853922 52.487585 
L 93.853922 52.462027 
L 94.368406 52.359794 
L 94.402705 52.283119 
L 94.985786 52.180887 
L 94.985786 52.104212 
L 95.568867 52.001979 
L 95.637464 51.84863 
L 96.014752 51.746397 
L 96.014752 51.644164 
L 96.357741 51.541932 
L 96.357741 51.465257 
L 96.666431 51.363024 
L 96.735029 51.311908 
L 97.112317 51.209675 
L 97.215213 51.056326 
L 97.6268 50.954093 
L 97.6268 50.928535 
L 98.655766 50.826302 
L 98.655766 50.775186 
L 100.130619 50.672953 
L 100.130619 50.647395 
L 100.473607 50.545162 
L 100.473607 50.519604 
L 101.02239 50.417371 
L 101.056688 50.366254 
L 101.674068 50.28958 
L 101.742666 50.110672 
L 102.394345 50.008439 
L 102.394345 49.982881 
L 102.908828 49.880648 
L 102.908828 49.85509 
L 103.526208 49.752857 
L 103.526208 49.727299 
L 104.212186 49.625066 
L 104.315083 49.548392 
L 105.172555 49.446159 
L 105.206854 49.395043 
L 105.995728 49.29281 
L 105.995728 49.267252 
L 106.716005 49.165019 
L 106.716005 49.139461 
L 107.539178 49.037228 
L 107.539178 49.01167 
L 108.328052 48.909437 
L 108.328052 48.883879 
L 109.357019 48.781646 
L 109.425617 48.730529 
L 110.008698 48.628297 
L 110.008698 48.602738 
L 111.106262 48.500506 
L 111.106262 48.474947 
L 111.620745 48.372715 
L 111.620745 48.347156 
L 112.958402 48.244924 
L 112.958402 48.219365 
L 113.575782 48.117133 
L 113.610081 48.040458 
L 113.987368 47.938225 
L 113.987368 47.887109 
L 115.187829 47.784876 
L 115.222128 47.73376 
L 116.113899 47.631527 
L 116.216796 47.58041 
L 117.245763 47.478177 
L 117.280061 47.427061 
L 118.274729 47.324828 
L 118.274729 47.29927 
L 118.823511 47.222595 
L 118.823511 47.171479 
L 119.852478 47.069246 
L 119.852478 47.043688 
L 120.675651 46.941455 
L 120.70995 46.890339 
L 122.116204 46.788106 
L 122.116204 46.762548 
L 124.208436 46.660315 
L 124.208436 46.609199 
L 125.408897 46.506966 
L 125.408897 46.481408 
L 126.712255 46.379175 
L 126.780853 46.3025 
L 127.947015 46.200267 
L 128.015613 46.123593 
L 129.387568 46.02136 
L 129.387568 45.995802 
L 129.696258 45.893569 
L 129.799155 45.842453 
L 131.685594 45.74022 
L 131.78849 45.663545 
L 134.120814 45.561312 
L 134.120814 45.535754 
L 137.03622 45.433521 
L 137.03622 45.407963 
L 139.162751 45.30573 
L 139.162751 45.280172 
L 142.524041 45.177939 
L 142.592639 45.101265 
L 145.130757 44.999032 
L 145.130757 44.947915 
L 150.995866 44.845683 
L 150.995866 44.820124 
L 155.48902 44.717892 
L 155.48902 44.692333 
L 158.370127 44.615659 
L 158.370127 44.564542 
L 161.800015 44.46231 
L 161.800015 44.436751 
L 165.915882 44.334519 
L 165.915882 44.30896 
L 170.923519 44.206728 
L 170.923519 44.181169 
L 176.960123 44.078937 
L 176.994422 44.02782 
L 183.717003 43.925587 
L 183.717003 43.900029 
L 188.107261 43.797796 
L 188.175859 43.74668 
L 196.44189 43.644447 
L 196.44189 43.618889 
L 201.209435 43.516656 
L 201.209435 43.491098 
L 208.275006 43.388865 
L 208.275006 43.363307 
L 218.804764 43.261074 
L 218.804764 43.235516 
L 229.163027 43.133283 
L 229.163027 43.107725 
L 234.822343 43.005492 
L 234.822343 42.979934 
L 246.655459 42.877701 
L 246.655459 42.852143 
L 250.805624 42.74991 
L 250.805624 42.724352 
L 261.644072 42.622119 
L 261.644072 42.596561 
L 282.429197 42.494328 
L 282.429197 42.46877 
L 289.940653 42.366537 
L 289.940653 42.340979 
L 300.539009 42.238746 
L 300.539009 42.213188 
L 326.880553 42.110955 
L 326.880553 42.085397 
L 343.241122 41.983164 
L 343.241122 41.957606 
L 356.343296 41.855373 
L 356.343296 41.829815 
L 373.081153 41.727582 
L 373.081153 41.702024 
L 406.179577 41.599791 
L 406.179577 41.574233 
L 414.72 41.472 
L 414.72 41.472 
" style="fill:none;stroke:#008000;stroke-linecap:square;stroke-width:1.5;"/>
   </g>
   <g id="patch_3">
    <path d="M 57.6 307.584 
L 57.6 41.472 
" style="fill:none;stroke:#000000;stroke-linecap:square;stroke-linejoin:miter;stroke-width:0.8;"/>
   </g>
   <g id="patch_4">
    <path d="M 414.72 307.584 
L 414.72 41.472 
" style="fill:none;stroke:#000000;stroke-linecap:square;stroke-linejoin:miter;stroke-width:0.8;"/>
   </g>
   <g id="patch_5">
    <path d="M 57.6 307.584 
L 414.72 307.584 
" style="fill:none;stroke:#000000;stroke-linecap:square;stroke-linejoin:miter;stroke-width:0.8;"/>
   </g>
   <g id="patch_6">
    <path d="M 57.6 41.472 
L 414.72 41.472 
" style="fill:none;stroke:#000000;stroke-linecap:square;stroke-linejoin:miter;stroke-width:0.8;"/>
   </g>
   <g id="legend_1">
    <g id="patch_7">
     <path d="M 309.155937 78.82825 
L 407.72 78.82825 
Q 409.72 78.82825 409.72 76.82825 
L 409.72 48.472 
Q 409.72 46.472 407.72 46.472 
L 309.155937 46.472 
Q 307.155937 46.472 307.155937 48.472 
L 307.155937 76.82825 
Q 307.155937 78.82825 309.155937 78.82825 
z
" style="fill:#ffffff;opacity:0.8;stroke:#cccccc;stroke-linejoin:miter;"/>
    </g>
    <g id="line2d_15">
     <path d="M 311.155937 54.570437 
L 331.155937 54.570437 
" style="fill:none;stroke:#ff0000;stroke-linecap:square;stroke-width:1.5;"/>
    </g>
    <g id="line2d_16"/>
    <g id="text_15">
     <!-- with kmer -->
     <defs>
      <path d="M 4.203125 54.6875 
L 13.1875 54.6875 
L 24.421875 12.015625 
L 35.59375 54.6875 
L 46.1875 54.6875 
L 57.421875 12.015625 
L 68.609375 54.6875 
L 77.59375 54.6875 
L 63.28125 0 
L 52.6875 0 
L 40.921875 44.828125 
L 29.109375 0 
L 18.5 0 
z
" id="DejaVuSans-119"/>
      <path d="M 54.890625 33.015625 
L 54.890625 0 
L 45.90625 0 
L 45.90625 32.71875 
Q 45.90625 40.484375 42.875 44.328125 
Q 39.84375 48.1875 33.796875 48.1875 
Q 26.515625 48.1875 22.3125 43.546875 
Q 18.109375 38.921875 18.109375 30.90625 
L 18.109375 0 
L 9.078125 0 
L 9.078125 75.984375 
L 18.109375 75.984375 
L 18.109375 46.1875 
Q 21.34375 51.125 25.703125 53.5625 
Q 30.078125 56 35.796875 56 
Q 45.21875 56 50.046875 50.171875 
Q 54.890625 44.34375 54.890625 33.015625 
z
" id="DejaVuSans-104"/>
      <path d="M 9.078125 75.984375 
L 18.109375 75.984375 
L 18.109375 31.109375 
L 44.921875 54.6875 
L 56.390625 54.6875 
L 27.390625 29.109375 
L 57.625 0 
L 45.90625 0 
L 18.109375 26.703125 
L 18.109375 0 
L 9.078125 0 
z
" id="DejaVuSans-107"/>
      <path d="M 52 44.1875 
Q 55.375 50.25 60.0625 53.125 
Q 64.75 56 71.09375 56 
Q 79.640625 56 84.28125 50.015625 
Q 88.921875 44.046875 88.921875 33.015625 
L 88.921875 0 
L 79.890625 0 
L 79.890625 32.71875 
Q 79.890625 40.578125 77.09375 44.375 
Q 74.3125 48.1875 68.609375 48.1875 
Q 61.625 48.1875 57.5625 43.546875 
Q 53.515625 38.921875 53.515625 30.90625 
L 53.515625 0 
L 44.484375 0 
L 44.484375 32.71875 
Q 44.484375 40.625 41.703125 44.40625 
Q 38.921875 48.1875 33.109375 48.1875 
Q 26.21875 48.1875 22.15625 43.53125 
Q 18.109375 38.875 18.109375 30.90625 
L 18.109375 0 
L 9.078125 0 
L 9.078125 54.6875 
L 18.109375 54.6875 
L 18.109375 46.1875 
Q 21.1875 51.21875 25.484375 53.609375 
Q 29.78125 56 35.6875 56 
Q 41.65625 56 45.828125 52.96875 
Q 50 49.953125 52 44.1875 
z
" id="DejaVuSans-109"/>
     </defs>
     <g transform="translate(339.155937 58.070437)scale(0.1 -0.1)">
      <use xlink:href="#DejaVuSans-119"/>
      <use x="81.787109" xlink:href="#DejaVuSans-105"/>
      <use x="109.570312" xlink:href="#DejaVuSans-116"/>
      <use x="148.779297" xlink:href="#DejaVuSans-104"/>
      <use x="212.158203" xlink:href="#DejaVuSans-32"/>
      <use x="243.945312" xlink:href="#DejaVuSans-107"/>
      <use x="301.855469" xlink:href="#DejaVuSans-109"/>
      <use x="399.267578" xlink:href="#DejaVuSans-101"/>
      <use x="460.791016" xlink:href="#DejaVuSans-114"/>
     </g>
    </g>
    <g id="line2d_17">
     <path d="M 311.155937 69.248562 
L 331.155937 69.248562 
" style="fill:none;stroke:#008000;stroke-linecap:square;stroke-width:1.5;"/>
    </g>
    <g id="line2d_18"/>
    <g id="text_16">
     <!-- without kmer -->
     <g transform="translate(339.155937 72.748562)scale(0.1 -0.1)">
      <use xlink:href="#DejaVuSans-119"/>
      <use x="81.787109" xlink:href="#DejaVuSans-105"/>
      <use x="109.570312" xlink:href="#DejaVuSans-116"/>
      <use x="148.779297" xlink:href="#DejaVuSans-104"/>
      <use x="212.158203" xlink:href="#DejaVuSans-111"/>
      <use x="273.339844" xlink:href="#DejaVuSans-117"/>
      <use x="336.71875" xlink:href="#DejaVuSans-116"/>
      <use x="375.927734" xlink:href="#DejaVuSans-32"/>
      <use x="407.714844" xlink:href="#DejaVuSans-107"/>
      <use x="465.625" xlink:href="#DejaVuSans-109"/>
      <use x="563.037109" xlink:href="#DejaVuSans-101"/>
      <use x="624.560547" xlink:href="#DejaVuSans-114"/>
     </g>
    </g>
   </g>
  </g>
 </g>
 <defs>
  <clipPath id="p4a9310579b">
   <rect height="266.112" width="357.12" x="57.6" y="41.472"/>
  </clipPath>
 </defs>
</svg>
