<?xml version="1.0" encoding="utf-8" standalone="no"?>
<!DOCTYPE svg PUBLIC "-//W3C//DTD SVG 1.1//EN"
  "http://www.w3.org/Graphics/SVG/1.1/DTD/svg11.dtd">
<!-- Created with matplotlib (https://matplotlib.org/) -->
<svg height="345.6pt" version="1.1" viewBox="0 0 460.8 345.6" width="460.8pt" xmlns="http://www.w3.org/2000/svg" xmlns:xlink="http://www.w3.org/1999/xlink">
 <defs>
  <style type="text/css">
*{stroke-linecap:butt;stroke-linejoin:round;}
  </style>
 </defs>
 <g id="figure_1">
  <g id="patch_1">
   <path d="M 0 345.6 
L 460.8 345.6 
L 460.8 0 
L 0 0 
z
" style="fill:#ffffff;"/>
  </g>
  <g id="axes_1">
   <g id="patch_2">
    <path d="M 57.6 307.584 
L 414.72 307.584 
L 414.72 41.472 
L 57.6 41.472 
z
" style="fill:#ffffff;"/>
   </g>
   <g id="matplotlib.axis_1">
    <g id="xtick_1">
     <g id="line2d_1">
      <defs>
       <path d="M 0 0 
L 0 3.5 
" id="m3030d26a2e" style="stroke:#000000;stroke-width:0.8;"/>
      </defs>
      <g>
       <use style="stroke:#000000;stroke-width:0.8;" x="57.6" xlink:href="#m3030d26a2e" y="307.584"/>
      </g>
     </g>
     <g id="text_1">
      <!-- 0.0 -->
      <defs>
       <path d="M 31.78125 66.40625 
Q 24.171875 66.40625 20.328125 58.90625 
Q 16.5 51.421875 16.5 36.375 
Q 16.5 21.390625 20.328125 13.890625 
Q 24.171875 6.390625 31.78125 6.390625 
Q 39.453125 6.390625 43.28125 13.890625 
Q 47.125 21.390625 47.125 36.375 
Q 47.125 51.421875 43.28125 58.90625 
Q 39.453125 66.40625 31.78125 66.40625 
z
M 31.78125 74.21875 
Q 44.046875 74.21875 50.515625 64.515625 
Q 56.984375 54.828125 56.984375 36.375 
Q 56.984375 17.96875 50.515625 8.265625 
Q 44.046875 -1.421875 31.78125 -1.421875 
Q 19.53125 -1.421875 13.0625 8.265625 
Q 6.59375 17.96875 6.59375 36.375 
Q 6.59375 54.828125 13.0625 64.515625 
Q 19.53125 74.21875 31.78125 74.21875 
z
" id="DejaVuSans-48"/>
       <path d="M 10.6875 12.40625 
L 21 12.40625 
L 21 0 
L 10.6875 0 
z
" id="DejaVuSans-46"/>
      </defs>
      <g transform="translate(49.648438 322.182437)scale(0.1 -0.1)">
       <use xlink:href="#DejaVuSans-48"/>
       <use x="63.623047" xlink:href="#DejaVuSans-46"/>
       <use x="95.410156" xlink:href="#DejaVuSans-48"/>
      </g>
     </g>
    </g>
    <g id="xtick_2">
     <g id="line2d_2">
      <g>
       <use style="stroke:#000000;stroke-width:0.8;" x="129.024" xlink:href="#m3030d26a2e" y="307.584"/>
      </g>
     </g>
     <g id="text_2">
      <!-- 0.2 -->
      <defs>
       <path d="M 19.1875 8.296875 
L 53.609375 8.296875 
L 53.609375 0 
L 7.328125 0 
L 7.328125 8.296875 
Q 12.9375 14.109375 22.625 23.890625 
Q 32.328125 33.6875 34.8125 36.53125 
Q 39.546875 41.84375 41.421875 45.53125 
Q 43.3125 49.21875 43.3125 52.78125 
Q 43.3125 58.59375 39.234375 62.25 
Q 35.15625 65.921875 28.609375 65.921875 
Q 23.96875 65.921875 18.8125 64.3125 
Q 13.671875 62.703125 7.8125 59.421875 
L 7.8125 69.390625 
Q 13.765625 71.78125 18.9375 73 
Q 24.125 74.21875 28.421875 74.21875 
Q 39.75 74.21875 46.484375 68.546875 
Q 53.21875 62.890625 53.21875 53.421875 
Q 53.21875 48.921875 51.53125 44.890625 
Q 49.859375 40.875 45.40625 35.40625 
Q 44.1875 33.984375 37.640625 27.21875 
Q 31.109375 20.453125 19.1875 8.296875 
z
" id="DejaVuSans-50"/>
      </defs>
      <g transform="translate(121.072438 322.182437)scale(0.1 -0.1)">
       <use xlink:href="#DejaVuSans-48"/>
       <use x="63.623047" xlink:href="#DejaVuSans-46"/>
       <use x="95.410156" xlink:href="#DejaVuSans-50"/>
      </g>
     </g>
    </g>
    <g id="xtick_3">
     <g id="line2d_3">
      <g>
       <use style="stroke:#000000;stroke-width:0.8;" x="200.448" xlink:href="#m3030d26a2e" y="307.584"/>
      </g>
     </g>
     <g id="text_3">
      <!-- 0.4 -->
      <defs>
       <path d="M 37.796875 64.3125 
L 12.890625 25.390625 
L 37.796875 25.390625 
z
M 35.203125 72.90625 
L 47.609375 72.90625 
L 47.609375 25.390625 
L 58.015625 25.390625 
L 58.015625 17.1875 
L 47.609375 17.1875 
L 47.609375 0 
L 37.796875 0 
L 37.796875 17.1875 
L 4.890625 17.1875 
L 4.890625 26.703125 
z
" id="DejaVuSans-52"/>
      </defs>
      <g transform="translate(192.496438 322.182437)scale(0.1 -0.1)">
       <use xlink:href="#DejaVuSans-48"/>
       <use x="63.623047" xlink:href="#DejaVuSans-46"/>
       <use x="95.410156" xlink:href="#DejaVuSans-52"/>
      </g>
     </g>
    </g>
    <g id="xtick_4">
     <g id="line2d_4">
      <g>
       <use style="stroke:#000000;stroke-width:0.8;" x="271.872" xlink:href="#m3030d26a2e" y="307.584"/>
      </g>
     </g>
     <g id="text_4">
      <!-- 0.6 -->
      <defs>
       <path d="M 33.015625 40.375 
Q 26.375 40.375 22.484375 35.828125 
Q 18.609375 31.296875 18.609375 23.390625 
Q 18.609375 15.53125 22.484375 10.953125 
Q 26.375 6.390625 33.015625 6.390625 
Q 39.65625 6.390625 43.53125 10.953125 
Q 47.40625 15.53125 47.40625 23.390625 
Q 47.40625 31.296875 43.53125 35.828125 
Q 39.65625 40.375 33.015625 40.375 
z
M 52.59375 71.296875 
L 52.59375 62.3125 
Q 48.875 64.0625 45.09375 64.984375 
Q 41.3125 65.921875 37.59375 65.921875 
Q 27.828125 65.921875 22.671875 59.328125 
Q 17.53125 52.734375 16.796875 39.40625 
Q 19.671875 43.65625 24.015625 45.921875 
Q 28.375 48.1875 33.59375 48.1875 
Q 44.578125 48.1875 50.953125 41.515625 
Q 57.328125 34.859375 57.328125 23.390625 
Q 57.328125 12.15625 50.6875 5.359375 
Q 44.046875 -1.421875 33.015625 -1.421875 
Q 20.359375 -1.421875 13.671875 8.265625 
Q 6.984375 17.96875 6.984375 36.375 
Q 6.984375 53.65625 15.1875 63.9375 
Q 23.390625 74.21875 37.203125 74.21875 
Q 40.921875 74.21875 44.703125 73.484375 
Q 48.484375 72.75 52.59375 71.296875 
z
" id="DejaVuSans-54"/>
      </defs>
      <g transform="translate(263.920438 322.182437)scale(0.1 -0.1)">
       <use xlink:href="#DejaVuSans-48"/>
       <use x="63.623047" xlink:href="#DejaVuSans-46"/>
       <use x="95.410156" xlink:href="#DejaVuSans-54"/>
      </g>
     </g>
    </g>
    <g id="xtick_5">
     <g id="line2d_5">
      <g>
       <use style="stroke:#000000;stroke-width:0.8;" x="343.296" xlink:href="#m3030d26a2e" y="307.584"/>
      </g>
     </g>
     <g id="text_5">
      <!-- 0.8 -->
      <defs>
       <path d="M 31.78125 34.625 
Q 24.75 34.625 20.71875 30.859375 
Q 16.703125 27.09375 16.703125 20.515625 
Q 16.703125 13.921875 20.71875 10.15625 
Q 24.75 6.390625 31.78125 6.390625 
Q 38.8125 6.390625 42.859375 10.171875 
Q 46.921875 13.96875 46.921875 20.515625 
Q 46.921875 27.09375 42.890625 30.859375 
Q 38.875 34.625 31.78125 34.625 
z
M 21.921875 38.8125 
Q 15.578125 40.375 12.03125 44.71875 
Q 8.5 49.078125 8.5 55.328125 
Q 8.5 64.0625 14.71875 69.140625 
Q 20.953125 74.21875 31.78125 74.21875 
Q 42.671875 74.21875 48.875 69.140625 
Q 55.078125 64.0625 55.078125 55.328125 
Q 55.078125 49.078125 51.53125 44.71875 
Q 48 40.375 41.703125 38.8125 
Q 48.828125 37.15625 52.796875 32.3125 
Q 56.78125 27.484375 56.78125 20.515625 
Q 56.78125 9.90625 50.3125 4.234375 
Q 43.84375 -1.421875 31.78125 -1.421875 
Q 19.734375 -1.421875 13.25 4.234375 
Q 6.78125 9.90625 6.78125 20.515625 
Q 6.78125 27.484375 10.78125 32.3125 
Q 14.796875 37.15625 21.921875 38.8125 
z
M 18.3125 54.390625 
Q 18.3125 48.734375 21.84375 45.5625 
Q 25.390625 42.390625 31.78125 42.390625 
Q 38.140625 42.390625 41.71875 45.5625 
Q 45.3125 48.734375 45.3125 54.390625 
Q 45.3125 60.0625 41.71875 63.234375 
Q 38.140625 66.40625 31.78125 66.40625 
Q 25.390625 66.40625 21.84375 63.234375 
Q 18.3125 60.0625 18.3125 54.390625 
z
" id="DejaVuSans-56"/>
      </defs>
      <g transform="translate(335.344438 322.182437)scale(0.1 -0.1)">
       <use xlink:href="#DejaVuSans-48"/>
       <use x="63.623047" xlink:href="#DejaVuSans-46"/>
       <use x="95.410156" xlink:href="#DejaVuSans-56"/>
      </g>
     </g>
    </g>
    <g id="xtick_6">
     <g id="line2d_6">
      <g>
       <use style="stroke:#000000;stroke-width:0.8;" x="414.72" xlink:href="#m3030d26a2e" y="307.584"/>
      </g>
     </g>
     <g id="text_6">
      <!-- 1.0 -->
      <defs>
       <path d="M 12.40625 8.296875 
L 28.515625 8.296875 
L 28.515625 63.921875 
L 10.984375 60.40625 
L 10.984375 69.390625 
L 28.421875 72.90625 
L 38.28125 72.90625 
L 38.28125 8.296875 
L 54.390625 8.296875 
L 54.390625 0 
L 12.40625 0 
z
" id="DejaVuSans-49"/>
      </defs>
      <g transform="translate(406.768438 322.182437)scale(0.1 -0.1)">
       <use xlink:href="#DejaVuSans-49"/>
       <use x="63.623047" xlink:href="#DejaVuSans-46"/>
       <use x="95.410156" xlink:href="#DejaVuSans-48"/>
      </g>
     </g>
    </g>
    <g id="text_7">
     <!-- False positive rate -->
     <defs>
      <path d="M 9.8125 72.90625 
L 51.703125 72.90625 
L 51.703125 64.59375 
L 19.671875 64.59375 
L 19.671875 43.109375 
L 48.578125 43.109375 
L 48.578125 34.8125 
L 19.671875 34.8125 
L 19.671875 0 
L 9.8125 0 
z
" id="DejaVuSans-70"/>
      <path d="M 34.28125 27.484375 
Q 23.390625 27.484375 19.1875 25 
Q 14.984375 22.515625 14.984375 16.5 
Q 14.984375 11.71875 18.140625 8.90625 
Q 21.296875 6.109375 26.703125 6.109375 
Q 34.1875 6.109375 38.703125 11.40625 
Q 43.21875 16.703125 43.21875 25.484375 
L 43.21875 27.484375 
z
M 52.203125 31.203125 
L 52.203125 0 
L 43.21875 0 
L 43.21875 8.296875 
Q 40.140625 3.328125 35.546875 0.953125 
Q 30.953125 -1.421875 24.3125 -1.421875 
Q 15.921875 -1.421875 10.953125 3.296875 
Q 6 8.015625 6 15.921875 
Q 6 25.140625 12.171875 29.828125 
Q 18.359375 34.515625 30.609375 34.515625 
L 43.21875 34.515625 
L 43.21875 35.40625 
Q 43.21875 41.609375 39.140625 45 
Q 35.0625 48.390625 27.6875 48.390625 
Q 23 48.390625 18.546875 47.265625 
Q 14.109375 46.140625 10.015625 43.890625 
L 10.015625 52.203125 
Q 14.9375 54.109375 19.578125 55.046875 
Q 24.21875 56 28.609375 56 
Q 40.484375 56 46.34375 49.84375 
Q 52.203125 43.703125 52.203125 31.203125 
z
" id="DejaVuSans-97"/>
      <path d="M 9.421875 75.984375 
L 18.40625 75.984375 
L 18.40625 0 
L 9.421875 0 
z
" id="DejaVuSans-108"/>
      <path d="M 44.28125 53.078125 
L 44.28125 44.578125 
Q 40.484375 46.53125 36.375 47.5 
Q 32.28125 48.484375 27.875 48.484375 
Q 21.1875 48.484375 17.84375 46.4375 
Q 14.5 44.390625 14.5 40.28125 
Q 14.5 37.15625 16.890625 35.375 
Q 19.28125 33.59375 26.515625 31.984375 
L 29.59375 31.296875 
Q 39.15625 29.25 43.1875 25.515625 
Q 47.21875 21.78125 47.21875 15.09375 
Q 47.21875 7.46875 41.1875 3.015625 
Q 35.15625 -1.421875 24.609375 -1.421875 
Q 20.21875 -1.421875 15.453125 -0.5625 
Q 10.6875 0.296875 5.421875 2 
L 5.421875 11.28125 
Q 10.40625 8.6875 15.234375 7.390625 
Q 20.0625 6.109375 24.8125 6.109375 
Q 31.15625 6.109375 34.5625 8.28125 
Q 37.984375 10.453125 37.984375 14.40625 
Q 37.984375 18.0625 35.515625 20.015625 
Q 33.0625 21.96875 24.703125 23.78125 
L 21.578125 24.515625 
Q 13.234375 26.265625 9.515625 29.90625 
Q 5.8125 33.546875 5.8125 39.890625 
Q 5.8125 47.609375 11.28125 51.796875 
Q 16.75 56 26.8125 56 
Q 31.78125 56 36.171875 55.265625 
Q 40.578125 54.546875 44.28125 53.078125 
z
" id="DejaVuSans-115"/>
      <path d="M 56.203125 29.59375 
L 56.203125 25.203125 
L 14.890625 25.203125 
Q 15.484375 15.921875 20.484375 11.0625 
Q 25.484375 6.203125 34.421875 6.203125 
Q 39.59375 6.203125 44.453125 7.46875 
Q 49.3125 8.734375 54.109375 11.28125 
L 54.109375 2.78125 
Q 49.265625 0.734375 44.1875 -0.34375 
Q 39.109375 -1.421875 33.890625 -1.421875 
Q 20.796875 -1.421875 13.15625 6.1875 
Q 5.515625 13.8125 5.515625 26.8125 
Q 5.515625 40.234375 12.765625 48.109375 
Q 20.015625 56 32.328125 56 
Q 43.359375 56 49.78125 48.890625 
Q 56.203125 41.796875 56.203125 29.59375 
z
M 47.21875 32.234375 
Q 47.125 39.59375 43.09375 43.984375 
Q 39.0625 48.390625 32.421875 48.390625 
Q 24.90625 48.390625 20.390625 44.140625 
Q 15.875 39.890625 15.1875 32.171875 
z
" id="DejaVuSans-101"/>
      <path id="DejaVuSans-32"/>
      <path d="M 18.109375 8.203125 
L 18.109375 -20.796875 
L 9.078125 -20.796875 
L 9.078125 54.6875 
L 18.109375 54.6875 
L 18.109375 46.390625 
Q 20.953125 51.265625 25.265625 53.625 
Q 29.59375 56 35.59375 56 
Q 45.5625 56 51.78125 48.09375 
Q 58.015625 40.1875 58.015625 27.296875 
Q 58.015625 14.40625 51.78125 6.484375 
Q 45.5625 -1.421875 35.59375 -1.421875 
Q 29.59375 -1.421875 25.265625 0.953125 
Q 20.953125 3.328125 18.109375 8.203125 
z
M 48.6875 27.296875 
Q 48.6875 37.203125 44.609375 42.84375 
Q 40.53125 48.484375 33.40625 48.484375 
Q 26.265625 48.484375 22.1875 42.84375 
Q 18.109375 37.203125 18.109375 27.296875 
Q 18.109375 17.390625 22.1875 11.75 
Q 26.265625 6.109375 33.40625 6.109375 
Q 40.53125 6.109375 44.609375 11.75 
Q 48.6875 17.390625 48.6875 27.296875 
z
" id="DejaVuSans-112"/>
      <path d="M 30.609375 48.390625 
Q 23.390625 48.390625 19.1875 42.75 
Q 14.984375 37.109375 14.984375 27.296875 
Q 14.984375 17.484375 19.15625 11.84375 
Q 23.34375 6.203125 30.609375 6.203125 
Q 37.796875 6.203125 41.984375 11.859375 
Q 46.1875 17.53125 46.1875 27.296875 
Q 46.1875 37.015625 41.984375 42.703125 
Q 37.796875 48.390625 30.609375 48.390625 
z
M 30.609375 56 
Q 42.328125 56 49.015625 48.375 
Q 55.71875 40.765625 55.71875 27.296875 
Q 55.71875 13.875 49.015625 6.21875 
Q 42.328125 -1.421875 30.609375 -1.421875 
Q 18.84375 -1.421875 12.171875 6.21875 
Q 5.515625 13.875 5.515625 27.296875 
Q 5.515625 40.765625 12.171875 48.375 
Q 18.84375 56 30.609375 56 
z
" id="DejaVuSans-111"/>
      <path d="M 9.421875 54.6875 
L 18.40625 54.6875 
L 18.40625 0 
L 9.421875 0 
z
M 9.421875 75.984375 
L 18.40625 75.984375 
L 18.40625 64.59375 
L 9.421875 64.59375 
z
" id="DejaVuSans-105"/>
      <path d="M 18.3125 70.21875 
L 18.3125 54.6875 
L 36.8125 54.6875 
L 36.8125 47.703125 
L 18.3125 47.703125 
L 18.3125 18.015625 
Q 18.3125 11.328125 20.140625 9.421875 
Q 21.96875 7.515625 27.59375 7.515625 
L 36.8125 7.515625 
L 36.8125 0 
L 27.59375 0 
Q 17.1875 0 13.234375 3.875 
Q 9.28125 7.765625 9.28125 18.015625 
L 9.28125 47.703125 
L 2.6875 47.703125 
L 2.6875 54.6875 
L 9.28125 54.6875 
L 9.28125 70.21875 
z
" id="DejaVuSans-116"/>
      <path d="M 2.984375 54.6875 
L 12.5 54.6875 
L 29.59375 8.796875 
L 46.6875 54.6875 
L 56.203125 54.6875 
L 35.6875 0 
L 23.484375 0 
z
" id="DejaVuSans-118"/>
      <path d="M 41.109375 46.296875 
Q 39.59375 47.171875 37.8125 47.578125 
Q 36.03125 48 33.890625 48 
Q 26.265625 48 22.1875 43.046875 
Q 18.109375 38.09375 18.109375 28.8125 
L 18.109375 0 
L 9.078125 0 
L 9.078125 54.6875 
L 18.109375 54.6875 
L 18.109375 46.1875 
Q 20.953125 51.171875 25.484375 53.578125 
Q 30.03125 56 36.53125 56 
Q 37.453125 56 38.578125 55.875 
Q 39.703125 55.765625 41.0625 55.515625 
z
" id="DejaVuSans-114"/>
     </defs>
     <g transform="translate(190.21 335.860562)scale(0.1 -0.1)">
      <use xlink:href="#DejaVuSans-70"/>
      <use x="57.378906" xlink:href="#DejaVuSans-97"/>
      <use x="118.658203" xlink:href="#DejaVuSans-108"/>
      <use x="146.441406" xlink:href="#DejaVuSans-115"/>
      <use x="198.541016" xlink:href="#DejaVuSans-101"/>
      <use x="260.064453" xlink:href="#DejaVuSans-32"/>
      <use x="291.851562" xlink:href="#DejaVuSans-112"/>
      <use x="355.328125" xlink:href="#DejaVuSans-111"/>
      <use x="416.509766" xlink:href="#DejaVuSans-115"/>
      <use x="468.609375" xlink:href="#DejaVuSans-105"/>
      <use x="496.392578" xlink:href="#DejaVuSans-116"/>
      <use x="535.601562" xlink:href="#DejaVuSans-105"/>
      <use x="563.384766" xlink:href="#DejaVuSans-118"/>
      <use x="622.564453" xlink:href="#DejaVuSans-101"/>
      <use x="684.087891" xlink:href="#DejaVuSans-32"/>
      <use x="715.875" xlink:href="#DejaVuSans-114"/>
      <use x="756.988281" xlink:href="#DejaVuSans-97"/>
      <use x="818.267578" xlink:href="#DejaVuSans-116"/>
      <use x="857.476562" xlink:href="#DejaVuSans-101"/>
     </g>
    </g>
   </g>
   <g id="matplotlib.axis_2">
    <g id="ytick_1">
     <g id="line2d_7">
      <defs>
       <path d="M 0 0 
L -3.5 0 
" id="m69b193b788" style="stroke:#000000;stroke-width:0.8;"/>
      </defs>
      <g>
       <use style="stroke:#000000;stroke-width:0.8;" x="57.6" xlink:href="#m69b193b788" y="307.584"/>
      </g>
     </g>
     <g id="text_8">
      <!-- 0.0 -->
      <g transform="translate(34.696875 311.383219)scale(0.1 -0.1)">
       <use xlink:href="#DejaVuSans-48"/>
       <use x="63.623047" xlink:href="#DejaVuSans-46"/>
       <use x="95.410156" xlink:href="#DejaVuSans-48"/>
      </g>
     </g>
    </g>
    <g id="ytick_2">
     <g id="line2d_8">
      <g>
       <use style="stroke:#000000;stroke-width:0.8;" x="57.6" xlink:href="#m69b193b788" y="254.3616"/>
      </g>
     </g>
     <g id="text_9">
      <!-- 0.2 -->
      <g transform="translate(34.696875 258.160819)scale(0.1 -0.1)">
       <use xlink:href="#DejaVuSans-48"/>
       <use x="63.623047" xlink:href="#DejaVuSans-46"/>
       <use x="95.410156" xlink:href="#DejaVuSans-50"/>
      </g>
     </g>
    </g>
    <g id="ytick_3">
     <g id="line2d_9">
      <g>
       <use style="stroke:#000000;stroke-width:0.8;" x="57.6" xlink:href="#m69b193b788" y="201.1392"/>
      </g>
     </g>
     <g id="text_10">
      <!-- 0.4 -->
      <g transform="translate(34.696875 204.938419)scale(0.1 -0.1)">
       <use xlink:href="#DejaVuSans-48"/>
       <use x="63.623047" xlink:href="#DejaVuSans-46"/>
       <use x="95.410156" xlink:href="#DejaVuSans-52"/>
      </g>
     </g>
    </g>
    <g id="ytick_4">
     <g id="line2d_10">
      <g>
       <use style="stroke:#000000;stroke-width:0.8;" x="57.6" xlink:href="#m69b193b788" y="147.9168"/>
      </g>
     </g>
     <g id="text_11">
      <!-- 0.6 -->
      <g transform="translate(34.696875 151.716019)scale(0.1 -0.1)">
       <use xlink:href="#DejaVuSans-48"/>
       <use x="63.623047" xlink:href="#DejaVuSans-46"/>
       <use x="95.410156" xlink:href="#DejaVuSans-54"/>
      </g>
     </g>
    </g>
    <g id="ytick_5">
     <g id="line2d_11">
      <g>
       <use style="stroke:#000000;stroke-width:0.8;" x="57.6" xlink:href="#m69b193b788" y="94.6944"/>
      </g>
     </g>
     <g id="text_12">
      <!-- 0.8 -->
      <g transform="translate(34.696875 98.493619)scale(0.1 -0.1)">
       <use xlink:href="#DejaVuSans-48"/>
       <use x="63.623047" xlink:href="#DejaVuSans-46"/>
       <use x="95.410156" xlink:href="#DejaVuSans-56"/>
      </g>
     </g>
    </g>
    <g id="ytick_6">
     <g id="line2d_12">
      <g>
       <use style="stroke:#000000;stroke-width:0.8;" x="57.6" xlink:href="#m69b193b788" y="41.472"/>
      </g>
     </g>
     <g id="text_13">
      <!-- 1.0 -->
      <g transform="translate(34.696875 45.271219)scale(0.1 -0.1)">
       <use xlink:href="#DejaVuSans-49"/>
       <use x="63.623047" xlink:href="#DejaVuSans-46"/>
       <use x="95.410156" xlink:href="#DejaVuSans-48"/>
      </g>
     </g>
    </g>
    <g id="text_14">
     <!-- True positive rate -->
     <defs>
      <path d="M -0.296875 72.90625 
L 61.375 72.90625 
L 61.375 64.59375 
L 35.5 64.59375 
L 35.5 0 
L 25.59375 0 
L 25.59375 64.59375 
L -0.296875 64.59375 
z
" id="DejaVuSans-84"/>
      <path d="M 8.5 21.578125 
L 8.5 54.6875 
L 17.484375 54.6875 
L 17.484375 21.921875 
Q 17.484375 14.15625 20.5 10.265625 
Q 23.53125 6.390625 29.59375 6.390625 
Q 36.859375 6.390625 41.078125 11.03125 
Q 45.3125 15.671875 45.3125 23.6875 
L 45.3125 54.6875 
L 54.296875 54.6875 
L 54.296875 0 
L 45.3125 0 
L 45.3125 8.40625 
Q 42.046875 3.421875 37.71875 1 
Q 33.40625 -1.421875 27.6875 -1.421875 
Q 18.265625 -1.421875 13.375 4.4375 
Q 8.5 10.296875 8.5 21.578125 
z
M 31.109375 56 
z
" id="DejaVuSans-117"/>
     </defs>
     <g transform="translate(28.617187 218.818625)rotate(-90)scale(0.1 -0.1)">
      <use xlink:href="#DejaVuSans-84"/>
      <use x="60.865234" xlink:href="#DejaVuSans-114"/>
      <use x="101.978516" xlink:href="#DejaVuSans-117"/>
      <use x="165.357422" xlink:href="#DejaVuSans-101"/>
      <use x="226.880859" xlink:href="#DejaVuSans-32"/>
      <use x="258.667969" xlink:href="#DejaVuSans-112"/>
      <use x="322.144531" xlink:href="#DejaVuSans-111"/>
      <use x="383.326172" xlink:href="#DejaVuSans-115"/>
      <use x="435.425781" xlink:href="#DejaVuSans-105"/>
      <use x="463.208984" xlink:href="#DejaVuSans-116"/>
      <use x="502.417969" xlink:href="#DejaVuSans-105"/>
      <use x="530.201172" xlink:href="#DejaVuSans-118"/>
      <use x="589.380859" xlink:href="#DejaVuSans-101"/>
      <use x="650.904297" xlink:href="#DejaVuSans-32"/>
      <use x="682.691406" xlink:href="#DejaVuSans-114"/>
      <use x="723.804688" xlink:href="#DejaVuSans-97"/>
      <use x="785.083984" xlink:href="#DejaVuSans-116"/>
      <use x="824.292969" xlink:href="#DejaVuSans-101"/>
     </g>
    </g>
   </g>
   <g id="line2d_13">
    <path clip-path="url(#p1aabea8ff3)" d="M 57.6 307.584 
L 57.702897 304.517016 
L 57.737196 304.517016 
L 57.840092 297.795209 
L 57.874391 297.795209 
L 57.977288 286.524041 
L 58.011587 286.524041 
L 58.011587 286.472925 
L 58.114483 280.517864 
L 58.148782 280.517864 
L 58.251679 277.195298 
L 58.285978 277.195298 
L 58.388874 272.518147 
L 58.423173 272.518147 
L 58.52607 270.090118 
L 58.560369 270.090118 
L 58.663265 267.585414 
L 58.697564 267.585414 
L 58.800461 261.988167 
L 58.83476 261.988167 
L 58.937657 257.132109 
L 58.971955 257.132109 
L 59.074852 251.637096 
L 59.109151 251.637096 
L 59.212048 248.672344 
L 59.246347 248.672344 
L 59.349243 243.560704 
L 59.383542 243.560704 
L 59.486439 234.053053 
L 59.520738 234.053053 
L 59.623634 230.39823 
L 59.692232 230.39823 
L 59.795129 225.874428 
L 59.829428 225.874428 
L 59.932324 223.57419 
L 60.000922 223.497515 
L 60.103819 220.558322 
L 60.172416 220.507206 
L 60.275313 218.002502 
L 60.309612 218.002502 
L 60.412509 215.139983 
L 60.446808 215.139983 
L 60.549704 211.996324 
L 60.584003 211.996324 
L 60.6869 209.772761 
L 60.721199 209.772761 
L 60.824095 207.779221 
L 60.858394 207.779221 
L 60.961291 204.175514 
L 61.029889 204.124398 
L 61.132785 201.312996 
L 61.167084 201.312996 
L 61.269981 198.578268 
L 61.30428 198.578268 
L 61.407176 196.635845 
L 61.441475 196.635845 
L 61.544372 193.952234 
L 61.578671 193.952234 
L 61.681567 191.421972 
L 61.750165 191.345297 
L 61.853062 189.096175 
L 61.887361 189.096175 
L 61.990257 187.077077 
L 62.024556 187.077077 
L 62.127453 185.236887 
L 62.161752 185.236887 
L 62.264648 178.872894 
L 62.298947 178.872894 
L 62.401844 177.36496 
L 62.436143 177.36496 
L 62.53904 174.502442 
L 62.573338 174.502442 
L 62.676235 172.96895 
L 62.710534 172.96895 
L 62.813431 169.365243 
L 62.84773 169.365243 
L 62.950626 168.777405 
L 63.019224 168.777405 
L 63.122121 165.531513 
L 63.15642 165.531513 
L 63.259316 162.694552 
L 63.293615 162.668994 
L 63.396512 161.774457 
L 63.430811 161.774457 
L 63.533707 160.010941 
L 63.568006 160.010941 
L 63.670903 158.835264 
L 63.739501 158.809706 
L 63.842397 157.071748 
L 63.876696 157.04619 
L 63.979593 155.61493 
L 64.013892 155.61493 
L 64.116788 153.033552 
L 64.185386 152.956877 
L 64.288283 152.650179 
L 64.356881 152.547946 
L 64.459777 150.912221 
L 64.494076 150.912221 
L 64.596973 148.995356 
L 64.631272 148.995356 
L 64.734168 146.183954 
L 64.768467 146.183954 
L 64.871364 145.621673 
L 64.905663 145.621673 
L 65.008559 144.267089 
L 65.042858 144.267089 
L 65.042858 144.164856 
L 65.111456 142.810271 
L 65.248652 142.708038 
L 65.351548 141.097872 
L 65.420146 141.097872 
L 65.523043 139.027657 
L 65.557342 139.027657 
L 65.59164 138.542051 
L 65.694537 138.542051 
L 65.797434 136.599628 
L 65.831733 136.599628 
L 65.934629 134.58053 
L 65.968928 134.58053 
L 66.071825 132.433641 
L 66.106124 132.433641 
L 66.20902 130.440101 
L 66.277618 130.363427 
L 66.380515 126.734162 
L 66.414814 126.734162 
L 66.51771 125.405136 
L 66.586308 125.328461 
L 66.689205 123.258247 
L 66.723504 123.258247 
L 66.792101 121.954778 
L 66.894998 121.954778 
L 66.997895 120.523519 
L 67.032194 120.523519 
L 67.13509 118.93891 
L 67.169389 118.93891 
L 67.272286 117.712117 
L 67.306585 117.712117 
L 67.409481 117.124278 
L 67.478079 117.124278 
L 67.580976 115.181855 
L 67.649574 115.10518 
L 67.75247 112.574918 
L 67.786769 112.574918 
L 67.889666 111.782614 
L 68.026861 111.731498 
L 68.129758 108.741188 
L 68.164057 108.741188 
L 68.232655 106.364275 
L 68.301252 106.364275 
L 68.404149 105.44418 
L 68.472747 105.418622 
L 68.575643 104.779667 
L 68.609942 104.779667 
L 68.712839 102.837243 
L 68.747138 102.837243 
L 68.850035 101.610449 
L 68.884333 101.610449 
L 68.952931 100.485889 
L 69.090127 100.46033 
L 69.193023 99.770259 
L 69.261621 99.693584 
L 69.330219 98.90128 
L 69.398817 98.90128 
L 69.433116 98.236767 
L 69.536012 98.236767 
L 69.638909 97.06109 
L 69.707507 97.035531 
L 69.810403 95.399806 
L 69.844702 95.399806 
L 69.9133 94.888642 
L 69.981898 94.888642 
L 70.084794 93.661849 
L 70.119093 93.661849 
L 70.22199 93.099568 
L 70.256289 93.099568 
L 70.359186 91.51496 
L 70.393484 91.51496 
L 70.496381 90.671539 
L 70.599278 90.569306 
L 70.702174 90.185933 
L 70.736473 90.185933 
L 70.83937 89.598095 
L 70.907968 89.598095 
L 71.010864 88.652441 
L 71.113761 88.550208 
L 71.216658 88.013486 
L 71.250957 88.013486 
L 71.353853 87.144507 
L 71.388152 87.144507 
L 71.491049 86.352203 
L 71.525348 86.352203 
L 71.593945 85.738806 
L 71.662543 85.738806 
L 71.76544 84.895385 
L 71.799739 84.895385 
L 71.902635 84.333105 
L 71.936934 84.333105 
L 72.039831 83.285219 
L 72.07413 83.285219 
L 72.177027 81.751726 
L 72.211325 81.751726 
L 72.279923 81.215004 
L 72.417119 81.112771 
L 72.520015 80.294909 
L 72.554314 80.294909 
L 72.657211 79.349255 
L 72.828705 79.247023 
L 72.931602 77.892438 
L 72.965901 77.892438 
L 73.068798 77.074575 
L 73.137395 76.997901 
L 73.240292 76.180038 
L 73.274591 76.180038 
L 73.377488 75.87334 
L 73.480384 75.796665 
L 73.583281 75.464409 
L 73.61758 75.464409 
L 73.720476 75.004361 
L 73.823373 74.953245 
L 73.92627 74.544313 
L 74.029166 74.467639 
L 74.132063 73.700893 
L 74.200661 73.700893 
L 74.200661 73.59866 
L 74.269259 73.394194 
L 74.372155 73.368636 
L 74.475052 72.550774 
L 74.612247 72.448541 
L 74.715144 71.962935 
L 74.783742 71.911819 
L 74.886638 71.375096 
L 74.955236 71.349538 
L 75.058133 71.170631 
L 75.092432 71.170631 
L 75.195328 70.710583 
L 75.263926 70.685025 
L 75.366823 70.199419 
L 75.435421 70.148303 
L 75.538317 69.739371 
L 75.641214 69.688255 
L 75.744111 69.381557 
L 75.812708 69.304882 
L 75.915605 69.177091 
L 76.0871 69.151533 
L 76.189996 68.717043 
L 76.224295 68.717043 
L 76.327192 68.308112 
L 76.430088 68.205879 
L 76.532985 67.975856 
L 76.567284 67.975856 
L 76.670181 67.388017 
L 76.738778 67.3369 
L 76.841675 67.157993 
L 76.978871 67.05576 
L 77.081767 66.442363 
L 77.150365 66.365689 
L 77.253262 65.77785 
L 77.390457 65.675617 
L 77.493354 65.394477 
L 77.527653 65.394477 
L 77.630549 65.011104 
L 77.699147 64.959988 
L 77.767745 64.704406 
L 77.939239 64.704406 
L 78.042136 64.372149 
L 78.076435 64.372149 
L 78.179332 64.014334 
L 78.247929 63.988776 
L 78.350826 63.835427 
L 78.625217 63.733194 
L 78.728114 63.452054 
L 78.83101 63.349821 
L 78.933907 63.017564 
L 79.036804 62.915332 
L 79.105401 62.787541 
L 79.242597 62.736424 
L 79.345494 62.531959 
L 79.516988 62.429726 
L 79.619885 62.071911 
L 79.722781 62.020794 
L 79.825678 61.484072 
L 79.962874 61.458514 
L 80.06577 60.998466 
L 80.134368 60.998466 
L 80.237265 60.563977 
L 80.37446 60.487302 
L 80.443058 60.23172 
L 80.580254 60.129488 
L 80.648851 59.95058 
L 80.820346 59.873905 
L 80.820346 59.66944 
L 81.060438 59.618323 
L 81.163335 59.286067 
L 81.197633 59.286067 
L 81.30053 59.056043 
L 81.437726 58.979368 
L 81.540622 58.800461 
L 81.60922 58.774903 
L 81.712117 58.519321 
L 81.780715 58.493763 
L 81.883611 58.135948 
L 82.020807 58.084831 
L 82.123703 57.854808 
L 82.295198 57.752575 
L 82.363796 57.573667 
L 82.500991 57.471434 
L 82.53529 57.343643 
L 82.638187 57.343643 
L 82.672486 57.190294 
L 82.946877 57.088061 
L 83.049773 56.985829 
L 83.221268 56.934712 
L 83.324164 56.67913 
L 83.495659 56.576897 
L 83.598556 56.474665 
L 83.735751 56.39799 
L 83.838648 56.167966 
L 84.215935 56.065733 
L 84.284533 55.963501 
L 84.524625 55.861268 
L 84.593223 55.68236 
L 84.901913 55.631244 
L 85.00481 55.324546 
L 85.279201 55.273429 
L 85.347799 55.12008 
L 85.484994 55.043405 
L 85.587891 54.83894 
L 85.725086 54.787823 
L 85.793684 54.608916 
L 85.93088 54.532241 
L 85.999478 54.174426 
L 86.136673 54.148868 
L 86.23957 53.969961 
L 86.445363 53.867728 
L 86.54826 53.586588 
L 86.788352 53.484355 
L 86.891249 53.305448 
L 87.234237 53.203215 
L 87.302835 53.100982 
L 87.748721 52.998749 
L 87.817318 52.896516 
L 88.263204 52.794284 
L 88.263204 52.717609 
L 88.606193 52.640934 
L 88.606193 52.56426 
L 89.086377 52.462027 
L 89.189274 52.359794 
L 89.566562 52.308678 
L 89.635159 52.206445 
L 89.875252 52.12977 
L 89.978148 51.925305 
L 90.389735 51.823072 
L 90.389735 51.771955 
L 90.732724 51.669723 
L 90.83562 51.618606 
L 91.007115 51.516373 
L 91.075713 51.388582 
L 91.384403 51.311908 
L 91.487299 51.158559 
L 92.07038 51.056326 
L 92.07038 51.030768 
L 92.722059 50.928535 
L 92.756358 50.85186 
L 93.099347 50.749627 
L 93.099347 50.672953 
L 93.373738 50.57072 
L 93.408037 50.519604 
L 94.025417 50.442929 
L 94.025417 50.391813 
L 94.5399 50.315138 
L 94.574199 50.212905 
L 94.985786 50.110672 
L 95.054383 50.008439 
L 95.911856 49.906207 
L 95.980453 49.752857 
L 96.666431 49.650625 
L 96.666431 49.625066 
L 97.421007 49.548392 
L 97.523903 49.471717 
L 97.866892 49.369484 
L 97.969789 49.29281 
L 98.484272 49.190577 
L 98.587169 49.139461 
L 99.17025 49.088344 
L 99.17025 49.01167 
L 100.09632 48.909437 
L 100.09632 48.883879 
L 100.370711 48.832762 
L 100.439308 48.704971 
L 101.468275 48.628297 
L 101.468275 48.57718 
L 102.291448 48.474947 
L 102.291448 48.449389 
L 103.286116 48.347156 
L 103.389013 48.29604 
L 104.932463 48.193807 
L 105.00106 48.142691 
L 106.304418 48.040458 
L 106.304418 48.0149 
L 107.504879 47.912667 
L 107.504879 47.861551 
L 108.225156 47.759318 
L 108.293753 47.708201 
L 109.116927 47.605968 
L 109.116927 47.58041 
L 109.700008 47.478177 
L 109.700008 47.452619 
L 110.077295 47.350386 
L 110.077295 47.324828 
L 110.763273 47.222595 
L 110.763273 47.197037 
L 111.929435 47.094804 
L 111.929435 47.069246 
L 113.575782 46.967013 
L 113.575782 46.915897 
L 114.707645 46.813664 
L 114.707645 46.788106 
L 116.011003 46.685873 
L 116.0796 46.634757 
L 117.245763 46.532524 
L 117.245763 46.506966 
L 120.40126 46.404733 
L 120.40126 46.379175 
L 122.699285 46.276942 
L 122.699285 46.251384 
L 125.751886 46.149151 
L 125.751886 46.123593 
L 128.324303 46.02136 
L 128.358602 45.944685 
L 130.55373 45.842453 
L 130.55373 45.816894 
L 133.091848 45.714662 
L 133.091848 45.689103 
L 136.178748 45.586871 
L 136.281644 45.535754 
L 138.545371 45.433521 
L 138.545371 45.407963 
L 142.832731 45.30573 
L 142.832731 45.280172 
L 146.125425 45.229056 
L 146.125425 45.152381 
L 147.360184 45.050148 
L 147.360184 45.02459 
L 149.315221 44.922357 
L 149.315221 44.896799 
L 150.687176 44.794566 
L 150.755774 44.74345 
L 153.602582 44.641217 
L 153.602582 44.615659 
L 157.581252 44.513426 
L 157.684149 44.46231 
L 162.520292 44.360077 
L 162.520292 44.334519 
L 165.607192 44.232286 
L 165.641491 44.181169 
L 169.448667 44.078937 
L 169.448667 44.053378 
L 171.780991 43.951146 
L 171.81529 43.900029 
L 177.268813 43.797796 
L 177.268813 43.772238 
L 183.442612 43.670005 
L 183.442612 43.644447 
L 186.666708 43.542214 
L 186.735305 43.46554 
L 196.201798 43.363307 
L 196.201798 43.337749 
L 205.256704 43.235516 
L 205.256704 43.209958 
L 208.480799 43.107725 
L 208.480799 43.082167 
L 212.836758 42.979934 
L 212.836758 42.954376 
L 218.976258 42.852143 
L 218.976258 42.826585 
L 227.722474 42.724352 
L 227.791072 42.673235 
L 254.887192 42.571003 
L 254.887192 42.545444 
L 278.793515 42.443212 
L 278.793515 42.417653 
L 294.228014 42.315421 
L 294.228014 42.289862 
L 314.464357 42.18763 
L 314.464357 42.162071 
L 331.819593 42.059839 
L 331.819593 42.03428 
L 342.795236 41.932048 
L 342.795236 41.906489 
L 358.435528 41.804257 
L 358.435528 41.778698 
L 365.706892 41.676466 
L 365.706892 41.650907 
L 382.479047 41.548675 
L 382.479047 41.523116 
L 414.72 41.472 
L 414.72 41.472 
" style="fill:none;stroke:#ff0000;stroke-linecap:square;stroke-width:1.5;"/>
   </g>
   <g id="line2d_14">
    <path clip-path="url(#p1aabea8ff3)" d="M 57.6 307.584 
L 57.702897 302.804616 
L 57.737196 302.804616 
L 57.840092 299.073119 
L 57.874391 299.073119 
L 57.977288 294.983806 
L 58.011587 294.983806 
L 58.011587 294.881574 
L 58.114483 287.239671 
L 58.148782 287.239671 
L 58.251679 283.917105 
L 58.285978 283.917105 
L 58.388874 281.182377 
L 58.423173 281.182377 
L 58.52607 278.44765 
L 58.560369 278.44765 
L 58.663265 271.981425 
L 58.697564 271.981425 
L 58.800461 263.393869 
L 58.83476 263.393869 
L 58.83476 263.291636 
L 58.937657 249.413532 
L 58.971955 249.413532 
L 59.074852 245.094196 
L 59.109151 245.094196 
L 59.212048 242.793958 
L 59.280645 242.742841 
L 59.383542 240.468161 
L 59.45214 240.391487 
L 59.555036 234.23196 
L 59.589335 234.23196 
L 59.692232 232.085071 
L 59.726531 232.085071 
L 59.829428 229.708158 
L 59.863726 229.708158 
L 59.966623 224.41761 
L 60.000922 224.41761 
L 60.103819 223.676423 
L 60.138118 223.676423 
L 60.241014 220.174949 
L 60.275313 220.174949 
L 60.37821 217.235756 
L 60.412509 217.235756 
L 60.515405 214.015422 
L 60.549704 214.015422 
L 60.652601 212.609721 
L 60.6869 212.609721 
L 60.789796 207.600313 
L 60.824095 207.600313 
L 60.926992 204.09884 
L 60.961291 204.09884 
L 61.064187 202.258649 
L 61.098486 202.258649 
L 61.201383 200.137318 
L 61.235682 200.137318 
L 61.338579 199.421689 
L 61.372877 199.421689 
L 61.475774 196.916985 
L 61.510073 196.916985 
L 61.61297 195.5624 
L 61.647269 195.5624 
L 61.750165 193.364395 
L 61.784464 193.364395 
L 61.887361 190.655226 
L 61.92166 190.655226 
L 62.024556 186.719262 
L 62.058855 186.719262 
L 62.161752 182.553275 
L 62.196051 182.553275 
L 62.298947 181.275365 
L 62.333246 181.275365 
L 62.333246 181.173133 
L 62.436143 178.719545 
L 62.504741 178.693987 
L 62.607637 175.141397 
L 62.641936 175.141397 
L 62.744833 172.892275 
L 62.779132 172.892275 
L 62.779132 172.790042 
L 62.882028 170.413129 
L 62.916327 170.413129 
L 63.019224 165.914886 
L 63.053523 165.914886 
L 63.15642 163.946904 
L 63.225017 163.895788 
L 63.327914 162.030039 
L 63.362213 162.030039 
L 63.465109 161.263293 
L 63.499408 161.263293 
L 63.602305 159.474219 
L 63.636604 159.474219 
L 63.739501 157.480679 
L 63.773799 157.480679 
L 63.876696 152.854645 
L 63.910995 152.854645 
L 64.013892 151.525618 
L 64.082489 151.448944 
L 64.185386 149.992126 
L 64.219685 149.992126 
L 64.322582 146.746234 
L 64.356881 146.746234 
L 64.459777 145.136068 
L 64.528375 145.059393 
L 64.631272 143.730367 
L 64.66557 143.730367 
L 64.768467 142.631364 
L 64.837065 142.529131 
L 64.939962 142.017967 
L 64.97426 142.017967 
L 65.077157 139.768845 
L 65.145755 139.743287 
L 65.248652 137.647514 
L 65.28295 137.647514 
L 65.385847 134.989461 
L 65.420146 134.989461 
L 65.420146 134.912787 
L 65.523043 132.663665 
L 65.557342 132.663665 
L 65.660238 130.951265 
L 65.728836 130.951265 
L 65.831733 128.114305 
L 65.90033 128.088747 
L 66.003227 126.836395 
L 66.037526 126.836395 
L 66.140423 125.251786 
L 66.174721 125.251786 
L 66.277618 124.893972 
L 66.311917 124.893972 
L 66.311917 124.791739 
L 66.346216 124.766181 
L 66.449113 122.517059 
L 66.483411 122.517059 
L 66.586308 120.983567 
L 66.620607 120.983567 
L 66.723504 120.344612 
L 66.757803 120.344612 
L 66.860699 118.862236 
L 66.894998 118.862236 
L 66.997895 117.635442 
L 67.032194 117.635442 
L 67.13509 116.280857 
L 67.169389 116.280857 
L 67.272286 115.079622 
L 67.306585 115.079622 
L 67.409481 113.980619 
L 67.478079 113.955061 
L 67.580976 112.165987 
L 67.649574 112.114871 
L 67.75247 109.55905 
L 67.786769 109.55905 
L 67.889666 107.846651 
L 67.923965 107.846651 
L 68.026861 106.977672 
L 68.06116 106.977672 
L 68.164057 105.776436 
L 68.232655 105.72532 
L 68.335551 104.396294 
L 68.36985 104.396294 
L 68.472747 103.041709 
L 68.541345 102.939476 
L 68.644241 102.17273 
L 68.67854 102.17273 
L 68.712839 101.533775 
L 68.850035 101.431542 
L 68.952931 100.818145 
L 69.021529 100.741471 
L 69.090127 100.332539 
L 69.158725 100.332539 
L 69.261621 98.773489 
L 69.29592 98.773489 
L 69.398817 98.134534 
L 69.467415 98.083418 
L 69.570311 97.188881 
L 69.60461 97.188881 
L 69.707507 95.885412 
L 69.741806 95.885412 
L 69.844702 94.275245 
L 69.879001 94.275245 
L 69.981898 93.304034 
L 70.119093 93.201801 
L 70.22199 92.230589 
L 70.290588 92.179473 
L 70.393484 91.463843 
L 70.427783 91.463843 
L 70.53068 90.569306 
L 70.599278 90.569306 
L 70.702174 89.623653 
L 70.770772 89.598095 
L 70.83937 88.652441 
L 70.942267 88.575766 
L 71.045163 87.323415 
L 71.113761 87.24674 
L 71.216658 86.147737 
L 71.388152 86.045504 
L 71.491049 85.713248 
L 71.559647 85.713248 
L 71.662543 85.227642 
L 71.696842 85.227642 
L 71.799739 84.486454 
L 71.868337 84.486454 
L 71.971233 83.25966 
L 72.005532 83.25966 
L 72.108429 82.722938 
L 72.142728 82.722938 
L 72.245624 82.058425 
L 72.279923 82.058425 
L 72.38282 81.572819 
L 72.485716 81.547261 
L 72.588613 81.112771 
L 72.657211 81.036097 
L 72.725809 80.806073 
L 73.0002 80.70384 
L 73.103096 80.116002 
L 73.137395 80.116002 
L 73.240292 79.093673 
L 73.343189 79.042557 
L 73.446085 77.86688 
L 73.583281 77.764647 
L 73.686177 77.023459 
L 73.789074 76.921226 
L 73.891971 76.461179 
L 74.029166 76.358946 
L 74.132063 75.87334 
L 74.23496 75.822224 
L 74.337856 75.31106 
L 74.440753 75.208827 
L 74.475052 74.467639 
L 74.612247 74.416522 
L 74.715144 74.058708 
L 74.749443 74.058708 
L 74.85234 73.726451 
L 74.989535 73.675335 
L 75.092432 73.343078 
L 75.229627 73.291962 
L 75.298225 73.087496 
L 75.401122 73.010821 
L 75.435421 72.857472 
L 75.641214 72.831914 
L 75.744111 72.576332 
L 75.77841 72.576332 
L 75.847007 72.422983 
L 75.949904 72.32075 
L 76.052801 72.192959 
L 76.155697 72.090726 
L 76.258594 71.630678 
L 76.361491 71.579562 
L 76.464387 70.991723 
L 76.498686 70.991723 
L 76.601583 70.7617 
L 76.704479 70.659467 
L 76.807376 70.582792 
L 76.875974 70.480559 
L 76.978871 70.020512 
L 77.116066 69.918279 
L 77.150365 69.841604 
L 77.287561 69.739371 
L 77.390457 69.177091 
L 77.424756 69.177091 
L 77.493354 68.665927 
L 77.664848 68.614811 
L 77.733446 68.103647 
L 77.802044 68.103647 
L 77.90494 67.515808 
L 77.973538 67.413575 
L 78.042136 67.285784 
L 78.247929 67.209109 
L 78.316527 66.851295 
L 78.419424 66.825736 
L 78.488022 66.672387 
L 78.625217 66.595713 
L 78.728114 66.340131 
L 78.83101 66.263456 
L 78.83101 66.161223 
L 78.968206 66.161223 
L 79.002505 65.982316 
L 79.105401 65.982316 
L 79.208298 65.522268 
L 79.276896 65.471152 
L 79.379793 64.857755 
L 79.551287 64.755522 
L 79.619885 64.678847 
L 79.962874 64.576615 
L 80.06577 64.49994 
L 80.134368 64.397707 
L 80.237265 64.2188 
L 80.37446 64.167683 
L 80.477357 63.758752 
L 80.751748 63.656519 
L 80.854645 63.452054 
L 81.026139 63.375379 
L 81.129036 62.966448 
L 81.163335 62.966448 
L 81.231932 62.480842 
L 81.437726 62.378609 
L 81.540622 62.148585 
L 81.60922 62.148585 
L 81.712117 61.918562 
L 81.91791 61.816329 
L 82.020807 61.586305 
L 82.055106 61.586305 
L 82.158002 61.049583 
L 82.260899 60.998466 
L 82.295198 60.819559 
L 82.466692 60.794001 
L 82.569589 60.461744 
L 82.84398 60.359511 
L 82.912578 60.23172 
L 83.255567 60.155046 
L 83.358463 59.925022 
L 83.427061 59.822789 
L 83.529958 59.694998 
L 83.667153 59.592765 
L 83.701452 59.541649 
L 83.975843 59.464974 
L 84.07874 59.260509 
L 84.147338 59.260509 
L 84.250234 58.902694 
L 84.421729 58.800461 
L 84.456028 58.621554 
L 84.593223 58.595995 
L 84.69612 58.39153 
L 84.901913 58.289297 
L 85.00481 58.238181 
L 85.073408 58.212622 
L 85.142005 58.084831 
L 85.382098 57.982599 
L 85.484994 57.829249 
L 85.62219 57.727017 
L 85.725086 57.522551 
L 85.862282 57.496993 
L 85.93088 57.139178 
L 86.068075 57.139178 
L 86.170972 56.909154 
L 86.342466 56.832479 
L 86.445363 56.67913 
L 86.513961 56.67913 
L 86.582559 56.500223 
L 87.097042 56.449106 
L 87.199939 56.295757 
L 87.405732 56.244641 
L 87.440031 56.065733 
L 87.714422 56.014617 
L 87.78302 55.83571 
L 87.920215 55.733477 
L 87.988813 55.580128 
L 88.4004 55.477895 
L 88.503296 55.298987 
L 88.640492 55.196755 
L 88.70909 55.068964 
L 88.983481 54.966731 
L 89.052078 54.915614 
L 89.223573 54.813381 
L 89.292171 54.762265 
L 89.532263 54.68559 
L 89.532263 54.608916 
L 89.772355 54.506683 
L 89.772355 54.430008 
L 90.424034 54.327776 
L 90.458333 54.225543 
L 90.801322 54.12331 
L 90.801322 54.097752 
L 91.007115 54.046635 
L 91.075713 53.867728 
L 91.315805 53.765495 
L 91.384403 53.688821 
L 91.693093 53.637704 
L 91.76169 53.535471 
L 92.207576 53.433239 
L 92.207576 53.331006 
L 92.550565 53.228773 
L 92.619163 53.177657 
L 92.927852 53.12654 
L 92.927852 53.049866 
L 93.442336 52.973191 
L 93.510934 52.794284 
L 93.819624 52.743167 
L 93.819624 52.666493 
L 94.196911 52.589818 
L 94.196911 52.513143 
L 94.711395 52.41091 
L 94.711395 52.334236 
L 95.294476 52.257561 
L 95.294476 52.206445 
L 95.877557 52.104212 
L 95.980453 52.027537 
L 96.08335 51.950863 
L 96.08335 51.899746 
L 96.426339 51.823072 
L 96.460638 51.720839 
L 96.837925 51.618606 
L 96.906523 51.541932 
L 97.31811 51.439699 
L 97.421007 51.388582 
L 97.6268 51.337466 
L 97.729697 51.158559 
L 98.415674 51.056326 
L 98.415674 51.030768 
L 99.135951 50.928535 
L 99.17025 50.85186 
L 99.78763 50.749627 
L 99.78763 50.724069 
L 100.439308 50.621836 
L 100.473607 50.545162 
L 100.645102 50.442929 
L 100.747998 50.340696 
L 101.056688 50.238463 
L 101.090987 50.161789 
L 101.468275 50.059556 
L 101.468275 50.033998 
L 101.776965 49.931765 
L 101.845563 49.829532 
L 102.360046 49.727299 
L 102.360046 49.701741 
L 103.114622 49.599508 
L 103.114622 49.57395 
L 103.526208 49.471717 
L 103.560507 49.420601 
L 104.520876 49.318368 
L 104.520876 49.29281 
L 105.481245 49.190577 
L 105.481245 49.165019 
L 106.373016 49.062786 
L 106.373016 49.037228 
L 106.716005 48.934995 
L 106.716005 48.909437 
L 107.504879 48.832762 
L 107.607776 48.756088 
L 109.01403 48.653855 
L 109.082628 48.602738 
L 109.562812 48.551622 
L 109.562812 48.474947 
L 109.837203 48.372715 
L 109.871502 48.321598 
L 111.140561 48.219365 
L 111.209159 48.142691 
L 111.860837 48.066016 
L 111.895136 47.989342 
L 112.649712 47.887109 
L 112.649712 47.861551 
L 112.855505 47.784876 
L 112.855505 47.73376 
L 114.193162 47.631527 
L 114.193162 47.605968 
L 116.491187 47.503736 
L 116.491187 47.478177 
L 117.348659 47.375945 
L 117.382958 47.324828 
L 118.206131 47.222595 
L 118.309028 47.171479 
L 118.85781 47.069246 
L 118.85781 47.043688 
L 119.989673 46.941455 
L 119.989673 46.915897 
L 120.950042 46.813664 
L 120.950042 46.788106 
L 122.87078 46.685873 
L 122.87078 46.634757 
L 123.968344 46.558082 
L 124.071241 46.430291 
L 124.963012 46.353617 
L 124.963012 46.3025 
L 126.472163 46.200267 
L 126.472163 46.174709 
L 130.279339 46.072476 
L 130.279339 46.046918 
L 132.680261 45.944685 
L 132.680261 45.919127 
L 135.835759 45.816894 
L 135.835759 45.791336 
L 138.511072 45.689103 
L 138.511072 45.663545 
L 139.299946 45.586871 
L 139.299946 45.535754 
L 140.980592 45.433521 
L 140.980592 45.407963 
L 142.318248 45.30573 
L 142.318248 45.280172 
L 143.998894 45.177939 
L 143.998894 45.152381 
L 147.120092 45.050148 
L 147.120092 45.02459 
L 154.219962 44.922357 
L 154.219962 44.896799 
L 157.066769 44.794566 
L 157.066769 44.769008 
L 163.309166 44.666775 
L 163.309166 44.641217 
L 167.49363 44.538984 
L 167.562228 44.487868 
L 175.279478 44.385635 
L 175.279478 44.360077 
L 177.646101 44.257844 
L 177.714698 44.206728 
L 181.075989 44.104495 
L 181.110288 44.053378 
L 186.632409 43.951146 
L 186.632409 43.925587 
L 192.531817 43.823355 
L 192.531817 43.797796 
L 198.671318 43.695564 
L 198.671318 43.670005 
L 204.536427 43.567773 
L 204.536427 43.542214 
L 212.15078 43.439982 
L 212.15078 43.414423 
L 218.393177 43.312191 
L 218.393177 43.286632 
L 226.31622 43.1844 
L 226.31622 43.158841 
L 227.928267 43.107725 
L 227.928267 43.03105 
L 243.637157 42.928818 
L 243.637157 42.903259 
L 252.108982 42.801027 
L 252.108982 42.775468 
L 263.976396 42.673235 
L 263.976396 42.647677 
L 271.213461 42.545444 
L 271.213461 42.519886 
L 280.679954 42.417653 
L 280.679954 42.392095 
L 292.924656 42.289862 
L 292.924656 42.264304 
L 325.885886 42.162071 
L 325.885886 42.136513 
L 337.307415 42.03428 
L 337.307415 42.008722 
L 343.103926 41.906489 
L 343.103926 41.880931 
L 365.089512 41.778698 
L 365.089512 41.75314 
L 372.909658 41.650907 
L 372.909658 41.625349 
L 396.781683 41.523116 
L 396.781683 41.497558 
L 414.72 41.472 
L 414.72 41.472 
" style="fill:none;stroke:#008000;stroke-linecap:square;stroke-width:1.5;"/>
   </g>
   <g id="patch_3">
    <path d="M 57.6 307.584 
L 57.6 41.472 
" style="fill:none;stroke:#000000;stroke-linecap:square;stroke-linejoin:miter;stroke-width:0.8;"/>
   </g>
   <g id="patch_4">
    <path d="M 414.72 307.584 
L 414.72 41.472 
" style="fill:none;stroke:#000000;stroke-linecap:square;stroke-linejoin:miter;stroke-width:0.8;"/>
   </g>
   <g id="patch_5">
    <path d="M 57.6 307.584 
L 414.72 307.584 
" style="fill:none;stroke:#000000;stroke-linecap:square;stroke-linejoin:miter;stroke-width:0.8;"/>
   </g>
   <g id="patch_6">
    <path d="M 57.6 41.472 
L 414.72 41.472 
" style="fill:none;stroke:#000000;stroke-linecap:square;stroke-linejoin:miter;stroke-width:0.8;"/>
   </g>
   <g id="legend_1">
    <g id="patch_7">
     <path d="M 309.155937 78.82825 
L 407.72 78.82825 
Q 409.72 78.82825 409.72 76.82825 
L 409.72 48.472 
Q 409.72 46.472 407.72 46.472 
L 309.155937 46.472 
Q 307.155937 46.472 307.155937 48.472 
L 307.155937 76.82825 
Q 307.155937 78.82825 309.155937 78.82825 
z
" style="fill:#ffffff;opacity:0.8;stroke:#cccccc;stroke-linejoin:miter;"/>
    </g>
    <g id="line2d_15">
     <path d="M 311.155937 54.570437 
L 331.155937 54.570437 
" style="fill:none;stroke:#ff0000;stroke-linecap:square;stroke-width:1.5;"/>
    </g>
    <g id="line2d_16"/>
    <g id="text_15">
     <!-- with kmer -->
     <defs>
      <path d="M 4.203125 54.6875 
L 13.1875 54.6875 
L 24.421875 12.015625 
L 35.59375 54.6875 
L 46.1875 54.6875 
L 57.421875 12.015625 
L 68.609375 54.6875 
L 77.59375 54.6875 
L 63.28125 0 
L 52.6875 0 
L 40.921875 44.828125 
L 29.109375 0 
L 18.5 0 
z
" id="DejaVuSans-119"/>
      <path d="M 54.890625 33.015625 
L 54.890625 0 
L 45.90625 0 
L 45.90625 32.71875 
Q 45.90625 40.484375 42.875 44.328125 
Q 39.84375 48.1875 33.796875 48.1875 
Q 26.515625 48.1875 22.3125 43.546875 
Q 18.109375 38.921875 18.109375 30.90625 
L 18.109375 0 
L 9.078125 0 
L 9.078125 75.984375 
L 18.109375 75.984375 
L 18.109375 46.1875 
Q 21.34375 51.125 25.703125 53.5625 
Q 30.078125 56 35.796875 56 
Q 45.21875 56 50.046875 50.171875 
Q 54.890625 44.34375 54.890625 33.015625 
z
" id="DejaVuSans-104"/>
      <path d="M 9.078125 75.984375 
L 18.109375 75.984375 
L 18.109375 31.109375 
L 44.921875 54.6875 
L 56.390625 54.6875 
L 27.390625 29.109375 
L 57.625 0 
L 45.90625 0 
L 18.109375 26.703125 
L 18.109375 0 
L 9.078125 0 
z
" id="DejaVuSans-107"/>
      <path d="M 52 44.1875 
Q 55.375 50.25 60.0625 53.125 
Q 64.75 56 71.09375 56 
Q 79.640625 56 84.28125 50.015625 
Q 88.921875 44.046875 88.921875 33.015625 
L 88.921875 0 
L 79.890625 0 
L 79.890625 32.71875 
Q 79.890625 40.578125 77.09375 44.375 
Q 74.3125 48.1875 68.609375 48.1875 
Q 61.625 48.1875 57.5625 43.546875 
Q 53.515625 38.921875 53.515625 30.90625 
L 53.515625 0 
L 44.484375 0 
L 44.484375 32.71875 
Q 44.484375 40.625 41.703125 44.40625 
Q 38.921875 48.1875 33.109375 48.1875 
Q 26.21875 48.1875 22.15625 43.53125 
Q 18.109375 38.875 18.109375 30.90625 
L 18.109375 0 
L 9.078125 0 
L 9.078125 54.6875 
L 18.109375 54.6875 
L 18.109375 46.1875 
Q 21.1875 51.21875 25.484375 53.609375 
Q 29.78125 56 35.6875 56 
Q 41.65625 56 45.828125 52.96875 
Q 50 49.953125 52 44.1875 
z
" id="DejaVuSans-109"/>
     </defs>
     <g transform="translate(339.155937 58.070437)scale(0.1 -0.1)">
      <use xlink:href="#DejaVuSans-119"/>
      <use x="81.787109" xlink:href="#DejaVuSans-105"/>
      <use x="109.570312" xlink:href="#DejaVuSans-116"/>
      <use x="148.779297" xlink:href="#DejaVuSans-104"/>
      <use x="212.158203" xlink:href="#DejaVuSans-32"/>
      <use x="243.945312" xlink:href="#DejaVuSans-107"/>
      <use x="301.855469" xlink:href="#DejaVuSans-109"/>
      <use x="399.267578" xlink:href="#DejaVuSans-101"/>
      <use x="460.791016" xlink:href="#DejaVuSans-114"/>
     </g>
    </g>
    <g id="line2d_17">
     <path d="M 311.155937 69.248562 
L 331.155937 69.248562 
" style="fill:none;stroke:#008000;stroke-linecap:square;stroke-width:1.5;"/>
    </g>
    <g id="line2d_18"/>
    <g id="text_16">
     <!-- without kmer -->
     <g transform="translate(339.155937 72.748562)scale(0.1 -0.1)">
      <use xlink:href="#DejaVuSans-119"/>
      <use x="81.787109" xlink:href="#DejaVuSans-105"/>
      <use x="109.570312" xlink:href="#DejaVuSans-116"/>
      <use x="148.779297" xlink:href="#DejaVuSans-104"/>
      <use x="212.158203" xlink:href="#DejaVuSans-111"/>
      <use x="273.339844" xlink:href="#DejaVuSans-117"/>
      <use x="336.71875" xlink:href="#DejaVuSans-116"/>
      <use x="375.927734" xlink:href="#DejaVuSans-32"/>
      <use x="407.714844" xlink:href="#DejaVuSans-107"/>
      <use x="465.625" xlink:href="#DejaVuSans-109"/>
      <use x="563.037109" xlink:href="#DejaVuSans-101"/>
      <use x="624.560547" xlink:href="#DejaVuSans-114"/>
     </g>
    </g>
   </g>
  </g>
 </g>
 <defs>
  <clipPath id="p1aabea8ff3">
   <rect height="266.112" width="357.12" x="57.6" y="41.472"/>
  </clipPath>
 </defs>
</svg>
