<?xml version="1.0" encoding="utf-8" standalone="no"?>
<!DOCTYPE svg PUBLIC "-//W3C//DTD SVG 1.1//EN"
  "http://www.w3.org/Graphics/SVG/1.1/DTD/svg11.dtd">
<!-- Created with matplotlib (https://matplotlib.org/) -->
<svg height="345.6pt" version="1.1" viewBox="0 0 460.8 345.6" width="460.8pt" xmlns="http://www.w3.org/2000/svg" xmlns:xlink="http://www.w3.org/1999/xlink">
 <defs>
  <style type="text/css">
*{stroke-linecap:butt;stroke-linejoin:round;}
  </style>
 </defs>
 <g id="figure_1">
  <g id="patch_1">
   <path d="M 0 345.6 
L 460.8 345.6 
L 460.8 0 
L 0 0 
z
" style="fill:#ffffff;"/>
  </g>
  <g id="axes_1">
   <g id="patch_2">
    <path d="M 57.6 307.584 
L 414.72 307.584 
L 414.72 41.472 
L 57.6 41.472 
z
" style="fill:#ffffff;"/>
   </g>
   <g id="matplotlib.axis_1">
    <g id="xtick_1">
     <g id="line2d_1">
      <defs>
       <path d="M 0 0 
L 0 3.5 
" id="mfcad0de90e" style="stroke:#000000;stroke-width:0.8;"/>
      </defs>
      <g>
       <use style="stroke:#000000;stroke-width:0.8;" x="57.6" xlink:href="#mfcad0de90e" y="307.584"/>
      </g>
     </g>
     <g id="text_1">
      <!-- 0.0 -->
      <defs>
       <path d="M 31.78125 66.40625 
Q 24.171875 66.40625 20.328125 58.90625 
Q 16.5 51.421875 16.5 36.375 
Q 16.5 21.390625 20.328125 13.890625 
Q 24.171875 6.390625 31.78125 6.390625 
Q 39.453125 6.390625 43.28125 13.890625 
Q 47.125 21.390625 47.125 36.375 
Q 47.125 51.421875 43.28125 58.90625 
Q 39.453125 66.40625 31.78125 66.40625 
z
M 31.78125 74.21875 
Q 44.046875 74.21875 50.515625 64.515625 
Q 56.984375 54.828125 56.984375 36.375 
Q 56.984375 17.96875 50.515625 8.265625 
Q 44.046875 -1.421875 31.78125 -1.421875 
Q 19.53125 -1.421875 13.0625 8.265625 
Q 6.59375 17.96875 6.59375 36.375 
Q 6.59375 54.828125 13.0625 64.515625 
Q 19.53125 74.21875 31.78125 74.21875 
z
" id="DejaVuSans-48"/>
       <path d="M 10.6875 12.40625 
L 21 12.40625 
L 21 0 
L 10.6875 0 
z
" id="DejaVuSans-46"/>
      </defs>
      <g transform="translate(49.648438 322.182437)scale(0.1 -0.1)">
       <use xlink:href="#DejaVuSans-48"/>
       <use x="63.623047" xlink:href="#DejaVuSans-46"/>
       <use x="95.410156" xlink:href="#DejaVuSans-48"/>
      </g>
     </g>
    </g>
    <g id="xtick_2">
     <g id="line2d_2">
      <g>
       <use style="stroke:#000000;stroke-width:0.8;" x="129.024" xlink:href="#mfcad0de90e" y="307.584"/>
      </g>
     </g>
     <g id="text_2">
      <!-- 0.2 -->
      <defs>
       <path d="M 19.1875 8.296875 
L 53.609375 8.296875 
L 53.609375 0 
L 7.328125 0 
L 7.328125 8.296875 
Q 12.9375 14.109375 22.625 23.890625 
Q 32.328125 33.6875 34.8125 36.53125 
Q 39.546875 41.84375 41.421875 45.53125 
Q 43.3125 49.21875 43.3125 52.78125 
Q 43.3125 58.59375 39.234375 62.25 
Q 35.15625 65.921875 28.609375 65.921875 
Q 23.96875 65.921875 18.8125 64.3125 
Q 13.671875 62.703125 7.8125 59.421875 
L 7.8125 69.390625 
Q 13.765625 71.78125 18.9375 73 
Q 24.125 74.21875 28.421875 74.21875 
Q 39.75 74.21875 46.484375 68.546875 
Q 53.21875 62.890625 53.21875 53.421875 
Q 53.21875 48.921875 51.53125 44.890625 
Q 49.859375 40.875 45.40625 35.40625 
Q 44.1875 33.984375 37.640625 27.21875 
Q 31.109375 20.453125 19.1875 8.296875 
z
" id="DejaVuSans-50"/>
      </defs>
      <g transform="translate(121.072438 322.182437)scale(0.1 -0.1)">
       <use xlink:href="#DejaVuSans-48"/>
       <use x="63.623047" xlink:href="#DejaVuSans-46"/>
       <use x="95.410156" xlink:href="#DejaVuSans-50"/>
      </g>
     </g>
    </g>
    <g id="xtick_3">
     <g id="line2d_3">
      <g>
       <use style="stroke:#000000;stroke-width:0.8;" x="200.448" xlink:href="#mfcad0de90e" y="307.584"/>
      </g>
     </g>
     <g id="text_3">
      <!-- 0.4 -->
      <defs>
       <path d="M 37.796875 64.3125 
L 12.890625 25.390625 
L 37.796875 25.390625 
z
M 35.203125 72.90625 
L 47.609375 72.90625 
L 47.609375 25.390625 
L 58.015625 25.390625 
L 58.015625 17.1875 
L 47.609375 17.1875 
L 47.609375 0 
L 37.796875 0 
L 37.796875 17.1875 
L 4.890625 17.1875 
L 4.890625 26.703125 
z
" id="DejaVuSans-52"/>
      </defs>
      <g transform="translate(192.496438 322.182437)scale(0.1 -0.1)">
       <use xlink:href="#DejaVuSans-48"/>
       <use x="63.623047" xlink:href="#DejaVuSans-46"/>
       <use x="95.410156" xlink:href="#DejaVuSans-52"/>
      </g>
     </g>
    </g>
    <g id="xtick_4">
     <g id="line2d_4">
      <g>
       <use style="stroke:#000000;stroke-width:0.8;" x="271.872" xlink:href="#mfcad0de90e" y="307.584"/>
      </g>
     </g>
     <g id="text_4">
      <!-- 0.6 -->
      <defs>
       <path d="M 33.015625 40.375 
Q 26.375 40.375 22.484375 35.828125 
Q 18.609375 31.296875 18.609375 23.390625 
Q 18.609375 15.53125 22.484375 10.953125 
Q 26.375 6.390625 33.015625 6.390625 
Q 39.65625 6.390625 43.53125 10.953125 
Q 47.40625 15.53125 47.40625 23.390625 
Q 47.40625 31.296875 43.53125 35.828125 
Q 39.65625 40.375 33.015625 40.375 
z
M 52.59375 71.296875 
L 52.59375 62.3125 
Q 48.875 64.0625 45.09375 64.984375 
Q 41.3125 65.921875 37.59375 65.921875 
Q 27.828125 65.921875 22.671875 59.328125 
Q 17.53125 52.734375 16.796875 39.40625 
Q 19.671875 43.65625 24.015625 45.921875 
Q 28.375 48.1875 33.59375 48.1875 
Q 44.578125 48.1875 50.953125 41.515625 
Q 57.328125 34.859375 57.328125 23.390625 
Q 57.328125 12.15625 50.6875 5.359375 
Q 44.046875 -1.421875 33.015625 -1.421875 
Q 20.359375 -1.421875 13.671875 8.265625 
Q 6.984375 17.96875 6.984375 36.375 
Q 6.984375 53.65625 15.1875 63.9375 
Q 23.390625 74.21875 37.203125 74.21875 
Q 40.921875 74.21875 44.703125 73.484375 
Q 48.484375 72.75 52.59375 71.296875 
z
" id="DejaVuSans-54"/>
      </defs>
      <g transform="translate(263.920438 322.182437)scale(0.1 -0.1)">
       <use xlink:href="#DejaVuSans-48"/>
       <use x="63.623047" xlink:href="#DejaVuSans-46"/>
       <use x="95.410156" xlink:href="#DejaVuSans-54"/>
      </g>
     </g>
    </g>
    <g id="xtick_5">
     <g id="line2d_5">
      <g>
       <use style="stroke:#000000;stroke-width:0.8;" x="343.296" xlink:href="#mfcad0de90e" y="307.584"/>
      </g>
     </g>
     <g id="text_5">
      <!-- 0.8 -->
      <defs>
       <path d="M 31.78125 34.625 
Q 24.75 34.625 20.71875 30.859375 
Q 16.703125 27.09375 16.703125 20.515625 
Q 16.703125 13.921875 20.71875 10.15625 
Q 24.75 6.390625 31.78125 6.390625 
Q 38.8125 6.390625 42.859375 10.171875 
Q 46.921875 13.96875 46.921875 20.515625 
Q 46.921875 27.09375 42.890625 30.859375 
Q 38.875 34.625 31.78125 34.625 
z
M 21.921875 38.8125 
Q 15.578125 40.375 12.03125 44.71875 
Q 8.5 49.078125 8.5 55.328125 
Q 8.5 64.0625 14.71875 69.140625 
Q 20.953125 74.21875 31.78125 74.21875 
Q 42.671875 74.21875 48.875 69.140625 
Q 55.078125 64.0625 55.078125 55.328125 
Q 55.078125 49.078125 51.53125 44.71875 
Q 48 40.375 41.703125 38.8125 
Q 48.828125 37.15625 52.796875 32.3125 
Q 56.78125 27.484375 56.78125 20.515625 
Q 56.78125 9.90625 50.3125 4.234375 
Q 43.84375 -1.421875 31.78125 -1.421875 
Q 19.734375 -1.421875 13.25 4.234375 
Q 6.78125 9.90625 6.78125 20.515625 
Q 6.78125 27.484375 10.78125 32.3125 
Q 14.796875 37.15625 21.921875 38.8125 
z
M 18.3125 54.390625 
Q 18.3125 48.734375 21.84375 45.5625 
Q 25.390625 42.390625 31.78125 42.390625 
Q 38.140625 42.390625 41.71875 45.5625 
Q 45.3125 48.734375 45.3125 54.390625 
Q 45.3125 60.0625 41.71875 63.234375 
Q 38.140625 66.40625 31.78125 66.40625 
Q 25.390625 66.40625 21.84375 63.234375 
Q 18.3125 60.0625 18.3125 54.390625 
z
" id="DejaVuSans-56"/>
      </defs>
      <g transform="translate(335.344438 322.182437)scale(0.1 -0.1)">
       <use xlink:href="#DejaVuSans-48"/>
       <use x="63.623047" xlink:href="#DejaVuSans-46"/>
       <use x="95.410156" xlink:href="#DejaVuSans-56"/>
      </g>
     </g>
    </g>
    <g id="xtick_6">
     <g id="line2d_6">
      <g>
       <use style="stroke:#000000;stroke-width:0.8;" x="414.72" xlink:href="#mfcad0de90e" y="307.584"/>
      </g>
     </g>
     <g id="text_6">
      <!-- 1.0 -->
      <defs>
       <path d="M 12.40625 8.296875 
L 28.515625 8.296875 
L 28.515625 63.921875 
L 10.984375 60.40625 
L 10.984375 69.390625 
L 28.421875 72.90625 
L 38.28125 72.90625 
L 38.28125 8.296875 
L 54.390625 8.296875 
L 54.390625 0 
L 12.40625 0 
z
" id="DejaVuSans-49"/>
      </defs>
      <g transform="translate(406.768438 322.182437)scale(0.1 -0.1)">
       <use xlink:href="#DejaVuSans-49"/>
       <use x="63.623047" xlink:href="#DejaVuSans-46"/>
       <use x="95.410156" xlink:href="#DejaVuSans-48"/>
      </g>
     </g>
    </g>
    <g id="text_7">
     <!-- False positive rate -->
     <defs>
      <path d="M 9.8125 72.90625 
L 51.703125 72.90625 
L 51.703125 64.59375 
L 19.671875 64.59375 
L 19.671875 43.109375 
L 48.578125 43.109375 
L 48.578125 34.8125 
L 19.671875 34.8125 
L 19.671875 0 
L 9.8125 0 
z
" id="DejaVuSans-70"/>
      <path d="M 34.28125 27.484375 
Q 23.390625 27.484375 19.1875 25 
Q 14.984375 22.515625 14.984375 16.5 
Q 14.984375 11.71875 18.140625 8.90625 
Q 21.296875 6.109375 26.703125 6.109375 
Q 34.1875 6.109375 38.703125 11.40625 
Q 43.21875 16.703125 43.21875 25.484375 
L 43.21875 27.484375 
z
M 52.203125 31.203125 
L 52.203125 0 
L 43.21875 0 
L 43.21875 8.296875 
Q 40.140625 3.328125 35.546875 0.953125 
Q 30.953125 -1.421875 24.3125 -1.421875 
Q 15.921875 -1.421875 10.953125 3.296875 
Q 6 8.015625 6 15.921875 
Q 6 25.140625 12.171875 29.828125 
Q 18.359375 34.515625 30.609375 34.515625 
L 43.21875 34.515625 
L 43.21875 35.40625 
Q 43.21875 41.609375 39.140625 45 
Q 35.0625 48.390625 27.6875 48.390625 
Q 23 48.390625 18.546875 47.265625 
Q 14.109375 46.140625 10.015625 43.890625 
L 10.015625 52.203125 
Q 14.9375 54.109375 19.578125 55.046875 
Q 24.21875 56 28.609375 56 
Q 40.484375 56 46.34375 49.84375 
Q 52.203125 43.703125 52.203125 31.203125 
z
" id="DejaVuSans-97"/>
      <path d="M 9.421875 75.984375 
L 18.40625 75.984375 
L 18.40625 0 
L 9.421875 0 
z
" id="DejaVuSans-108"/>
      <path d="M 44.28125 53.078125 
L 44.28125 44.578125 
Q 40.484375 46.53125 36.375 47.5 
Q 32.28125 48.484375 27.875 48.484375 
Q 21.1875 48.484375 17.84375 46.4375 
Q 14.5 44.390625 14.5 40.28125 
Q 14.5 37.15625 16.890625 35.375 
Q 19.28125 33.59375 26.515625 31.984375 
L 29.59375 31.296875 
Q 39.15625 29.25 43.1875 25.515625 
Q 47.21875 21.78125 47.21875 15.09375 
Q 47.21875 7.46875 41.1875 3.015625 
Q 35.15625 -1.421875 24.609375 -1.421875 
Q 20.21875 -1.421875 15.453125 -0.5625 
Q 10.6875 0.296875 5.421875 2 
L 5.421875 11.28125 
Q 10.40625 8.6875 15.234375 7.390625 
Q 20.0625 6.109375 24.8125 6.109375 
Q 31.15625 6.109375 34.5625 8.28125 
Q 37.984375 10.453125 37.984375 14.40625 
Q 37.984375 18.0625 35.515625 20.015625 
Q 33.0625 21.96875 24.703125 23.78125 
L 21.578125 24.515625 
Q 13.234375 26.265625 9.515625 29.90625 
Q 5.8125 33.546875 5.8125 39.890625 
Q 5.8125 47.609375 11.28125 51.796875 
Q 16.75 56 26.8125 56 
Q 31.78125 56 36.171875 55.265625 
Q 40.578125 54.546875 44.28125 53.078125 
z
" id="DejaVuSans-115"/>
      <path d="M 56.203125 29.59375 
L 56.203125 25.203125 
L 14.890625 25.203125 
Q 15.484375 15.921875 20.484375 11.0625 
Q 25.484375 6.203125 34.421875 6.203125 
Q 39.59375 6.203125 44.453125 7.46875 
Q 49.3125 8.734375 54.109375 11.28125 
L 54.109375 2.78125 
Q 49.265625 0.734375 44.1875 -0.34375 
Q 39.109375 -1.421875 33.890625 -1.421875 
Q 20.796875 -1.421875 13.15625 6.1875 
Q 5.515625 13.8125 5.515625 26.8125 
Q 5.515625 40.234375 12.765625 48.109375 
Q 20.015625 56 32.328125 56 
Q 43.359375 56 49.78125 48.890625 
Q 56.203125 41.796875 56.203125 29.59375 
z
M 47.21875 32.234375 
Q 47.125 39.59375 43.09375 43.984375 
Q 39.0625 48.390625 32.421875 48.390625 
Q 24.90625 48.390625 20.390625 44.140625 
Q 15.875 39.890625 15.1875 32.171875 
z
" id="DejaVuSans-101"/>
      <path id="DejaVuSans-32"/>
      <path d="M 18.109375 8.203125 
L 18.109375 -20.796875 
L 9.078125 -20.796875 
L 9.078125 54.6875 
L 18.109375 54.6875 
L 18.109375 46.390625 
Q 20.953125 51.265625 25.265625 53.625 
Q 29.59375 56 35.59375 56 
Q 45.5625 56 51.78125 48.09375 
Q 58.015625 40.1875 58.015625 27.296875 
Q 58.015625 14.40625 51.78125 6.484375 
Q 45.5625 -1.421875 35.59375 -1.421875 
Q 29.59375 -1.421875 25.265625 0.953125 
Q 20.953125 3.328125 18.109375 8.203125 
z
M 48.6875 27.296875 
Q 48.6875 37.203125 44.609375 42.84375 
Q 40.53125 48.484375 33.40625 48.484375 
Q 26.265625 48.484375 22.1875 42.84375 
Q 18.109375 37.203125 18.109375 27.296875 
Q 18.109375 17.390625 22.1875 11.75 
Q 26.265625 6.109375 33.40625 6.109375 
Q 40.53125 6.109375 44.609375 11.75 
Q 48.6875 17.390625 48.6875 27.296875 
z
" id="DejaVuSans-112"/>
      <path d="M 30.609375 48.390625 
Q 23.390625 48.390625 19.1875 42.75 
Q 14.984375 37.109375 14.984375 27.296875 
Q 14.984375 17.484375 19.15625 11.84375 
Q 23.34375 6.203125 30.609375 6.203125 
Q 37.796875 6.203125 41.984375 11.859375 
Q 46.1875 17.53125 46.1875 27.296875 
Q 46.1875 37.015625 41.984375 42.703125 
Q 37.796875 48.390625 30.609375 48.390625 
z
M 30.609375 56 
Q 42.328125 56 49.015625 48.375 
Q 55.71875 40.765625 55.71875 27.296875 
Q 55.71875 13.875 49.015625 6.21875 
Q 42.328125 -1.421875 30.609375 -1.421875 
Q 18.84375 -1.421875 12.171875 6.21875 
Q 5.515625 13.875 5.515625 27.296875 
Q 5.515625 40.765625 12.171875 48.375 
Q 18.84375 56 30.609375 56 
z
" id="DejaVuSans-111"/>
      <path d="M 9.421875 54.6875 
L 18.40625 54.6875 
L 18.40625 0 
L 9.421875 0 
z
M 9.421875 75.984375 
L 18.40625 75.984375 
L 18.40625 64.59375 
L 9.421875 64.59375 
z
" id="DejaVuSans-105"/>
      <path d="M 18.3125 70.21875 
L 18.3125 54.6875 
L 36.8125 54.6875 
L 36.8125 47.703125 
L 18.3125 47.703125 
L 18.3125 18.015625 
Q 18.3125 11.328125 20.140625 9.421875 
Q 21.96875 7.515625 27.59375 7.515625 
L 36.8125 7.515625 
L 36.8125 0 
L 27.59375 0 
Q 17.1875 0 13.234375 3.875 
Q 9.28125 7.765625 9.28125 18.015625 
L 9.28125 47.703125 
L 2.6875 47.703125 
L 2.6875 54.6875 
L 9.28125 54.6875 
L 9.28125 70.21875 
z
" id="DejaVuSans-116"/>
      <path d="M 2.984375 54.6875 
L 12.5 54.6875 
L 29.59375 8.796875 
L 46.6875 54.6875 
L 56.203125 54.6875 
L 35.6875 0 
L 23.484375 0 
z
" id="DejaVuSans-118"/>
      <path d="M 41.109375 46.296875 
Q 39.59375 47.171875 37.8125 47.578125 
Q 36.03125 48 33.890625 48 
Q 26.265625 48 22.1875 43.046875 
Q 18.109375 38.09375 18.109375 28.8125 
L 18.109375 0 
L 9.078125 0 
L 9.078125 54.6875 
L 18.109375 54.6875 
L 18.109375 46.1875 
Q 20.953125 51.171875 25.484375 53.578125 
Q 30.03125 56 36.53125 56 
Q 37.453125 56 38.578125 55.875 
Q 39.703125 55.765625 41.0625 55.515625 
z
" id="DejaVuSans-114"/>
     </defs>
     <g transform="translate(190.21 335.860562)scale(0.1 -0.1)">
      <use xlink:href="#DejaVuSans-70"/>
      <use x="57.378906" xlink:href="#DejaVuSans-97"/>
      <use x="118.658203" xlink:href="#DejaVuSans-108"/>
      <use x="146.441406" xlink:href="#DejaVuSans-115"/>
      <use x="198.541016" xlink:href="#DejaVuSans-101"/>
      <use x="260.064453" xlink:href="#DejaVuSans-32"/>
      <use x="291.851562" xlink:href="#DejaVuSans-112"/>
      <use x="355.328125" xlink:href="#DejaVuSans-111"/>
      <use x="416.509766" xlink:href="#DejaVuSans-115"/>
      <use x="468.609375" xlink:href="#DejaVuSans-105"/>
      <use x="496.392578" xlink:href="#DejaVuSans-116"/>
      <use x="535.601562" xlink:href="#DejaVuSans-105"/>
      <use x="563.384766" xlink:href="#DejaVuSans-118"/>
      <use x="622.564453" xlink:href="#DejaVuSans-101"/>
      <use x="684.087891" xlink:href="#DejaVuSans-32"/>
      <use x="715.875" xlink:href="#DejaVuSans-114"/>
      <use x="756.988281" xlink:href="#DejaVuSans-97"/>
      <use x="818.267578" xlink:href="#DejaVuSans-116"/>
      <use x="857.476562" xlink:href="#DejaVuSans-101"/>
     </g>
    </g>
   </g>
   <g id="matplotlib.axis_2">
    <g id="ytick_1">
     <g id="line2d_7">
      <defs>
       <path d="M 0 0 
L -3.5 0 
" id="m637258a81b" style="stroke:#000000;stroke-width:0.8;"/>
      </defs>
      <g>
       <use style="stroke:#000000;stroke-width:0.8;" x="57.6" xlink:href="#m637258a81b" y="307.584"/>
      </g>
     </g>
     <g id="text_8">
      <!-- 0.0 -->
      <g transform="translate(34.696875 311.383219)scale(0.1 -0.1)">
       <use xlink:href="#DejaVuSans-48"/>
       <use x="63.623047" xlink:href="#DejaVuSans-46"/>
       <use x="95.410156" xlink:href="#DejaVuSans-48"/>
      </g>
     </g>
    </g>
    <g id="ytick_2">
     <g id="line2d_8">
      <g>
       <use style="stroke:#000000;stroke-width:0.8;" x="57.6" xlink:href="#m637258a81b" y="254.3616"/>
      </g>
     </g>
     <g id="text_9">
      <!-- 0.2 -->
      <g transform="translate(34.696875 258.160819)scale(0.1 -0.1)">
       <use xlink:href="#DejaVuSans-48"/>
       <use x="63.623047" xlink:href="#DejaVuSans-46"/>
       <use x="95.410156" xlink:href="#DejaVuSans-50"/>
      </g>
     </g>
    </g>
    <g id="ytick_3">
     <g id="line2d_9">
      <g>
       <use style="stroke:#000000;stroke-width:0.8;" x="57.6" xlink:href="#m637258a81b" y="201.1392"/>
      </g>
     </g>
     <g id="text_10">
      <!-- 0.4 -->
      <g transform="translate(34.696875 204.938419)scale(0.1 -0.1)">
       <use xlink:href="#DejaVuSans-48"/>
       <use x="63.623047" xlink:href="#DejaVuSans-46"/>
       <use x="95.410156" xlink:href="#DejaVuSans-52"/>
      </g>
     </g>
    </g>
    <g id="ytick_4">
     <g id="line2d_10">
      <g>
       <use style="stroke:#000000;stroke-width:0.8;" x="57.6" xlink:href="#m637258a81b" y="147.9168"/>
      </g>
     </g>
     <g id="text_11">
      <!-- 0.6 -->
      <g transform="translate(34.696875 151.716019)scale(0.1 -0.1)">
       <use xlink:href="#DejaVuSans-48"/>
       <use x="63.623047" xlink:href="#DejaVuSans-46"/>
       <use x="95.410156" xlink:href="#DejaVuSans-54"/>
      </g>
     </g>
    </g>
    <g id="ytick_5">
     <g id="line2d_11">
      <g>
       <use style="stroke:#000000;stroke-width:0.8;" x="57.6" xlink:href="#m637258a81b" y="94.6944"/>
      </g>
     </g>
     <g id="text_12">
      <!-- 0.8 -->
      <g transform="translate(34.696875 98.493619)scale(0.1 -0.1)">
       <use xlink:href="#DejaVuSans-48"/>
       <use x="63.623047" xlink:href="#DejaVuSans-46"/>
       <use x="95.410156" xlink:href="#DejaVuSans-56"/>
      </g>
     </g>
    </g>
    <g id="ytick_6">
     <g id="line2d_12">
      <g>
       <use style="stroke:#000000;stroke-width:0.8;" x="57.6" xlink:href="#m637258a81b" y="41.472"/>
      </g>
     </g>
     <g id="text_13">
      <!-- 1.0 -->
      <g transform="translate(34.696875 45.271219)scale(0.1 -0.1)">
       <use xlink:href="#DejaVuSans-49"/>
       <use x="63.623047" xlink:href="#DejaVuSans-46"/>
       <use x="95.410156" xlink:href="#DejaVuSans-48"/>
      </g>
     </g>
    </g>
    <g id="text_14">
     <!-- True positive rate -->
     <defs>
      <path d="M -0.296875 72.90625 
L 61.375 72.90625 
L 61.375 64.59375 
L 35.5 64.59375 
L 35.5 0 
L 25.59375 0 
L 25.59375 64.59375 
L -0.296875 64.59375 
z
" id="DejaVuSans-84"/>
      <path d="M 8.5 21.578125 
L 8.5 54.6875 
L 17.484375 54.6875 
L 17.484375 21.921875 
Q 17.484375 14.15625 20.5 10.265625 
Q 23.53125 6.390625 29.59375 6.390625 
Q 36.859375 6.390625 41.078125 11.03125 
Q 45.3125 15.671875 45.3125 23.6875 
L 45.3125 54.6875 
L 54.296875 54.6875 
L 54.296875 0 
L 45.3125 0 
L 45.3125 8.40625 
Q 42.046875 3.421875 37.71875 1 
Q 33.40625 -1.421875 27.6875 -1.421875 
Q 18.265625 -1.421875 13.375 4.4375 
Q 8.5 10.296875 8.5 21.578125 
z
M 31.109375 56 
z
" id="DejaVuSans-117"/>
     </defs>
     <g transform="translate(28.617187 218.818625)rotate(-90)scale(0.1 -0.1)">
      <use xlink:href="#DejaVuSans-84"/>
      <use x="60.865234" xlink:href="#DejaVuSans-114"/>
      <use x="101.978516" xlink:href="#DejaVuSans-117"/>
      <use x="165.357422" xlink:href="#DejaVuSans-101"/>
      <use x="226.880859" xlink:href="#DejaVuSans-32"/>
      <use x="258.667969" xlink:href="#DejaVuSans-112"/>
      <use x="322.144531" xlink:href="#DejaVuSans-111"/>
      <use x="383.326172" xlink:href="#DejaVuSans-115"/>
      <use x="435.425781" xlink:href="#DejaVuSans-105"/>
      <use x="463.208984" xlink:href="#DejaVuSans-116"/>
      <use x="502.417969" xlink:href="#DejaVuSans-105"/>
      <use x="530.201172" xlink:href="#DejaVuSans-118"/>
      <use x="589.380859" xlink:href="#DejaVuSans-101"/>
      <use x="650.904297" xlink:href="#DejaVuSans-32"/>
      <use x="682.691406" xlink:href="#DejaVuSans-114"/>
      <use x="723.804688" xlink:href="#DejaVuSans-97"/>
      <use x="785.083984" xlink:href="#DejaVuSans-116"/>
      <use x="824.292969" xlink:href="#DejaVuSans-101"/>
     </g>
    </g>
   </g>
   <g id="line2d_13">
    <path clip-path="url(#pd4ca099d61)" d="M 57.6 307.584 
L 57.702897 301.450032 
L 57.737196 301.450032 
L 57.840092 299.328701 
L 57.874391 299.328701 
L 57.977288 293.194732 
L 58.011587 293.194732 
L 58.114483 291.022285 
L 58.148782 291.022285 
L 58.251679 284.044896 
L 58.285978 284.044896 
L 58.388874 278.831023 
L 58.423173 278.831023 
L 58.52607 271.776959 
L 58.560369 271.776959 
L 58.663265 269.118906 
L 58.697564 269.118906 
L 58.800461 264.952919 
L 58.83476 264.952919 
L 58.937657 261.477003 
L 58.971955 261.477003 
L 59.074852 258.333345 
L 59.14345 258.25667 
L 59.246347 253.783985 
L 59.280645 253.783985 
L 59.383542 251.100373 
L 59.417841 251.100373 
L 59.520738 249.106834 
L 59.555036 249.106834 
L 59.555036 249.004601 
L 59.657933 244.276333 
L 59.692232 244.276333 
L 59.795129 240.442603 
L 59.829428 240.442603 
L 59.932324 238.883553 
L 60.000922 238.857995 
L 60.103819 236.276616 
L 60.138118 236.276616 
L 60.241014 232.008396 
L 60.275313 232.008396 
L 60.37821 229.299227 
L 60.412509 229.299227 
L 60.515405 228.609156 
L 60.549704 228.609156 
L 60.652601 225.491055 
L 60.6869 225.491055 
L 60.789796 222.398512 
L 60.824095 222.398512 
L 60.926992 219.740459 
L 60.961291 219.740459 
L 61.064187 215.421123 
L 61.132785 215.370007 
L 61.235682 212.124115 
L 61.269981 212.124115 
L 61.372877 209.21048 
L 61.407176 209.21048 
L 61.510073 207.676988 
L 61.61297 207.574755 
L 61.715866 206.424636 
L 61.750165 206.424636 
L 61.853062 203.894374 
L 61.92166 203.868816 
L 62.024556 202.309766 
L 62.058855 202.309766 
L 62.161752 201.466345 
L 62.196051 201.466345 
L 62.298947 197.095892 
L 62.333246 197.095892 
L 62.436143 194.923445 
L 62.470442 194.923445 
L 62.573338 191.600879 
L 62.607637 191.600879 
L 62.710534 191.140831 
L 62.744833 191.140831 
L 62.84773 187.971614 
L 62.916327 187.89494 
L 63.019224 185.339119 
L 63.053523 185.339119 
L 63.15642 184.163442 
L 63.190718 184.163442 
L 63.293615 182.016553 
L 63.362213 181.990995 
L 63.465109 179.690757 
L 63.533707 179.665199 
L 63.636604 176.956029 
L 63.670903 176.956029 
L 63.773799 173.684579 
L 63.842397 173.684579 
L 63.945294 172.790042 
L 63.979593 172.790042 
L 64.082489 170.847619 
L 64.116788 170.847619 
L 64.219685 168.751846 
L 64.253984 168.751846 
L 64.356881 167.295029 
L 64.425478 167.295029 
L 64.494076 166.70719 
L 64.596973 166.70719 
L 64.699869 165.378164 
L 64.734168 165.378164 
L 64.837065 164.125812 
L 64.871364 164.125812 
L 64.97426 161.978923 
L 65.008559 161.978923 
L 65.111456 160.573222 
L 65.145755 160.573222 
L 65.248652 160.113174 
L 65.28295 160.113174 
L 65.385847 157.685145 
L 65.454445 157.685145 
L 65.557342 155.05265 
L 65.694537 154.899301 
L 65.797434 153.007994 
L 65.831733 153.007994 
L 65.934629 151.908991 
L 65.968928 151.908991 
L 66.071825 150.758872 
L 66.106124 150.758872 
L 66.20902 148.049703 
L 66.277618 147.973028 
L 66.380515 146.286187 
L 66.414814 146.286187 
L 66.51771 144.088181 
L 66.586308 144.062623 
L 66.689205 142.069083 
L 66.757803 142.017967 
L 66.860699 138.235353 
L 66.929297 138.209795 
L 67.032194 135.193927 
L 67.066493 135.193927 
L 67.169389 133.149271 
L 67.203688 133.149271 
L 67.306585 131.487988 
L 67.340884 131.487988 
L 67.44378 129.085517 
L 67.512378 129.0344 
L 67.615275 127.015302 
L 67.718171 126.91307 
L 67.821068 124.357249 
L 67.855367 124.357249 
L 67.958264 122.159244 
L 67.992562 122.159244 
L 68.095459 119.3734 
L 68.129758 119.3734 
L 68.232655 118.197723 
L 68.266954 118.197723 
L 68.36985 116.792022 
L 68.404149 116.792022 
L 68.507046 115.284088 
L 68.575643 115.181855 
L 68.67854 113.188315 
L 68.781437 113.162757 
L 68.884333 111.757056 
L 69.055828 111.680381 
L 69.158725 110.530262 
L 69.193023 110.530262 
L 69.261621 109.99354 
L 69.330219 109.99354 
L 69.433116 108.613397 
L 69.467415 108.613397 
L 69.570311 108 
L 69.638909 107.948884 
L 69.741806 107.386603 
L 69.776104 107.386603 
L 69.879001 106.210926 
L 69.981898 106.108693 
L 70.050496 105.00969 
L 70.119093 105.00969 
L 70.22199 102.581661 
L 70.324887 102.530545 
L 70.427783 101.201518 
L 70.462082 101.201518 
L 70.564979 100.997053 
L 70.667876 100.89482 
L 70.770772 99.89805 
L 70.805071 99.89805 
L 70.907968 97.700045 
L 70.976566 97.674486 
L 71.079462 96.524367 
L 71.14806 96.524367 
L 71.250957 95.706505 
L 71.285255 95.706505 
L 71.388152 95.093108 
L 71.45675 94.990875 
L 71.559647 94.78641 
L 71.628244 94.78641 
L 71.731141 93.380708 
L 71.868337 93.329592 
L 71.971233 92.997335 
L 72.005532 92.971777 
L 72.108429 92.153915 
L 72.211325 92.051682 
L 72.314222 91.029354 
L 72.348521 91.029354 
L 72.451418 89.80256 
L 72.485716 89.80256 
L 72.588613 89.035814 
L 72.657211 88.959139 
L 72.760108 87.860137 
L 72.794406 87.860137 
L 72.897303 86.377761 
L 72.965901 86.352203 
L 73.068798 85.483224 
L 73.103096 85.483224 
L 73.137395 84.869827 
L 73.240292 84.869827 
L 73.343189 84.409779 
L 73.411786 84.409779 
L 73.514683 83.821941 
L 73.548982 83.821941 
L 73.651879 82.927404 
L 73.754775 82.825171 
L 73.857672 81.70061 
L 73.92627 81.675052 
L 73.960569 81.291679 
L 74.132063 81.266121 
L 74.23496 80.652724 
L 74.303557 80.576049 
L 74.406454 80.167118 
L 74.440753 80.167118 
L 74.54365 79.834861 
L 74.612247 79.809303 
L 74.715144 78.761417 
L 74.783742 78.684742 
L 74.886638 78.403602 
L 74.955236 78.301369 
L 75.058133 77.279041 
L 75.126731 77.279041 
L 75.229627 77.023459 
L 75.263926 77.023459 
L 75.366823 76.614528 
L 75.401122 76.614528 
L 75.504018 76.052247 
L 75.572616 76.001131 
L 75.675513 75.438851 
L 75.77841 75.362176 
L 75.812708 75.081036 
L 76.052801 74.978803 
L 76.155697 74.87657 
L 76.430088 74.774337 
L 76.532985 74.237615 
L 76.601583 74.237615 
L 76.704479 73.700893 
L 76.738778 73.700893 
L 76.841675 73.291962 
L 76.875974 73.291962 
L 76.978871 72.908589 
L 77.081767 72.806356 
L 77.184664 72.60189 
L 77.287561 72.499657 
L 77.356158 72.269633 
L 77.493354 72.192959 
L 77.59625 71.528446 
L 77.664848 71.426213 
L 77.767745 71.04284 
L 77.870642 70.991723 
L 77.973538 70.633909 
L 78.042136 70.633909 
L 78.145033 69.918279 
L 78.247929 69.841604 
L 78.316527 69.177091 
L 78.488022 69.151533 
L 78.590918 68.870393 
L 78.625217 68.870393 
L 78.728114 68.078088 
L 78.796711 68.026972 
L 78.899608 67.745832 
L 78.933907 67.745832 
L 79.036804 67.464692 
L 79.173999 67.362459 
L 79.276896 67.234668 
L 79.345494 67.234668 
L 79.44839 66.570154 
L 79.516988 66.519038 
L 79.619885 66.391247 
L 79.688483 66.340131 
L 79.791379 66.033432 
L 79.859977 65.982316 
L 79.928575 65.701176 
L 80.100069 65.598943 
L 80.168667 65.21557 
L 80.37446 65.113337 
L 80.443058 64.627731 
L 80.648851 64.525498 
L 80.751748 64.295474 
L 81.026139 64.193242 
L 81.129036 63.860985 
L 81.266231 63.758752 
L 81.369128 63.273146 
L 81.437726 63.247588 
L 81.540622 62.813099 
L 81.574921 62.813099 
L 81.643519 62.5064 
L 81.712117 62.5064 
L 81.815013 62.199702 
L 81.849312 62.199702 
L 81.952209 61.969678 
L 82.020807 61.867445 
L 82.123703 61.688538 
L 82.192301 61.586305 
L 82.295198 61.202932 
L 82.432393 61.151816 
L 82.53529 60.589535 
L 82.741083 60.487302 
L 82.84398 60.308395 
L 83.015474 60.23172 
L 83.015474 60.129488 
L 83.15267 60.129488 
L 83.255567 59.592765 
L 83.529958 59.541649 
L 83.529958 59.439416 
L 83.701452 59.439416 
L 83.735751 59.23495 
L 83.872947 59.158276 
L 83.975843 58.621554 
L 84.07874 58.595995 
L 84.181637 58.340413 
L 84.318832 58.238181 
L 84.353131 58.084831 
L 84.661821 58.059273 
L 84.730419 57.905924 
L 85.039109 57.803691 
L 85.142005 57.445876 
L 85.210603 57.343643 
L 85.3135 57.190294 
L 85.656489 57.088061 
L 85.690788 56.934712 
L 85.896581 56.909154 
L 85.999478 56.653572 
L 86.308167 56.551339 
L 86.411064 56.321315 
L 86.685455 56.219083 
L 86.788352 55.861268 
L 87.131341 55.759035 
L 87.16564 55.707919 
L 87.542927 55.605686 
L 87.577226 55.375662 
L 87.680123 55.375662 
L 87.78302 55.171196 
L 87.954514 55.145638 
L 88.023112 54.941172 
L 88.194606 54.890056 
L 88.263204 54.762265 
L 88.571894 54.660032 
L 88.640492 54.557799 
L 88.880584 54.481125 
L 88.983481 54.276659 
L 89.360768 54.174426 
L 89.463665 54.021077 
L 89.738056 53.918844 
L 89.806654 53.663262 
L 90.286838 53.586588 
L 90.389735 53.433239 
L 90.492632 53.331006 
L 90.52693 53.152098 
L 90.698425 53.152098 
L 90.732724 52.973191 
L 91.14431 52.870958 
L 91.212908 52.768725 
L 91.830288 52.666493 
L 91.830288 52.615376 
L 92.207576 52.513143 
L 92.241875 52.359794 
L 92.722059 52.257561 
L 92.790657 52.206445 
L 93.030749 52.104212 
L 93.133646 51.874188 
L 93.716727 51.771955 
L 93.819624 51.720839 
L 94.299808 51.618606 
L 94.299808 51.593048 
L 94.5399 51.516373 
L 94.5399 51.465257 
L 94.951487 51.388582 
L 94.951487 51.337466 
L 95.706062 51.260791 
L 95.77466 51.133 
L 96.08335 51.056326 
L 96.151948 50.979651 
L 96.837925 50.877418 
L 96.837925 50.85186 
L 97.386708 50.749627 
L 97.455305 50.698511 
L 97.93549 50.596278 
L 97.93549 50.545162 
L 98.312778 50.468487 
L 98.312778 50.391813 
L 99.273146 50.315138 
L 99.376043 50.161789 
L 99.856227 50.085114 
L 99.890526 49.982881 
L 100.919493 49.880648 
L 100.919493 49.85509 
L 101.639769 49.752857 
L 101.742666 49.701741 
L 102.291448 49.599508 
L 102.291448 49.57395 
L 103.011725 49.471717 
L 103.011725 49.395043 
L 103.491909 49.29281 
L 103.560507 49.216135 
L 103.972094 49.139461 
L 104.006393 49.01167 
L 105.206854 48.909437 
L 105.275451 48.832762 
L 105.92713 48.730529 
L 105.92713 48.679413 
L 106.818901 48.57718 
L 106.818901 48.551622 
L 108.122259 48.449389 
L 108.122259 48.423831 
L 108.739639 48.321598 
L 108.739639 48.29604 
L 110.180192 48.219365 
L 110.180192 48.168249 
L 110.55748 48.117133 
L 110.626078 48.0149 
L 112.512516 47.912667 
L 112.546815 47.861551 
L 113.095597 47.759318 
L 113.095597 47.73376 
L 113.918771 47.631527 
L 113.918771 47.605968 
L 115.976704 47.503736 
L 115.976704 47.478177 
L 117.828844 47.375945 
L 117.828844 47.350386 
L 118.995006 47.273712 
L 118.995006 47.222595 
L 120.023972 47.145921 
L 120.023972 47.094804 
L 121.876112 46.992572 
L 121.876112 46.915897 
L 122.802182 46.813664 
L 122.905079 46.762548 
L 124.482828 46.660315 
L 124.482828 46.634757 
L 125.751886 46.532524 
L 125.751886 46.506966 
L 127.089543 46.430291 
L 127.123842 46.353617 
L 128.290004 46.251384 
L 128.3929 46.200267 
L 129.902051 46.098035 
L 129.970649 46.046918 
L 133.126147 45.944685 
L 133.126147 45.919127 
L 134.703896 45.816894 
L 134.703896 45.791336 
L 137.379209 45.689103 
L 137.482105 45.612429 
L 138.991256 45.510196 
L 139.059854 45.433521 
L 142.86703 45.331289 
L 142.86703 45.30573 
L 144.41048 45.203498 
L 144.41048 45.177939 
L 148.217657 45.101265 
L 148.217657 45.050148 
L 151.167361 44.947915 
L 151.167361 44.896799 
L 156.41509 44.794566 
L 156.41509 44.769008 
L 162.760384 44.666775 
L 162.760384 44.641217 
L 168.591195 44.538984 
L 168.591195 44.513426 
L 172.809958 44.411193 
L 172.809958 44.385635 
L 178.332078 44.283402 
L 178.332078 44.257844 
L 181.624771 44.155611 
L 181.624771 44.130053 
L 186.28942 44.02782 
L 186.28942 44.002262 
L 196.1332 43.900029 
L 196.1332 43.874471 
L 203.987645 43.772238 
L 203.987645 43.74668 
L 210.195743 43.644447 
L 210.195743 43.618889 
L 214.551702 43.516656 
L 214.551702 43.491098 
L 218.050188 43.388865 
L 218.050188 43.363307 
L 224.395482 43.261074 
L 224.395482 43.235516 
L 235.371126 43.133283 
L 235.371126 43.107725 
L 248.4733 43.005492 
L 248.4733 42.979934 
L 262.295751 42.877701 
L 262.295751 42.852143 
L 265.554145 42.74991 
L 265.554145 42.724352 
L 277.627353 42.622119 
L 277.627353 42.596561 
L 288.568698 42.494328 
L 288.568698 42.46877 
L 294.296612 42.366537 
L 294.296612 42.340979 
L 304.551978 42.238746 
L 304.551978 42.213188 
L 327.086347 42.110955 
L 327.086347 42.085397 
L 327.154944 42.085397 
L 347.425586 41.983164 
L 347.425586 41.957606 
L 360.630657 41.855373 
L 360.630657 41.829815 
L 372.326577 41.727582 
L 372.326577 41.702024 
L 398.428029 41.599791 
L 398.428029 41.574233 
L 414.72 41.472 
L 414.72 41.472 
" style="fill:none;stroke:#ff0000;stroke-linecap:square;stroke-width:1.5;"/>
   </g>
   <g id="line2d_14">
    <path clip-path="url(#pd4ca099d61)" d="M 57.6 307.584 
L 57.702897 303.571362 
L 57.771494 303.571362 
L 57.874391 292.351312 
L 57.90869 292.351312 
L 58.011587 291.686798 
L 58.045886 291.686798 
L 58.148782 287.444137 
L 58.21738 287.341904 
L 58.285978 285.425039 
L 58.354575 285.425039 
L 58.457472 280.211166 
L 58.52607 280.134491 
L 58.628967 276.530784 
L 58.663265 276.530784 
L 58.766162 270.3457 
L 58.83476 270.243467 
L 58.937657 266.63976 
L 58.971955 266.63976 
L 59.074852 262.754914 
L 59.14345 262.678239 
L 59.246347 259.509022 
L 59.280645 259.509022 
L 59.383542 257.080993 
L 59.417841 257.080993 
L 59.520738 251.892678 
L 59.555036 251.892678 
L 59.657933 248.544553 
L 59.726531 248.44232 
L 59.829428 246.525455 
L 59.863726 246.525455 
L 59.863726 246.448781 
L 59.966623 244.966405 
L 60.000922 244.966405 
L 60.103819 243.126214 
L 60.138118 243.126214 
L 60.241014 234.692008 
L 60.275313 234.692008 
L 60.37821 231.778373 
L 60.412509 231.778373 
L 60.515405 227.612386 
L 60.549704 227.612386 
L 60.652601 225.13324 
L 60.6869 225.13324 
L 60.789796 222.730769 
L 60.824095 222.730769 
L 60.926992 217.286872 
L 60.961291 217.286872 
L 61.064187 212.711954 
L 61.132785 212.660837 
L 61.235682 211.664068 
L 61.269981 211.664068 
L 61.372877 208.878224 
L 61.407176 208.878224 
L 61.510073 206.577985 
L 61.544372 206.577985 
L 61.647269 204.354422 
L 61.681567 204.354422 
L 61.784464 202.181975 
L 61.853062 202.079742 
L 61.955959 200.878506 
L 61.990257 200.878506 
L 62.093154 200.367342 
L 62.127453 200.367342 
L 62.23035 199.191665 
L 62.298947 199.191665 
L 62.401844 197.095892 
L 62.436143 197.095892 
L 62.53904 195.153469 
L 62.573338 195.153469 
L 62.676235 194.131141 
L 62.710534 194.131141 
L 62.813431 192.00981 
L 62.84773 192.00981 
L 62.950626 188.227196 
L 62.984925 188.227196 
L 62.984925 188.150522 
L 63.087822 186.054749 
L 63.15642 186.029191 
L 63.15642 185.978075 
L 63.259316 184.112326 
L 63.293615 184.086768 
L 63.396512 180.610852 
L 63.430811 180.610852 
L 63.533707 178.131706 
L 63.602305 178.131706 
L 63.705202 176.879355 
L 63.773799 176.828238 
L 63.876696 174.323534 
L 63.945294 174.221302 
L 64.048191 172.048854 
L 64.082489 172.048854 
L 64.082489 171.97218 
L 64.185386 169.237452 
L 64.219685 169.237452 
L 64.322582 167.550611 
L 64.356881 167.550611 
L 64.459777 164.662534 
L 64.494076 164.662534 
L 64.596973 163.461299 
L 64.631272 163.461299 
L 64.734168 161.825574 
L 64.768467 161.825574 
L 64.871364 160.624338 
L 64.905663 160.624338 
L 65.008559 159.295312 
L 65.042858 159.295312 
L 65.145755 157.352888 
L 65.214353 157.352888 
L 65.317249 155.33379 
L 65.351548 155.33379 
L 65.454445 153.953647 
L 65.488744 153.953647 
L 65.59164 152.547946 
L 65.660238 152.471272 
L 65.763135 150.861105 
L 65.797434 150.861105 
L 65.90033 149.557637 
L 65.934629 149.557637 
L 66.037526 148.50975 
L 66.071825 148.50975 
L 66.174721 145.544999 
L 66.277618 145.519441 
L 66.380515 143.704808 
L 66.449113 143.704808 
L 66.552009 142.810271 
L 66.620607 142.759155 
L 66.723504 141.353454 
L 66.757803 141.353454 
L 66.8264 140.101102 
L 66.894998 140.101102 
L 66.997895 139.589938 
L 67.032194 139.589938 
L 67.13509 138.925425 
L 67.203688 138.899866 
L 67.306585 138.184237 
L 67.340884 138.184237 
L 67.44378 137.008559 
L 67.478079 137.008559 
L 67.546677 136.216255 
L 67.615275 136.216255 
L 67.718171 135.526184 
L 67.75247 135.526184 
L 67.855367 134.043808 
L 67.958264 133.941575 
L 68.06116 131.973594 
L 68.095459 131.973594 
L 68.198356 130.414543 
L 68.232655 130.414543 
L 68.301252 128.548794 
L 68.36985 128.548794 
L 68.472747 127.884281 
L 68.507046 127.884281 
L 68.609942 125.711834 
L 68.67854 125.660718 
L 68.781437 124.433924 
L 68.815736 124.433924 
L 68.918632 122.977106 
L 68.952931 122.977106 
L 69.055828 121.341381 
L 69.090127 121.341381 
L 69.193023 119.347842 
L 69.261621 119.245609 
L 69.364518 118.734445 
L 69.398817 118.734445 
L 69.501713 117.533209 
L 69.570311 117.482093 
L 69.673208 116.510881 
L 69.707507 116.510881 
L 69.810403 114.415109 
L 69.879001 114.363992 
L 69.981898 113.776154 
L 70.050496 113.725037 
L 70.119093 113.392781 
L 70.22199 113.392781 
L 70.290588 112.396011 
L 70.359186 112.396011 
L 70.462082 111.629265 
L 70.496381 111.629265 
L 70.599278 111.220333 
L 70.633577 111.220333 
L 70.736473 110.428029 
L 70.770772 110.428029 
L 70.873669 109.405701 
L 70.942267 109.329027 
L 71.045163 107.309929 
L 71.079462 107.309929 
L 71.182359 105.520854 
L 71.216658 105.520854 
L 71.319554 104.242944 
L 71.353853 104.242944 
L 71.45675 102.786127 
L 71.491049 102.786127 
L 71.593945 101.712682 
L 71.628244 101.712682 
L 71.731141 100.102516 
L 71.76544 100.102516 
L 71.868337 98.952396 
L 71.971233 98.90128 
L 72.07413 98.569023 
L 72.142728 98.466791 
L 72.245624 97.597812 
L 72.314222 97.572254 
L 72.417119 96.575484 
L 72.485716 96.498809 
L 72.588613 95.527597 
L 72.622912 95.527597 
L 72.725809 94.811968 
L 72.760108 94.811968 
L 72.863004 93.994105 
L 72.931602 93.968547 
L 73.0002 93.712965 
L 73.068798 93.712965 
L 73.171694 93.252917 
L 73.205993 93.252917 
L 73.30889 92.153915 
L 73.411786 92.128357 
L 73.514683 91.336052 
L 73.583281 91.259378 
L 73.686177 90.952679 
L 73.789074 90.876005 
L 73.891971 89.777002 
L 73.92627 89.777002 
L 74.029166 89.470303 
L 74.200661 89.368071 
L 74.303557 88.703557 
L 74.337856 88.703557 
L 74.440753 87.96237 
L 74.509351 87.885695 
L 74.612247 87.425647 
L 74.715144 87.374531 
L 74.818041 86.633343 
L 74.85234 86.633343 
L 74.955236 85.994388 
L 75.058133 85.917713 
L 75.16103 85.355433 
L 75.195328 85.355433 
L 75.298225 84.051965 
L 75.332524 84.051965 
L 75.435421 83.285219 
L 75.46972 83.285219 
L 75.572616 82.671822 
L 75.641214 82.595147 
L 75.675513 82.186216 
L 75.812708 82.186216 
L 75.915605 81.802843 
L 75.984203 81.751726 
L 76.052801 81.061655 
L 76.224295 81.036097 
L 76.327192 80.294909 
L 76.430088 80.192676 
L 76.532985 79.732629 
L 76.567284 79.732629 
L 76.670181 79.400372 
L 76.773077 79.323697 
L 76.875974 78.965882 
L 76.910273 78.965882 
L 77.013169 78.531393 
L 77.081767 78.531393 
L 77.184664 78.14802 
L 77.253262 78.122462 
L 77.356158 77.176808 
L 77.424756 77.125692 
L 77.527653 76.742319 
L 77.59625 76.691202 
L 77.699147 75.950015 
L 77.767745 75.950015 
L 77.870642 75.362176 
L 77.90494 75.362176 
L 78.007837 75.055478 
L 78.110734 74.978803 
L 78.21363 74.620988 
L 78.316527 74.518755 
L 78.419424 74.135382 
L 78.453723 74.135382 
L 78.556619 73.624218 
L 78.693815 73.59866 
L 78.796711 73.291962 
L 78.865309 73.291962 
L 78.968206 72.755239 
L 79.071103 72.755239 
L 79.1397 72.397425 
L 79.345494 72.295192 
L 79.44839 71.707353 
L 79.516988 71.707353 
L 79.619885 71.170631 
L 79.688483 71.119514 
L 79.75708 70.659467 
L 79.894276 70.582792 
L 79.962874 70.378327 
L 80.06577 70.276094 
L 80.134368 70.097186 
L 80.305862 69.994954 
L 80.408759 69.662697 
L 80.443058 69.662697 
L 80.477357 69.458231 
L 80.614552 69.458231 
L 80.717449 69.023742 
L 80.786047 69.023742 
L 80.888944 68.33367 
L 80.99184 68.282554 
L 81.094737 67.669157 
L 81.231932 67.618041 
L 81.334829 67.311342 
L 81.506323 67.260226 
L 81.60922 66.927969 
L 81.780715 66.876853 
L 81.849312 66.544596 
L 81.952209 66.442363 
L 82.055106 65.905641 
L 82.123703 65.905641 
L 82.2266 65.624501 
L 82.329497 65.547826 
L 82.432393 65.266686 
L 82.466692 65.266686 
L 82.569589 64.93443 
L 82.741083 64.832197 
L 82.84398 64.525498 
L 82.878279 64.525498 
L 82.912578 64.193242 
L 83.15267 64.142125 
L 83.255567 63.758752 
L 83.324164 63.707636 
L 83.392762 63.528728 
L 83.564257 63.477612 
L 83.667153 63.273146 
L 83.804349 63.170914 
L 83.907245 62.966448 
L 84.010142 62.94089 
L 84.113039 62.65975 
L 84.318832 62.557517 
L 84.421729 62.301935 
L 84.593223 62.22526 
L 84.69612 62.123027 
L 84.764718 62.123027 
L 84.867614 61.841887 
L 84.936212 61.739654 
L 85.039109 61.22849 
L 85.176304 61.126257 
L 85.279201 60.921792 
L 85.382098 60.870675 
L 85.484994 60.66621 
L 85.587891 60.563977 
L 85.656489 60.512861 
L 85.896581 60.410628 
L 85.896581 60.333953 
L 86.205271 60.23172 
L 86.308167 60.052813 
L 86.54826 59.95058 
L 86.651156 59.618323 
L 86.85695 59.541649 
L 86.959846 59.23495 
L 87.16564 59.132718 
L 87.234237 59.030485 
L 87.714422 58.928252 
L 87.78302 58.826019 
L 87.851617 58.826019 
L 87.885916 58.621554 
L 88.228905 58.519321 
L 88.331802 58.263739 
L 88.434698 58.161506 
L 88.537595 58.008157 
L 88.743388 57.905924 
L 88.846285 57.752575 
L 88.914883 57.650342 
L 88.983481 57.573667 
L 89.154975 57.471434 
L 89.223573 57.420318 
L 89.669458 57.318085 
L 89.772355 57.164736 
L 89.978148 57.088061 
L 89.978148 56.96027 
L 90.252539 56.858038 
L 90.286838 56.628014 
L 90.492632 56.551339 
L 90.52693 56.474665 
L 90.904218 56.39799 
L 90.938517 56.270199 
L 91.178609 56.219083 
L 91.281506 56.040175 
L 91.350104 56.040175 
L 91.453 55.784593 
L 91.521598 55.759035 
L 91.624495 55.426778 
L 91.933185 55.324546 
L 92.001783 55.247871 
L 92.37907 55.145638 
L 92.37907 55.12008 
L 92.550565 55.094522 
L 92.653461 54.864498 
L 93.065048 54.813381 
L 93.065048 54.711149 
L 93.510934 54.634474 
L 93.61383 54.481125 
L 93.682428 54.481125 
L 93.785325 54.251101 
L 94.059716 54.148868 
L 94.162612 54.072194 
L 94.608498 53.995519 
L 94.677096 53.867728 
L 94.917188 53.765495 
L 94.951487 53.637704 
L 95.500269 53.535471 
L 95.603166 53.382122 
L 96.117649 53.279889 
L 96.117649 53.254331 
L 96.357741 53.152098 
L 96.357741 53.049866 
L 96.735029 52.973191 
L 96.803627 52.896516 
L 97.078018 52.819842 
L 97.146615 52.717609 
L 97.455305 52.640934 
L 97.523903 52.436469 
L 98.209881 52.334236 
L 98.209881 52.308678 
L 98.724364 52.206445 
L 98.827261 52.104212 
L 99.341744 52.001979 
L 99.444641 51.925305 
L 100.09632 51.823072 
L 100.130619 51.746397 
L 100.988091 51.644164 
L 100.988091 51.618606 
L 101.811264 51.541932 
L 101.879862 51.388582 
L 102.497242 51.311908 
L 102.600138 51.235233 
L 102.840231 51.184117 
L 102.840231 51.107442 
L 103.526208 51.030768 
L 103.526208 50.979651 
L 104.040692 50.877418 
L 104.143588 50.800744 
L 105.652739 50.698511 
L 105.652739 50.672953 
L 106.54451 50.57072 
L 106.647407 50.494045 
L 106.8532 50.468487 
L 106.8532 50.366254 
L 107.299086 50.28958 
L 107.367683 50.110672 
L 108.225156 50.008439 
L 108.225156 49.982881 
L 109.01403 49.880648 
L 109.01403 49.85509 
L 109.597111 49.752857 
L 109.597111 49.727299 
L 110.111594 49.625066 
L 110.145893 49.57395 
L 110.763273 49.471717 
L 110.763273 49.446159 
L 111.449251 49.343926 
L 111.48355 49.29281 
L 112.169527 49.190577 
L 112.238125 49.139461 
L 113.747276 49.062786 
L 113.747276 49.01167 
L 114.501852 48.909437 
L 114.501852 48.883879 
L 114.810542 48.781646 
L 114.913438 48.730529 
L 115.736612 48.628297 
L 115.736612 48.602738 
L 116.319693 48.551622 
L 116.38829 48.449389 
L 117.897441 48.347156 
L 117.897441 48.321598 
L 119.337995 48.219365 
L 119.337995 48.193807 
L 120.675651 48.091574 
L 120.675651 48.066016 
L 122.047607 47.963783 
L 122.047607 47.938225 
L 123.248068 47.835992 
L 123.248068 47.810434 
L 124.311333 47.708201 
L 124.311333 47.682643 
L 125.683289 47.58041 
L 125.751886 47.478177 
L 126.437864 47.375945 
L 126.437864 47.350386 
L 127.809819 47.273712 
L 127.809819 47.222595 
L 129.113177 47.120363 
L 129.113177 47.094804 
L 129.593362 46.992572 
L 129.593362 46.967013 
L 130.656627 46.864781 
L 130.725225 46.813664 
L 131.822789 46.711431 
L 131.822789 46.685873 
L 134.155113 46.58364 
L 134.155113 46.558082 
L 135.046884 46.455849 
L 135.149781 46.404733 
L 135.458471 46.379175 
L 135.458471 46.276942 
L 137.276312 46.174709 
L 137.276312 46.149151 
L 139.128452 46.046918 
L 139.128452 45.995802 
L 140.054522 45.893569 
L 140.054522 45.842453 
L 143.758801 45.74022 
L 143.758801 45.714662 
L 147.325886 45.612429 
L 147.325886 45.586871 
L 149.65821 45.484638 
L 149.65821 45.45908 
L 152.230626 45.356847 
L 152.230626 45.331289 
L 155.832009 45.229056 
L 155.832009 45.203498 
L 159.844979 45.101265 
L 159.844979 45.075706 
L 164.269535 44.973474 
L 164.269535 44.947915 
L 167.322136 44.845683 
L 167.322136 44.820124 
L 170.100346 44.717892 
L 170.100346 44.692333 
L 172.912854 44.590101 
L 172.912854 44.564542 
L 178.194883 44.46231 
L 178.194883 44.436751 
L 182.070657 44.334519 
L 182.070657 44.30896 
L 185.98073 44.206728 
L 185.98073 44.181169 
L 188.75894 44.078937 
L 188.75894 44.053378 
L 194.383957 43.951146 
L 194.383957 43.925587 
L 200.866446 43.823355 
L 200.969343 43.772238 
L 207.657626 43.670005 
L 207.657626 43.644447 
L 214.92899 43.542214 
L 214.92899 43.516656 
L 224.875667 43.414423 
L 224.875667 43.388865 
L 229.986201 43.286632 
L 229.986201 43.261074 
L 237.39476 43.158841 
L 237.39476 43.133283 
L 241.71642 43.03105 
L 241.71642 43.005492 
L 249.365071 42.903259 
L 249.365071 42.852143 
L 260.409312 42.74991 
L 260.409312 42.724352 
L 279.822482 42.622119 
L 279.822482 42.596561 
L 286.064879 42.494328 
L 286.064879 42.46877 
L 297.212017 42.366537 
L 297.212017 42.340979 
L 310.451387 42.238746 
L 310.451387 42.213188 
L 316.350795 42.110955 
L 316.350795 42.085397 
L 332.539869 41.983164 
L 332.539869 41.957606 
L 350.581083 41.855373 
L 350.649681 41.804257 
L 370.097149 41.702024 
L 370.097149 41.676466 
L 386.114729 41.574233 
L 386.114729 41.548675 
L 414.72 41.472 
L 414.72 41.472 
" style="fill:none;stroke:#008000;stroke-linecap:square;stroke-width:1.5;"/>
   </g>
   <g id="patch_3">
    <path d="M 57.6 307.584 
L 57.6 41.472 
" style="fill:none;stroke:#000000;stroke-linecap:square;stroke-linejoin:miter;stroke-width:0.8;"/>
   </g>
   <g id="patch_4">
    <path d="M 414.72 307.584 
L 414.72 41.472 
" style="fill:none;stroke:#000000;stroke-linecap:square;stroke-linejoin:miter;stroke-width:0.8;"/>
   </g>
   <g id="patch_5">
    <path d="M 57.6 307.584 
L 414.72 307.584 
" style="fill:none;stroke:#000000;stroke-linecap:square;stroke-linejoin:miter;stroke-width:0.8;"/>
   </g>
   <g id="patch_6">
    <path d="M 57.6 41.472 
L 414.72 41.472 
" style="fill:none;stroke:#000000;stroke-linecap:square;stroke-linejoin:miter;stroke-width:0.8;"/>
   </g>
   <g id="legend_1">
    <g id="patch_7">
     <path d="M 309.155937 78.82825 
L 407.72 78.82825 
Q 409.72 78.82825 409.72 76.82825 
L 409.72 48.472 
Q 409.72 46.472 407.72 46.472 
L 309.155937 46.472 
Q 307.155937 46.472 307.155937 48.472 
L 307.155937 76.82825 
Q 307.155937 78.82825 309.155937 78.82825 
z
" style="fill:#ffffff;opacity:0.8;stroke:#cccccc;stroke-linejoin:miter;"/>
    </g>
    <g id="line2d_15">
     <path d="M 311.155937 54.570437 
L 331.155937 54.570437 
" style="fill:none;stroke:#ff0000;stroke-linecap:square;stroke-width:1.5;"/>
    </g>
    <g id="line2d_16"/>
    <g id="text_15">
     <!-- with kmer -->
     <defs>
      <path d="M 4.203125 54.6875 
L 13.1875 54.6875 
L 24.421875 12.015625 
L 35.59375 54.6875 
L 46.1875 54.6875 
L 57.421875 12.015625 
L 68.609375 54.6875 
L 77.59375 54.6875 
L 63.28125 0 
L 52.6875 0 
L 40.921875 44.828125 
L 29.109375 0 
L 18.5 0 
z
" id="DejaVuSans-119"/>
      <path d="M 54.890625 33.015625 
L 54.890625 0 
L 45.90625 0 
L 45.90625 32.71875 
Q 45.90625 40.484375 42.875 44.328125 
Q 39.84375 48.1875 33.796875 48.1875 
Q 26.515625 48.1875 22.3125 43.546875 
Q 18.109375 38.921875 18.109375 30.90625 
L 18.109375 0 
L 9.078125 0 
L 9.078125 75.984375 
L 18.109375 75.984375 
L 18.109375 46.1875 
Q 21.34375 51.125 25.703125 53.5625 
Q 30.078125 56 35.796875 56 
Q 45.21875 56 50.046875 50.171875 
Q 54.890625 44.34375 54.890625 33.015625 
z
" id="DejaVuSans-104"/>
      <path d="M 9.078125 75.984375 
L 18.109375 75.984375 
L 18.109375 31.109375 
L 44.921875 54.6875 
L 56.390625 54.6875 
L 27.390625 29.109375 
L 57.625 0 
L 45.90625 0 
L 18.109375 26.703125 
L 18.109375 0 
L 9.078125 0 
z
" id="DejaVuSans-107"/>
      <path d="M 52 44.1875 
Q 55.375 50.25 60.0625 53.125 
Q 64.75 56 71.09375 56 
Q 79.640625 56 84.28125 50.015625 
Q 88.921875 44.046875 88.921875 33.015625 
L 88.921875 0 
L 79.890625 0 
L 79.890625 32.71875 
Q 79.890625 40.578125 77.09375 44.375 
Q 74.3125 48.1875 68.609375 48.1875 
Q 61.625 48.1875 57.5625 43.546875 
Q 53.515625 38.921875 53.515625 30.90625 
L 53.515625 0 
L 44.484375 0 
L 44.484375 32.71875 
Q 44.484375 40.625 41.703125 44.40625 
Q 38.921875 48.1875 33.109375 48.1875 
Q 26.21875 48.1875 22.15625 43.53125 
Q 18.109375 38.875 18.109375 30.90625 
L 18.109375 0 
L 9.078125 0 
L 9.078125 54.6875 
L 18.109375 54.6875 
L 18.109375 46.1875 
Q 21.1875 51.21875 25.484375 53.609375 
Q 29.78125 56 35.6875 56 
Q 41.65625 56 45.828125 52.96875 
Q 50 49.953125 52 44.1875 
z
" id="DejaVuSans-109"/>
     </defs>
     <g transform="translate(339.155937 58.070437)scale(0.1 -0.1)">
      <use xlink:href="#DejaVuSans-119"/>
      <use x="81.787109" xlink:href="#DejaVuSans-105"/>
      <use x="109.570312" xlink:href="#DejaVuSans-116"/>
      <use x="148.779297" xlink:href="#DejaVuSans-104"/>
      <use x="212.158203" xlink:href="#DejaVuSans-32"/>
      <use x="243.945312" xlink:href="#DejaVuSans-107"/>
      <use x="301.855469" xlink:href="#DejaVuSans-109"/>
      <use x="399.267578" xlink:href="#DejaVuSans-101"/>
      <use x="460.791016" xlink:href="#DejaVuSans-114"/>
     </g>
    </g>
    <g id="line2d_17">
     <path d="M 311.155937 69.248562 
L 331.155937 69.248562 
" style="fill:none;stroke:#008000;stroke-linecap:square;stroke-width:1.5;"/>
    </g>
    <g id="line2d_18"/>
    <g id="text_16">
     <!-- without kmer -->
     <g transform="translate(339.155937 72.748562)scale(0.1 -0.1)">
      <use xlink:href="#DejaVuSans-119"/>
      <use x="81.787109" xlink:href="#DejaVuSans-105"/>
      <use x="109.570312" xlink:href="#DejaVuSans-116"/>
      <use x="148.779297" xlink:href="#DejaVuSans-104"/>
      <use x="212.158203" xlink:href="#DejaVuSans-111"/>
      <use x="273.339844" xlink:href="#DejaVuSans-117"/>
      <use x="336.71875" xlink:href="#DejaVuSans-116"/>
      <use x="375.927734" xlink:href="#DejaVuSans-32"/>
      <use x="407.714844" xlink:href="#DejaVuSans-107"/>
      <use x="465.625" xlink:href="#DejaVuSans-109"/>
      <use x="563.037109" xlink:href="#DejaVuSans-101"/>
      <use x="624.560547" xlink:href="#DejaVuSans-114"/>
     </g>
    </g>
   </g>
  </g>
 </g>
 <defs>
  <clipPath id="pd4ca099d61">
   <rect height="266.112" width="357.12" x="57.6" y="41.472"/>
  </clipPath>
 </defs>
</svg>
