<?xml version="1.0" encoding="utf-8" standalone="no"?>
<!DOCTYPE svg PUBLIC "-//W3C//DTD SVG 1.1//EN"
  "http://www.w3.org/Graphics/SVG/1.1/DTD/svg11.dtd">
<!-- Created with matplotlib (https://matplotlib.org/) -->
<svg height="345.6pt" version="1.1" viewBox="0 0 460.8 345.6" width="460.8pt" xmlns="http://www.w3.org/2000/svg" xmlns:xlink="http://www.w3.org/1999/xlink">
 <defs>
  <style type="text/css">
*{stroke-linecap:butt;stroke-linejoin:round;}
  </style>
 </defs>
 <g id="figure_1">
  <g id="patch_1">
   <path d="M 0 345.6 
L 460.8 345.6 
L 460.8 0 
L 0 0 
z
" style="fill:#ffffff;"/>
  </g>
  <g id="axes_1">
   <g id="patch_2">
    <path d="M 57.6 307.584 
L 414.72 307.584 
L 414.72 41.472 
L 57.6 41.472 
z
" style="fill:#ffffff;"/>
   </g>
   <g id="matplotlib.axis_1">
    <g id="xtick_1">
     <g id="line2d_1">
      <defs>
       <path d="M 0 0 
L 0 3.5 
" id="m3d3832443c" style="stroke:#000000;stroke-width:0.8;"/>
      </defs>
      <g>
       <use style="stroke:#000000;stroke-width:0.8;" x="57.6" xlink:href="#m3d3832443c" y="307.584"/>
      </g>
     </g>
     <g id="text_1">
      <!-- 0.0 -->
      <defs>
       <path d="M 31.78125 66.40625 
Q 24.171875 66.40625 20.328125 58.90625 
Q 16.5 51.421875 16.5 36.375 
Q 16.5 21.390625 20.328125 13.890625 
Q 24.171875 6.390625 31.78125 6.390625 
Q 39.453125 6.390625 43.28125 13.890625 
Q 47.125 21.390625 47.125 36.375 
Q 47.125 51.421875 43.28125 58.90625 
Q 39.453125 66.40625 31.78125 66.40625 
z
M 31.78125 74.21875 
Q 44.046875 74.21875 50.515625 64.515625 
Q 56.984375 54.828125 56.984375 36.375 
Q 56.984375 17.96875 50.515625 8.265625 
Q 44.046875 -1.421875 31.78125 -1.421875 
Q 19.53125 -1.421875 13.0625 8.265625 
Q 6.59375 17.96875 6.59375 36.375 
Q 6.59375 54.828125 13.0625 64.515625 
Q 19.53125 74.21875 31.78125 74.21875 
z
" id="DejaVuSans-48"/>
       <path d="M 10.6875 12.40625 
L 21 12.40625 
L 21 0 
L 10.6875 0 
z
" id="DejaVuSans-46"/>
      </defs>
      <g transform="translate(49.648438 322.182437)scale(0.1 -0.1)">
       <use xlink:href="#DejaVuSans-48"/>
       <use x="63.623047" xlink:href="#DejaVuSans-46"/>
       <use x="95.410156" xlink:href="#DejaVuSans-48"/>
      </g>
     </g>
    </g>
    <g id="xtick_2">
     <g id="line2d_2">
      <g>
       <use style="stroke:#000000;stroke-width:0.8;" x="129.024" xlink:href="#m3d3832443c" y="307.584"/>
      </g>
     </g>
     <g id="text_2">
      <!-- 0.2 -->
      <defs>
       <path d="M 19.1875 8.296875 
L 53.609375 8.296875 
L 53.609375 0 
L 7.328125 0 
L 7.328125 8.296875 
Q 12.9375 14.109375 22.625 23.890625 
Q 32.328125 33.6875 34.8125 36.53125 
Q 39.546875 41.84375 41.421875 45.53125 
Q 43.3125 49.21875 43.3125 52.78125 
Q 43.3125 58.59375 39.234375 62.25 
Q 35.15625 65.921875 28.609375 65.921875 
Q 23.96875 65.921875 18.8125 64.3125 
Q 13.671875 62.703125 7.8125 59.421875 
L 7.8125 69.390625 
Q 13.765625 71.78125 18.9375 73 
Q 24.125 74.21875 28.421875 74.21875 
Q 39.75 74.21875 46.484375 68.546875 
Q 53.21875 62.890625 53.21875 53.421875 
Q 53.21875 48.921875 51.53125 44.890625 
Q 49.859375 40.875 45.40625 35.40625 
Q 44.1875 33.984375 37.640625 27.21875 
Q 31.109375 20.453125 19.1875 8.296875 
z
" id="DejaVuSans-50"/>
      </defs>
      <g transform="translate(121.072438 322.182437)scale(0.1 -0.1)">
       <use xlink:href="#DejaVuSans-48"/>
       <use x="63.623047" xlink:href="#DejaVuSans-46"/>
       <use x="95.410156" xlink:href="#DejaVuSans-50"/>
      </g>
     </g>
    </g>
    <g id="xtick_3">
     <g id="line2d_3">
      <g>
       <use style="stroke:#000000;stroke-width:0.8;" x="200.448" xlink:href="#m3d3832443c" y="307.584"/>
      </g>
     </g>
     <g id="text_3">
      <!-- 0.4 -->
      <defs>
       <path d="M 37.796875 64.3125 
L 12.890625 25.390625 
L 37.796875 25.390625 
z
M 35.203125 72.90625 
L 47.609375 72.90625 
L 47.609375 25.390625 
L 58.015625 25.390625 
L 58.015625 17.1875 
L 47.609375 17.1875 
L 47.609375 0 
L 37.796875 0 
L 37.796875 17.1875 
L 4.890625 17.1875 
L 4.890625 26.703125 
z
" id="DejaVuSans-52"/>
      </defs>
      <g transform="translate(192.496438 322.182437)scale(0.1 -0.1)">
       <use xlink:href="#DejaVuSans-48"/>
       <use x="63.623047" xlink:href="#DejaVuSans-46"/>
       <use x="95.410156" xlink:href="#DejaVuSans-52"/>
      </g>
     </g>
    </g>
    <g id="xtick_4">
     <g id="line2d_4">
      <g>
       <use style="stroke:#000000;stroke-width:0.8;" x="271.872" xlink:href="#m3d3832443c" y="307.584"/>
      </g>
     </g>
     <g id="text_4">
      <!-- 0.6 -->
      <defs>
       <path d="M 33.015625 40.375 
Q 26.375 40.375 22.484375 35.828125 
Q 18.609375 31.296875 18.609375 23.390625 
Q 18.609375 15.53125 22.484375 10.953125 
Q 26.375 6.390625 33.015625 6.390625 
Q 39.65625 6.390625 43.53125 10.953125 
Q 47.40625 15.53125 47.40625 23.390625 
Q 47.40625 31.296875 43.53125 35.828125 
Q 39.65625 40.375 33.015625 40.375 
z
M 52.59375 71.296875 
L 52.59375 62.3125 
Q 48.875 64.0625 45.09375 64.984375 
Q 41.3125 65.921875 37.59375 65.921875 
Q 27.828125 65.921875 22.671875 59.328125 
Q 17.53125 52.734375 16.796875 39.40625 
Q 19.671875 43.65625 24.015625 45.921875 
Q 28.375 48.1875 33.59375 48.1875 
Q 44.578125 48.1875 50.953125 41.515625 
Q 57.328125 34.859375 57.328125 23.390625 
Q 57.328125 12.15625 50.6875 5.359375 
Q 44.046875 -1.421875 33.015625 -1.421875 
Q 20.359375 -1.421875 13.671875 8.265625 
Q 6.984375 17.96875 6.984375 36.375 
Q 6.984375 53.65625 15.1875 63.9375 
Q 23.390625 74.21875 37.203125 74.21875 
Q 40.921875 74.21875 44.703125 73.484375 
Q 48.484375 72.75 52.59375 71.296875 
z
" id="DejaVuSans-54"/>
      </defs>
      <g transform="translate(263.920438 322.182437)scale(0.1 -0.1)">
       <use xlink:href="#DejaVuSans-48"/>
       <use x="63.623047" xlink:href="#DejaVuSans-46"/>
       <use x="95.410156" xlink:href="#DejaVuSans-54"/>
      </g>
     </g>
    </g>
    <g id="xtick_5">
     <g id="line2d_5">
      <g>
       <use style="stroke:#000000;stroke-width:0.8;" x="343.296" xlink:href="#m3d3832443c" y="307.584"/>
      </g>
     </g>
     <g id="text_5">
      <!-- 0.8 -->
      <defs>
       <path d="M 31.78125 34.625 
Q 24.75 34.625 20.71875 30.859375 
Q 16.703125 27.09375 16.703125 20.515625 
Q 16.703125 13.921875 20.71875 10.15625 
Q 24.75 6.390625 31.78125 6.390625 
Q 38.8125 6.390625 42.859375 10.171875 
Q 46.921875 13.96875 46.921875 20.515625 
Q 46.921875 27.09375 42.890625 30.859375 
Q 38.875 34.625 31.78125 34.625 
z
M 21.921875 38.8125 
Q 15.578125 40.375 12.03125 44.71875 
Q 8.5 49.078125 8.5 55.328125 
Q 8.5 64.0625 14.71875 69.140625 
Q 20.953125 74.21875 31.78125 74.21875 
Q 42.671875 74.21875 48.875 69.140625 
Q 55.078125 64.0625 55.078125 55.328125 
Q 55.078125 49.078125 51.53125 44.71875 
Q 48 40.375 41.703125 38.8125 
Q 48.828125 37.15625 52.796875 32.3125 
Q 56.78125 27.484375 56.78125 20.515625 
Q 56.78125 9.90625 50.3125 4.234375 
Q 43.84375 -1.421875 31.78125 -1.421875 
Q 19.734375 -1.421875 13.25 4.234375 
Q 6.78125 9.90625 6.78125 20.515625 
Q 6.78125 27.484375 10.78125 32.3125 
Q 14.796875 37.15625 21.921875 38.8125 
z
M 18.3125 54.390625 
Q 18.3125 48.734375 21.84375 45.5625 
Q 25.390625 42.390625 31.78125 42.390625 
Q 38.140625 42.390625 41.71875 45.5625 
Q 45.3125 48.734375 45.3125 54.390625 
Q 45.3125 60.0625 41.71875 63.234375 
Q 38.140625 66.40625 31.78125 66.40625 
Q 25.390625 66.40625 21.84375 63.234375 
Q 18.3125 60.0625 18.3125 54.390625 
z
" id="DejaVuSans-56"/>
      </defs>
      <g transform="translate(335.344438 322.182437)scale(0.1 -0.1)">
       <use xlink:href="#DejaVuSans-48"/>
       <use x="63.623047" xlink:href="#DejaVuSans-46"/>
       <use x="95.410156" xlink:href="#DejaVuSans-56"/>
      </g>
     </g>
    </g>
    <g id="xtick_6">
     <g id="line2d_6">
      <g>
       <use style="stroke:#000000;stroke-width:0.8;" x="414.72" xlink:href="#m3d3832443c" y="307.584"/>
      </g>
     </g>
     <g id="text_6">
      <!-- 1.0 -->
      <defs>
       <path d="M 12.40625 8.296875 
L 28.515625 8.296875 
L 28.515625 63.921875 
L 10.984375 60.40625 
L 10.984375 69.390625 
L 28.421875 72.90625 
L 38.28125 72.90625 
L 38.28125 8.296875 
L 54.390625 8.296875 
L 54.390625 0 
L 12.40625 0 
z
" id="DejaVuSans-49"/>
      </defs>
      <g transform="translate(406.768438 322.182437)scale(0.1 -0.1)">
       <use xlink:href="#DejaVuSans-49"/>
       <use x="63.623047" xlink:href="#DejaVuSans-46"/>
       <use x="95.410156" xlink:href="#DejaVuSans-48"/>
      </g>
     </g>
    </g>
    <g id="text_7">
     <!-- False positive rate -->
     <defs>
      <path d="M 9.8125 72.90625 
L 51.703125 72.90625 
L 51.703125 64.59375 
L 19.671875 64.59375 
L 19.671875 43.109375 
L 48.578125 43.109375 
L 48.578125 34.8125 
L 19.671875 34.8125 
L 19.671875 0 
L 9.8125 0 
z
" id="DejaVuSans-70"/>
      <path d="M 34.28125 27.484375 
Q 23.390625 27.484375 19.1875 25 
Q 14.984375 22.515625 14.984375 16.5 
Q 14.984375 11.71875 18.140625 8.90625 
Q 21.296875 6.109375 26.703125 6.109375 
Q 34.1875 6.109375 38.703125 11.40625 
Q 43.21875 16.703125 43.21875 25.484375 
L 43.21875 27.484375 
z
M 52.203125 31.203125 
L 52.203125 0 
L 43.21875 0 
L 43.21875 8.296875 
Q 40.140625 3.328125 35.546875 0.953125 
Q 30.953125 -1.421875 24.3125 -1.421875 
Q 15.921875 -1.421875 10.953125 3.296875 
Q 6 8.015625 6 15.921875 
Q 6 25.140625 12.171875 29.828125 
Q 18.359375 34.515625 30.609375 34.515625 
L 43.21875 34.515625 
L 43.21875 35.40625 
Q 43.21875 41.609375 39.140625 45 
Q 35.0625 48.390625 27.6875 48.390625 
Q 23 48.390625 18.546875 47.265625 
Q 14.109375 46.140625 10.015625 43.890625 
L 10.015625 52.203125 
Q 14.9375 54.109375 19.578125 55.046875 
Q 24.21875 56 28.609375 56 
Q 40.484375 56 46.34375 49.84375 
Q 52.203125 43.703125 52.203125 31.203125 
z
" id="DejaVuSans-97"/>
      <path d="M 9.421875 75.984375 
L 18.40625 75.984375 
L 18.40625 0 
L 9.421875 0 
z
" id="DejaVuSans-108"/>
      <path d="M 44.28125 53.078125 
L 44.28125 44.578125 
Q 40.484375 46.53125 36.375 47.5 
Q 32.28125 48.484375 27.875 48.484375 
Q 21.1875 48.484375 17.84375 46.4375 
Q 14.5 44.390625 14.5 40.28125 
Q 14.5 37.15625 16.890625 35.375 
Q 19.28125 33.59375 26.515625 31.984375 
L 29.59375 31.296875 
Q 39.15625 29.25 43.1875 25.515625 
Q 47.21875 21.78125 47.21875 15.09375 
Q 47.21875 7.46875 41.1875 3.015625 
Q 35.15625 -1.421875 24.609375 -1.421875 
Q 20.21875 -1.421875 15.453125 -0.5625 
Q 10.6875 0.296875 5.421875 2 
L 5.421875 11.28125 
Q 10.40625 8.6875 15.234375 7.390625 
Q 20.0625 6.109375 24.8125 6.109375 
Q 31.15625 6.109375 34.5625 8.28125 
Q 37.984375 10.453125 37.984375 14.40625 
Q 37.984375 18.0625 35.515625 20.015625 
Q 33.0625 21.96875 24.703125 23.78125 
L 21.578125 24.515625 
Q 13.234375 26.265625 9.515625 29.90625 
Q 5.8125 33.546875 5.8125 39.890625 
Q 5.8125 47.609375 11.28125 51.796875 
Q 16.75 56 26.8125 56 
Q 31.78125 56 36.171875 55.265625 
Q 40.578125 54.546875 44.28125 53.078125 
z
" id="DejaVuSans-115"/>
      <path d="M 56.203125 29.59375 
L 56.203125 25.203125 
L 14.890625 25.203125 
Q 15.484375 15.921875 20.484375 11.0625 
Q 25.484375 6.203125 34.421875 6.203125 
Q 39.59375 6.203125 44.453125 7.46875 
Q 49.3125 8.734375 54.109375 11.28125 
L 54.109375 2.78125 
Q 49.265625 0.734375 44.1875 -0.34375 
Q 39.109375 -1.421875 33.890625 -1.421875 
Q 20.796875 -1.421875 13.15625 6.1875 
Q 5.515625 13.8125 5.515625 26.8125 
Q 5.515625 40.234375 12.765625 48.109375 
Q 20.015625 56 32.328125 56 
Q 43.359375 56 49.78125 48.890625 
Q 56.203125 41.796875 56.203125 29.59375 
z
M 47.21875 32.234375 
Q 47.125 39.59375 43.09375 43.984375 
Q 39.0625 48.390625 32.421875 48.390625 
Q 24.90625 48.390625 20.390625 44.140625 
Q 15.875 39.890625 15.1875 32.171875 
z
" id="DejaVuSans-101"/>
      <path id="DejaVuSans-32"/>
      <path d="M 18.109375 8.203125 
L 18.109375 -20.796875 
L 9.078125 -20.796875 
L 9.078125 54.6875 
L 18.109375 54.6875 
L 18.109375 46.390625 
Q 20.953125 51.265625 25.265625 53.625 
Q 29.59375 56 35.59375 56 
Q 45.5625 56 51.78125 48.09375 
Q 58.015625 40.1875 58.015625 27.296875 
Q 58.015625 14.40625 51.78125 6.484375 
Q 45.5625 -1.421875 35.59375 -1.421875 
Q 29.59375 -1.421875 25.265625 0.953125 
Q 20.953125 3.328125 18.109375 8.203125 
z
M 48.6875 27.296875 
Q 48.6875 37.203125 44.609375 42.84375 
Q 40.53125 48.484375 33.40625 48.484375 
Q 26.265625 48.484375 22.1875 42.84375 
Q 18.109375 37.203125 18.109375 27.296875 
Q 18.109375 17.390625 22.1875 11.75 
Q 26.265625 6.109375 33.40625 6.109375 
Q 40.53125 6.109375 44.609375 11.75 
Q 48.6875 17.390625 48.6875 27.296875 
z
" id="DejaVuSans-112"/>
      <path d="M 30.609375 48.390625 
Q 23.390625 48.390625 19.1875 42.75 
Q 14.984375 37.109375 14.984375 27.296875 
Q 14.984375 17.484375 19.15625 11.84375 
Q 23.34375 6.203125 30.609375 6.203125 
Q 37.796875 6.203125 41.984375 11.859375 
Q 46.1875 17.53125 46.1875 27.296875 
Q 46.1875 37.015625 41.984375 42.703125 
Q 37.796875 48.390625 30.609375 48.390625 
z
M 30.609375 56 
Q 42.328125 56 49.015625 48.375 
Q 55.71875 40.765625 55.71875 27.296875 
Q 55.71875 13.875 49.015625 6.21875 
Q 42.328125 -1.421875 30.609375 -1.421875 
Q 18.84375 -1.421875 12.171875 6.21875 
Q 5.515625 13.875 5.515625 27.296875 
Q 5.515625 40.765625 12.171875 48.375 
Q 18.84375 56 30.609375 56 
z
" id="DejaVuSans-111"/>
      <path d="M 9.421875 54.6875 
L 18.40625 54.6875 
L 18.40625 0 
L 9.421875 0 
z
M 9.421875 75.984375 
L 18.40625 75.984375 
L 18.40625 64.59375 
L 9.421875 64.59375 
z
" id="DejaVuSans-105"/>
      <path d="M 18.3125 70.21875 
L 18.3125 54.6875 
L 36.8125 54.6875 
L 36.8125 47.703125 
L 18.3125 47.703125 
L 18.3125 18.015625 
Q 18.3125 11.328125 20.140625 9.421875 
Q 21.96875 7.515625 27.59375 7.515625 
L 36.8125 7.515625 
L 36.8125 0 
L 27.59375 0 
Q 17.1875 0 13.234375 3.875 
Q 9.28125 7.765625 9.28125 18.015625 
L 9.28125 47.703125 
L 2.6875 47.703125 
L 2.6875 54.6875 
L 9.28125 54.6875 
L 9.28125 70.21875 
z
" id="DejaVuSans-116"/>
      <path d="M 2.984375 54.6875 
L 12.5 54.6875 
L 29.59375 8.796875 
L 46.6875 54.6875 
L 56.203125 54.6875 
L 35.6875 0 
L 23.484375 0 
z
" id="DejaVuSans-118"/>
      <path d="M 41.109375 46.296875 
Q 39.59375 47.171875 37.8125 47.578125 
Q 36.03125 48 33.890625 48 
Q 26.265625 48 22.1875 43.046875 
Q 18.109375 38.09375 18.109375 28.8125 
L 18.109375 0 
L 9.078125 0 
L 9.078125 54.6875 
L 18.109375 54.6875 
L 18.109375 46.1875 
Q 20.953125 51.171875 25.484375 53.578125 
Q 30.03125 56 36.53125 56 
Q 37.453125 56 38.578125 55.875 
Q 39.703125 55.765625 41.0625 55.515625 
z
" id="DejaVuSans-114"/>
     </defs>
     <g transform="translate(190.21 335.860562)scale(0.1 -0.1)">
      <use xlink:href="#DejaVuSans-70"/>
      <use x="57.378906" xlink:href="#DejaVuSans-97"/>
      <use x="118.658203" xlink:href="#DejaVuSans-108"/>
      <use x="146.441406" xlink:href="#DejaVuSans-115"/>
      <use x="198.541016" xlink:href="#DejaVuSans-101"/>
      <use x="260.064453" xlink:href="#DejaVuSans-32"/>
      <use x="291.851562" xlink:href="#DejaVuSans-112"/>
      <use x="355.328125" xlink:href="#DejaVuSans-111"/>
      <use x="416.509766" xlink:href="#DejaVuSans-115"/>
      <use x="468.609375" xlink:href="#DejaVuSans-105"/>
      <use x="496.392578" xlink:href="#DejaVuSans-116"/>
      <use x="535.601562" xlink:href="#DejaVuSans-105"/>
      <use x="563.384766" xlink:href="#DejaVuSans-118"/>
      <use x="622.564453" xlink:href="#DejaVuSans-101"/>
      <use x="684.087891" xlink:href="#DejaVuSans-32"/>
      <use x="715.875" xlink:href="#DejaVuSans-114"/>
      <use x="756.988281" xlink:href="#DejaVuSans-97"/>
      <use x="818.267578" xlink:href="#DejaVuSans-116"/>
      <use x="857.476562" xlink:href="#DejaVuSans-101"/>
     </g>
    </g>
   </g>
   <g id="matplotlib.axis_2">
    <g id="ytick_1">
     <g id="line2d_7">
      <defs>
       <path d="M 0 0 
L -3.5 0 
" id="mab3b116585" style="stroke:#000000;stroke-width:0.8;"/>
      </defs>
      <g>
       <use style="stroke:#000000;stroke-width:0.8;" x="57.6" xlink:href="#mab3b116585" y="307.584"/>
      </g>
     </g>
     <g id="text_8">
      <!-- 0.0 -->
      <g transform="translate(34.696875 311.383219)scale(0.1 -0.1)">
       <use xlink:href="#DejaVuSans-48"/>
       <use x="63.623047" xlink:href="#DejaVuSans-46"/>
       <use x="95.410156" xlink:href="#DejaVuSans-48"/>
      </g>
     </g>
    </g>
    <g id="ytick_2">
     <g id="line2d_8">
      <g>
       <use style="stroke:#000000;stroke-width:0.8;" x="57.6" xlink:href="#mab3b116585" y="254.3616"/>
      </g>
     </g>
     <g id="text_9">
      <!-- 0.2 -->
      <g transform="translate(34.696875 258.160819)scale(0.1 -0.1)">
       <use xlink:href="#DejaVuSans-48"/>
       <use x="63.623047" xlink:href="#DejaVuSans-46"/>
       <use x="95.410156" xlink:href="#DejaVuSans-50"/>
      </g>
     </g>
    </g>
    <g id="ytick_3">
     <g id="line2d_9">
      <g>
       <use style="stroke:#000000;stroke-width:0.8;" x="57.6" xlink:href="#mab3b116585" y="201.1392"/>
      </g>
     </g>
     <g id="text_10">
      <!-- 0.4 -->
      <g transform="translate(34.696875 204.938419)scale(0.1 -0.1)">
       <use xlink:href="#DejaVuSans-48"/>
       <use x="63.623047" xlink:href="#DejaVuSans-46"/>
       <use x="95.410156" xlink:href="#DejaVuSans-52"/>
      </g>
     </g>
    </g>
    <g id="ytick_4">
     <g id="line2d_10">
      <g>
       <use style="stroke:#000000;stroke-width:0.8;" x="57.6" xlink:href="#mab3b116585" y="147.9168"/>
      </g>
     </g>
     <g id="text_11">
      <!-- 0.6 -->
      <g transform="translate(34.696875 151.716019)scale(0.1 -0.1)">
       <use xlink:href="#DejaVuSans-48"/>
       <use x="63.623047" xlink:href="#DejaVuSans-46"/>
       <use x="95.410156" xlink:href="#DejaVuSans-54"/>
      </g>
     </g>
    </g>
    <g id="ytick_5">
     <g id="line2d_11">
      <g>
       <use style="stroke:#000000;stroke-width:0.8;" x="57.6" xlink:href="#mab3b116585" y="94.6944"/>
      </g>
     </g>
     <g id="text_12">
      <!-- 0.8 -->
      <g transform="translate(34.696875 98.493619)scale(0.1 -0.1)">
       <use xlink:href="#DejaVuSans-48"/>
       <use x="63.623047" xlink:href="#DejaVuSans-46"/>
       <use x="95.410156" xlink:href="#DejaVuSans-56"/>
      </g>
     </g>
    </g>
    <g id="ytick_6">
     <g id="line2d_12">
      <g>
       <use style="stroke:#000000;stroke-width:0.8;" x="57.6" xlink:href="#mab3b116585" y="41.472"/>
      </g>
     </g>
     <g id="text_13">
      <!-- 1.0 -->
      <g transform="translate(34.696875 45.271219)scale(0.1 -0.1)">
       <use xlink:href="#DejaVuSans-49"/>
       <use x="63.623047" xlink:href="#DejaVuSans-46"/>
       <use x="95.410156" xlink:href="#DejaVuSans-48"/>
      </g>
     </g>
    </g>
    <g id="text_14">
     <!-- True positive rate -->
     <defs>
      <path d="M -0.296875 72.90625 
L 61.375 72.90625 
L 61.375 64.59375 
L 35.5 64.59375 
L 35.5 0 
L 25.59375 0 
L 25.59375 64.59375 
L -0.296875 64.59375 
z
" id="DejaVuSans-84"/>
      <path d="M 8.5 21.578125 
L 8.5 54.6875 
L 17.484375 54.6875 
L 17.484375 21.921875 
Q 17.484375 14.15625 20.5 10.265625 
Q 23.53125 6.390625 29.59375 6.390625 
Q 36.859375 6.390625 41.078125 11.03125 
Q 45.3125 15.671875 45.3125 23.6875 
L 45.3125 54.6875 
L 54.296875 54.6875 
L 54.296875 0 
L 45.3125 0 
L 45.3125 8.40625 
Q 42.046875 3.421875 37.71875 1 
Q 33.40625 -1.421875 27.6875 -1.421875 
Q 18.265625 -1.421875 13.375 4.4375 
Q 8.5 10.296875 8.5 21.578125 
z
M 31.109375 56 
z
" id="DejaVuSans-117"/>
     </defs>
     <g transform="translate(28.617187 218.818625)rotate(-90)scale(0.1 -0.1)">
      <use xlink:href="#DejaVuSans-84"/>
      <use x="60.865234" xlink:href="#DejaVuSans-114"/>
      <use x="101.978516" xlink:href="#DejaVuSans-117"/>
      <use x="165.357422" xlink:href="#DejaVuSans-101"/>
      <use x="226.880859" xlink:href="#DejaVuSans-32"/>
      <use x="258.667969" xlink:href="#DejaVuSans-112"/>
      <use x="322.144531" xlink:href="#DejaVuSans-111"/>
      <use x="383.326172" xlink:href="#DejaVuSans-115"/>
      <use x="435.425781" xlink:href="#DejaVuSans-105"/>
      <use x="463.208984" xlink:href="#DejaVuSans-116"/>
      <use x="502.417969" xlink:href="#DejaVuSans-105"/>
      <use x="530.201172" xlink:href="#DejaVuSans-118"/>
      <use x="589.380859" xlink:href="#DejaVuSans-101"/>
      <use x="650.904297" xlink:href="#DejaVuSans-32"/>
      <use x="682.691406" xlink:href="#DejaVuSans-114"/>
      <use x="723.804688" xlink:href="#DejaVuSans-97"/>
      <use x="785.083984" xlink:href="#DejaVuSans-116"/>
      <use x="824.292969" xlink:href="#DejaVuSans-101"/>
     </g>
    </g>
   </g>
   <g id="line2d_13">
    <path clip-path="url(#pfb2aed2d84)" d="M 57.6 307.584 
L 57.702897 298.791978 
L 57.737196 298.791978 
L 57.840092 297.105137 
L 57.874391 297.105137 
L 57.977288 292.274637 
L 58.011587 292.274637 
L 58.114483 288.722047 
L 58.148782 288.722047 
L 58.251679 284.990549 
L 58.285978 284.990549 
L 58.388874 279.72556 
L 58.423173 279.72556 
L 58.52607 277.118623 
L 58.560369 277.118623 
L 58.663265 272.211448 
L 58.697564 272.211448 
L 58.800461 267.023133 
L 58.83476 267.023133 
L 58.937657 263.036054 
L 58.971955 263.036054 
L 59.074852 261.016956 
L 59.109151 261.016956 
L 59.212048 254.42294 
L 59.246347 254.42294 
L 59.349243 251.662654 
L 59.417841 251.585979 
L 59.520738 248.902368 
L 59.589335 248.902368 
L 59.692232 245.912058 
L 59.726531 245.912058 
L 59.726531 245.809826 
L 59.829428 241.286024 
L 59.863726 241.286024 
L 59.966623 237.631201 
L 60.000922 237.631201 
L 60.103819 234.973148 
L 60.138118 234.973148 
L 60.241014 233.644121 
L 60.275313 233.644121 
L 60.37821 229.784833 
L 60.412509 229.784833 
L 60.515405 225.772195 
L 60.549704 225.772195 
L 60.618302 222.85856 
L 60.652601 222.85856 
L 60.6869 222.833002 
L 60.789796 218.130293 
L 60.824095 218.130293 
L 60.926992 207.319173 
L 60.961291 207.319173 
L 61.064187 206.117938 
L 61.098486 206.117938 
L 61.201383 202.156416 
L 61.235682 202.156416 
L 61.338579 199.600596 
L 61.372877 199.600596 
L 61.475774 197.607056 
L 61.510073 197.607056 
L 61.61297 195.639075 
L 61.681567 195.536842 
L 61.784464 192.699882 
L 61.853062 192.648765 
L 61.955959 190.859691 
L 61.990257 190.859691 
L 62.093154 188.917268 
L 62.127453 188.917268 
L 62.23035 186.847053 
L 62.264648 186.847053 
L 62.367545 184.930188 
L 62.401844 184.930188 
L 62.504741 179.511849 
L 62.53904 179.511849 
L 62.641936 177.697217 
L 62.710534 177.594984 
L 62.813431 176.879355 
L 62.882028 176.777122 
L 62.950626 174.604675 
L 63.053523 174.528 
L 63.15642 169.671942 
L 63.190718 169.671942 
L 63.293615 167.652844 
L 63.362213 167.576169 
L 63.465109 166.809423 
L 63.499408 166.809423 
L 63.602305 164.688092 
L 63.636604 164.688092 
L 63.739501 159.729801 
L 63.773799 159.729801 
L 63.876696 156.202769 
L 63.945294 156.100536 
L 64.048191 152.266806 
L 64.185386 152.164573 
L 64.288283 148.765332 
L 64.356881 148.714216 
L 64.459777 147.768562 
L 64.494076 147.768562 
L 64.562674 145.67279 
L 64.66557 145.647232 
L 64.734168 144.931602 
L 64.802766 144.931602 
L 64.905663 142.145758 
L 64.939962 142.145758 
L 65.042858 140.484475 
L 65.111456 140.484475 
L 65.214353 138.746517 
L 65.248652 138.746517 
L 65.351548 137.213025 
L 65.420146 137.13635 
L 65.523043 135.219485 
L 65.557342 135.219485 
L 65.660238 134.120483 
L 65.694537 134.120483 
L 65.797434 132.74034 
L 65.831733 132.74034 
L 65.934629 130.619009 
L 65.968928 130.619009 
L 66.071825 129.059959 
L 66.140423 129.008842 
L 66.243319 127.015302 
L 66.277618 127.015302 
L 66.346216 126.146323 
L 66.449113 126.095207 
L 66.552009 125.123995 
L 66.620607 125.047321 
L 66.689205 124.510599 
L 66.757803 124.510599 
L 66.860699 123.590503 
L 66.929297 123.513829 
L 67.032194 119.986797 
L 67.066493 119.986797 
L 67.169389 118.37663 
L 67.203688 118.37663 
L 67.306585 117.303186 
L 67.340884 117.303186 
L 67.44378 116.025275 
L 67.580976 115.923043 
L 67.683872 115.156297 
L 67.718171 115.156297 
L 67.821068 113.955061 
L 67.855367 113.955061 
L 67.958264 113.392781 
L 67.992562 113.392781 
L 68.095459 112.012638 
L 68.129758 112.012638 
L 68.232655 111.322566 
L 68.266954 111.322566 
L 68.36985 109.55905 
L 68.404149 109.55905 
L 68.507046 106.594299 
L 68.541345 106.594299 
L 68.644241 104.754108 
L 68.712839 104.651876 
L 68.815736 102.990592 
L 68.884333 102.913918 
L 68.98723 102.556103 
L 69.055828 102.479428 
L 69.158725 101.942706 
L 69.193023 101.942706 
L 69.29592 101.099285 
L 69.364518 101.073727 
L 69.467415 100.204748 
L 69.570311 100.102516 
L 69.673208 98.517907 
L 69.741806 98.466791 
L 69.844702 98.160092 
L 69.9133 98.057859 
L 70.016197 97.265555 
L 70.050496 97.265555 
L 70.153392 96.243227 
L 70.22199 96.243227 
L 70.324887 94.479711 
L 70.359186 94.479711 
L 70.462082 93.534058 
L 70.496381 93.534058 
L 70.599278 92.843986 
L 70.770772 92.79287 
L 70.873669 92.051682 
L 70.942267 92.026124 
L 71.045163 91.208261 
L 71.113761 91.157145 
L 71.216658 90.952679 
L 71.319554 90.927121 
L 71.422451 90.594864 
L 71.45675 90.594864 
L 71.559647 90.262608 
L 71.628244 90.185933 
L 71.731141 89.010256 
L 71.799739 88.933581 
L 71.902635 88.677999 
L 71.936934 88.677999 
L 72.039831 88.115719 
L 72.07413 88.115719 
L 72.177027 86.837809 
L 72.211325 86.837809 
L 72.314222 85.943272 
L 72.348521 85.943272 
L 72.451418 85.150967 
L 72.520015 85.048735 
L 72.554314 84.333105 
L 72.657211 84.333105 
L 72.760108 84.000848 
L 72.931602 83.898615 
L 73.034499 83.617475 
L 73.068798 83.617475 
L 73.171694 83.25966 
L 73.205993 83.25966 
L 73.30889 82.850729 
L 73.377488 82.774055 
L 73.480384 82.186216 
L 73.514683 82.186216 
L 73.61758 81.496144 
L 73.686177 81.445028 
L 73.754775 81.266121 
L 73.92627 81.189446 
L 74.029166 80.4227 
L 74.097764 80.320467 
L 74.200661 80.039327 
L 74.337856 79.937094 
L 74.440753 79.477046 
L 74.509351 79.451488 
L 74.612247 78.480277 
L 74.646546 78.480277 
L 74.749443 77.917996 
L 74.783742 77.917996 
L 74.886638 77.176808 
L 75.058133 77.074575 
L 75.16103 76.665644 
L 75.195328 76.665644 
L 75.298225 76.205597 
L 75.332524 76.205597 
L 75.401122 75.924456 
L 75.504018 75.847782 
L 75.572616 74.978803 
L 75.641214 74.978803 
L 75.744111 74.31429 
L 75.881306 74.237615 
L 75.984203 73.394194 
L 76.018502 73.394194 
L 76.0871 73.087496 
L 76.155697 73.087496 
L 76.258594 72.397425 
L 76.292893 72.397425 
L 76.395789 72.014051 
L 76.464387 71.962935 
L 76.567284 71.656237 
L 76.601583 71.656237 
L 76.704479 71.349538 
L 76.807376 71.272864 
L 76.910273 71.04284 
L 76.978871 70.940607 
L 77.081767 70.557234 
L 77.150365 70.557234 
L 77.218963 70.301652 
L 77.321859 70.199419 
L 77.356158 70.04607 
L 77.459055 70.04607 
L 77.561952 69.713813 
L 77.767745 69.61158 
L 77.767745 69.304882 
L 77.939239 69.304882 
L 78.007837 69.0493 
L 78.110734 69.0493 
L 78.21363 68.614811 
L 78.316527 68.563694 
L 78.419424 68.282554 
L 78.488022 68.282554 
L 78.590918 67.975856 
L 78.625217 67.975856 
L 78.659516 67.362459 
L 78.865309 67.260226 
L 78.968206 67.081318 
L 79.071103 67.030202 
L 79.173999 66.49348 
L 79.311195 66.49348 
L 79.414091 65.880083 
L 79.654184 65.803408 
L 79.688483 65.675617 
L 79.859977 65.598943 
L 79.962874 65.445594 
L 80.134368 65.394477 
L 80.134368 65.317803 
L 80.271564 65.317803 
L 80.37446 65.113337 
L 80.511656 65.062221 
L 80.614552 64.372149 
L 80.717449 64.321033 
L 80.820346 64.2188 
L 80.854645 64.2188 
L 80.957541 64.065451 
L 81.026139 64.014334 
L 81.094737 63.809869 
L 81.163335 63.809869 
L 81.231932 63.656519 
L 81.403427 63.554287 
L 81.506323 63.452054 
L 81.540622 63.452054 
L 81.60922 63.017564 
L 81.815013 62.94089 
L 81.91791 62.761982 
L 82.089405 62.65975 
L 82.192301 62.327493 
L 82.260899 62.301935 
L 82.329497 62.071911 
L 82.466692 61.995236 
L 82.569589 61.637421 
L 82.706784 61.560747 
L 82.809681 61.432956 
L 83.15267 61.330723 
L 83.255567 61.100699 
L 83.324164 61.075141 
L 83.392762 60.845117 
L 83.564257 60.742884 
L 83.667153 60.461744 
L 83.941544 60.359511 
L 84.010142 60.027255 
L 84.07874 60.027255 
L 84.07874 59.873905 
L 84.250234 59.797231 
L 84.353131 59.337183 
L 84.627522 59.260509 
L 84.730419 59.081601 
L 84.833315 59.081601 
L 84.901913 58.851577 
L 85.00481 58.800461 
L 85.073408 58.698228 
L 85.382098 58.595995 
L 85.484994 58.544879 
L 85.62219 58.468204 
L 85.725086 58.340413 
L 85.862282 58.238181 
L 85.862282 58.212622 
L 86.205271 58.11039 
L 86.308167 57.803691 
L 86.479662 57.701458 
L 86.479662 57.599226 
L 86.685455 57.548109 
L 86.788352 57.420318 
L 87.062743 57.318085 
L 87.16564 57.062503 
L 87.302835 57.036945 
L 87.302835 56.858038 
L 87.542927 56.755805 
L 87.577226 56.576897 
L 87.748721 56.525781 
L 87.851617 56.321315 
L 87.988813 56.244641 
L 87.988813 56.065733 
L 88.160307 56.014617 
L 88.228905 55.810151 
L 88.4004 55.759035 
L 88.468997 55.631244 
L 88.70909 55.529011 
L 88.811986 55.375662 
L 89.052078 55.273429 
L 89.052078 55.222313 
L 89.326469 55.145638 
L 89.360768 54.992289 
L 89.669458 54.915614 
L 89.738056 54.83894 
L 89.840953 54.762265 
L 89.909551 54.634474 
L 90.115344 54.532241 
L 90.115344 54.506683 
L 90.458333 54.40445 
L 90.52693 54.276659 
L 91.075713 54.174426 
L 91.178609 54.021077 
L 91.658794 53.918844 
L 91.76169 53.816612 
L 91.967484 53.714379 
L 91.967484 53.688821 
L 92.310473 53.586588 
L 92.413369 53.535471 
L 92.619163 53.433239 
L 92.653461 53.356564 
L 93.030749 53.254331 
L 93.099347 53.203215 
L 93.545232 53.100982 
L 93.545232 53.049866 
L 94.025417 52.947633 
L 94.128313 52.8454 
L 94.5399 52.743167 
L 94.608498 52.692051 
L 94.917188 52.589818 
L 95.020085 52.487585 
L 95.122981 52.385352 
L 95.122981 52.334236 
L 95.946154 52.232003 
L 95.946154 52.180887 
L 96.289143 52.104212 
L 96.357741 52.027537 
L 96.563534 51.925305 
L 96.563534 51.84863 
L 97.352409 51.746397 
L 97.455305 51.593048 
L 97.6268 51.490815 
L 97.729697 51.414141 
L 98.347076 51.311908 
L 98.449973 51.260791 
L 98.895859 51.158559 
L 98.895859 51.133 
L 99.959124 51.030768 
L 99.959124 51.005209 
L 100.850895 50.902977 
L 100.850895 50.826302 
L 101.296781 50.724069 
L 101.33108 50.672953 
L 101.639769 50.57072 
L 101.708367 50.519604 
L 102.154253 50.417371 
L 102.257149 50.315138 
L 102.771633 50.212905 
L 102.805932 50.161789 
L 103.251817 50.059556 
L 103.286116 50.008439 
L 103.869197 49.906207 
L 103.903496 49.85509 
L 104.760968 49.752857 
L 104.760968 49.727299 
L 106.613108 49.625066 
L 106.716005 49.57395 
L 107.916466 49.471717 
L 107.950765 49.420601 
L 108.636742 49.318368 
L 108.671041 49.267252 
L 109.288421 49.165019 
L 109.391318 49.088344 
L 109.597111 49.01167 
L 109.597111 48.960553 
L 110.660376 48.883879 
L 110.728974 48.807204 
L 111.312055 48.704971 
L 111.346354 48.653855 
L 112.203826 48.551622 
L 112.203826 48.526064 
L 113.027 48.423831 
L 113.027 48.398273 
L 114.021667 48.29604 
L 114.021667 48.244924 
L 115.016335 48.142691 
L 115.016335 48.117133 
L 116.319693 48.0149 
L 116.353992 47.963783 
L 117.108567 47.861551 
L 117.142866 47.810434 
L 118.617718 47.708201 
L 118.720615 47.657085 
L 119.818179 47.554852 
L 119.818179 47.529294 
L 120.847146 47.427061 
L 120.847146 47.401503 
L 122.767883 47.29927 
L 122.802182 47.222595 
L 123.865448 47.120363 
L 123.865448 47.094804 
L 124.72292 47.01813 
L 124.72292 46.967013 
L 125.511794 46.890339 
L 125.580392 46.788106 
L 128.152808 46.685873 
L 128.152808 46.660315 
L 129.387568 46.558082 
L 129.421867 46.506966 
L 131.308306 46.404733 
L 131.308306 46.379175 
L 132.543066 46.3025 
L 132.543066 46.225826 
L 135.424172 46.123593 
L 135.527069 46.072476 
L 137.927991 45.970244 
L 137.96229 45.919127 
L 140.328913 45.816894 
L 140.328913 45.791336 
L 142.729835 45.689103 
L 142.729835 45.663545 
L 144.856366 45.561312 
L 144.924964 45.510196 
L 145.885332 45.407963 
L 145.885332 45.382405 
L 149.692509 45.280172 
L 149.692509 45.254614 
L 152.264925 45.152381 
L 152.264925 45.126823 
L 155.900607 45.02459 
L 155.900607 44.999032 
L 158.918909 44.896799 
L 158.918909 44.871241 
L 162.520292 44.769008 
L 162.520292 44.74345 
L 168.453999 44.641217 
L 168.453999 44.615659 
L 174.524902 44.513426 
L 174.524902 44.487868 
L 181.144587 44.385635 
L 181.144587 44.360077 
L 185.843534 44.257844 
L 185.843534 44.232286 
L 191.708644 44.130053 
L 191.708644 44.104495 
L 196.579086 44.002262 
L 196.579086 43.976704 
L 202.855782 43.874471 
L 202.855782 43.848913 
L 207.52043 43.74668 
L 207.52043 43.721122 
L 222.30325 43.618889 
L 222.30325 43.593331 
L 232.044134 43.491098 
L 232.044134 43.46554 
L 240.79035 43.363307 
L 240.79035 43.337749 
L 244.15164 43.235516 
L 244.15164 43.209958 
L 247.410035 43.107725 
L 247.410035 43.082167 
L 252.589166 42.979934 
L 252.589166 42.954376 
L 260.649405 42.852143 
L 260.683703 42.826585 
L 278.210434 42.724352 
L 278.210434 42.698794 
L 290.249343 42.596561 
L 290.249343 42.571003 
L 305.889635 42.46877 
L 305.889635 42.443212 
L 311.857641 42.340979 
L 311.857641 42.315421 
L 324.342436 42.213188 
L 324.342436 42.18763 
L 343.515513 42.085397 
L 343.515513 42.059839 
L 348.866139 41.957606 
L 348.866139 41.932048 
L 360.184771 41.829815 
L 360.184771 41.804257 
L 373.218348 41.702024 
L 373.218348 41.676466 
L 394.003473 41.574233 
L 394.003473 41.548675 
L 414.72 41.472 
L 414.72 41.472 
" style="fill:none;stroke:#ff0000;stroke-linecap:square;stroke-width:1.5;"/>
   </g>
   <g id="line2d_14">
    <path clip-path="url(#pfb2aed2d84)" d="M 57.6 307.584 
L 57.702897 294.472642 
L 57.737196 294.472642 
L 57.737196 294.395968 
L 57.840092 287.444137 
L 57.874391 287.444137 
L 57.977288 282.00024 
L 58.045886 281.898007 
L 58.148782 274.588361 
L 58.183081 274.588361 
L 58.285978 269.63007 
L 58.320277 269.63007 
L 58.423173 262.473773 
L 58.457472 262.473773 
L 58.560369 259.074532 
L 58.594668 259.074532 
L 58.697564 253.196146 
L 58.731863 253.196146 
L 58.83476 250.001371 
L 58.869059 250.001371 
L 58.971955 247.573342 
L 59.006254 247.573342 
L 59.109151 245.912058 
L 59.14345 245.682035 
L 59.246347 244.301892 
L 59.280645 244.301892 
L 59.383542 241.77163 
L 59.417841 241.77163 
L 59.520738 238.014574 
L 59.589335 238.014574 
L 59.692232 236.404407 
L 59.726531 236.404407 
L 59.829428 234.666449 
L 59.863726 234.666449 
L 59.966623 233.056283 
L 60.000922 233.056283 
L 60.103819 231.803931 
L 60.172416 231.752814 
L 60.275313 230.321555 
L 60.309612 230.321555 
L 60.309612 230.244881 
L 60.412509 226.973431 
L 60.446808 226.973431 
L 60.549704 224.366494 
L 60.584003 224.366494 
L 60.6869 221.657325 
L 60.721199 221.657325 
L 60.824095 219.075946 
L 60.858394 219.075946 
L 60.961291 217.210197 
L 60.99559 217.210197 
L 61.098486 214.219888 
L 61.132785 214.219888 
L 61.235682 213.248676 
L 61.269981 213.248676 
L 61.372877 210.590623 
L 61.407176 210.590623 
L 61.510073 207.728104 
L 61.544372 207.728104 
L 61.647269 204.712237 
L 61.681567 204.712237 
L 61.784464 201.798602 
L 61.818763 201.798602 
L 61.92166 197.632615 
L 62.093154 197.581498 
L 62.196051 195.434609 
L 62.23035 195.434609 
L 62.333246 192.827673 
L 62.367545 192.827673 
L 62.470442 189.811805 
L 62.504741 189.811805 
L 62.607637 188.303871 
L 62.676235 188.201638 
L 62.779132 185.006863 
L 62.813431 185.006863 
L 62.916327 184.086768 
L 62.950626 184.086768 
L 63.053523 182.706625 
L 63.087822 182.706625 
L 63.190718 178.617312 
L 63.225017 178.617312 
L 63.327914 177.109378 
L 63.362213 177.109378 
L 63.465109 174.604675 
L 63.499408 174.604675 
L 63.602305 170.847619 
L 63.636604 170.847619 
L 63.739501 169.467476 
L 63.808098 169.365243 
L 63.910995 166.656074 
L 63.945294 166.656074 
L 64.048191 163.563531 
L 64.082489 163.563531 
L 64.185386 162.285621 
L 64.219685 162.260063 
L 64.322582 160.419872 
L 64.356881 160.419872 
L 64.459777 158.400774 
L 64.494076 158.400774 
L 64.596973 157.097306 
L 64.631272 157.097306 
L 64.734168 155.410465 
L 64.837065 155.359348 
L 64.939962 153.723624 
L 64.97426 153.723624 
L 65.077157 152.241248 
L 65.111456 152.241248 
L 65.214353 150.963338 
L 65.28295 150.861105 
L 65.385847 149.583195 
L 65.420146 149.583195 
L 65.523043 147.385189 
L 65.557342 147.385189 
L 65.660238 146.081721 
L 65.694537 146.081721 
L 65.797434 145.468324 
L 65.934629 145.39165 
L 66.037526 144.343763 
L 66.071825 144.343763 
L 66.174721 142.96362 
L 66.20902 142.96362 
L 66.311917 138.84875 
L 66.346216 138.84875 
L 66.449113 137.800864 
L 66.483411 137.800864 
L 66.586308 135.526184 
L 66.689205 135.475067 
L 66.792101 134.58053 
L 66.8264 134.58053 
L 66.929297 133.277062 
L 66.997895 133.200387 
L 67.100791 132.050268 
L 67.169389 132.02471 
L 67.272286 130.440101 
L 67.306585 130.440101 
L 67.409481 130.056728 
L 67.478079 129.980054 
L 67.580976 128.293212 
L 67.615275 128.293212 
L 67.718171 126.631929 
L 67.75247 126.631929 
L 67.855367 125.047321 
L 67.889666 125.047321 
L 67.992562 124.459482 
L 68.06116 124.408366 
L 68.164057 122.414826 
L 68.266954 122.338151 
L 68.36985 121.596964 
L 68.404149 121.596964 
L 68.507046 120.037913 
L 68.541345 120.037913 
L 68.644241 117.252069 
L 68.712839 117.175395 
L 68.815736 115.284088 
L 68.884333 115.258529 
L 68.98723 113.26499 
L 69.021529 113.26499 
L 69.124426 110.632495 
L 69.193023 110.632495 
L 69.261621 110.172447 
L 69.330219 110.172447 
L 69.433116 108.664513 
L 69.467415 108.664513 
L 69.570311 107.565511 
L 69.60461 107.565511 
L 69.707507 106.262042 
L 69.776104 106.210926 
L 69.879001 105.060807 
L 69.9133 105.060807 
L 70.016197 103.527315 
L 70.084794 103.501756 
L 70.187691 101.942706 
L 70.22199 101.942706 
L 70.324887 101.380426 
L 70.359186 101.380426 
L 70.462082 99.335769 
L 70.496381 99.335769 
L 70.599278 98.441232 
L 70.633577 98.441232 
L 70.736473 97.546695 
L 70.770772 97.546695 
L 70.873669 96.984415 
L 70.942267 96.984415 
L 71.045163 96.652158 
L 71.079462 96.652158 
L 71.182359 95.783179 
L 71.216658 95.783179 
L 71.319554 94.914201 
L 71.353853 94.914201 
L 71.45675 93.406267 
L 71.525348 93.304034 
L 71.628244 92.102798 
L 71.662543 92.102798 
L 71.76544 90.697097 
L 71.799739 90.697097 
L 71.902635 89.495862 
L 71.936934 89.495862 
L 72.039831 89.010256 
L 72.07413 89.010256 
L 72.177027 88.141277 
L 72.245624 88.039044 
L 72.348521 87.348973 
L 72.38282 87.348973 
L 72.485716 86.454436 
L 72.520015 86.454436 
L 72.588613 86.019946 
L 72.69151 85.96883 
L 72.794406 85.483224 
L 72.828705 85.483224 
L 72.931602 84.818711 
L 72.965901 84.818711 
L 73.068798 83.873057 
L 73.137395 83.821941 
L 73.240292 83.080753 
L 73.274591 83.080753 
L 73.377488 82.544031 
L 73.411786 82.544031 
L 73.514683 82.109541 
L 73.583281 82.058425 
L 73.686177 81.649494 
L 73.720476 81.649494 
L 73.823373 81.087213 
L 73.857672 81.087213 
L 73.960569 80.013769 
L 74.063465 79.911536 
L 74.166362 79.451488 
L 74.200661 79.451488 
L 74.303557 78.965882 
L 74.337856 78.965882 
L 74.440753 77.841322 
L 74.509351 77.841322 
L 74.612247 76.818993 
L 74.680845 76.716761 
L 74.783742 76.384504 
L 74.920937 76.282271 
L 74.989535 75.950015 
L 75.058133 75.950015 
L 75.126731 75.5922 
L 75.195328 75.5922 
L 75.263926 75.029919 
L 75.435421 74.927687 
L 75.538317 74.646546 
L 75.606915 74.620988 
L 75.709812 74.31429 
L 75.744111 74.31429 
L 75.847007 73.470869 
L 75.915605 73.394194 
L 76.018502 72.627448 
L 76.052801 72.627448 
L 76.121398 72.090726 
L 76.189996 72.090726 
L 76.189996 71.835144 
L 76.361491 71.809586 
L 76.464387 70.991723 
L 76.498686 70.991723 
L 76.601583 70.633909 
L 76.670181 70.531676 
L 76.773077 70.148303 
L 76.910273 70.071628 
L 77.013169 69.76493 
L 77.081767 69.739371 
L 77.184664 69.33044 
L 77.253262 69.253766 
L 77.321859 68.640369 
L 77.390457 68.640369 
L 77.493354 68.231438 
L 77.664848 68.154763 
L 77.767745 67.541366 
L 77.870642 67.439133 
L 77.973538 66.876853 
L 78.042136 66.825736 
L 78.145033 66.544596 
L 78.247929 66.442363 
L 78.350826 65.982316 
L 78.488022 65.880083 
L 78.52232 65.726734 
L 78.728114 65.675617 
L 78.83101 65.292244 
L 78.899608 65.21557 
L 79.002505 64.93443 
L 79.036804 64.93443 
L 79.1397 64.49994 
L 79.242597 64.448824 
L 79.311195 64.2188 
L 79.44839 64.167683 
L 79.551287 63.809869 
L 79.722781 63.733194 
L 79.791379 63.605403 
L 79.894276 63.554287 
L 79.997172 63.094239 
L 80.06577 63.068681 
L 80.168667 62.761982 
L 80.271564 62.65975 
L 80.340161 62.455284 
L 80.477357 62.353051 
L 80.580254 62.174144 
L 80.68315 62.097469 
L 80.786047 61.841887 
L 80.888944 61.765212 
L 80.99184 61.330723 
L 81.026139 61.330723 
L 81.129036 61.049583 
L 81.163335 61.049583 
L 81.231932 60.794001 
L 81.472025 60.717326 
L 81.540622 60.563977 
L 81.677818 60.512861 
L 81.780715 60.333953 
L 81.849312 60.23172 
L 81.883611 60.052813 
L 82.020807 60.052813 
L 82.123703 59.66944 
L 82.158002 59.66944 
L 82.192301 59.209392 
L 82.432393 59.107159 
L 82.500991 58.928252 
L 82.638187 58.877136 
L 82.741083 58.67267 
L 82.809681 58.595995 
L 82.912578 58.468204 
L 82.981176 58.365972 
L 83.049773 58.238181 
L 83.118371 58.238181 
L 83.221268 58.033715 
L 83.46136 57.931482 
L 83.564257 57.803691 
L 83.667153 57.778133 
L 83.667153 57.650342 
L 83.838648 57.624784 
L 83.941544 57.471434 
L 84.147338 57.369202 
L 84.215935 57.190294 
L 84.318832 57.190294 
L 84.38743 56.883596 
L 84.764718 56.781363 
L 84.867614 56.525781 
L 85.107706 56.423548 
L 85.176304 56.346874 
L 85.416396 56.270199 
L 85.450695 56.11685 
L 85.725086 56.014617 
L 85.827983 55.963501 
L 85.999478 55.861268 
L 86.102374 55.784593 
L 86.23957 55.68236 
L 86.308167 55.580128 
L 86.513961 55.503453 
L 86.616857 55.375662 
L 86.685455 55.298987 
L 86.788352 55.068964 
L 86.994145 54.992289 
L 87.062743 54.915614 
L 87.611525 54.83894 
L 87.611525 54.711149 
L 87.748721 54.711149 
L 87.817318 54.481125 
L 88.297503 54.378892 
L 88.297503 54.353334 
L 88.811986 54.251101 
L 88.846285 54.174426 
L 89.292171 54.072194 
L 89.292171 54.021077 
L 89.532263 53.918844 
L 89.532263 53.893286 
L 90.046746 53.816612 
L 90.115344 53.663262 
L 90.424034 53.56103 
L 90.52693 53.509913 
L 90.664126 53.509913 
L 90.767023 53.305448 
L 91.247207 53.203215 
L 91.247207 53.177657 
L 91.521598 53.075424 
L 91.521598 53.049866 
L 92.104679 52.973191 
L 92.104679 52.922075 
L 92.859255 52.819842 
L 92.859255 52.794284 
L 93.339439 52.692051 
L 93.442336 52.615376 
L 93.853922 52.538701 
L 93.853922 52.487585 
L 94.574199 52.385352 
L 94.574199 52.283119 
L 95.46597 52.180887 
L 95.46597 52.155328 
L 96.049051 52.053096 
L 96.151948 51.950863 
L 96.632132 51.84863 
L 96.735029 51.746397 
L 97.146615 51.695281 
L 97.249512 51.56749 
L 97.695398 51.465257 
L 97.695398 51.439699 
L 98.278479 51.363024 
L 98.312778 51.260791 
L 98.792962 51.158559 
L 98.792962 51.133 
L 99.410342 51.030768 
L 99.444641 50.954093 
L 99.890526 50.877418 
L 99.890526 50.826302 
L 100.336412 50.724069 
L 100.40501 50.621836 
L 100.747998 50.519604 
L 100.747998 50.494045 
L 101.33108 50.391813 
L 101.33108 50.366254 
L 102.085655 50.28958 
L 102.085655 50.238463 
L 102.462943 50.136231 
L 102.462943 50.110672 
L 103.663404 50.008439 
L 103.732002 49.931765 
L 104.520876 49.85509 
L 104.589474 49.778416 
L 105.206854 49.676183 
L 105.206854 49.650625 
L 106.201521 49.548392 
L 106.201521 49.522834 
L 107.127591 49.446159 
L 107.127591 49.395043 
L 107.744971 49.318368 
L 107.744971 49.267252 
L 109.082628 49.190577 
L 109.082628 49.139461 
L 110.042997 49.037228 
L 110.042997 48.986111 
L 111.312055 48.883879 
L 111.414952 48.807204 
L 112.958402 48.704971 
L 112.958402 48.679413 
L 114.330357 48.57718 
L 114.330357 48.551622 
L 115.702313 48.449389 
L 115.702313 48.423831 
L 117.31436 48.321598 
L 117.417257 48.270482 
L 117.828844 48.168249 
L 117.828844 48.142691 
L 119.78388 48.040458 
L 119.78388 48.0149 
L 120.504157 47.912667 
L 120.607053 47.835992 
L 122.219101 47.73376 
L 122.219101 47.708201 
L 124.139839 47.605968 
L 124.139839 47.58041 
L 124.72292 47.478177 
L 124.72292 47.452619 
L 127.535428 47.350386 
L 127.535428 47.324828 
L 128.598694 47.222595 
L 128.598694 47.197037 
L 130.382236 47.120363 
L 130.416535 47.043688 
L 132.851756 46.967013 
L 132.851756 46.915897 
L 134.360907 46.813664 
L 134.360907 46.788106 
L 136.075851 46.685873 
L 136.075851 46.660315 
L 137.893692 46.558082 
L 137.893692 46.506966 
L 140.191717 46.404733 
L 140.191717 46.379175 
L 143.655905 46.276942 
L 143.655905 46.251384 
L 146.57131 46.149151 
L 146.57131 46.123593 
L 149.006531 46.02136 
L 149.04083 45.970244 
L 150.721475 45.868011 
L 150.721475 45.842453 
L 155.900607 45.74022 
L 155.900607 45.714662 
L 158.438725 45.612429 
L 158.438725 45.586871 
L 162.623189 45.484638 
L 162.623189 45.45908 
L 165.572893 45.356847 
L 165.572893 45.331289 
L 172.295474 45.229056 
L 172.364072 45.152381 
L 178.400676 45.050148 
L 178.400676 44.999032 
L 185.36335 44.896799 
L 185.36335 44.871241 
L 192.291725 44.769008 
L 192.291725 44.74345 
L 195.687315 44.641217 
L 195.687315 44.615659 
L 200.420561 44.513426 
L 200.420561 44.487868 
L 205.736888 44.385635 
L 205.736888 44.360077 
L 211.22471 44.257844 
L 211.22471 44.232286 
L 216.060853 44.130053 
L 216.060853 44.104495 
L 220.965594 44.002262 
L 220.965594 43.976704 
L 229.334522 43.874471 
L 229.334522 43.848913 
L 239.281199 43.74668 
L 239.281199 43.721122 
L 244.288836 43.618889 
L 244.288836 43.593331 
L 249.845255 43.491098 
L 249.845255 43.46554 
L 255.916158 43.363307 
L 255.916158 43.337749 
L 262.02136 43.235516 
L 262.02136 43.209958 
L 274.197464 43.107725 
L 274.197464 43.082167 
L 279.342297 42.979934 
L 279.342297 42.954376 
L 289.700561 42.852143 
L 289.700561 42.826585 
L 303.28292 42.724352 
L 303.28292 42.698794 
L 312.063434 42.596561 
L 312.063434 42.571003 
L 320.432363 42.46877 
L 320.432363 42.443212 
L 328.183911 42.340979 
L 328.183911 42.315421 
L 335.112286 42.213188 
L 335.112286 42.18763 
L 344.235789 42.085397 
L 344.235789 42.059839 
L 351.472854 41.957606 
L 351.472854 41.932048 
L 361.728221 41.829815 
L 361.728221 41.804257 
L 371.537703 41.702024 
L 371.537703 41.676466 
L 385.874637 41.574233 
L 385.874637 41.548675 
L 414.72 41.472 
L 414.72 41.472 
" style="fill:none;stroke:#008000;stroke-linecap:square;stroke-width:1.5;"/>
   </g>
   <g id="patch_3">
    <path d="M 57.6 307.584 
L 57.6 41.472 
" style="fill:none;stroke:#000000;stroke-linecap:square;stroke-linejoin:miter;stroke-width:0.8;"/>
   </g>
   <g id="patch_4">
    <path d="M 414.72 307.584 
L 414.72 41.472 
" style="fill:none;stroke:#000000;stroke-linecap:square;stroke-linejoin:miter;stroke-width:0.8;"/>
   </g>
   <g id="patch_5">
    <path d="M 57.6 307.584 
L 414.72 307.584 
" style="fill:none;stroke:#000000;stroke-linecap:square;stroke-linejoin:miter;stroke-width:0.8;"/>
   </g>
   <g id="patch_6">
    <path d="M 57.6 41.472 
L 414.72 41.472 
" style="fill:none;stroke:#000000;stroke-linecap:square;stroke-linejoin:miter;stroke-width:0.8;"/>
   </g>
   <g id="legend_1">
    <g id="patch_7">
     <path d="M 309.155937 78.82825 
L 407.72 78.82825 
Q 409.72 78.82825 409.72 76.82825 
L 409.72 48.472 
Q 409.72 46.472 407.72 46.472 
L 309.155937 46.472 
Q 307.155937 46.472 307.155937 48.472 
L 307.155937 76.82825 
Q 307.155937 78.82825 309.155937 78.82825 
z
" style="fill:#ffffff;opacity:0.8;stroke:#cccccc;stroke-linejoin:miter;"/>
    </g>
    <g id="line2d_15">
     <path d="M 311.155937 54.570437 
L 331.155937 54.570437 
" style="fill:none;stroke:#ff0000;stroke-linecap:square;stroke-width:1.5;"/>
    </g>
    <g id="line2d_16"/>
    <g id="text_15">
     <!-- with kmer -->
     <defs>
      <path d="M 4.203125 54.6875 
L 13.1875 54.6875 
L 24.421875 12.015625 
L 35.59375 54.6875 
L 46.1875 54.6875 
L 57.421875 12.015625 
L 68.609375 54.6875 
L 77.59375 54.6875 
L 63.28125 0 
L 52.6875 0 
L 40.921875 44.828125 
L 29.109375 0 
L 18.5 0 
z
" id="DejaVuSans-119"/>
      <path d="M 54.890625 33.015625 
L 54.890625 0 
L 45.90625 0 
L 45.90625 32.71875 
Q 45.90625 40.484375 42.875 44.328125 
Q 39.84375 48.1875 33.796875 48.1875 
Q 26.515625 48.1875 22.3125 43.546875 
Q 18.109375 38.921875 18.109375 30.90625 
L 18.109375 0 
L 9.078125 0 
L 9.078125 75.984375 
L 18.109375 75.984375 
L 18.109375 46.1875 
Q 21.34375 51.125 25.703125 53.5625 
Q 30.078125 56 35.796875 56 
Q 45.21875 56 50.046875 50.171875 
Q 54.890625 44.34375 54.890625 33.015625 
z
" id="DejaVuSans-104"/>
      <path d="M 9.078125 75.984375 
L 18.109375 75.984375 
L 18.109375 31.109375 
L 44.921875 54.6875 
L 56.390625 54.6875 
L 27.390625 29.109375 
L 57.625 0 
L 45.90625 0 
L 18.109375 26.703125 
L 18.109375 0 
L 9.078125 0 
z
" id="DejaVuSans-107"/>
      <path d="M 52 44.1875 
Q 55.375 50.25 60.0625 53.125 
Q 64.75 56 71.09375 56 
Q 79.640625 56 84.28125 50.015625 
Q 88.921875 44.046875 88.921875 33.015625 
L 88.921875 0 
L 79.890625 0 
L 79.890625 32.71875 
Q 79.890625 40.578125 77.09375 44.375 
Q 74.3125 48.1875 68.609375 48.1875 
Q 61.625 48.1875 57.5625 43.546875 
Q 53.515625 38.921875 53.515625 30.90625 
L 53.515625 0 
L 44.484375 0 
L 44.484375 32.71875 
Q 44.484375 40.625 41.703125 44.40625 
Q 38.921875 48.1875 33.109375 48.1875 
Q 26.21875 48.1875 22.15625 43.53125 
Q 18.109375 38.875 18.109375 30.90625 
L 18.109375 0 
L 9.078125 0 
L 9.078125 54.6875 
L 18.109375 54.6875 
L 18.109375 46.1875 
Q 21.1875 51.21875 25.484375 53.609375 
Q 29.78125 56 35.6875 56 
Q 41.65625 56 45.828125 52.96875 
Q 50 49.953125 52 44.1875 
z
" id="DejaVuSans-109"/>
     </defs>
     <g transform="translate(339.155937 58.070437)scale(0.1 -0.1)">
      <use xlink:href="#DejaVuSans-119"/>
      <use x="81.787109" xlink:href="#DejaVuSans-105"/>
      <use x="109.570312" xlink:href="#DejaVuSans-116"/>
      <use x="148.779297" xlink:href="#DejaVuSans-104"/>
      <use x="212.158203" xlink:href="#DejaVuSans-32"/>
      <use x="243.945312" xlink:href="#DejaVuSans-107"/>
      <use x="301.855469" xlink:href="#DejaVuSans-109"/>
      <use x="399.267578" xlink:href="#DejaVuSans-101"/>
      <use x="460.791016" xlink:href="#DejaVuSans-114"/>
     </g>
    </g>
    <g id="line2d_17">
     <path d="M 311.155937 69.248562 
L 331.155937 69.248562 
" style="fill:none;stroke:#008000;stroke-linecap:square;stroke-width:1.5;"/>
    </g>
    <g id="line2d_18"/>
    <g id="text_16">
     <!-- without kmer -->
     <g transform="translate(339.155937 72.748562)scale(0.1 -0.1)">
      <use xlink:href="#DejaVuSans-119"/>
      <use x="81.787109" xlink:href="#DejaVuSans-105"/>
      <use x="109.570312" xlink:href="#DejaVuSans-116"/>
      <use x="148.779297" xlink:href="#DejaVuSans-104"/>
      <use x="212.158203" xlink:href="#DejaVuSans-111"/>
      <use x="273.339844" xlink:href="#DejaVuSans-117"/>
      <use x="336.71875" xlink:href="#DejaVuSans-116"/>
      <use x="375.927734" xlink:href="#DejaVuSans-32"/>
      <use x="407.714844" xlink:href="#DejaVuSans-107"/>
      <use x="465.625" xlink:href="#DejaVuSans-109"/>
      <use x="563.037109" xlink:href="#DejaVuSans-101"/>
      <use x="624.560547" xlink:href="#DejaVuSans-114"/>
     </g>
    </g>
   </g>
  </g>
 </g>
 <defs>
  <clipPath id="pfb2aed2d84">
   <rect height="266.112" width="357.12" x="57.6" y="41.472"/>
  </clipPath>
 </defs>
</svg>
