<?xml version="1.0" encoding="utf-8" standalone="no"?>
<!DOCTYPE svg PUBLIC "-//W3C//DTD SVG 1.1//EN"
  "http://www.w3.org/Graphics/SVG/1.1/DTD/svg11.dtd">
<!-- Created with matplotlib (https://matplotlib.org/) -->
<svg height="345.6pt" version="1.1" viewBox="0 0 460.8 345.6" width="460.8pt" xmlns="http://www.w3.org/2000/svg" xmlns:xlink="http://www.w3.org/1999/xlink">
 <defs>
  <style type="text/css">
*{stroke-linecap:butt;stroke-linejoin:round;}
  </style>
 </defs>
 <g id="figure_1">
  <g id="patch_1">
   <path d="M 0 345.6 
L 460.8 345.6 
L 460.8 0 
L 0 0 
z
" style="fill:#ffffff;"/>
  </g>
  <g id="axes_1">
   <g id="patch_2">
    <path d="M 57.6 307.584 
L 414.72 307.584 
L 414.72 41.472 
L 57.6 41.472 
z
" style="fill:#ffffff;"/>
   </g>
   <g id="matplotlib.axis_1">
    <g id="xtick_1">
     <g id="line2d_1">
      <defs>
       <path d="M 0 0 
L 0 3.5 
" id="mcfbebdec93" style="stroke:#000000;stroke-width:0.8;"/>
      </defs>
      <g>
       <use style="stroke:#000000;stroke-width:0.8;" x="57.6" xlink:href="#mcfbebdec93" y="307.584"/>
      </g>
     </g>
     <g id="text_1">
      <!-- 0.0 -->
      <defs>
       <path d="M 31.78125 66.40625 
Q 24.171875 66.40625 20.328125 58.90625 
Q 16.5 51.421875 16.5 36.375 
Q 16.5 21.390625 20.328125 13.890625 
Q 24.171875 6.390625 31.78125 6.390625 
Q 39.453125 6.390625 43.28125 13.890625 
Q 47.125 21.390625 47.125 36.375 
Q 47.125 51.421875 43.28125 58.90625 
Q 39.453125 66.40625 31.78125 66.40625 
z
M 31.78125 74.21875 
Q 44.046875 74.21875 50.515625 64.515625 
Q 56.984375 54.828125 56.984375 36.375 
Q 56.984375 17.96875 50.515625 8.265625 
Q 44.046875 -1.421875 31.78125 -1.421875 
Q 19.53125 -1.421875 13.0625 8.265625 
Q 6.59375 17.96875 6.59375 36.375 
Q 6.59375 54.828125 13.0625 64.515625 
Q 19.53125 74.21875 31.78125 74.21875 
z
" id="DejaVuSans-48"/>
       <path d="M 10.6875 12.40625 
L 21 12.40625 
L 21 0 
L 10.6875 0 
z
" id="DejaVuSans-46"/>
      </defs>
      <g transform="translate(49.648438 322.182437)scale(0.1 -0.1)">
       <use xlink:href="#DejaVuSans-48"/>
       <use x="63.623047" xlink:href="#DejaVuSans-46"/>
       <use x="95.410156" xlink:href="#DejaVuSans-48"/>
      </g>
     </g>
    </g>
    <g id="xtick_2">
     <g id="line2d_2">
      <g>
       <use style="stroke:#000000;stroke-width:0.8;" x="129.024" xlink:href="#mcfbebdec93" y="307.584"/>
      </g>
     </g>
     <g id="text_2">
      <!-- 0.2 -->
      <defs>
       <path d="M 19.1875 8.296875 
L 53.609375 8.296875 
L 53.609375 0 
L 7.328125 0 
L 7.328125 8.296875 
Q 12.9375 14.109375 22.625 23.890625 
Q 32.328125 33.6875 34.8125 36.53125 
Q 39.546875 41.84375 41.421875 45.53125 
Q 43.3125 49.21875 43.3125 52.78125 
Q 43.3125 58.59375 39.234375 62.25 
Q 35.15625 65.921875 28.609375 65.921875 
Q 23.96875 65.921875 18.8125 64.3125 
Q 13.671875 62.703125 7.8125 59.421875 
L 7.8125 69.390625 
Q 13.765625 71.78125 18.9375 73 
Q 24.125 74.21875 28.421875 74.21875 
Q 39.75 74.21875 46.484375 68.546875 
Q 53.21875 62.890625 53.21875 53.421875 
Q 53.21875 48.921875 51.53125 44.890625 
Q 49.859375 40.875 45.40625 35.40625 
Q 44.1875 33.984375 37.640625 27.21875 
Q 31.109375 20.453125 19.1875 8.296875 
z
" id="DejaVuSans-50"/>
      </defs>
      <g transform="translate(121.072438 322.182437)scale(0.1 -0.1)">
       <use xlink:href="#DejaVuSans-48"/>
       <use x="63.623047" xlink:href="#DejaVuSans-46"/>
       <use x="95.410156" xlink:href="#DejaVuSans-50"/>
      </g>
     </g>
    </g>
    <g id="xtick_3">
     <g id="line2d_3">
      <g>
       <use style="stroke:#000000;stroke-width:0.8;" x="200.448" xlink:href="#mcfbebdec93" y="307.584"/>
      </g>
     </g>
     <g id="text_3">
      <!-- 0.4 -->
      <defs>
       <path d="M 37.796875 64.3125 
L 12.890625 25.390625 
L 37.796875 25.390625 
z
M 35.203125 72.90625 
L 47.609375 72.90625 
L 47.609375 25.390625 
L 58.015625 25.390625 
L 58.015625 17.1875 
L 47.609375 17.1875 
L 47.609375 0 
L 37.796875 0 
L 37.796875 17.1875 
L 4.890625 17.1875 
L 4.890625 26.703125 
z
" id="DejaVuSans-52"/>
      </defs>
      <g transform="translate(192.496438 322.182437)scale(0.1 -0.1)">
       <use xlink:href="#DejaVuSans-48"/>
       <use x="63.623047" xlink:href="#DejaVuSans-46"/>
       <use x="95.410156" xlink:href="#DejaVuSans-52"/>
      </g>
     </g>
    </g>
    <g id="xtick_4">
     <g id="line2d_4">
      <g>
       <use style="stroke:#000000;stroke-width:0.8;" x="271.872" xlink:href="#mcfbebdec93" y="307.584"/>
      </g>
     </g>
     <g id="text_4">
      <!-- 0.6 -->
      <defs>
       <path d="M 33.015625 40.375 
Q 26.375 40.375 22.484375 35.828125 
Q 18.609375 31.296875 18.609375 23.390625 
Q 18.609375 15.53125 22.484375 10.953125 
Q 26.375 6.390625 33.015625 6.390625 
Q 39.65625 6.390625 43.53125 10.953125 
Q 47.40625 15.53125 47.40625 23.390625 
Q 47.40625 31.296875 43.53125 35.828125 
Q 39.65625 40.375 33.015625 40.375 
z
M 52.59375 71.296875 
L 52.59375 62.3125 
Q 48.875 64.0625 45.09375 64.984375 
Q 41.3125 65.921875 37.59375 65.921875 
Q 27.828125 65.921875 22.671875 59.328125 
Q 17.53125 52.734375 16.796875 39.40625 
Q 19.671875 43.65625 24.015625 45.921875 
Q 28.375 48.1875 33.59375 48.1875 
Q 44.578125 48.1875 50.953125 41.515625 
Q 57.328125 34.859375 57.328125 23.390625 
Q 57.328125 12.15625 50.6875 5.359375 
Q 44.046875 -1.421875 33.015625 -1.421875 
Q 20.359375 -1.421875 13.671875 8.265625 
Q 6.984375 17.96875 6.984375 36.375 
Q 6.984375 53.65625 15.1875 63.9375 
Q 23.390625 74.21875 37.203125 74.21875 
Q 40.921875 74.21875 44.703125 73.484375 
Q 48.484375 72.75 52.59375 71.296875 
z
" id="DejaVuSans-54"/>
      </defs>
      <g transform="translate(263.920438 322.182437)scale(0.1 -0.1)">
       <use xlink:href="#DejaVuSans-48"/>
       <use x="63.623047" xlink:href="#DejaVuSans-46"/>
       <use x="95.410156" xlink:href="#DejaVuSans-54"/>
      </g>
     </g>
    </g>
    <g id="xtick_5">
     <g id="line2d_5">
      <g>
       <use style="stroke:#000000;stroke-width:0.8;" x="343.296" xlink:href="#mcfbebdec93" y="307.584"/>
      </g>
     </g>
     <g id="text_5">
      <!-- 0.8 -->
      <defs>
       <path d="M 31.78125 34.625 
Q 24.75 34.625 20.71875 30.859375 
Q 16.703125 27.09375 16.703125 20.515625 
Q 16.703125 13.921875 20.71875 10.15625 
Q 24.75 6.390625 31.78125 6.390625 
Q 38.8125 6.390625 42.859375 10.171875 
Q 46.921875 13.96875 46.921875 20.515625 
Q 46.921875 27.09375 42.890625 30.859375 
Q 38.875 34.625 31.78125 34.625 
z
M 21.921875 38.8125 
Q 15.578125 40.375 12.03125 44.71875 
Q 8.5 49.078125 8.5 55.328125 
Q 8.5 64.0625 14.71875 69.140625 
Q 20.953125 74.21875 31.78125 74.21875 
Q 42.671875 74.21875 48.875 69.140625 
Q 55.078125 64.0625 55.078125 55.328125 
Q 55.078125 49.078125 51.53125 44.71875 
Q 48 40.375 41.703125 38.8125 
Q 48.828125 37.15625 52.796875 32.3125 
Q 56.78125 27.484375 56.78125 20.515625 
Q 56.78125 9.90625 50.3125 4.234375 
Q 43.84375 -1.421875 31.78125 -1.421875 
Q 19.734375 -1.421875 13.25 4.234375 
Q 6.78125 9.90625 6.78125 20.515625 
Q 6.78125 27.484375 10.78125 32.3125 
Q 14.796875 37.15625 21.921875 38.8125 
z
M 18.3125 54.390625 
Q 18.3125 48.734375 21.84375 45.5625 
Q 25.390625 42.390625 31.78125 42.390625 
Q 38.140625 42.390625 41.71875 45.5625 
Q 45.3125 48.734375 45.3125 54.390625 
Q 45.3125 60.0625 41.71875 63.234375 
Q 38.140625 66.40625 31.78125 66.40625 
Q 25.390625 66.40625 21.84375 63.234375 
Q 18.3125 60.0625 18.3125 54.390625 
z
" id="DejaVuSans-56"/>
      </defs>
      <g transform="translate(335.344438 322.182437)scale(0.1 -0.1)">
       <use xlink:href="#DejaVuSans-48"/>
       <use x="63.623047" xlink:href="#DejaVuSans-46"/>
       <use x="95.410156" xlink:href="#DejaVuSans-56"/>
      </g>
     </g>
    </g>
    <g id="xtick_6">
     <g id="line2d_6">
      <g>
       <use style="stroke:#000000;stroke-width:0.8;" x="414.72" xlink:href="#mcfbebdec93" y="307.584"/>
      </g>
     </g>
     <g id="text_6">
      <!-- 1.0 -->
      <defs>
       <path d="M 12.40625 8.296875 
L 28.515625 8.296875 
L 28.515625 63.921875 
L 10.984375 60.40625 
L 10.984375 69.390625 
L 28.421875 72.90625 
L 38.28125 72.90625 
L 38.28125 8.296875 
L 54.390625 8.296875 
L 54.390625 0 
L 12.40625 0 
z
" id="DejaVuSans-49"/>
      </defs>
      <g transform="translate(406.768438 322.182437)scale(0.1 -0.1)">
       <use xlink:href="#DejaVuSans-49"/>
       <use x="63.623047" xlink:href="#DejaVuSans-46"/>
       <use x="95.410156" xlink:href="#DejaVuSans-48"/>
      </g>
     </g>
    </g>
    <g id="text_7">
     <!-- False positive rate -->
     <defs>
      <path d="M 9.8125 72.90625 
L 51.703125 72.90625 
L 51.703125 64.59375 
L 19.671875 64.59375 
L 19.671875 43.109375 
L 48.578125 43.109375 
L 48.578125 34.8125 
L 19.671875 34.8125 
L 19.671875 0 
L 9.8125 0 
z
" id="DejaVuSans-70"/>
      <path d="M 34.28125 27.484375 
Q 23.390625 27.484375 19.1875 25 
Q 14.984375 22.515625 14.984375 16.5 
Q 14.984375 11.71875 18.140625 8.90625 
Q 21.296875 6.109375 26.703125 6.109375 
Q 34.1875 6.109375 38.703125 11.40625 
Q 43.21875 16.703125 43.21875 25.484375 
L 43.21875 27.484375 
z
M 52.203125 31.203125 
L 52.203125 0 
L 43.21875 0 
L 43.21875 8.296875 
Q 40.140625 3.328125 35.546875 0.953125 
Q 30.953125 -1.421875 24.3125 -1.421875 
Q 15.921875 -1.421875 10.953125 3.296875 
Q 6 8.015625 6 15.921875 
Q 6 25.140625 12.171875 29.828125 
Q 18.359375 34.515625 30.609375 34.515625 
L 43.21875 34.515625 
L 43.21875 35.40625 
Q 43.21875 41.609375 39.140625 45 
Q 35.0625 48.390625 27.6875 48.390625 
Q 23 48.390625 18.546875 47.265625 
Q 14.109375 46.140625 10.015625 43.890625 
L 10.015625 52.203125 
Q 14.9375 54.109375 19.578125 55.046875 
Q 24.21875 56 28.609375 56 
Q 40.484375 56 46.34375 49.84375 
Q 52.203125 43.703125 52.203125 31.203125 
z
" id="DejaVuSans-97"/>
      <path d="M 9.421875 75.984375 
L 18.40625 75.984375 
L 18.40625 0 
L 9.421875 0 
z
" id="DejaVuSans-108"/>
      <path d="M 44.28125 53.078125 
L 44.28125 44.578125 
Q 40.484375 46.53125 36.375 47.5 
Q 32.28125 48.484375 27.875 48.484375 
Q 21.1875 48.484375 17.84375 46.4375 
Q 14.5 44.390625 14.5 40.28125 
Q 14.5 37.15625 16.890625 35.375 
Q 19.28125 33.59375 26.515625 31.984375 
L 29.59375 31.296875 
Q 39.15625 29.25 43.1875 25.515625 
Q 47.21875 21.78125 47.21875 15.09375 
Q 47.21875 7.46875 41.1875 3.015625 
Q 35.15625 -1.421875 24.609375 -1.421875 
Q 20.21875 -1.421875 15.453125 -0.5625 
Q 10.6875 0.296875 5.421875 2 
L 5.421875 11.28125 
Q 10.40625 8.6875 15.234375 7.390625 
Q 20.0625 6.109375 24.8125 6.109375 
Q 31.15625 6.109375 34.5625 8.28125 
Q 37.984375 10.453125 37.984375 14.40625 
Q 37.984375 18.0625 35.515625 20.015625 
Q 33.0625 21.96875 24.703125 23.78125 
L 21.578125 24.515625 
Q 13.234375 26.265625 9.515625 29.90625 
Q 5.8125 33.546875 5.8125 39.890625 
Q 5.8125 47.609375 11.28125 51.796875 
Q 16.75 56 26.8125 56 
Q 31.78125 56 36.171875 55.265625 
Q 40.578125 54.546875 44.28125 53.078125 
z
" id="DejaVuSans-115"/>
      <path d="M 56.203125 29.59375 
L 56.203125 25.203125 
L 14.890625 25.203125 
Q 15.484375 15.921875 20.484375 11.0625 
Q 25.484375 6.203125 34.421875 6.203125 
Q 39.59375 6.203125 44.453125 7.46875 
Q 49.3125 8.734375 54.109375 11.28125 
L 54.109375 2.78125 
Q 49.265625 0.734375 44.1875 -0.34375 
Q 39.109375 -1.421875 33.890625 -1.421875 
Q 20.796875 -1.421875 13.15625 6.1875 
Q 5.515625 13.8125 5.515625 26.8125 
Q 5.515625 40.234375 12.765625 48.109375 
Q 20.015625 56 32.328125 56 
Q 43.359375 56 49.78125 48.890625 
Q 56.203125 41.796875 56.203125 29.59375 
z
M 47.21875 32.234375 
Q 47.125 39.59375 43.09375 43.984375 
Q 39.0625 48.390625 32.421875 48.390625 
Q 24.90625 48.390625 20.390625 44.140625 
Q 15.875 39.890625 15.1875 32.171875 
z
" id="DejaVuSans-101"/>
      <path id="DejaVuSans-32"/>
      <path d="M 18.109375 8.203125 
L 18.109375 -20.796875 
L 9.078125 -20.796875 
L 9.078125 54.6875 
L 18.109375 54.6875 
L 18.109375 46.390625 
Q 20.953125 51.265625 25.265625 53.625 
Q 29.59375 56 35.59375 56 
Q 45.5625 56 51.78125 48.09375 
Q 58.015625 40.1875 58.015625 27.296875 
Q 58.015625 14.40625 51.78125 6.484375 
Q 45.5625 -1.421875 35.59375 -1.421875 
Q 29.59375 -1.421875 25.265625 0.953125 
Q 20.953125 3.328125 18.109375 8.203125 
z
M 48.6875 27.296875 
Q 48.6875 37.203125 44.609375 42.84375 
Q 40.53125 48.484375 33.40625 48.484375 
Q 26.265625 48.484375 22.1875 42.84375 
Q 18.109375 37.203125 18.109375 27.296875 
Q 18.109375 17.390625 22.1875 11.75 
Q 26.265625 6.109375 33.40625 6.109375 
Q 40.53125 6.109375 44.609375 11.75 
Q 48.6875 17.390625 48.6875 27.296875 
z
" id="DejaVuSans-112"/>
      <path d="M 30.609375 48.390625 
Q 23.390625 48.390625 19.1875 42.75 
Q 14.984375 37.109375 14.984375 27.296875 
Q 14.984375 17.484375 19.15625 11.84375 
Q 23.34375 6.203125 30.609375 6.203125 
Q 37.796875 6.203125 41.984375 11.859375 
Q 46.1875 17.53125 46.1875 27.296875 
Q 46.1875 37.015625 41.984375 42.703125 
Q 37.796875 48.390625 30.609375 48.390625 
z
M 30.609375 56 
Q 42.328125 56 49.015625 48.375 
Q 55.71875 40.765625 55.71875 27.296875 
Q 55.71875 13.875 49.015625 6.21875 
Q 42.328125 -1.421875 30.609375 -1.421875 
Q 18.84375 -1.421875 12.171875 6.21875 
Q 5.515625 13.875 5.515625 27.296875 
Q 5.515625 40.765625 12.171875 48.375 
Q 18.84375 56 30.609375 56 
z
" id="DejaVuSans-111"/>
      <path d="M 9.421875 54.6875 
L 18.40625 54.6875 
L 18.40625 0 
L 9.421875 0 
z
M 9.421875 75.984375 
L 18.40625 75.984375 
L 18.40625 64.59375 
L 9.421875 64.59375 
z
" id="DejaVuSans-105"/>
      <path d="M 18.3125 70.21875 
L 18.3125 54.6875 
L 36.8125 54.6875 
L 36.8125 47.703125 
L 18.3125 47.703125 
L 18.3125 18.015625 
Q 18.3125 11.328125 20.140625 9.421875 
Q 21.96875 7.515625 27.59375 7.515625 
L 36.8125 7.515625 
L 36.8125 0 
L 27.59375 0 
Q 17.1875 0 13.234375 3.875 
Q 9.28125 7.765625 9.28125 18.015625 
L 9.28125 47.703125 
L 2.6875 47.703125 
L 2.6875 54.6875 
L 9.28125 54.6875 
L 9.28125 70.21875 
z
" id="DejaVuSans-116"/>
      <path d="M 2.984375 54.6875 
L 12.5 54.6875 
L 29.59375 8.796875 
L 46.6875 54.6875 
L 56.203125 54.6875 
L 35.6875 0 
L 23.484375 0 
z
" id="DejaVuSans-118"/>
      <path d="M 41.109375 46.296875 
Q 39.59375 47.171875 37.8125 47.578125 
Q 36.03125 48 33.890625 48 
Q 26.265625 48 22.1875 43.046875 
Q 18.109375 38.09375 18.109375 28.8125 
L 18.109375 0 
L 9.078125 0 
L 9.078125 54.6875 
L 18.109375 54.6875 
L 18.109375 46.1875 
Q 20.953125 51.171875 25.484375 53.578125 
Q 30.03125 56 36.53125 56 
Q 37.453125 56 38.578125 55.875 
Q 39.703125 55.765625 41.0625 55.515625 
z
" id="DejaVuSans-114"/>
     </defs>
     <g transform="translate(190.21 335.860562)scale(0.1 -0.1)">
      <use xlink:href="#DejaVuSans-70"/>
      <use x="57.378906" xlink:href="#DejaVuSans-97"/>
      <use x="118.658203" xlink:href="#DejaVuSans-108"/>
      <use x="146.441406" xlink:href="#DejaVuSans-115"/>
      <use x="198.541016" xlink:href="#DejaVuSans-101"/>
      <use x="260.064453" xlink:href="#DejaVuSans-32"/>
      <use x="291.851562" xlink:href="#DejaVuSans-112"/>
      <use x="355.328125" xlink:href="#DejaVuSans-111"/>
      <use x="416.509766" xlink:href="#DejaVuSans-115"/>
      <use x="468.609375" xlink:href="#DejaVuSans-105"/>
      <use x="496.392578" xlink:href="#DejaVuSans-116"/>
      <use x="535.601562" xlink:href="#DejaVuSans-105"/>
      <use x="563.384766" xlink:href="#DejaVuSans-118"/>
      <use x="622.564453" xlink:href="#DejaVuSans-101"/>
      <use x="684.087891" xlink:href="#DejaVuSans-32"/>
      <use x="715.875" xlink:href="#DejaVuSans-114"/>
      <use x="756.988281" xlink:href="#DejaVuSans-97"/>
      <use x="818.267578" xlink:href="#DejaVuSans-116"/>
      <use x="857.476562" xlink:href="#DejaVuSans-101"/>
     </g>
    </g>
   </g>
   <g id="matplotlib.axis_2">
    <g id="ytick_1">
     <g id="line2d_7">
      <defs>
       <path d="M 0 0 
L -3.5 0 
" id="mdb5d6d733b" style="stroke:#000000;stroke-width:0.8;"/>
      </defs>
      <g>
       <use style="stroke:#000000;stroke-width:0.8;" x="57.6" xlink:href="#mdb5d6d733b" y="307.584"/>
      </g>
     </g>
     <g id="text_8">
      <!-- 0.0 -->
      <g transform="translate(34.696875 311.383219)scale(0.1 -0.1)">
       <use xlink:href="#DejaVuSans-48"/>
       <use x="63.623047" xlink:href="#DejaVuSans-46"/>
       <use x="95.410156" xlink:href="#DejaVuSans-48"/>
      </g>
     </g>
    </g>
    <g id="ytick_2">
     <g id="line2d_8">
      <g>
       <use style="stroke:#000000;stroke-width:0.8;" x="57.6" xlink:href="#mdb5d6d733b" y="254.3616"/>
      </g>
     </g>
     <g id="text_9">
      <!-- 0.2 -->
      <g transform="translate(34.696875 258.160819)scale(0.1 -0.1)">
       <use xlink:href="#DejaVuSans-48"/>
       <use x="63.623047" xlink:href="#DejaVuSans-46"/>
       <use x="95.410156" xlink:href="#DejaVuSans-50"/>
      </g>
     </g>
    </g>
    <g id="ytick_3">
     <g id="line2d_9">
      <g>
       <use style="stroke:#000000;stroke-width:0.8;" x="57.6" xlink:href="#mdb5d6d733b" y="201.1392"/>
      </g>
     </g>
     <g id="text_10">
      <!-- 0.4 -->
      <g transform="translate(34.696875 204.938419)scale(0.1 -0.1)">
       <use xlink:href="#DejaVuSans-48"/>
       <use x="63.623047" xlink:href="#DejaVuSans-46"/>
       <use x="95.410156" xlink:href="#DejaVuSans-52"/>
      </g>
     </g>
    </g>
    <g id="ytick_4">
     <g id="line2d_10">
      <g>
       <use style="stroke:#000000;stroke-width:0.8;" x="57.6" xlink:href="#mdb5d6d733b" y="147.9168"/>
      </g>
     </g>
     <g id="text_11">
      <!-- 0.6 -->
      <g transform="translate(34.696875 151.716019)scale(0.1 -0.1)">
       <use xlink:href="#DejaVuSans-48"/>
       <use x="63.623047" xlink:href="#DejaVuSans-46"/>
       <use x="95.410156" xlink:href="#DejaVuSans-54"/>
      </g>
     </g>
    </g>
    <g id="ytick_5">
     <g id="line2d_11">
      <g>
       <use style="stroke:#000000;stroke-width:0.8;" x="57.6" xlink:href="#mdb5d6d733b" y="94.6944"/>
      </g>
     </g>
     <g id="text_12">
      <!-- 0.8 -->
      <g transform="translate(34.696875 98.493619)scale(0.1 -0.1)">
       <use xlink:href="#DejaVuSans-48"/>
       <use x="63.623047" xlink:href="#DejaVuSans-46"/>
       <use x="95.410156" xlink:href="#DejaVuSans-56"/>
      </g>
     </g>
    </g>
    <g id="ytick_6">
     <g id="line2d_12">
      <g>
       <use style="stroke:#000000;stroke-width:0.8;" x="57.6" xlink:href="#mdb5d6d733b" y="41.472"/>
      </g>
     </g>
     <g id="text_13">
      <!-- 1.0 -->
      <g transform="translate(34.696875 45.271219)scale(0.1 -0.1)">
       <use xlink:href="#DejaVuSans-49"/>
       <use x="63.623047" xlink:href="#DejaVuSans-46"/>
       <use x="95.410156" xlink:href="#DejaVuSans-48"/>
      </g>
     </g>
    </g>
    <g id="text_14">
     <!-- True positive rate -->
     <defs>
      <path d="M -0.296875 72.90625 
L 61.375 72.90625 
L 61.375 64.59375 
L 35.5 64.59375 
L 35.5 0 
L 25.59375 0 
L 25.59375 64.59375 
L -0.296875 64.59375 
z
" id="DejaVuSans-84"/>
      <path d="M 8.5 21.578125 
L 8.5 54.6875 
L 17.484375 54.6875 
L 17.484375 21.921875 
Q 17.484375 14.15625 20.5 10.265625 
Q 23.53125 6.390625 29.59375 6.390625 
Q 36.859375 6.390625 41.078125 11.03125 
Q 45.3125 15.671875 45.3125 23.6875 
L 45.3125 54.6875 
L 54.296875 54.6875 
L 54.296875 0 
L 45.3125 0 
L 45.3125 8.40625 
Q 42.046875 3.421875 37.71875 1 
Q 33.40625 -1.421875 27.6875 -1.421875 
Q 18.265625 -1.421875 13.375 4.4375 
Q 8.5 10.296875 8.5 21.578125 
z
M 31.109375 56 
z
" id="DejaVuSans-117"/>
     </defs>
     <g transform="translate(28.617187 218.818625)rotate(-90)scale(0.1 -0.1)">
      <use xlink:href="#DejaVuSans-84"/>
      <use x="60.865234" xlink:href="#DejaVuSans-114"/>
      <use x="101.978516" xlink:href="#DejaVuSans-117"/>
      <use x="165.357422" xlink:href="#DejaVuSans-101"/>
      <use x="226.880859" xlink:href="#DejaVuSans-32"/>
      <use x="258.667969" xlink:href="#DejaVuSans-112"/>
      <use x="322.144531" xlink:href="#DejaVuSans-111"/>
      <use x="383.326172" xlink:href="#DejaVuSans-115"/>
      <use x="435.425781" xlink:href="#DejaVuSans-105"/>
      <use x="463.208984" xlink:href="#DejaVuSans-116"/>
      <use x="502.417969" xlink:href="#DejaVuSans-105"/>
      <use x="530.201172" xlink:href="#DejaVuSans-118"/>
      <use x="589.380859" xlink:href="#DejaVuSans-101"/>
      <use x="650.904297" xlink:href="#DejaVuSans-32"/>
      <use x="682.691406" xlink:href="#DejaVuSans-114"/>
      <use x="723.804688" xlink:href="#DejaVuSans-97"/>
      <use x="785.083984" xlink:href="#DejaVuSans-116"/>
      <use x="824.292969" xlink:href="#DejaVuSans-101"/>
     </g>
    </g>
   </g>
   <g id="line2d_13">
    <path clip-path="url(#p5efbdc6e34)" d="M 57.6 307.584 
L 57.702897 304.210317 
L 57.737196 304.210317 
L 57.840092 299.788748 
L 57.874391 299.788748 
L 57.977288 293.680338 
L 58.011587 293.680338 
L 58.114483 292.197962 
L 58.148782 292.197962 
L 58.251679 286.805182 
L 58.320277 286.779624 
L 58.423173 280.56898 
L 58.457472 280.56898 
L 58.560369 274.869501 
L 58.594668 274.869501 
L 58.697564 271.265795 
L 58.731863 271.265795 
L 58.83476 267.329832 
L 58.869059 267.329832 
L 58.971955 260.914723 
L 59.006254 260.914723 
L 59.109151 257.132109 
L 59.177749 257.080993 
L 59.280645 254.141799 
L 59.314944 254.141799 
L 59.417841 248.953484 
L 59.45214 248.953484 
L 59.555036 245.221987 
L 59.623634 245.221987 
L 59.726531 243.04954 
L 59.76083 243.04954 
L 59.863726 240.442603 
L 59.898025 240.442603 
L 60.000922 236.634431 
L 60.035221 236.608873 
L 60.138118 231.982838 
L 60.206715 231.95728 
L 60.309612 228.455806 
L 60.343911 228.455806 
L 60.446808 225.976661 
L 60.481106 225.976661 
L 60.584003 223.165259 
L 60.652601 223.1397 
L 60.755498 218.130293 
L 60.789796 218.130293 
L 60.892693 214.117655 
L 60.961291 214.117655 
L 61.064187 212.098557 
L 61.098486 212.098557 
L 61.167084 211.20402 
L 61.235682 211.20402 
L 61.338579 210.053901 
L 61.372877 210.053901 
L 61.441475 209.057131 
L 61.510073 209.057131 
L 61.61297 208.264827 
L 61.647269 208.264827 
L 61.750165 204.533329 
L 61.784464 204.533329 
L 61.887361 203.076512 
L 61.92166 203.076512 
L 62.024556 198.654943 
L 62.058855 198.654943 
L 62.161752 196.380263 
L 62.196051 196.380263 
L 62.298947 194.667863 
L 62.333246 194.667863 
L 62.436143 193.108813 
L 62.53904 193.057697 
L 62.607637 191.038599 
L 62.676235 191.038599 
L 62.779132 188.227196 
L 62.813431 188.227196 
L 62.916327 186.847053 
L 62.950626 186.847053 
L 63.053523 183.473371 
L 63.087822 183.473371 
L 63.190718 182.297693 
L 63.225017 182.297693 
L 63.327914 179.716315 
L 63.362213 179.716315 
L 63.465109 176.828238 
L 63.533707 176.80268 
L 63.636604 174.144627 
L 63.670903 174.144627 
L 63.773799 173.045624 
L 63.876696 172.943391 
L 63.979593 171.461016 
L 64.013892 171.461016 
L 64.116788 169.084103 
L 64.151087 169.084103 
L 64.253984 166.834981 
L 64.288283 166.834981 
L 64.391179 165.301489 
L 64.459777 165.199256 
L 64.562674 162.285621 
L 64.596973 162.285621 
L 64.699869 160.87992 
L 64.734168 160.87992 
L 64.837065 159.729801 
L 64.905663 159.627568 
L 65.008559 157.710703 
L 65.042858 157.710703 
L 65.145755 154.975975 
L 65.214353 154.950417 
L 65.317249 153.135785 
L 65.351548 153.135785 
L 65.454445 151.21892 
L 65.488744 151.21892 
L 65.59164 148.356401 
L 65.625939 148.356401 
L 65.728836 146.976258 
L 65.763135 146.976258 
L 65.763135 146.874025 
L 65.866032 144.701578 
L 65.934629 144.701578 
L 66.037526 143.040295 
L 66.071825 143.040295 
L 66.174721 141.379012 
L 66.243319 141.276779 
L 66.346216 140.12666 
L 66.380515 140.12666 
L 66.483411 139.41103 
L 66.51771 139.41103 
L 66.620607 137.2897 
L 66.654906 137.2897 
L 66.757803 136.318488 
L 66.792101 136.318488 
L 66.894998 134.631647 
L 66.929297 134.631647 
L 67.032194 132.817014 
L 67.066493 132.817014 
L 67.169389 131.079056 
L 67.203688 131.079056 
L 67.306585 128.906609 
L 67.340884 128.906609 
L 67.44378 127.424234 
L 67.478079 127.398675 
L 67.580976 126.529697 
L 67.615275 126.529697 
L 67.683872 125.48181 
L 67.75247 125.48181 
L 67.855367 124.868413 
L 67.889666 124.868413 
L 67.992562 123.616061 
L 68.06116 123.564945 
L 68.164057 122.108128 
L 68.198356 122.108128 
L 68.301252 120.830217 
L 68.335551 120.830217 
L 68.438448 118.760003 
L 68.507046 118.65777 
L 68.575643 116.996487 
L 68.644241 116.996487 
L 68.747138 115.718577 
L 68.815736 115.667461 
L 68.918632 114.491783 
L 68.98723 114.466225 
L 69.090127 112.779384 
L 69.124426 112.779384 
L 69.227322 111.015868 
L 69.330219 110.913635 
L 69.433116 108.408931 
L 69.501713 108.357815 
L 69.60461 107.412161 
L 69.638909 107.412161 
L 69.741806 106.313159 
L 69.810403 106.262042 
L 69.9133 105.571971 
L 69.981898 105.469738 
L 70.084794 103.808455 
L 70.119093 103.808455 
L 70.22199 100.89482 
L 70.290588 100.818145 
L 70.393484 100.332539 
L 70.427783 100.332539 
L 70.53068 99.872492 
L 70.633577 99.846934 
L 70.736473 98.799047 
L 70.770772 98.799047 
L 70.873669 97.930068 
L 70.907968 97.930068 
L 71.010864 96.958857 
L 71.045163 96.958857 
L 71.14806 95.885412 
L 71.216658 95.885412 
L 71.319554 94.965317 
L 71.422451 94.914201 
L 71.525348 93.661849 
L 71.628244 93.585174 
L 71.731141 92.843986 
L 71.799739 92.843986 
L 71.902635 92.026124 
L 71.971233 91.923891 
L 72.07413 91.438285 
L 72.142728 91.438285 
L 72.211325 90.645981 
L 72.279923 90.645981 
L 72.38282 89.112489 
L 72.485716 89.035814 
L 72.588613 87.425647 
L 72.622912 87.425647 
L 72.725809 86.888925 
L 72.863004 86.81225 
L 72.965901 86.224412 
L 73.0002 86.224412 
L 73.103096 85.585457 
L 73.205993 85.559899 
L 73.30889 84.895385 
L 73.343189 84.895385 
L 73.411786 83.361893 
L 73.514683 83.310777 
L 73.61758 83.055195 
L 73.651879 83.055195 
L 73.754775 82.569589 
L 73.857672 82.467356 
L 73.960569 81.828401 
L 74.063465 81.777285 
L 74.132063 81.087213 
L 74.269259 81.036097 
L 74.337856 79.962652 
L 74.406454 79.962652 
L 74.509351 79.451488 
L 74.577949 79.374814 
L 74.646546 79.272581 
L 74.749443 79.221464 
L 74.85234 77.764647 
L 74.955236 77.662414 
L 75.058133 77.304599 
L 75.126731 77.304599 
L 75.229627 76.486737 
L 75.298225 76.43562 
L 75.366823 76.231155 
L 75.46972 76.180038 
L 75.572616 75.87334 
L 75.606915 75.87334 
L 75.709812 75.055478 
L 75.744111 75.055478 
L 75.847007 74.569872 
L 75.915605 74.518755 
L 76.018502 74.212057 
L 76.121398 74.135382 
L 76.224295 73.700893 
L 76.258594 73.700893 
L 76.361491 72.755239 
L 76.430088 72.704123 
L 76.532985 72.525216 
L 76.635882 72.474099 
L 76.738778 72.192959 
L 76.807376 72.167401 
L 76.910273 71.426213 
L 76.978871 71.400655 
L 77.081767 71.119514 
L 77.150365 71.093956 
L 77.253262 70.429443 
L 77.424756 70.352768 
L 77.527653 69.867163 
L 77.664848 69.816046 
L 77.767745 69.61158 
L 77.836343 69.586022 
L 77.939239 69.100416 
L 78.007837 69.100416 
L 78.076435 68.819276 
L 78.247929 68.742602 
L 78.350826 68.384787 
L 78.385125 68.384787 
L 78.488022 68.026972 
L 78.52232 68.026972 
L 78.625217 67.49025 
L 78.728114 67.464692 
L 78.83101 66.927969 
L 78.933907 66.825736 
L 79.036804 66.442363 
L 79.071103 66.442363 
L 79.173999 66.033432 
L 79.242597 66.033432 
L 79.345494 65.77785 
L 79.379793 65.77785 
L 79.482689 65.241128 
L 79.551287 65.190012 
L 79.654184 64.78108 
L 79.75708 64.678847 
L 79.859977 64.576615 
L 79.928575 64.49994 
L 80.031471 64.295474 
L 80.06577 64.295474 
L 80.134368 63.963218 
L 80.340161 63.860985 
L 80.443058 63.528728 
L 80.614552 63.426496 
L 80.717449 63.324263 
L 80.751748 63.324263 
L 80.854645 62.966448 
L 81.026139 62.864215 
L 81.094737 62.710866 
L 81.163335 62.710866 
L 81.231932 62.455284 
L 81.334829 62.378609 
L 81.403427 62.22526 
L 81.677818 62.148585 
L 81.780715 61.893003 
L 81.91791 61.790771 
L 82.020807 61.50963 
L 82.2266 61.407398 
L 82.295198 61.126257 
L 82.432393 61.049583 
L 82.432393 60.998466 
L 82.603888 60.998466 
L 82.706784 60.717326 
L 82.84398 60.640652 
L 82.84398 60.589535 
L 82.981176 60.589535 
L 83.084072 60.206162 
L 83.289866 60.103929 
L 83.392762 59.822789 
L 83.46136 59.822789 
L 83.564257 59.567207 
L 83.667153 59.516091 
L 83.77005 59.260509 
L 83.804349 59.260509 
L 83.804349 59.056043 
L 84.147338 58.95381 
L 84.181637 58.877136 
L 84.421729 58.774903 
L 84.524625 58.621554 
L 84.593223 58.595995 
L 84.627522 58.442646 
L 84.799017 58.340413 
L 84.901913 58.187064 
L 85.107706 58.135948 
L 85.176304 57.931482 
L 85.3135 57.854808 
L 85.416396 57.548109 
L 85.450695 57.548109 
L 85.553592 57.241411 
L 85.656489 57.139178 
L 85.759385 56.96027 
L 85.999478 56.909154 
L 86.102374 56.730247 
L 86.445363 56.628014 
L 86.54826 56.474665 
L 86.788352 56.372432 
L 86.891249 56.321315 
L 87.062743 56.270199 
L 87.16564 56.142408 
L 87.542927 56.040175 
L 87.645824 55.937942 
L 87.817318 55.83571 
L 87.920215 55.554569 
L 88.194606 55.452337 
L 88.194606 55.350104 
L 88.434698 55.298987 
L 88.434698 55.145638 
L 88.811986 55.043405 
L 88.880584 54.941172 
L 89.120676 54.864498 
L 89.223573 54.711149 
L 89.395067 54.634474 
L 89.497964 54.430008 
L 89.600861 54.378892 
L 89.600861 54.302217 
L 89.909551 54.225543 
L 89.978148 53.995519 
L 90.115344 53.918844 
L 90.21824 53.791053 
L 90.424034 53.688821 
L 90.52693 53.56103 
L 90.698425 53.458797 
L 90.698425 53.433239 
L 90.938517 53.356564 
L 91.041414 53.228773 
L 91.418701 53.12654 
L 91.487299 53.075424 
L 91.658794 52.998749 
L 91.658794 52.896516 
L 92.447668 52.794284 
L 92.550565 52.692051 
L 92.824956 52.589818 
L 92.824956 52.56426 
L 93.339439 52.462027 
L 93.442336 52.308678 
L 93.579531 52.232003 
L 93.579531 52.180887 
L 94.128313 52.078654 
L 94.128313 52.053096 
L 94.951487 51.950863 
L 95.054383 51.771955 
L 95.294476 51.669723 
L 95.397372 51.56749 
L 95.77466 51.465257 
L 95.877557 51.388582 
L 96.117649 51.311908 
L 96.117649 51.235233 
L 96.426339 51.184117 
L 96.529235 51.056326 
L 96.906523 50.979651 
L 96.906523 50.928535 
L 97.215213 50.877418 
L 97.31811 50.724069 
L 97.832593 50.621836 
L 97.93549 50.545162 
L 98.587169 50.442929 
L 98.655766 50.340696 
L 98.964456 50.238463 
L 99.033054 50.110672 
L 99.376043 50.008439 
L 99.376043 49.957323 
L 99.856227 49.85509 
L 99.856227 49.803974 
L 100.610803 49.701741 
L 100.7137 49.650625 
L 101.502574 49.548392 
L 101.502574 49.522834 
L 102.600138 49.420601 
L 102.634437 49.369484 
L 103.354714 49.267252 
L 103.354714 49.241693 
L 105.206854 49.139461 
L 105.206854 49.088344 
L 105.858532 48.986111 
L 105.858532 48.960553 
L 106.681706 48.85832 
L 106.784602 48.807204 
L 107.77927 48.704971 
L 107.882167 48.653855 
L 108.156558 48.551622 
L 108.156558 48.526064 
L 108.911133 48.423831 
L 108.911133 48.398273 
L 110.523181 48.29604 
L 110.523181 48.244924 
L 111.003365 48.142691 
L 111.003365 48.117133 
L 111.998033 48.0149 
L 111.998033 47.989342 
L 114.707645 47.887109 
L 114.707645 47.861551 
L 115.359324 47.759318 
L 115.359324 47.708201 
L 116.731279 47.631527 
L 116.731279 47.58041 
L 117.554453 47.478177 
L 117.588751 47.427061 
L 119.029305 47.324828 
L 119.029305 47.29927 
L 120.641352 47.197037 
L 120.70995 47.120363 
L 121.430227 47.01813 
L 121.533123 46.967013 
L 122.493492 46.864781 
L 122.493492 46.839222 
L 123.213769 46.762548 
L 123.248068 46.685873 
L 125.065909 46.58364 
L 125.065909 46.558082 
L 126.540761 46.455849 
L 126.540761 46.430291 
L 128.3929 46.328058 
L 128.3929 46.3025 
L 130.176443 46.200267 
L 130.176443 46.174709 
L 131.445501 46.072476 
L 131.445501 46.046918 
L 133.126147 45.944685 
L 133.126147 45.919127 
L 135.218379 45.816894 
L 135.218379 45.791336 
L 138.613968 45.689103 
L 138.716865 45.637987 
L 141.152086 45.561312 
L 141.186385 45.484638 
L 144.822067 45.382405 
L 144.822067 45.331289 
L 146.982897 45.229056 
L 146.982897 45.203498 
L 150.790073 45.101265 
L 150.790073 45.075706 
L 154.974537 44.973474 
L 154.974537 44.947915 
L 157.752747 44.845683 
L 157.752747 44.820124 
L 161.319831 44.717892 
L 161.319831 44.692333 
L 163.480661 44.590101 
L 163.480661 44.564542 
L 166.053077 44.46231 
L 166.053077 44.436751 
L 169.002781 44.334519 
L 169.002781 44.30896 
L 173.015751 44.206728 
L 173.015751 44.181169 
L 178.709366 44.078937 
L 178.709366 44.053378 
L 186.632409 43.951146 
L 186.632409 43.925587 
L 197.299362 43.823355 
L 197.299362 43.797796 
L 207.691925 43.695564 
L 207.691925 43.670005 
L 218.59897 43.567773 
L 218.59897 43.542214 
L 223.263619 43.439982 
L 223.263619 43.414423 
L 232.935905 43.312191 
L 232.935905 43.286632 
L 237.120369 43.1844 
L 237.154668 43.133283 
L 245.009113 43.03105 
L 245.009113 43.005492 
L 252.17758 42.903259 
L 252.17758 42.877701 
L 256.670734 42.775468 
L 256.670734 42.74991 
L 266.102927 42.647677 
L 266.102927 42.622119 
L 273.580085 42.519886 
L 273.580085 42.494328 
L 297.143419 42.392095 
L 297.143419 42.366537 
L 304.689174 42.264304 
L 304.689174 42.238746 
L 314.807345 42.136513 
L 314.807345 42.110955 
L 333.191548 42.008722 
L 333.191548 41.983164 
L 345.950734 41.880931 
L 345.950734 41.855373 
L 360.973646 41.75314 
L 360.973646 41.727582 
L 380.832701 41.625349 
L 380.832701 41.599791 
L 401.549228 41.497558 
L 401.549228 41.472 
L 414.72 41.472 
L 414.72 41.472 
" style="fill:none;stroke:#ff0000;stroke-linecap:square;stroke-width:1.5;"/>
   </g>
   <g id="line2d_14">
    <path clip-path="url(#p5efbdc6e34)" d="M 57.6 307.584 
L 57.702897 306.02495 
L 57.737196 306.02495 
L 57.840092 298.48528 
L 57.874391 298.48528 
L 57.874391 298.383047 
L 57.977288 294.600433 
L 58.080184 294.498201 
L 58.183081 292.351312 
L 58.21738 292.351312 
L 58.320277 289.591026 
L 58.354575 289.591026 
L 58.457472 286.191785 
L 58.491771 286.191785 
L 58.594668 284.070454 
L 58.628967 284.070454 
L 58.731863 279.265512 
L 58.766162 279.265512 
L 58.869059 275.303991 
L 58.903358 275.303991 
L 59.006254 269.808977 
L 59.040553 269.808977 
L 59.14345 267.125366 
L 59.177749 267.125366 
L 59.280645 261.425887 
L 59.314944 261.425887 
L 59.417841 257.489924 
L 59.486439 257.438808 
L 59.589335 254.474056 
L 59.623634 254.474056 
L 59.726531 252.531633 
L 59.76083 252.531633 
L 59.863726 248.902368 
L 59.898025 248.902368 
L 60.000922 246.60213 
L 60.035221 246.60213 
L 60.138118 245.094196 
L 60.172416 245.094196 
L 60.172416 244.991963 
L 60.275313 240.928209 
L 60.309612 240.928209 
L 60.412509 238.806878 
L 60.446808 238.806878 
L 60.515405 236.046592 
L 60.584003 236.046592 
L 60.6869 234.23196 
L 60.721199 234.23196 
L 60.824095 230.321555 
L 60.858394 230.321555 
L 60.961291 224.41761 
L 60.99559 224.41761 
L 60.99559 224.340936 
L 61.098486 220.353856 
L 61.132785 220.353856 
L 61.235682 216.954615 
L 61.269981 216.954615 
L 61.372877 212.251906 
L 61.407176 212.251906 
L 61.510073 209.721644 
L 61.544372 209.721644 
L 61.647269 208.392618 
L 61.681567 208.392618 
L 61.784464 204.558887 
L 61.853062 204.558887 
L 61.955959 200.086202 
L 61.990257 200.060644 
L 62.093154 196.686961 
L 62.127453 196.686961 
L 62.23035 195.204585 
L 62.264648 195.204585 
L 62.367545 193.032138 
L 62.401844 193.032138 
L 62.504741 191.294181 
L 62.53904 191.294181 
L 62.641936 188.89171 
L 62.710534 188.789477 
L 62.813431 187.153752 
L 62.84773 187.153752 
L 62.950626 186.284773 
L 63.053523 186.284773 
L 63.15642 185.006863 
L 63.190718 185.006863 
L 63.293615 182.451043 
L 63.327914 182.451043 
L 63.430811 181.377598 
L 63.465109 181.377598 
L 63.568006 179.741873 
L 63.602305 179.741873 
L 63.705202 177.339402 
L 63.739501 177.339402 
L 63.842397 176.777122 
L 63.910995 176.674889 
L 64.013892 175.575886 
L 64.048191 175.575886 
L 64.151087 173.045624 
L 64.185386 173.045624 
L 64.288283 171.128759 
L 64.322582 171.128759 
L 64.425478 169.365243 
L 64.459777 169.365243 
L 64.562674 166.221584 
L 64.596973 166.221584 
L 64.699869 164.790325 
L 64.768467 164.739209 
L 64.871364 164.458068 
L 64.939962 164.406952 
L 65.042858 162.822343 
L 65.077157 162.822343 
L 65.180054 161.800015 
L 65.317249 161.723341 
L 65.420146 161.237735 
L 65.454445 161.237735 
L 65.557342 159.780917 
L 65.59164 159.780917 
L 65.694537 158.477449 
L 65.728836 158.477449 
L 65.831733 156.892841 
L 65.866032 156.892841 
L 65.968928 155.972745 
L 66.003227 155.972745 
L 66.106124 154.720393 
L 66.140423 154.720393 
L 66.243319 151.627851 
L 66.277618 151.627851 
L 66.380515 149.966568 
L 66.414814 149.966568 
L 66.51771 147.973028 
L 66.586308 147.94747 
L 66.689205 145.136068 
L 66.723504 145.136068 
L 66.723504 145.033835 
L 66.757803 145.008277 
L 66.860699 143.577017 
L 66.894998 143.577017 
L 66.997895 140.740057 
L 67.066493 140.714499 
L 67.169389 139.436589 
L 67.203688 139.436589 
L 67.306585 138.618726 
L 67.340884 138.618726 
L 67.44378 137.085234 
L 67.546677 137.034118 
L 67.649574 134.554972 
L 67.718171 134.452739 
L 67.821068 133.839342 
L 67.855367 133.839342 
L 67.958264 131.46243 
L 68.026861 131.411313 
L 68.129758 129.059959 
L 68.164057 129.059959 
L 68.266954 128.293212 
L 68.335551 128.216538 
L 68.438448 126.861953 
L 68.472747 126.861953 
L 68.472747 126.785279 
L 68.575643 125.558485 
L 68.644241 125.48181 
L 68.747138 124.689506 
L 68.781437 124.689506 
L 68.884333 124.152784 
L 68.918632 124.152784 
L 69.021529 123.053781 
L 69.055828 123.053781 
L 69.158725 122.312593 
L 69.193023 122.312593 
L 69.261621 121.724755 
L 69.364518 121.699196 
L 69.467415 121.136916 
L 69.501713 121.136916 
L 69.60461 120.242379 
L 69.638909 120.242379 
L 69.741806 118.734445 
L 69.776104 118.734445 
L 69.879001 117.175395 
L 69.981898 117.124278 
L 70.084794 115.565228 
L 70.153392 115.514111 
L 70.256289 114.568458 
L 70.290588 114.568458 
L 70.393484 113.469455 
L 70.427783 113.469455 
L 70.53068 112.728267 
L 70.599278 112.728267 
L 70.702174 110.070214 
L 70.770772 109.967982 
L 70.873669 108.971212 
L 70.942267 108.894537 
L 71.045163 107.616627 
L 71.113761 107.539952 
L 71.216658 106.824323 
L 71.250957 106.824323 
L 71.353853 106.057577 
L 71.388152 106.057577 
L 71.491049 104.370735 
L 71.525348 104.370735 
L 71.628244 103.373965 
L 71.662543 103.373965 
L 71.76544 102.198288 
L 71.799739 102.198288 
L 71.868337 101.303751 
L 71.936934 101.303751 
L 72.039831 100.792587 
L 72.108429 100.690354 
L 72.211325 99.61691 
L 72.279923 99.514677 
L 72.38282 99.18242 
L 72.417119 99.18242 
L 72.485716 98.773489 
L 72.554314 98.773489 
L 72.657211 98.18565 
L 72.69151 98.18565 
L 72.794406 97.163322 
L 72.828705 97.163322 
L 72.931602 96.294343 
L 73.0002 96.217669 
L 73.103096 95.476481 
L 73.137395 95.476481 
L 73.240292 94.530828 
L 73.274591 94.530828 
L 73.377488 93.610732 
L 73.411786 93.610732 
L 73.514683 92.256148 
L 73.651879 92.153915 
L 73.754775 91.540518 
L 73.789074 91.540518 
L 73.891971 90.79933 
L 73.960569 90.79933 
L 74.063465 89.981468 
L 74.132063 89.879235 
L 74.23496 89.444745 
L 74.269259 89.444745 
L 74.372155 89.035814 
L 74.475052 88.933581 
L 74.577949 88.652441 
L 74.680845 88.575766 
L 74.783742 87.96237 
L 75.023834 87.936811 
L 75.126731 86.837809 
L 75.195328 86.786692 
L 75.263926 86.377761 
L 75.332524 86.377761 
L 75.435421 85.815481 
L 75.46972 85.815481 
L 75.572616 85.278758 
L 75.709812 85.227642 
L 75.812708 83.847499 
L 75.847007 83.847499 
L 75.915605 82.97852 
L 75.984203 82.97852 
L 76.0871 81.905076 
L 76.189996 81.802843 
L 76.292893 81.572819 
L 76.327192 81.572819 
L 76.430088 80.882748 
L 76.498686 80.780515 
L 76.567284 80.576049 
L 76.635882 80.576049 
L 76.738778 80.039327 
L 76.841675 79.988211 
L 76.944572 79.323697 
L 77.013169 79.221464 
L 77.116066 78.378044 
L 77.287561 78.301369 
L 77.390457 77.739089 
L 77.424756 77.739089 
L 77.527653 76.921226 
L 77.561952 76.921226 
L 77.664848 76.103364 
L 77.733446 76.103364 
L 77.836343 75.515525 
L 77.939239 75.489967 
L 77.973538 75.234385 
L 78.076435 75.234385 
L 78.179332 74.953245 
L 78.21363 74.953245 
L 78.316527 74.544313 
L 78.419424 74.442081 
L 78.52232 73.726451 
L 78.590918 73.675335 
L 78.693815 72.985263 
L 78.865309 72.908589 
L 78.968206 72.499657 
L 79.1397 72.422983 
L 79.242597 71.988493 
L 79.276896 71.988493 
L 79.345494 71.247305 
L 79.44839 71.170631 
L 79.551287 70.7617 
L 79.791379 70.659467 
L 79.894276 70.32721 
L 79.997172 70.250536 
L 80.100069 69.892721 
L 80.202966 69.867163 
L 80.305862 69.432673 
L 80.443058 69.355998 
L 80.545955 69.151533 
L 80.614552 69.0493 
L 80.717449 68.614811 
L 80.854645 68.512578 
L 80.957541 68.256996 
L 81.060438 68.154763 
L 81.163335 67.975856 
L 81.266231 67.975856 
L 81.369128 67.566924 
L 81.437726 67.515808 
L 81.540622 67.004644 
L 81.60922 66.902411 
L 81.677818 66.570154 
L 81.815013 66.49348 
L 81.883611 66.365689 
L 81.952209 66.365689 
L 82.055106 66.007874 
L 82.089405 66.007874 
L 82.192301 65.650059 
L 82.260899 65.624501 
L 82.363796 65.445594 
L 82.466692 65.420035 
L 82.500991 65.062221 
L 82.706784 64.985546 
L 82.775382 64.755522 
L 82.84398 64.755522 
L 82.912578 64.167683 
L 82.981176 64.167683 
L 83.084072 63.963218 
L 83.186969 63.912101 
L 83.289866 63.605403 
L 83.358463 63.528728 
L 83.46136 63.22203 
L 83.598556 63.145355 
L 83.667153 62.864215 
L 83.838648 62.761982 
L 83.941544 62.65975 
L 84.010142 62.608633 
L 84.07874 62.429726 
L 84.456028 62.327493 
L 84.558924 61.995236 
L 84.627522 61.94412 
L 84.661821 61.816329 
L 84.764718 61.816329 
L 84.867614 61.484072 
L 85.00481 61.432956 
L 85.107706 61.279607 
L 85.244902 61.202932 
L 85.347799 61.049583 
L 85.656489 60.94735 
L 85.725086 60.717326 
L 85.93088 60.615093 
L 86.033776 60.538419 
L 86.273869 60.436186 
L 86.342466 60.23172 
L 86.513961 60.155046 
L 86.616857 60.001697 
L 86.822651 59.899464 
L 86.891249 59.66944 
L 87.097042 59.618323 
L 87.16564 59.464974 
L 87.405732 59.362741 
L 87.47433 59.158276 
L 87.817318 59.081601 
L 87.885916 58.95381 
L 88.194606 58.877136 
L 88.263204 58.544879 
L 88.4004 58.468204 
L 88.503296 58.340413 
L 88.743388 58.238181 
L 88.811986 58.11039 
L 88.983481 58.059273 
L 89.086377 57.931482 
L 89.120676 57.931482 
L 89.223573 57.624784 
L 89.360768 57.522551 
L 89.463665 57.215852 
L 89.635159 57.11362 
L 89.738056 56.985829 
L 90.081045 56.883596 
L 90.115344 56.755805 
L 90.424034 56.67913 
L 90.52693 56.270199 
L 90.595528 56.244641 
L 90.629827 56.11685 
L 91.075713 56.014617 
L 91.14431 55.937942 
L 91.453 55.83571 
L 91.555897 55.707919 
L 91.693093 55.605686 
L 91.795989 55.477895 
L 92.173277 55.375662 
L 92.276174 55.222313 
L 92.37907 55.12008 
L 92.37907 55.094522 
L 92.824956 54.992289 
L 92.893554 54.915614 
L 92.99645 54.864498 
L 92.99645 54.762265 
L 93.270841 54.660032 
L 93.30514 54.506683 
L 93.61383 54.40445 
L 93.716727 54.302217 
L 94.059716 54.199985 
L 94.059716 54.174426 
L 94.402705 54.097752 
L 94.471302 53.944403 
L 94.745693 53.893286 
L 94.745693 53.816612 
L 95.363073 53.714379 
L 95.46597 53.612146 
L 95.740361 53.535471 
L 95.843258 53.305448 
L 96.014752 53.254331 
L 96.014752 53.152098 
L 96.460638 53.049866 
L 96.563534 52.973191 
L 97.00942 52.870958 
L 97.112317 52.794284 
L 97.31811 52.692051 
L 97.386708 52.615376 
L 97.558202 52.538701 
L 97.661099 52.385352 
L 98.415674 52.283119 
L 98.415674 52.257561 
L 98.930158 52.155328 
L 98.964456 52.027537 
L 99.650434 51.950863 
L 99.753331 51.797514 
L 100.336412 51.695281 
L 100.336412 51.669723 
L 101.433976 51.593048 
L 101.536873 51.516373 
L 102.188552 51.414141 
L 102.188552 51.388582 
L 103.011725 51.28635 
L 103.011725 51.235233 
L 103.45761 51.133 
L 103.560507 51.030768 
L 104.349381 50.928535 
L 104.417979 50.877418 
L 105.103957 50.800744 
L 105.103957 50.749627 
L 105.721337 50.647395 
L 105.721337 50.596278 
L 106.132924 50.545162 
L 106.201521 50.442929 
L 107.024695 50.340696 
L 107.093292 50.28958 
L 107.985063 50.187347 
L 108.08796 50.033998 
L 108.876834 49.931765 
L 108.876834 49.906207 
L 109.562812 49.803974 
L 109.597111 49.752857 
L 111.106262 49.650625 
L 111.106262 49.625066 
L 111.998033 49.522834 
L 111.998033 49.497275 
L 112.821206 49.395043 
L 112.821206 49.369484 
L 114.090265 49.267252 
L 114.090265 49.241693 
L 115.222128 49.165019 
L 115.222128 49.113902 
L 116.285394 49.01167 
L 116.285394 48.986111 
L 116.594084 48.883879 
L 116.594084 48.85832 
L 117.966039 48.756088 
L 117.966039 48.730529 
L 119.578087 48.628297 
L 119.680983 48.57718 
L 120.950042 48.474947 
L 121.052939 48.423831 
L 121.533123 48.321598 
L 121.533123 48.29604 
L 122.424894 48.193807 
L 122.493492 48.142691 
L 123.934045 48.040458 
L 123.934045 48.0149 
L 124.585724 47.912667 
L 124.585724 47.887109 
L 125.546093 47.784876 
L 125.580392 47.708201 
L 127.569727 47.605968 
L 127.569727 47.58041 
L 129.181775 47.478177 
L 129.181775 47.427061 
L 129.696258 47.324828 
L 129.696258 47.29927 
L 130.55373 47.197037 
L 130.55373 47.171479 
L 131.102512 47.069246 
L 131.102512 47.043688 
L 131.925686 46.941455 
L 132.028582 46.890339 
L 133.743527 46.788106 
L 133.743527 46.73699 
L 134.5667 46.634757 
L 134.5667 46.609199 
L 136.11015 46.506966 
L 136.11015 46.481408 
L 137.139116 46.379175 
L 137.139116 46.353617 
L 137.825094 46.276942 
L 137.825094 46.225826 
L 139.162751 46.149151 
L 139.265647 46.046918 
L 140.123119 45.944685 
L 140.123119 45.919127 
L 140.946293 45.842453 
L 140.946293 45.791336 
L 141.838064 45.689103 
L 141.838064 45.663545 
L 143.553008 45.561312 
L 143.553008 45.535754 
L 146.159723 45.433521 
L 146.159723 45.407963 
L 151.921936 45.30573 
L 151.921936 45.280172 
L 156.1064 45.177939 
L 156.1064 45.152381 
L 159.1933 45.050148 
L 159.1933 45.02459 
L 159.673484 44.922357 
L 159.673484 44.896799 
L 161.834314 44.820124 
L 161.902912 44.74345 
L 165.298502 44.641217 
L 165.298502 44.615659 
L 169.105678 44.513426 
L 169.105678 44.487868 
L 173.838924 44.385635 
L 173.838924 44.360077 
L 177.474606 44.257844 
L 177.474606 44.232286 
L 184.643073 44.130053 
L 184.643073 44.104495 
L 187.52418 44.002262 
L 187.52418 43.976704 
L 192.669013 43.874471 
L 192.669013 43.848913 
L 194.521153 43.74668 
L 194.521153 43.721122 
L 202.855782 43.618889 
L 202.855782 43.593331 
L 208.686592 43.491098 
L 208.686592 43.46554 
L 218.90766 43.363307 
L 218.90766 43.337749 
L 232.558617 43.235516 
L 232.558617 43.209958 
L 238.560922 43.107725 
L 238.560922 43.082167 
L 243.088375 42.979934 
L 243.088375 42.954376 
L 252.897856 42.852143 
L 252.897856 42.826585 
L 268.332355 42.724352 
L 268.332355 42.698794 
L 272.379624 42.596561 
L 272.379624 42.571003 
L 281.880415 42.46877 
L 281.880415 42.443212 
L 296.971925 42.340979 
L 296.971925 42.315421 
L 314.121368 42.213188 
L 314.121368 42.18763 
L 323.656458 42.085397 
L 323.656458 42.059839 
L 330.893523 41.957606 
L 330.893523 41.932048 
L 349.071932 41.829815 
L 349.071932 41.804257 
L 363.168774 41.702024 
L 363.168774 41.676466 
L 383.302221 41.574233 
L 383.302221 41.548675 
L 414.72 41.472 
L 414.72 41.472 
" style="fill:none;stroke:#008000;stroke-linecap:square;stroke-width:1.5;"/>
   </g>
   <g id="patch_3">
    <path d="M 57.6 307.584 
L 57.6 41.472 
" style="fill:none;stroke:#000000;stroke-linecap:square;stroke-linejoin:miter;stroke-width:0.8;"/>
   </g>
   <g id="patch_4">
    <path d="M 414.72 307.584 
L 414.72 41.472 
" style="fill:none;stroke:#000000;stroke-linecap:square;stroke-linejoin:miter;stroke-width:0.8;"/>
   </g>
   <g id="patch_5">
    <path d="M 57.6 307.584 
L 414.72 307.584 
" style="fill:none;stroke:#000000;stroke-linecap:square;stroke-linejoin:miter;stroke-width:0.8;"/>
   </g>
   <g id="patch_6">
    <path d="M 57.6 41.472 
L 414.72 41.472 
" style="fill:none;stroke:#000000;stroke-linecap:square;stroke-linejoin:miter;stroke-width:0.8;"/>
   </g>
   <g id="legend_1">
    <g id="patch_7">
     <path d="M 309.155937 78.82825 
L 407.72 78.82825 
Q 409.72 78.82825 409.72 76.82825 
L 409.72 48.472 
Q 409.72 46.472 407.72 46.472 
L 309.155937 46.472 
Q 307.155937 46.472 307.155937 48.472 
L 307.155937 76.82825 
Q 307.155937 78.82825 309.155937 78.82825 
z
" style="fill:#ffffff;opacity:0.8;stroke:#cccccc;stroke-linejoin:miter;"/>
    </g>
    <g id="line2d_15">
     <path d="M 311.155937 54.570437 
L 331.155937 54.570437 
" style="fill:none;stroke:#ff0000;stroke-linecap:square;stroke-width:1.5;"/>
    </g>
    <g id="line2d_16"/>
    <g id="text_15">
     <!-- with kmer -->
     <defs>
      <path d="M 4.203125 54.6875 
L 13.1875 54.6875 
L 24.421875 12.015625 
L 35.59375 54.6875 
L 46.1875 54.6875 
L 57.421875 12.015625 
L 68.609375 54.6875 
L 77.59375 54.6875 
L 63.28125 0 
L 52.6875 0 
L 40.921875 44.828125 
L 29.109375 0 
L 18.5 0 
z
" id="DejaVuSans-119"/>
      <path d="M 54.890625 33.015625 
L 54.890625 0 
L 45.90625 0 
L 45.90625 32.71875 
Q 45.90625 40.484375 42.875 44.328125 
Q 39.84375 48.1875 33.796875 48.1875 
Q 26.515625 48.1875 22.3125 43.546875 
Q 18.109375 38.921875 18.109375 30.90625 
L 18.109375 0 
L 9.078125 0 
L 9.078125 75.984375 
L 18.109375 75.984375 
L 18.109375 46.1875 
Q 21.34375 51.125 25.703125 53.5625 
Q 30.078125 56 35.796875 56 
Q 45.21875 56 50.046875 50.171875 
Q 54.890625 44.34375 54.890625 33.015625 
z
" id="DejaVuSans-104"/>
      <path d="M 9.078125 75.984375 
L 18.109375 75.984375 
L 18.109375 31.109375 
L 44.921875 54.6875 
L 56.390625 54.6875 
L 27.390625 29.109375 
L 57.625 0 
L 45.90625 0 
L 18.109375 26.703125 
L 18.109375 0 
L 9.078125 0 
z
" id="DejaVuSans-107"/>
      <path d="M 52 44.1875 
Q 55.375 50.25 60.0625 53.125 
Q 64.75 56 71.09375 56 
Q 79.640625 56 84.28125 50.015625 
Q 88.921875 44.046875 88.921875 33.015625 
L 88.921875 0 
L 79.890625 0 
L 79.890625 32.71875 
Q 79.890625 40.578125 77.09375 44.375 
Q 74.3125 48.1875 68.609375 48.1875 
Q 61.625 48.1875 57.5625 43.546875 
Q 53.515625 38.921875 53.515625 30.90625 
L 53.515625 0 
L 44.484375 0 
L 44.484375 32.71875 
Q 44.484375 40.625 41.703125 44.40625 
Q 38.921875 48.1875 33.109375 48.1875 
Q 26.21875 48.1875 22.15625 43.53125 
Q 18.109375 38.875 18.109375 30.90625 
L 18.109375 0 
L 9.078125 0 
L 9.078125 54.6875 
L 18.109375 54.6875 
L 18.109375 46.1875 
Q 21.1875 51.21875 25.484375 53.609375 
Q 29.78125 56 35.6875 56 
Q 41.65625 56 45.828125 52.96875 
Q 50 49.953125 52 44.1875 
z
" id="DejaVuSans-109"/>
     </defs>
     <g transform="translate(339.155937 58.070437)scale(0.1 -0.1)">
      <use xlink:href="#DejaVuSans-119"/>
      <use x="81.787109" xlink:href="#DejaVuSans-105"/>
      <use x="109.570312" xlink:href="#DejaVuSans-116"/>
      <use x="148.779297" xlink:href="#DejaVuSans-104"/>
      <use x="212.158203" xlink:href="#DejaVuSans-32"/>
      <use x="243.945312" xlink:href="#DejaVuSans-107"/>
      <use x="301.855469" xlink:href="#DejaVuSans-109"/>
      <use x="399.267578" xlink:href="#DejaVuSans-101"/>
      <use x="460.791016" xlink:href="#DejaVuSans-114"/>
     </g>
    </g>
    <g id="line2d_17">
     <path d="M 311.155937 69.248562 
L 331.155937 69.248562 
" style="fill:none;stroke:#008000;stroke-linecap:square;stroke-width:1.5;"/>
    </g>
    <g id="line2d_18"/>
    <g id="text_16">
     <!-- without kmer -->
     <g transform="translate(339.155937 72.748562)scale(0.1 -0.1)">
      <use xlink:href="#DejaVuSans-119"/>
      <use x="81.787109" xlink:href="#DejaVuSans-105"/>
      <use x="109.570312" xlink:href="#DejaVuSans-116"/>
      <use x="148.779297" xlink:href="#DejaVuSans-104"/>
      <use x="212.158203" xlink:href="#DejaVuSans-111"/>
      <use x="273.339844" xlink:href="#DejaVuSans-117"/>
      <use x="336.71875" xlink:href="#DejaVuSans-116"/>
      <use x="375.927734" xlink:href="#DejaVuSans-32"/>
      <use x="407.714844" xlink:href="#DejaVuSans-107"/>
      <use x="465.625" xlink:href="#DejaVuSans-109"/>
      <use x="563.037109" xlink:href="#DejaVuSans-101"/>
      <use x="624.560547" xlink:href="#DejaVuSans-114"/>
     </g>
    </g>
   </g>
  </g>
 </g>
 <defs>
  <clipPath id="p5efbdc6e34">
   <rect height="266.112" width="357.12" x="57.6" y="41.472"/>
  </clipPath>
 </defs>
</svg>
