<?xml version="1.0" encoding="utf-8" standalone="no"?>
<!DOCTYPE svg PUBLIC "-//W3C//DTD SVG 1.1//EN"
  "http://www.w3.org/Graphics/SVG/1.1/DTD/svg11.dtd">
<!-- Created with matplotlib (https://matplotlib.org/) -->
<svg height="345.6pt" version="1.1" viewBox="0 0 460.8 345.6" width="460.8pt" xmlns="http://www.w3.org/2000/svg" xmlns:xlink="http://www.w3.org/1999/xlink">
 <defs>
  <style type="text/css">
*{stroke-linecap:butt;stroke-linejoin:round;}
  </style>
 </defs>
 <g id="figure_1">
  <g id="patch_1">
   <path d="M 0 345.6 
L 460.8 345.6 
L 460.8 0 
L 0 0 
z
" style="fill:#ffffff;"/>
  </g>
  <g id="axes_1">
   <g id="patch_2">
    <path d="M 57.6 307.584 
L 414.72 307.584 
L 414.72 41.472 
L 57.6 41.472 
z
" style="fill:#ffffff;"/>
   </g>
   <g id="matplotlib.axis_1">
    <g id="xtick_1">
     <g id="line2d_1">
      <defs>
       <path d="M 0 0 
L 0 3.5 
" id="m91f4ea23f8" style="stroke:#000000;stroke-width:0.8;"/>
      </defs>
      <g>
       <use style="stroke:#000000;stroke-width:0.8;" x="57.6" xlink:href="#m91f4ea23f8" y="307.584"/>
      </g>
     </g>
     <g id="text_1">
      <!-- 0.0 -->
      <defs>
       <path d="M 31.78125 66.40625 
Q 24.171875 66.40625 20.328125 58.90625 
Q 16.5 51.421875 16.5 36.375 
Q 16.5 21.390625 20.328125 13.890625 
Q 24.171875 6.390625 31.78125 6.390625 
Q 39.453125 6.390625 43.28125 13.890625 
Q 47.125 21.390625 47.125 36.375 
Q 47.125 51.421875 43.28125 58.90625 
Q 39.453125 66.40625 31.78125 66.40625 
z
M 31.78125 74.21875 
Q 44.046875 74.21875 50.515625 64.515625 
Q 56.984375 54.828125 56.984375 36.375 
Q 56.984375 17.96875 50.515625 8.265625 
Q 44.046875 -1.421875 31.78125 -1.421875 
Q 19.53125 -1.421875 13.0625 8.265625 
Q 6.59375 17.96875 6.59375 36.375 
Q 6.59375 54.828125 13.0625 64.515625 
Q 19.53125 74.21875 31.78125 74.21875 
z
" id="DejaVuSans-48"/>
       <path d="M 10.6875 12.40625 
L 21 12.40625 
L 21 0 
L 10.6875 0 
z
" id="DejaVuSans-46"/>
      </defs>
      <g transform="translate(49.648438 322.182437)scale(0.1 -0.1)">
       <use xlink:href="#DejaVuSans-48"/>
       <use x="63.623047" xlink:href="#DejaVuSans-46"/>
       <use x="95.410156" xlink:href="#DejaVuSans-48"/>
      </g>
     </g>
    </g>
    <g id="xtick_2">
     <g id="line2d_2">
      <g>
       <use style="stroke:#000000;stroke-width:0.8;" x="129.024" xlink:href="#m91f4ea23f8" y="307.584"/>
      </g>
     </g>
     <g id="text_2">
      <!-- 0.2 -->
      <defs>
       <path d="M 19.1875 8.296875 
L 53.609375 8.296875 
L 53.609375 0 
L 7.328125 0 
L 7.328125 8.296875 
Q 12.9375 14.109375 22.625 23.890625 
Q 32.328125 33.6875 34.8125 36.53125 
Q 39.546875 41.84375 41.421875 45.53125 
Q 43.3125 49.21875 43.3125 52.78125 
Q 43.3125 58.59375 39.234375 62.25 
Q 35.15625 65.921875 28.609375 65.921875 
Q 23.96875 65.921875 18.8125 64.3125 
Q 13.671875 62.703125 7.8125 59.421875 
L 7.8125 69.390625 
Q 13.765625 71.78125 18.9375 73 
Q 24.125 74.21875 28.421875 74.21875 
Q 39.75 74.21875 46.484375 68.546875 
Q 53.21875 62.890625 53.21875 53.421875 
Q 53.21875 48.921875 51.53125 44.890625 
Q 49.859375 40.875 45.40625 35.40625 
Q 44.1875 33.984375 37.640625 27.21875 
Q 31.109375 20.453125 19.1875 8.296875 
z
" id="DejaVuSans-50"/>
      </defs>
      <g transform="translate(121.072438 322.182437)scale(0.1 -0.1)">
       <use xlink:href="#DejaVuSans-48"/>
       <use x="63.623047" xlink:href="#DejaVuSans-46"/>
       <use x="95.410156" xlink:href="#DejaVuSans-50"/>
      </g>
     </g>
    </g>
    <g id="xtick_3">
     <g id="line2d_3">
      <g>
       <use style="stroke:#000000;stroke-width:0.8;" x="200.448" xlink:href="#m91f4ea23f8" y="307.584"/>
      </g>
     </g>
     <g id="text_3">
      <!-- 0.4 -->
      <defs>
       <path d="M 37.796875 64.3125 
L 12.890625 25.390625 
L 37.796875 25.390625 
z
M 35.203125 72.90625 
L 47.609375 72.90625 
L 47.609375 25.390625 
L 58.015625 25.390625 
L 58.015625 17.1875 
L 47.609375 17.1875 
L 47.609375 0 
L 37.796875 0 
L 37.796875 17.1875 
L 4.890625 17.1875 
L 4.890625 26.703125 
z
" id="DejaVuSans-52"/>
      </defs>
      <g transform="translate(192.496438 322.182437)scale(0.1 -0.1)">
       <use xlink:href="#DejaVuSans-48"/>
       <use x="63.623047" xlink:href="#DejaVuSans-46"/>
       <use x="95.410156" xlink:href="#DejaVuSans-52"/>
      </g>
     </g>
    </g>
    <g id="xtick_4">
     <g id="line2d_4">
      <g>
       <use style="stroke:#000000;stroke-width:0.8;" x="271.872" xlink:href="#m91f4ea23f8" y="307.584"/>
      </g>
     </g>
     <g id="text_4">
      <!-- 0.6 -->
      <defs>
       <path d="M 33.015625 40.375 
Q 26.375 40.375 22.484375 35.828125 
Q 18.609375 31.296875 18.609375 23.390625 
Q 18.609375 15.53125 22.484375 10.953125 
Q 26.375 6.390625 33.015625 6.390625 
Q 39.65625 6.390625 43.53125 10.953125 
Q 47.40625 15.53125 47.40625 23.390625 
Q 47.40625 31.296875 43.53125 35.828125 
Q 39.65625 40.375 33.015625 40.375 
z
M 52.59375 71.296875 
L 52.59375 62.3125 
Q 48.875 64.0625 45.09375 64.984375 
Q 41.3125 65.921875 37.59375 65.921875 
Q 27.828125 65.921875 22.671875 59.328125 
Q 17.53125 52.734375 16.796875 39.40625 
Q 19.671875 43.65625 24.015625 45.921875 
Q 28.375 48.1875 33.59375 48.1875 
Q 44.578125 48.1875 50.953125 41.515625 
Q 57.328125 34.859375 57.328125 23.390625 
Q 57.328125 12.15625 50.6875 5.359375 
Q 44.046875 -1.421875 33.015625 -1.421875 
Q 20.359375 -1.421875 13.671875 8.265625 
Q 6.984375 17.96875 6.984375 36.375 
Q 6.984375 53.65625 15.1875 63.9375 
Q 23.390625 74.21875 37.203125 74.21875 
Q 40.921875 74.21875 44.703125 73.484375 
Q 48.484375 72.75 52.59375 71.296875 
z
" id="DejaVuSans-54"/>
      </defs>
      <g transform="translate(263.920438 322.182437)scale(0.1 -0.1)">
       <use xlink:href="#DejaVuSans-48"/>
       <use x="63.623047" xlink:href="#DejaVuSans-46"/>
       <use x="95.410156" xlink:href="#DejaVuSans-54"/>
      </g>
     </g>
    </g>
    <g id="xtick_5">
     <g id="line2d_5">
      <g>
       <use style="stroke:#000000;stroke-width:0.8;" x="343.296" xlink:href="#m91f4ea23f8" y="307.584"/>
      </g>
     </g>
     <g id="text_5">
      <!-- 0.8 -->
      <defs>
       <path d="M 31.78125 34.625 
Q 24.75 34.625 20.71875 30.859375 
Q 16.703125 27.09375 16.703125 20.515625 
Q 16.703125 13.921875 20.71875 10.15625 
Q 24.75 6.390625 31.78125 6.390625 
Q 38.8125 6.390625 42.859375 10.171875 
Q 46.921875 13.96875 46.921875 20.515625 
Q 46.921875 27.09375 42.890625 30.859375 
Q 38.875 34.625 31.78125 34.625 
z
M 21.921875 38.8125 
Q 15.578125 40.375 12.03125 44.71875 
Q 8.5 49.078125 8.5 55.328125 
Q 8.5 64.0625 14.71875 69.140625 
Q 20.953125 74.21875 31.78125 74.21875 
Q 42.671875 74.21875 48.875 69.140625 
Q 55.078125 64.0625 55.078125 55.328125 
Q 55.078125 49.078125 51.53125 44.71875 
Q 48 40.375 41.703125 38.8125 
Q 48.828125 37.15625 52.796875 32.3125 
Q 56.78125 27.484375 56.78125 20.515625 
Q 56.78125 9.90625 50.3125 4.234375 
Q 43.84375 -1.421875 31.78125 -1.421875 
Q 19.734375 -1.421875 13.25 4.234375 
Q 6.78125 9.90625 6.78125 20.515625 
Q 6.78125 27.484375 10.78125 32.3125 
Q 14.796875 37.15625 21.921875 38.8125 
z
M 18.3125 54.390625 
Q 18.3125 48.734375 21.84375 45.5625 
Q 25.390625 42.390625 31.78125 42.390625 
Q 38.140625 42.390625 41.71875 45.5625 
Q 45.3125 48.734375 45.3125 54.390625 
Q 45.3125 60.0625 41.71875 63.234375 
Q 38.140625 66.40625 31.78125 66.40625 
Q 25.390625 66.40625 21.84375 63.234375 
Q 18.3125 60.0625 18.3125 54.390625 
z
" id="DejaVuSans-56"/>
      </defs>
      <g transform="translate(335.344438 322.182437)scale(0.1 -0.1)">
       <use xlink:href="#DejaVuSans-48"/>
       <use x="63.623047" xlink:href="#DejaVuSans-46"/>
       <use x="95.410156" xlink:href="#DejaVuSans-56"/>
      </g>
     </g>
    </g>
    <g id="xtick_6">
     <g id="line2d_6">
      <g>
       <use style="stroke:#000000;stroke-width:0.8;" x="414.72" xlink:href="#m91f4ea23f8" y="307.584"/>
      </g>
     </g>
     <g id="text_6">
      <!-- 1.0 -->
      <defs>
       <path d="M 12.40625 8.296875 
L 28.515625 8.296875 
L 28.515625 63.921875 
L 10.984375 60.40625 
L 10.984375 69.390625 
L 28.421875 72.90625 
L 38.28125 72.90625 
L 38.28125 8.296875 
L 54.390625 8.296875 
L 54.390625 0 
L 12.40625 0 
z
" id="DejaVuSans-49"/>
      </defs>
      <g transform="translate(406.768438 322.182437)scale(0.1 -0.1)">
       <use xlink:href="#DejaVuSans-49"/>
       <use x="63.623047" xlink:href="#DejaVuSans-46"/>
       <use x="95.410156" xlink:href="#DejaVuSans-48"/>
      </g>
     </g>
    </g>
    <g id="text_7">
     <!-- False positive rate -->
     <defs>
      <path d="M 9.8125 72.90625 
L 51.703125 72.90625 
L 51.703125 64.59375 
L 19.671875 64.59375 
L 19.671875 43.109375 
L 48.578125 43.109375 
L 48.578125 34.8125 
L 19.671875 34.8125 
L 19.671875 0 
L 9.8125 0 
z
" id="DejaVuSans-70"/>
      <path d="M 34.28125 27.484375 
Q 23.390625 27.484375 19.1875 25 
Q 14.984375 22.515625 14.984375 16.5 
Q 14.984375 11.71875 18.140625 8.90625 
Q 21.296875 6.109375 26.703125 6.109375 
Q 34.1875 6.109375 38.703125 11.40625 
Q 43.21875 16.703125 43.21875 25.484375 
L 43.21875 27.484375 
z
M 52.203125 31.203125 
L 52.203125 0 
L 43.21875 0 
L 43.21875 8.296875 
Q 40.140625 3.328125 35.546875 0.953125 
Q 30.953125 -1.421875 24.3125 -1.421875 
Q 15.921875 -1.421875 10.953125 3.296875 
Q 6 8.015625 6 15.921875 
Q 6 25.140625 12.171875 29.828125 
Q 18.359375 34.515625 30.609375 34.515625 
L 43.21875 34.515625 
L 43.21875 35.40625 
Q 43.21875 41.609375 39.140625 45 
Q 35.0625 48.390625 27.6875 48.390625 
Q 23 48.390625 18.546875 47.265625 
Q 14.109375 46.140625 10.015625 43.890625 
L 10.015625 52.203125 
Q 14.9375 54.109375 19.578125 55.046875 
Q 24.21875 56 28.609375 56 
Q 40.484375 56 46.34375 49.84375 
Q 52.203125 43.703125 52.203125 31.203125 
z
" id="DejaVuSans-97"/>
      <path d="M 9.421875 75.984375 
L 18.40625 75.984375 
L 18.40625 0 
L 9.421875 0 
z
" id="DejaVuSans-108"/>
      <path d="M 44.28125 53.078125 
L 44.28125 44.578125 
Q 40.484375 46.53125 36.375 47.5 
Q 32.28125 48.484375 27.875 48.484375 
Q 21.1875 48.484375 17.84375 46.4375 
Q 14.5 44.390625 14.5 40.28125 
Q 14.5 37.15625 16.890625 35.375 
Q 19.28125 33.59375 26.515625 31.984375 
L 29.59375 31.296875 
Q 39.15625 29.25 43.1875 25.515625 
Q 47.21875 21.78125 47.21875 15.09375 
Q 47.21875 7.46875 41.1875 3.015625 
Q 35.15625 -1.421875 24.609375 -1.421875 
Q 20.21875 -1.421875 15.453125 -0.5625 
Q 10.6875 0.296875 5.421875 2 
L 5.421875 11.28125 
Q 10.40625 8.6875 15.234375 7.390625 
Q 20.0625 6.109375 24.8125 6.109375 
Q 31.15625 6.109375 34.5625 8.28125 
Q 37.984375 10.453125 37.984375 14.40625 
Q 37.984375 18.0625 35.515625 20.015625 
Q 33.0625 21.96875 24.703125 23.78125 
L 21.578125 24.515625 
Q 13.234375 26.265625 9.515625 29.90625 
Q 5.8125 33.546875 5.8125 39.890625 
Q 5.8125 47.609375 11.28125 51.796875 
Q 16.75 56 26.8125 56 
Q 31.78125 56 36.171875 55.265625 
Q 40.578125 54.546875 44.28125 53.078125 
z
" id="DejaVuSans-115"/>
      <path d="M 56.203125 29.59375 
L 56.203125 25.203125 
L 14.890625 25.203125 
Q 15.484375 15.921875 20.484375 11.0625 
Q 25.484375 6.203125 34.421875 6.203125 
Q 39.59375 6.203125 44.453125 7.46875 
Q 49.3125 8.734375 54.109375 11.28125 
L 54.109375 2.78125 
Q 49.265625 0.734375 44.1875 -0.34375 
Q 39.109375 -1.421875 33.890625 -1.421875 
Q 20.796875 -1.421875 13.15625 6.1875 
Q 5.515625 13.8125 5.515625 26.8125 
Q 5.515625 40.234375 12.765625 48.109375 
Q 20.015625 56 32.328125 56 
Q 43.359375 56 49.78125 48.890625 
Q 56.203125 41.796875 56.203125 29.59375 
z
M 47.21875 32.234375 
Q 47.125 39.59375 43.09375 43.984375 
Q 39.0625 48.390625 32.421875 48.390625 
Q 24.90625 48.390625 20.390625 44.140625 
Q 15.875 39.890625 15.1875 32.171875 
z
" id="DejaVuSans-101"/>
      <path id="DejaVuSans-32"/>
      <path d="M 18.109375 8.203125 
L 18.109375 -20.796875 
L 9.078125 -20.796875 
L 9.078125 54.6875 
L 18.109375 54.6875 
L 18.109375 46.390625 
Q 20.953125 51.265625 25.265625 53.625 
Q 29.59375 56 35.59375 56 
Q 45.5625 56 51.78125 48.09375 
Q 58.015625 40.1875 58.015625 27.296875 
Q 58.015625 14.40625 51.78125 6.484375 
Q 45.5625 -1.421875 35.59375 -1.421875 
Q 29.59375 -1.421875 25.265625 0.953125 
Q 20.953125 3.328125 18.109375 8.203125 
z
M 48.6875 27.296875 
Q 48.6875 37.203125 44.609375 42.84375 
Q 40.53125 48.484375 33.40625 48.484375 
Q 26.265625 48.484375 22.1875 42.84375 
Q 18.109375 37.203125 18.109375 27.296875 
Q 18.109375 17.390625 22.1875 11.75 
Q 26.265625 6.109375 33.40625 6.109375 
Q 40.53125 6.109375 44.609375 11.75 
Q 48.6875 17.390625 48.6875 27.296875 
z
" id="DejaVuSans-112"/>
      <path d="M 30.609375 48.390625 
Q 23.390625 48.390625 19.1875 42.75 
Q 14.984375 37.109375 14.984375 27.296875 
Q 14.984375 17.484375 19.15625 11.84375 
Q 23.34375 6.203125 30.609375 6.203125 
Q 37.796875 6.203125 41.984375 11.859375 
Q 46.1875 17.53125 46.1875 27.296875 
Q 46.1875 37.015625 41.984375 42.703125 
Q 37.796875 48.390625 30.609375 48.390625 
z
M 30.609375 56 
Q 42.328125 56 49.015625 48.375 
Q 55.71875 40.765625 55.71875 27.296875 
Q 55.71875 13.875 49.015625 6.21875 
Q 42.328125 -1.421875 30.609375 -1.421875 
Q 18.84375 -1.421875 12.171875 6.21875 
Q 5.515625 13.875 5.515625 27.296875 
Q 5.515625 40.765625 12.171875 48.375 
Q 18.84375 56 30.609375 56 
z
" id="DejaVuSans-111"/>
      <path d="M 9.421875 54.6875 
L 18.40625 54.6875 
L 18.40625 0 
L 9.421875 0 
z
M 9.421875 75.984375 
L 18.40625 75.984375 
L 18.40625 64.59375 
L 9.421875 64.59375 
z
" id="DejaVuSans-105"/>
      <path d="M 18.3125 70.21875 
L 18.3125 54.6875 
L 36.8125 54.6875 
L 36.8125 47.703125 
L 18.3125 47.703125 
L 18.3125 18.015625 
Q 18.3125 11.328125 20.140625 9.421875 
Q 21.96875 7.515625 27.59375 7.515625 
L 36.8125 7.515625 
L 36.8125 0 
L 27.59375 0 
Q 17.1875 0 13.234375 3.875 
Q 9.28125 7.765625 9.28125 18.015625 
L 9.28125 47.703125 
L 2.6875 47.703125 
L 2.6875 54.6875 
L 9.28125 54.6875 
L 9.28125 70.21875 
z
" id="DejaVuSans-116"/>
      <path d="M 2.984375 54.6875 
L 12.5 54.6875 
L 29.59375 8.796875 
L 46.6875 54.6875 
L 56.203125 54.6875 
L 35.6875 0 
L 23.484375 0 
z
" id="DejaVuSans-118"/>
      <path d="M 41.109375 46.296875 
Q 39.59375 47.171875 37.8125 47.578125 
Q 36.03125 48 33.890625 48 
Q 26.265625 48 22.1875 43.046875 
Q 18.109375 38.09375 18.109375 28.8125 
L 18.109375 0 
L 9.078125 0 
L 9.078125 54.6875 
L 18.109375 54.6875 
L 18.109375 46.1875 
Q 20.953125 51.171875 25.484375 53.578125 
Q 30.03125 56 36.53125 56 
Q 37.453125 56 38.578125 55.875 
Q 39.703125 55.765625 41.0625 55.515625 
z
" id="DejaVuSans-114"/>
     </defs>
     <g transform="translate(190.21 335.860562)scale(0.1 -0.1)">
      <use xlink:href="#DejaVuSans-70"/>
      <use x="57.378906" xlink:href="#DejaVuSans-97"/>
      <use x="118.658203" xlink:href="#DejaVuSans-108"/>
      <use x="146.441406" xlink:href="#DejaVuSans-115"/>
      <use x="198.541016" xlink:href="#DejaVuSans-101"/>
      <use x="260.064453" xlink:href="#DejaVuSans-32"/>
      <use x="291.851562" xlink:href="#DejaVuSans-112"/>
      <use x="355.328125" xlink:href="#DejaVuSans-111"/>
      <use x="416.509766" xlink:href="#DejaVuSans-115"/>
      <use x="468.609375" xlink:href="#DejaVuSans-105"/>
      <use x="496.392578" xlink:href="#DejaVuSans-116"/>
      <use x="535.601562" xlink:href="#DejaVuSans-105"/>
      <use x="563.384766" xlink:href="#DejaVuSans-118"/>
      <use x="622.564453" xlink:href="#DejaVuSans-101"/>
      <use x="684.087891" xlink:href="#DejaVuSans-32"/>
      <use x="715.875" xlink:href="#DejaVuSans-114"/>
      <use x="756.988281" xlink:href="#DejaVuSans-97"/>
      <use x="818.267578" xlink:href="#DejaVuSans-116"/>
      <use x="857.476562" xlink:href="#DejaVuSans-101"/>
     </g>
    </g>
   </g>
   <g id="matplotlib.axis_2">
    <g id="ytick_1">
     <g id="line2d_7">
      <defs>
       <path d="M 0 0 
L -3.5 0 
" id="mbc341ce6f5" style="stroke:#000000;stroke-width:0.8;"/>
      </defs>
      <g>
       <use style="stroke:#000000;stroke-width:0.8;" x="57.6" xlink:href="#mbc341ce6f5" y="307.584"/>
      </g>
     </g>
     <g id="text_8">
      <!-- 0.0 -->
      <g transform="translate(34.696875 311.383219)scale(0.1 -0.1)">
       <use xlink:href="#DejaVuSans-48"/>
       <use x="63.623047" xlink:href="#DejaVuSans-46"/>
       <use x="95.410156" xlink:href="#DejaVuSans-48"/>
      </g>
     </g>
    </g>
    <g id="ytick_2">
     <g id="line2d_8">
      <g>
       <use style="stroke:#000000;stroke-width:0.8;" x="57.6" xlink:href="#mbc341ce6f5" y="254.3616"/>
      </g>
     </g>
     <g id="text_9">
      <!-- 0.2 -->
      <g transform="translate(34.696875 258.160819)scale(0.1 -0.1)">
       <use xlink:href="#DejaVuSans-48"/>
       <use x="63.623047" xlink:href="#DejaVuSans-46"/>
       <use x="95.410156" xlink:href="#DejaVuSans-50"/>
      </g>
     </g>
    </g>
    <g id="ytick_3">
     <g id="line2d_9">
      <g>
       <use style="stroke:#000000;stroke-width:0.8;" x="57.6" xlink:href="#mbc341ce6f5" y="201.1392"/>
      </g>
     </g>
     <g id="text_10">
      <!-- 0.4 -->
      <g transform="translate(34.696875 204.938419)scale(0.1 -0.1)">
       <use xlink:href="#DejaVuSans-48"/>
       <use x="63.623047" xlink:href="#DejaVuSans-46"/>
       <use x="95.410156" xlink:href="#DejaVuSans-52"/>
      </g>
     </g>
    </g>
    <g id="ytick_4">
     <g id="line2d_10">
      <g>
       <use style="stroke:#000000;stroke-width:0.8;" x="57.6" xlink:href="#mbc341ce6f5" y="147.9168"/>
      </g>
     </g>
     <g id="text_11">
      <!-- 0.6 -->
      <g transform="translate(34.696875 151.716019)scale(0.1 -0.1)">
       <use xlink:href="#DejaVuSans-48"/>
       <use x="63.623047" xlink:href="#DejaVuSans-46"/>
       <use x="95.410156" xlink:href="#DejaVuSans-54"/>
      </g>
     </g>
    </g>
    <g id="ytick_5">
     <g id="line2d_11">
      <g>
       <use style="stroke:#000000;stroke-width:0.8;" x="57.6" xlink:href="#mbc341ce6f5" y="94.6944"/>
      </g>
     </g>
     <g id="text_12">
      <!-- 0.8 -->
      <g transform="translate(34.696875 98.493619)scale(0.1 -0.1)">
       <use xlink:href="#DejaVuSans-48"/>
       <use x="63.623047" xlink:href="#DejaVuSans-46"/>
       <use x="95.410156" xlink:href="#DejaVuSans-56"/>
      </g>
     </g>
    </g>
    <g id="ytick_6">
     <g id="line2d_12">
      <g>
       <use style="stroke:#000000;stroke-width:0.8;" x="57.6" xlink:href="#mbc341ce6f5" y="41.472"/>
      </g>
     </g>
     <g id="text_13">
      <!-- 1.0 -->
      <g transform="translate(34.696875 45.271219)scale(0.1 -0.1)">
       <use xlink:href="#DejaVuSans-49"/>
       <use x="63.623047" xlink:href="#DejaVuSans-46"/>
       <use x="95.410156" xlink:href="#DejaVuSans-48"/>
      </g>
     </g>
    </g>
    <g id="text_14">
     <!-- True positive rate -->
     <defs>
      <path d="M -0.296875 72.90625 
L 61.375 72.90625 
L 61.375 64.59375 
L 35.5 64.59375 
L 35.5 0 
L 25.59375 0 
L 25.59375 64.59375 
L -0.296875 64.59375 
z
" id="DejaVuSans-84"/>
      <path d="M 8.5 21.578125 
L 8.5 54.6875 
L 17.484375 54.6875 
L 17.484375 21.921875 
Q 17.484375 14.15625 20.5 10.265625 
Q 23.53125 6.390625 29.59375 6.390625 
Q 36.859375 6.390625 41.078125 11.03125 
Q 45.3125 15.671875 45.3125 23.6875 
L 45.3125 54.6875 
L 54.296875 54.6875 
L 54.296875 0 
L 45.3125 0 
L 45.3125 8.40625 
Q 42.046875 3.421875 37.71875 1 
Q 33.40625 -1.421875 27.6875 -1.421875 
Q 18.265625 -1.421875 13.375 4.4375 
Q 8.5 10.296875 8.5 21.578125 
z
M 31.109375 56 
z
" id="DejaVuSans-117"/>
     </defs>
     <g transform="translate(28.617187 218.818625)rotate(-90)scale(0.1 -0.1)">
      <use xlink:href="#DejaVuSans-84"/>
      <use x="60.865234" xlink:href="#DejaVuSans-114"/>
      <use x="101.978516" xlink:href="#DejaVuSans-117"/>
      <use x="165.357422" xlink:href="#DejaVuSans-101"/>
      <use x="226.880859" xlink:href="#DejaVuSans-32"/>
      <use x="258.667969" xlink:href="#DejaVuSans-112"/>
      <use x="322.144531" xlink:href="#DejaVuSans-111"/>
      <use x="383.326172" xlink:href="#DejaVuSans-115"/>
      <use x="435.425781" xlink:href="#DejaVuSans-105"/>
      <use x="463.208984" xlink:href="#DejaVuSans-116"/>
      <use x="502.417969" xlink:href="#DejaVuSans-105"/>
      <use x="530.201172" xlink:href="#DejaVuSans-118"/>
      <use x="589.380859" xlink:href="#DejaVuSans-101"/>
      <use x="650.904297" xlink:href="#DejaVuSans-32"/>
      <use x="682.691406" xlink:href="#DejaVuSans-114"/>
      <use x="723.804688" xlink:href="#DejaVuSans-97"/>
      <use x="785.083984" xlink:href="#DejaVuSans-116"/>
      <use x="824.292969" xlink:href="#DejaVuSans-101"/>
     </g>
    </g>
   </g>
   <g id="line2d_13">
    <path clip-path="url(#pa3e44f694f)" d="M 57.6 307.584 
L 57.702897 303.392455 
L 57.771494 303.366897 
L 57.874391 296.696206 
L 57.90869 296.696206 
L 58.011587 292.990267 
L 58.045886 292.990267 
L 58.148782 287.086322 
L 58.183081 287.086322 
L 58.285978 277.45088 
L 58.320277 277.45088 
L 58.423173 272.645938 
L 58.457472 272.645938 
L 58.560369 268.939998 
L 58.594668 268.939998 
L 58.697564 260.786932 
L 58.731863 260.786932 
L 58.731863 260.735816 
L 58.83476 257.949972 
L 58.869059 257.949972 
L 58.971955 256.953202 
L 59.006254 256.953202 
L 59.109151 252.940564 
L 59.14345 252.940564 
L 59.246347 244.991963 
L 59.280645 244.991963 
L 59.383542 243.228447 
L 59.417841 243.228447 
L 59.520738 239.113577 
L 59.555036 239.088018 
L 59.657933 232.800701 
L 59.692232 232.800701 
L 59.795129 227.280129 
L 59.829428 227.280129 
L 59.932324 223.829772 
L 59.966623 223.829772 
L 60.06952 217.31243 
L 60.103819 217.31243 
L 60.206715 212.124115 
L 60.275313 212.021882 
L 60.37821 207.165824 
L 60.412509 207.165824 
L 60.515405 202.948721 
L 60.549704 202.948721 
L 60.652601 200.137318 
L 60.6869 200.137318 
L 60.789796 196.329146 
L 60.824095 196.329146 
L 60.926992 191.958694 
L 60.961291 191.958694 
L 61.064187 189.581781 
L 61.098486 189.581781 
L 61.201383 186.770379 
L 61.235682 186.770379 
L 61.338579 183.192231 
L 61.372877 183.192231 
L 61.475774 179.716315 
L 61.510073 179.716315 
L 61.61297 177.876124 
L 61.647269 177.876124 
L 61.750165 175.396979 
L 61.784464 175.396979 
L 61.887361 171.742156 
L 61.92166 171.742156 
L 62.024556 169.646383 
L 62.058855 169.646383 
L 62.161752 167.243912 
L 62.23035 167.167238 
L 62.333246 165.557071 
L 62.367545 165.557071 
L 62.470442 164.279161 
L 62.53904 164.202486 
L 62.641936 160.905478 
L 62.676235 160.905478 
L 62.779132 159.346428 
L 62.813431 159.346428 
L 62.916327 155.844954 
L 62.950626 155.844954 
L 63.053523 154.030322 
L 63.122121 154.030322 
L 63.225017 152.394597 
L 63.259316 152.394597 
L 63.362213 150.247708 
L 63.430811 150.145475 
L 63.533707 148.407517 
L 63.568006 148.407517 
L 63.670903 145.2383 
L 63.705202 145.2383 
L 63.808098 143.755925 
L 63.842397 143.755925 
L 63.945294 142.452456 
L 64.013892 142.350224 
L 64.116788 141.148988 
L 64.151087 141.148988 
L 64.253984 139.973311 
L 64.288283 139.973311 
L 64.391179 138.976541 
L 64.425478 138.976541 
L 64.528375 136.957443 
L 64.562674 136.957443 
L 64.66557 133.762668 
L 64.699869 133.762668 
L 64.802766 131.283522 
L 64.837065 131.283522 
L 64.837065 131.181289 
L 64.939962 129.954496 
L 64.97426 129.954496 
L 65.077157 128.446562 
L 65.111456 128.446562 
L 65.214353 126.274114 
L 65.248652 126.274114 
L 65.351548 123.104897 
L 65.420146 123.104897 
L 65.523043 120.702426 
L 65.557342 120.702426 
L 65.660238 119.501191 
L 65.694537 119.501191 
L 65.797434 115.488553 
L 65.831733 115.488553 
L 65.934629 114.517342 
L 65.968928 114.517342 
L 66.037526 113.239431 
L 66.106124 113.239431 
L 66.20902 111.680381 
L 66.243319 111.680381 
L 66.346216 109.354585 
L 66.380515 109.354585 
L 66.483411 108.255582 
L 66.51771 108.255582 
L 66.620607 107.258812 
L 66.654906 107.258812 
L 66.757803 105.341947 
L 66.8264 105.290831 
L 66.929297 104.140711 
L 66.963596 104.140711 
L 67.066493 102.249405 
L 67.100791 102.249405 
L 67.203688 100.61368 
L 67.272286 100.61368 
L 67.375182 99.412444 
L 67.409481 99.412444 
L 67.512378 98.134534 
L 67.546677 98.134534 
L 67.649574 97.316672 
L 67.683872 97.316672 
L 67.786769 95.859854 
L 67.821068 95.859854 
L 67.923965 94.530828 
L 67.958264 94.530828 
L 68.06116 93.406267 
L 68.095459 93.406267 
L 68.164057 92.307264 
L 68.232655 92.307264 
L 68.335551 91.08047 
L 68.36985 91.08047 
L 68.472747 90.441515 
L 68.541345 90.364841 
L 68.644241 87.96237 
L 68.67854 87.96237 
L 68.781437 86.914483 
L 68.815736 86.914483 
L 68.918632 86.019946 
L 68.952931 86.019946 
L 69.055828 84.486454 
L 69.090127 84.486454 
L 69.193023 83.821941 
L 69.29592 83.796383 
L 69.398817 83.131869 
L 69.467415 83.080753 
L 69.570311 81.879517 
L 69.60461 81.879517 
L 69.707507 81.087213 
L 69.776104 80.98498 
L 69.844702 80.192676 
L 69.947599 80.116002 
L 70.050496 79.809303 
L 70.119093 79.783745 
L 70.22199 78.991441 
L 70.290588 78.914766 
L 70.393484 78.42916 
L 70.427783 78.42916 
L 70.53068 78.020229 
L 70.599278 77.943554 
L 70.702174 77.611298 
L 70.736473 77.611298 
L 70.83937 77.15125 
L 70.873669 77.15125 
L 70.976566 76.716761 
L 71.079462 76.614528 
L 71.14806 76.15448 
L 71.285255 76.103364 
L 71.388152 75.515525 
L 71.422451 75.515525 
L 71.525348 74.799896 
L 71.559647 74.799896 
L 71.662543 74.544313 
L 71.731141 74.442081 
L 71.834038 73.368636 
L 71.936934 73.343078 
L 72.005532 72.525216 
L 72.142728 72.422983 
L 72.245624 72.244075 
L 72.314222 72.167401 
L 72.417119 71.60512 
L 72.451418 71.60512 
L 72.554314 70.915049 
L 72.588613 70.915049 
L 72.69151 70.122745 
L 72.725809 70.122745 
L 72.828705 69.739371 
L 72.931602 69.688255 
L 73.0002 68.998184 
L 73.068798 68.998184 
L 73.137395 68.640369 
L 73.205993 68.640369 
L 73.274591 68.384787 
L 73.377488 68.282554 
L 73.480384 67.694715 
L 73.548982 67.643599 
L 73.651879 67.106877 
L 73.754775 67.004644 
L 73.857672 66.365689 
L 74.063465 66.365689 
L 74.166362 65.828967 
L 74.372155 65.752292 
L 74.475052 65.624501 
L 74.612247 65.573385 
L 74.715144 65.087779 
L 74.886638 65.062221 
L 74.955236 64.653289 
L 75.16103 64.602173 
L 75.263926 64.269916 
L 75.401122 64.167683 
L 75.504018 63.988776 
L 75.538317 63.988776 
L 75.641214 63.426496 
L 75.709812 63.375379 
L 75.744111 63.22203 
L 76.0871 63.119797 
L 76.189996 62.65975 
L 76.224295 62.65975 
L 76.292893 62.5064 
L 76.532985 62.429726 
L 76.635882 62.250818 
L 76.670181 62.250818 
L 76.773077 61.739654 
L 77.013169 61.637421 
L 77.116066 61.484072 
L 77.218963 61.432956 
L 77.287561 61.254048 
L 77.390457 61.177374 
L 77.493354 60.972908 
L 77.527653 60.972908 
L 77.630549 60.38507 
L 77.802044 60.308395 
L 77.836343 60.155046 
L 78.007837 60.078371 
L 78.110734 59.771673 
L 78.316527 59.66944 
L 78.419424 59.516091 
L 78.625217 59.439416 
L 78.625217 59.362741 
L 78.899608 59.286067 
L 78.899608 59.209392 
L 79.276896 59.107159 
L 79.379793 59.030485 
L 79.516988 58.979368 
L 79.619885 58.723786 
L 79.791379 58.67267 
L 79.894276 58.39153 
L 80.031471 58.289297 
L 80.134368 58.212622 
L 80.854645 58.11039 
L 80.923242 57.95704 
L 81.060438 57.880366 
L 81.129036 57.752575 
L 81.472025 57.650342 
L 81.574921 57.599226 
L 81.60922 57.599226 
L 81.712117 57.39476 
L 82.055106 57.292527 
L 82.123703 57.164736 
L 82.329497 57.088061 
L 82.432393 56.96027 
L 82.706784 56.883596 
L 82.775382 56.755805 
L 82.981176 56.67913 
L 83.084072 56.551339 
L 83.221268 56.474665 
L 83.255567 56.372432 
L 83.392762 56.270199 
L 83.495659 56.091292 
L 83.804349 55.989059 
L 83.804349 55.912384 
L 84.147338 55.810151 
L 84.250234 55.707919 
L 84.421729 55.656802 
L 84.490327 55.375662 
L 84.69612 55.324546 
L 84.730419 55.171196 
L 85.00481 55.068964 
L 85.073408 54.966731 
L 85.62219 54.864498 
L 85.62219 54.83894 
L 85.793684 54.762265 
L 85.793684 54.711149 
L 86.513961 54.608916 
L 86.616857 54.430008 
L 87.199939 54.327776 
L 87.302835 54.174426 
L 87.577226 54.072194 
L 87.680123 53.918844 
L 88.09171 53.816612 
L 88.09171 53.739937 
L 88.640492 53.637704 
L 88.70909 53.586588 
L 88.949182 53.56103 
L 89.052078 53.331006 
L 89.360768 53.254331 
L 89.395067 53.177657 
L 89.978148 53.100982 
L 89.978148 53.049866 
L 90.252539 52.947633 
L 90.252539 52.896516 
L 90.629827 52.819842 
L 90.664126 52.743167 
L 91.041414 52.640934 
L 91.14431 52.538701 
L 91.795989 52.436469 
L 91.864587 52.385352 
L 92.68776 52.283119 
L 92.68776 52.257561 
L 92.927852 52.180887 
L 92.99645 52.104212 
L 93.167945 52.027537 
L 93.270841 51.899746 
L 93.888221 51.797514 
L 93.991118 51.669723 
L 94.196911 51.593048 
L 94.299808 51.465257 
L 94.574199 51.388582 
L 94.574199 51.337466 
L 95.088682 51.235233 
L 95.191579 51.056326 
L 95.980453 50.954093 
L 96.08335 50.902977 
L 96.460638 50.800744 
L 96.494937 50.698511 
L 97.043719 50.621836 
L 97.043719 50.545162 
L 97.283811 50.442929 
L 97.283811 50.391813 
L 97.969789 50.28958 
L 98.038386 50.212905 
L 98.621468 50.110672 
L 98.621468 50.085114 
L 99.273146 49.982881 
L 99.307445 49.906207 
L 99.959124 49.803974 
L 100.062021 49.727299 
L 100.507906 49.625066 
L 100.576504 49.548392 
L 101.193884 49.471717 
L 101.193884 49.395043 
L 102.119954 49.29281 
L 102.222851 49.190577 
L 104.109289 49.088344 
L 104.177887 49.037228 
L 104.69237 48.934995 
L 104.795267 48.781646 
L 105.824234 48.679413 
L 105.892831 48.628297 
L 107.333385 48.526064 
L 107.367683 48.474947 
L 108.225156 48.372715 
L 108.225156 48.347156 
L 108.876834 48.244924 
L 108.876834 48.219365 
L 110.317388 48.117133 
L 110.317388 48.091574 
L 110.728974 48.066016 
L 110.728974 47.963783 
L 111.140561 47.887109 
L 111.140561 47.810434 
L 111.998033 47.708201 
L 111.998033 47.682643 
L 112.615413 47.58041 
L 112.615413 47.554852 
L 113.610081 47.452619 
L 113.610081 47.427061 
L 115.668014 47.324828 
L 115.702313 47.248154 
L 117.245763 47.145921 
L 117.31436 47.094804 
L 118.789212 46.992572 
L 118.789212 46.967013 
L 120.40126 46.864781 
L 120.435559 46.788106 
L 122.767883 46.685873 
L 122.767883 46.660315 
L 125.889082 46.558082 
L 125.889082 46.532524 
L 127.501129 46.430291 
L 127.501129 46.404733 
L 129.902051 46.3025 
L 129.902051 46.276942 
L 132.645962 46.174709 
L 132.645962 46.149151 
L 134.703896 46.046918 
L 134.772493 45.995802 
L 136.590334 45.893569 
L 136.693231 45.842453 
L 138.613968 45.765778 
L 138.613968 45.714662 
L 140.774798 45.612429 
L 140.774798 45.586871 
L 142.318248 45.484638 
L 142.318248 45.45908 
L 145.267952 45.356847 
L 145.267952 45.331289 
L 147.600277 45.229056 
L 147.600277 45.203498 
L 150.58428 45.101265 
L 150.618579 45.050148 
L 154.25426 44.947915 
L 154.25426 44.922357 
L 157.581252 44.820124 
L 157.581252 44.794566 
L 161.182635 44.692333 
L 161.182635 44.666775 
L 166.807653 44.564542 
L 166.807653 44.538984 
L 171.5066 44.436751 
L 171.5066 44.411193 
L 173.495935 44.30896 
L 173.495935 44.283402 
L 179.909827 44.181169 
L 179.909827 44.155611 
L 185.98073 44.053378 
L 185.98073 44.02782 
L 189.204825 43.925587 
L 189.204825 43.900029 
L 210.092847 43.797796 
L 210.092847 43.772238 
L 222.097457 43.670005 
L 222.097457 43.644447 
L 225.973231 43.542214 
L 226.00753 43.491098 
L 229.986201 43.388865 
L 229.986201 43.363307 
L 239.761383 43.261074 
L 239.761383 43.235516 
L 249.296473 43.133283 
L 249.296473 43.107725 
L 268.77824 43.005492 
L 268.77824 42.979934 
L 281.503127 42.877701 
L 281.503127 42.852143 
L 290.901022 42.74991 
L 290.901022 42.724352 
L 296.148751 42.622119 
L 296.148751 42.596561 
L 308.839339 42.494328 
L 308.839339 42.46877 
L 323.759355 42.366537 
L 323.759355 42.340979 
L 337.44461 42.238746 
L 337.44461 42.213188 
L 350.615382 42.110955 
L 350.615382 42.085397 
L 362.585693 41.983164 
L 362.585693 41.957606 
L 371.29761 41.855373 
L 371.366208 41.804257 
L 385.497349 41.702024 
L 385.497349 41.676466 
L 406.41967 41.574233 
L 406.41967 41.548675 
L 414.72 41.472 
L 414.72 41.472 
" style="fill:none;stroke:#ff0000;stroke-linecap:square;stroke-width:1.5;"/>
   </g>
   <g id="line2d_14">
    <path clip-path="url(#pa3e44f694f)" d="M 57.6 307.584 
L 57.702897 300.811076 
L 57.737196 300.811076 
L 57.840092 289.182095 
L 57.874391 289.182095 
L 57.977288 284.249362 
L 58.011587 284.223803 
L 58.114483 275.891829 
L 58.148782 275.891829 
L 58.251679 270.90798 
L 58.285978 270.90798 
L 58.388874 265.310734 
L 58.423173 265.310734 
L 58.52607 258.512252 
L 58.560369 258.512252 
L 58.663265 251.202606 
L 58.697564 251.202606 
L 58.800461 248.007831 
L 58.83476 248.007831 
L 58.937657 244.301892 
L 58.971955 244.301892 
L 59.074852 241.33714 
L 59.109151 241.33714 
L 59.212048 236.941129 
L 59.280645 236.864455 
L 59.383542 234.692008 
L 59.417841 234.692008 
L 59.520738 230.67937 
L 59.555036 230.67937 
L 59.657933 227.791293 
L 59.726531 227.791293 
L 59.829428 222.730769 
L 59.863726 222.730769 
L 59.863726 222.654095 
L 59.966623 219.689343 
L 60.000922 219.689343 
L 60.103819 216.903499 
L 60.138118 216.903499 
L 60.241014 215.421123 
L 60.275313 215.421123 
L 60.37821 211.7663 
L 60.412509 211.7663 
L 60.515405 209.721644 
L 60.549704 209.721644 
L 60.652601 207.319173 
L 60.6869 207.319173 
L 60.789796 205.581216 
L 60.824095 205.581216 
L 60.926992 203.511001 
L 60.961291 203.511001 
L 61.064187 200.750715 
L 61.098486 200.750715 
L 61.201383 198.450477 
L 61.235682 198.450477 
L 61.30428 197.504824 
L 61.407176 197.402591 
L 61.510073 194.897887 
L 61.544372 194.897887 
L 61.647269 193.057697 
L 61.681567 193.057697 
L 61.784464 192.112043 
L 61.853062 192.035368 
L 61.955959 190.297411 
L 61.990257 190.297411 
L 62.093154 185.390236 
L 62.127453 185.390236 
L 62.23035 183.703395 
L 62.264648 183.703395 
L 62.367545 182.093228 
L 62.401844 182.093228 
L 62.504741 175.908143 
L 62.53904 175.908143 
L 62.607637 173.556788 
L 62.710534 173.454556 
L 62.813431 172.636693 
L 62.84773 172.636693 
L 62.950626 170.873177 
L 62.984925 170.873177 
L 63.087822 168.854079 
L 63.122121 168.854079 
L 63.225017 167.499494 
L 63.293615 167.448378 
L 63.396512 164.125812 
L 63.465109 164.074695 
L 63.568006 161.851132 
L 63.602305 161.851132 
L 63.670903 160.547663 
L 63.773799 160.547663 
L 63.876696 157.685145 
L 63.910995 157.685145 
L 64.013892 153.34025 
L 64.082489 153.314692 
L 64.185386 147.794121 
L 64.219685 147.794121 
L 64.322582 144.829369 
L 64.356881 144.829369 
L 64.459777 142.810271 
L 64.494076 142.810271 
L 64.596973 139.819962 
L 64.631272 139.819962 
L 64.734168 136.57407 
L 64.768467 136.57407 
L 64.871364 133.404853 
L 64.905663 133.404853 
L 65.008559 131.948035 
L 65.077157 131.948035 
L 65.180054 131.334638 
L 65.214353 131.334638 
L 65.28295 130.772358 
L 65.351548 130.772358 
L 65.454445 129.520006 
L 65.488744 129.520006 
L 65.59164 127.679816 
L 65.625939 127.679816 
L 65.728836 125.584043 
L 65.763135 125.584043 
L 65.866032 122.005895 
L 65.90033 122.005895 
L 66.003227 120.37017 
L 66.037526 120.37017 
L 66.037526 120.293495 
L 66.140423 119.450075 
L 66.174721 119.450075 
L 66.277618 118.018815 
L 66.311917 118.018815 
L 66.414814 116.510881 
L 66.449113 116.510881 
L 66.51771 115.82081 
L 66.586308 115.82081 
L 66.689205 115.360762 
L 66.723504 115.360762 
L 66.8264 115.028506 
L 66.860699 115.028506 
L 66.963596 113.571688 
L 66.997895 113.571688 
L 67.100791 111.935963 
L 67.13509 111.935963 
L 67.237987 109.891307 
L 67.272286 109.891307 
L 67.375182 108.843421 
L 67.44378 108.741188 
L 67.512378 107.258812 
L 67.580976 107.258812 
L 67.683872 106.236484 
L 67.718171 106.236484 
L 67.821068 104.626317 
L 67.855367 104.626317 
L 67.958264 103.322849 
L 67.992562 103.322849 
L 68.095459 101.022611 
L 68.129758 101.022611 
L 68.232655 100.741471 
L 68.335551 100.741471 
L 68.438448 98.799047 
L 68.507046 98.722373 
L 68.609942 97.751161 
L 68.67854 97.674486 
L 68.747138 97.214439 
L 68.815736 97.214439 
L 68.918632 95.885412 
L 68.952931 95.885412 
L 69.055828 95.041992 
L 69.124426 94.939759 
L 69.227322 94.147454 
L 69.29592 94.096338 
L 69.398817 91.566076 
L 69.467415 91.51496 
L 69.570311 90.569306 
L 69.638909 90.467073 
L 69.741806 89.955909 
L 69.776104 89.955909 
L 69.879001 88.729116 
L 69.947599 88.626883 
L 70.050496 87.987928 
L 70.084794 87.987928 
L 70.187691 87.272298 
L 70.290588 87.170065 
L 70.393484 86.53111 
L 70.462082 86.454436 
L 70.564979 85.355433 
L 70.633577 85.329875 
L 70.736473 84.563129 
L 70.770772 84.563129 
L 70.873669 83.004078 
L 70.976566 82.901846 
L 71.079462 82.441798 
L 71.182359 82.390682 
L 71.285255 81.598377 
L 71.319554 81.598377 
L 71.422451 80.14156 
L 71.45675 80.14156 
L 71.559647 79.221464 
L 71.593945 79.221464 
L 71.662543 78.403602 
L 71.76544 78.352486 
L 71.868337 77.687972 
L 71.936934 77.636856 
L 72.005532 77.049017 
L 72.108429 77.023459 
L 72.211325 76.43562 
L 72.245624 76.43562 
L 72.348521 75.208827 
L 72.417119 75.15771 
L 72.520015 74.544313 
L 72.554314 74.544313 
L 72.657211 73.700893 
L 72.760108 73.59866 
L 72.828705 72.985263 
L 72.897303 72.985263 
L 73.0002 72.346308 
L 73.068798 72.346308 
L 73.171694 71.962935 
L 73.240292 71.911819 
L 73.343189 71.681795 
L 73.377488 71.681795 
L 73.446085 71.017282 
L 73.548982 70.915049 
L 73.651879 70.710583 
L 73.754775 70.659467 
L 73.857672 70.403885 
L 73.960569 70.378327 
L 74.063465 69.994954 
L 74.097764 69.994954 
L 74.200661 69.61158 
L 74.337856 69.509348 
L 74.440753 68.691485 
L 74.509351 68.691485 
L 74.612247 68.282554 
L 74.85234 68.231438 
L 74.920937 67.899181 
L 74.989535 67.899181 
L 75.092432 67.132435 
L 75.126731 67.132435 
L 75.229627 66.570154 
L 75.298225 66.467922 
L 75.401122 66.237898 
L 75.46972 66.161223 
L 75.572616 65.343361 
L 75.709812 65.266686 
L 75.812708 64.755522 
L 75.949904 64.678847 
L 76.052801 64.525498 
L 76.155697 64.448824 
L 76.224295 64.372149 
L 76.361491 64.321033 
L 76.395789 64.142125 
L 76.567284 64.065451 
L 76.635882 63.886543 
L 76.841675 63.835427 
L 76.944572 63.452054 
L 76.978871 63.452054 
L 77.081767 62.736424 
L 77.184664 62.710866 
L 77.287561 62.276376 
L 77.493354 62.174144 
L 77.59625 62.046353 
L 77.699147 61.969678 
L 77.767745 61.790771 
L 77.939239 61.714096 
L 78.042136 61.50963 
L 78.21363 61.407398 
L 78.282228 61.22849 
L 78.419424 61.151816 
L 78.488022 60.845117 
L 78.556619 60.845117 
L 78.659516 60.461744 
L 78.762413 60.38507 
L 78.83101 60.206162 
L 78.899608 60.206162 
L 78.933907 60.001697 
L 79.105401 59.976138 
L 79.208298 59.439416 
L 79.345494 59.362741 
L 79.414091 59.286067 
L 79.585586 59.183834 
L 79.654184 58.928252 
L 79.825678 58.928252 
L 79.825678 58.749345 
L 80.134368 58.647112 
L 80.237265 58.442646 
L 80.443058 58.340413 
L 80.545955 58.11039 
L 80.717449 58.084831 
L 80.820346 57.880366 
L 81.094737 57.778133 
L 81.129036 57.624784 
L 81.437726 57.548109 
L 81.540622 57.369202 
L 81.677818 57.266969 
L 81.746416 57.215852 
L 81.952209 57.139178 
L 81.952209 57.088061 
L 82.089405 57.088061 
L 82.192301 56.781363 
L 82.466692 56.704688 
L 82.500991 56.628014 
L 82.981176 56.551339 
L 83.084072 56.423548 
L 83.255567 56.321315 
L 83.358463 56.014617 
L 83.46136 55.963501 
L 83.529958 55.810151 
L 83.735751 55.707919 
L 83.838648 55.631244 
L 83.975843 55.529011 
L 84.044441 55.426778 
L 84.250234 55.324546 
L 84.250234 55.247871 
L 84.490327 55.196755 
L 84.558924 55.068964 
L 84.799017 54.992289 
L 84.833315 54.890056 
L 85.347799 54.83894 
L 85.382098 54.608916 
L 85.793684 54.532241 
L 85.827983 54.455567 
L 86.170972 54.353334 
L 86.273869 54.097752 
L 86.445363 54.021077 
L 86.54826 53.893286 
L 86.754053 53.816612 
L 86.754053 53.765495 
L 86.994145 53.688821 
L 87.097042 53.56103 
L 87.302835 53.484355 
L 87.302835 53.433239 
L 87.645824 53.331006 
L 87.714422 53.279889 
L 87.920215 53.177657 
L 87.954514 53.100982 
L 88.228905 52.998749 
L 88.331802 52.8454 
L 88.571894 52.743167 
L 88.640492 52.692051 
L 88.983481 52.589818 
L 89.086377 52.513143 
L 89.532263 52.41091 
L 89.600861 52.283119 
L 89.978148 52.180887 
L 89.978148 52.155328 
L 90.561229 52.078654 
L 90.664126 51.976421 
L 90.972816 51.874188 
L 91.075713 51.771955 
L 91.212908 51.771955 
L 91.315805 51.593048 
L 91.967484 51.490815 
L 92.036081 51.439699 
L 92.310473 51.337466 
L 92.310473 51.28635 
L 92.927852 51.184117 
L 93.030749 51.107442 
L 93.442336 51.005209 
L 93.510934 50.902977 
L 93.751026 50.826302 
L 93.853922 50.698511 
L 94.23121 50.621836 
L 94.265509 50.545162 
L 94.437003 50.468487 
L 94.437003 50.417371 
L 95.020085 50.366254 
L 95.054383 50.264022 
L 95.77466 50.187347 
L 95.77466 50.110672 
L 96.529235 50.008439 
L 96.597833 49.931765 
L 97.043719 49.85509 
L 97.043719 49.803974 
L 98.381375 49.701741 
L 98.415674 49.625066 
L 99.273146 49.522834 
L 99.376043 49.343926 
L 100.919493 49.241693 
L 101.02239 49.190577 
L 101.262482 49.113902 
L 101.262482 49.062786 
L 101.536873 49.062786 
L 101.605471 48.909437 
L 102.119954 48.807204 
L 102.119954 48.781646 
L 102.977426 48.679413 
L 102.977426 48.628297 
L 104.006393 48.57718 
L 104.109289 48.474947 
L 105.378348 48.372715 
L 105.378348 48.321598 
L 106.304418 48.219365 
L 106.304418 48.193807 
L 107.196189 48.091574 
L 107.196189 48.066016 
L 108.019362 47.963783 
L 108.019362 47.938225 
L 109.288421 47.835992 
L 109.288421 47.810434 
L 110.24879 47.708201 
L 110.24879 47.682643 
L 111.277756 47.58041 
L 111.277756 47.554852 
L 111.79224 47.452619 
L 111.860837 47.401503 
L 112.889804 47.29927 
L 112.889804 47.273712 
L 113.95307 47.171479 
L 113.95307 47.120363 
L 114.947737 47.01813 
L 114.947737 46.967013 
L 117.588751 46.864781 
L 117.62305 46.788106 
L 119.235098 46.685873 
L 119.235098 46.660315 
L 122.802182 46.558082 
L 122.802182 46.532524 
L 124.551425 46.430291 
L 124.551425 46.404733 
L 125.203104 46.3025 
L 125.203104 46.276942 
L 127.055244 46.174709 
L 127.055244 46.149151 
L 128.632993 46.046918 
L 128.735889 45.995802 
L 131.136811 45.893569 
L 131.136811 45.868011 
L 132.920353 45.765778 
L 133.02325 45.714662 
L 136.41884 45.612429 
L 136.41884 45.586871 
L 139.437142 45.484638 
L 139.437142 45.45908 
L 141.700868 45.356847 
L 141.769466 45.30573 
L 143.141421 45.203498 
L 143.141421 45.177939 
L 146.022528 45.075706 
L 146.022528 45.050148 
L 148.526347 44.947915 
L 148.526347 44.922357 
L 153.019501 44.820124 
L 153.019501 44.794566 
L 156.003504 44.692333 
L 156.003504 44.666775 
L 159.536289 44.564542 
L 159.536289 44.538984 
L 163.377764 44.46231 
L 163.377764 44.411193 
L 171.780991 44.30896 
L 171.780991 44.283402 
L 178.812263 44.181169 
L 178.812263 44.155611 
L 182.790934 44.053378 
L 182.790934 44.02782 
L 188.896135 43.925587 
L 188.896135 43.900029 
L 203.576058 43.797796 
L 203.576058 43.772238 
L 216.712532 43.670005 
L 216.712532 43.644447 
L 220.211018 43.542214 
L 220.211018 43.516656 
L 223.435113 43.414423 
L 223.435113 43.388865 
L 233.107399 43.286632 
L 233.107399 43.261074 
L 240.927545 43.158841 
L 240.927545 43.133283 
L 249.776658 43.03105 
L 249.776658 43.005492 
L 253.549535 42.903259 
L 253.549535 42.877701 
L 265.588444 42.775468 
L 265.588444 42.74991 
L 271.350657 42.647677 
L 271.350657 42.622119 
L 283.595359 42.519886 
L 283.595359 42.494328 
L 293.782128 42.392095 
L 293.782128 42.366537 
L 297.212017 42.264304 
L 297.212017 42.238746 
L 312.303527 42.136513 
L 312.303527 42.110955 
L 332.436973 42.008722 
L 332.436973 41.983164 
L 359.327299 41.880931 
L 359.361598 41.829815 
L 377.574307 41.727582 
L 377.574307 41.702024 
L 386.526316 41.599791 
L 386.526316 41.574233 
L 414.72 41.472 
L 414.72 41.472 
" style="fill:none;stroke:#008000;stroke-linecap:square;stroke-width:1.5;"/>
   </g>
   <g id="patch_3">
    <path d="M 57.6 307.584 
L 57.6 41.472 
" style="fill:none;stroke:#000000;stroke-linecap:square;stroke-linejoin:miter;stroke-width:0.8;"/>
   </g>
   <g id="patch_4">
    <path d="M 414.72 307.584 
L 414.72 41.472 
" style="fill:none;stroke:#000000;stroke-linecap:square;stroke-linejoin:miter;stroke-width:0.8;"/>
   </g>
   <g id="patch_5">
    <path d="M 57.6 307.584 
L 414.72 307.584 
" style="fill:none;stroke:#000000;stroke-linecap:square;stroke-linejoin:miter;stroke-width:0.8;"/>
   </g>
   <g id="patch_6">
    <path d="M 57.6 41.472 
L 414.72 41.472 
" style="fill:none;stroke:#000000;stroke-linecap:square;stroke-linejoin:miter;stroke-width:0.8;"/>
   </g>
   <g id="legend_1">
    <g id="patch_7">
     <path d="M 309.155937 78.82825 
L 407.72 78.82825 
Q 409.72 78.82825 409.72 76.82825 
L 409.72 48.472 
Q 409.72 46.472 407.72 46.472 
L 309.155937 46.472 
Q 307.155937 46.472 307.155937 48.472 
L 307.155937 76.82825 
Q 307.155937 78.82825 309.155937 78.82825 
z
" style="fill:#ffffff;opacity:0.8;stroke:#cccccc;stroke-linejoin:miter;"/>
    </g>
    <g id="line2d_15">
     <path d="M 311.155937 54.570437 
L 331.155937 54.570437 
" style="fill:none;stroke:#ff0000;stroke-linecap:square;stroke-width:1.5;"/>
    </g>
    <g id="line2d_16"/>
    <g id="text_15">
     <!-- with kmer -->
     <defs>
      <path d="M 4.203125 54.6875 
L 13.1875 54.6875 
L 24.421875 12.015625 
L 35.59375 54.6875 
L 46.1875 54.6875 
L 57.421875 12.015625 
L 68.609375 54.6875 
L 77.59375 54.6875 
L 63.28125 0 
L 52.6875 0 
L 40.921875 44.828125 
L 29.109375 0 
L 18.5 0 
z
" id="DejaVuSans-119"/>
      <path d="M 54.890625 33.015625 
L 54.890625 0 
L 45.90625 0 
L 45.90625 32.71875 
Q 45.90625 40.484375 42.875 44.328125 
Q 39.84375 48.1875 33.796875 48.1875 
Q 26.515625 48.1875 22.3125 43.546875 
Q 18.109375 38.921875 18.109375 30.90625 
L 18.109375 0 
L 9.078125 0 
L 9.078125 75.984375 
L 18.109375 75.984375 
L 18.109375 46.1875 
Q 21.34375 51.125 25.703125 53.5625 
Q 30.078125 56 35.796875 56 
Q 45.21875 56 50.046875 50.171875 
Q 54.890625 44.34375 54.890625 33.015625 
z
" id="DejaVuSans-104"/>
      <path d="M 9.078125 75.984375 
L 18.109375 75.984375 
L 18.109375 31.109375 
L 44.921875 54.6875 
L 56.390625 54.6875 
L 27.390625 29.109375 
L 57.625 0 
L 45.90625 0 
L 18.109375 26.703125 
L 18.109375 0 
L 9.078125 0 
z
" id="DejaVuSans-107"/>
      <path d="M 52 44.1875 
Q 55.375 50.25 60.0625 53.125 
Q 64.75 56 71.09375 56 
Q 79.640625 56 84.28125 50.015625 
Q 88.921875 44.046875 88.921875 33.015625 
L 88.921875 0 
L 79.890625 0 
L 79.890625 32.71875 
Q 79.890625 40.578125 77.09375 44.375 
Q 74.3125 48.1875 68.609375 48.1875 
Q 61.625 48.1875 57.5625 43.546875 
Q 53.515625 38.921875 53.515625 30.90625 
L 53.515625 0 
L 44.484375 0 
L 44.484375 32.71875 
Q 44.484375 40.625 41.703125 44.40625 
Q 38.921875 48.1875 33.109375 48.1875 
Q 26.21875 48.1875 22.15625 43.53125 
Q 18.109375 38.875 18.109375 30.90625 
L 18.109375 0 
L 9.078125 0 
L 9.078125 54.6875 
L 18.109375 54.6875 
L 18.109375 46.1875 
Q 21.1875 51.21875 25.484375 53.609375 
Q 29.78125 56 35.6875 56 
Q 41.65625 56 45.828125 52.96875 
Q 50 49.953125 52 44.1875 
z
" id="DejaVuSans-109"/>
     </defs>
     <g transform="translate(339.155937 58.070437)scale(0.1 -0.1)">
      <use xlink:href="#DejaVuSans-119"/>
      <use x="81.787109" xlink:href="#DejaVuSans-105"/>
      <use x="109.570312" xlink:href="#DejaVuSans-116"/>
      <use x="148.779297" xlink:href="#DejaVuSans-104"/>
      <use x="212.158203" xlink:href="#DejaVuSans-32"/>
      <use x="243.945312" xlink:href="#DejaVuSans-107"/>
      <use x="301.855469" xlink:href="#DejaVuSans-109"/>
      <use x="399.267578" xlink:href="#DejaVuSans-101"/>
      <use x="460.791016" xlink:href="#DejaVuSans-114"/>
     </g>
    </g>
    <g id="line2d_17">
     <path d="M 311.155937 69.248562 
L 331.155937 69.248562 
" style="fill:none;stroke:#008000;stroke-linecap:square;stroke-width:1.5;"/>
    </g>
    <g id="line2d_18"/>
    <g id="text_16">
     <!-- without kmer -->
     <g transform="translate(339.155937 72.748562)scale(0.1 -0.1)">
      <use xlink:href="#DejaVuSans-119"/>
      <use x="81.787109" xlink:href="#DejaVuSans-105"/>
      <use x="109.570312" xlink:href="#DejaVuSans-116"/>
      <use x="148.779297" xlink:href="#DejaVuSans-104"/>
      <use x="212.158203" xlink:href="#DejaVuSans-111"/>
      <use x="273.339844" xlink:href="#DejaVuSans-117"/>
      <use x="336.71875" xlink:href="#DejaVuSans-116"/>
      <use x="375.927734" xlink:href="#DejaVuSans-32"/>
      <use x="407.714844" xlink:href="#DejaVuSans-107"/>
      <use x="465.625" xlink:href="#DejaVuSans-109"/>
      <use x="563.037109" xlink:href="#DejaVuSans-101"/>
      <use x="624.560547" xlink:href="#DejaVuSans-114"/>
     </g>
    </g>
   </g>
  </g>
 </g>
 <defs>
  <clipPath id="pa3e44f694f">
   <rect height="266.112" width="357.12" x="57.6" y="41.472"/>
  </clipPath>
 </defs>
</svg>
